M48
; DRILL file {KiCad (7.0.0)} date Mon Apr 24 10:56:18 2023
; FORMAT={-:-/ absolute / metric / decimal}
; #@! TF.CreationDate,2023-04-24T10:56:18-06:00
; #@! TF.GenerationSoftware,Kicad,Pcbnew,(7.0.0)
; #@! TF.FileFunction,Plated,1,2,PTH
FMAT,2
METRIC
; #@! TA.AperFunction,Plated,PTH,ViaDrill
T1C0.400
; #@! TA.AperFunction,Plated,PTH,ComponentDrill
T2C1.000
%
G90
G05
T1
X184.0Y-122.0
X185.25Y-71.0
X185.25Y-77.25
X189.0Y-115.0
X195.0Y-104.75
X196.0Y-119.75
X197.0Y-112.75
X198.75Y-117.059
X199.25Y-115.25
X200.0Y-120.0
X202.25Y-113.0
X202.5Y-114.5
X203.5Y-110.25
X204.5Y-112.75
X205.625Y-108.125
X205.731Y-119.769
X206.0Y-121.75
X206.629Y-80.621
X207.0Y-105.5
X208.5Y-108.5
X208.75Y-114.75
X209.25Y-125.5
X209.5Y-116.75
X210.75Y-111.1
X211.0Y-104.75
X211.75Y-116.25
X212.0Y-113.25
X212.25Y-125.75
X212.5Y-109.5
X213.0Y-84.75
X213.0Y-116.5
X213.25Y-100.25
X214.254Y-116.496
X214.397Y-90.0
X214.397Y-97.0
X214.397Y-101.25
X214.489Y-85.0
X214.5Y-80.5
X215.25Y-115.5
X215.75Y-108.5
X215.799Y-100.299
X215.799Y-101.5
X215.879Y-118.121
X216.371Y-116.629
X216.5Y-111.0
X216.744Y-125.501
X217.0Y-90.75
X217.24Y-117.24
X217.629Y-106.871
X217.707Y-92.707
X217.719Y-125.281
X217.803Y-94.577
X217.929Y-87.321
X218.504Y-96.75
X218.546Y-85.954
X218.746Y-106.004
X219.0Y-124.0
X219.5Y-110.5
X219.707Y-90.707
X220.0Y-112.25
X220.25Y-104.75
X220.705Y-100.705
X220.75Y-109.301
X220.75Y-124.799
X221.0Y-93.101
X221.0Y-121.5
X221.073Y-91.323
X221.222Y-107.75
X221.655Y-95.655
X221.999Y-93.111
X222.0Y-102.75
X222.0Y-116.0
X222.25Y-101.25
X222.75Y-98.0
X222.75Y-99.651
X223.0Y-123.0
X223.049Y-120.25
X223.75Y-104.0
X223.75Y-109.301
X224.0Y-119.75
X224.25Y-95.0
X224.287Y-102.299
X224.75Y-122.0
X225.0Y-103.0
X225.25Y-107.5
X225.25Y-112.0
X225.5Y-120.75
X225.859Y-119.79
X226.75Y-107.25
X227.0Y-91.5
X227.095Y-111.655
X227.5Y-92.5
X227.75Y-87.75
X227.75Y-115.747
X228.5Y-81.487
X229.06Y-123.75
X229.25Y-107.0
X229.463Y-87.287
X230.0Y-98.249
X230.0Y-99.651
X230.5Y-118.25
X231.0Y-124.25
X231.062Y-91.438
X231.062Y-91.438
X231.25Y-114.5
X231.5Y-98.249
X231.5Y-99.651
X232.0Y-103.75
X232.5Y-105.0
X232.75Y-97.25
X232.799Y-99.0
X232.799Y-101.0
X233.0Y-116.451
X234.0Y-106.75
X234.25Y-98.25
X235.25Y-114.75
X235.75Y-97.75
X236.451Y-101.0
X237.049Y-83.121
X237.75Y-101.25
X238.976Y-81.274
X241.0Y-110.5
X241.549Y-96.0
X242.0Y-119.5
X242.0Y-124.0
X242.0Y-125.049
X242.049Y-115.75
X243.451Y-110.5
X244.0Y-87.5
X244.854Y-93.0
X244.854Y-115.75
X244.854Y-119.75
X245.25Y-124.25
X245.5Y-126.0
X248.75Y-80.0
X257.484Y-124.516
X259.25Y-123.75
X264.0Y-92.0
T2
X210.21Y-118.67
X210.21Y-121.21
X210.21Y-123.75
X212.3Y-68.0
X212.3Y-83.24
X212.75Y-118.67
X212.75Y-121.21
X212.75Y-123.75
X214.84Y-68.0
X214.84Y-83.24
X217.38Y-68.0
X217.38Y-83.24
X219.92Y-68.0
X219.92Y-83.24
X222.46Y-68.0
X222.46Y-83.24
X225.0Y-68.0
X225.0Y-83.24
X250.4Y-71.0
X258.0Y-71.0
X260.96Y-114.92
X260.96Y-117.46
X260.96Y-120.0
X260.96Y-122.54
X263.5Y-114.92
X263.5Y-117.46
X263.5Y-120.0
X263.5Y-122.54
T0
M30
