%TF.GenerationSoftware,KiCad,Pcbnew,(7.0.0)*%
%TF.CreationDate,2023-04-24T10:23:05-06:00*%
%TF.ProjectId,Phase_B_Prototype,50686173-655f-4425-9f50-726f746f7479,rev?*%
%TF.SameCoordinates,Original*%
%TF.FileFunction,Paste,Top*%
%TF.FilePolarity,Positive*%
%FSLAX46Y46*%
G04 Gerber Fmt 4.6, Leading zero omitted, Abs format (unit mm)*
G04 Created by KiCad (PCBNEW (7.0.0)) date 2023-04-24 10:23:05*
%MOMM*%
%LPD*%
G01*
G04 APERTURE LIST*
G04 Aperture macros list*
%AMRoundRect*
0 Rectangle with rounded corners*
0 $1 Rounding radius*
0 $2 $3 $4 $5 $6 $7 $8 $9 X,Y pos of 4 corners*
0 Add a 4 corners polygon primitive as box body*
4,1,4,$2,$3,$4,$5,$6,$7,$8,$9,$2,$3,0*
0 Add four circle primitives for the rounded corners*
1,1,$1+$1,$2,$3*
1,1,$1+$1,$4,$5*
1,1,$1+$1,$6,$7*
1,1,$1+$1,$8,$9*
0 Add four rect primitives between the rounded corners*
20,1,$1+$1,$2,$3,$4,$5,0*
20,1,$1+$1,$4,$5,$6,$7,0*
20,1,$1+$1,$6,$7,$8,$9,0*
20,1,$1+$1,$8,$9,$2,$3,0*%
G04 Aperture macros list end*
%ADD10RoundRect,0.250000X-0.250000X-0.475000X0.250000X-0.475000X0.250000X0.475000X-0.250000X0.475000X0*%
%ADD11RoundRect,0.243750X-0.243750X-0.456250X0.243750X-0.456250X0.243750X0.456250X-0.243750X0.456250X0*%
%ADD12RoundRect,0.225000X-0.225000X-0.250000X0.225000X-0.250000X0.225000X0.250000X-0.225000X0.250000X0*%
%ADD13RoundRect,0.250000X-0.262500X-0.450000X0.262500X-0.450000X0.262500X0.450000X-0.262500X0.450000X0*%
%ADD14RoundRect,0.200000X-0.200000X-0.275000X0.200000X-0.275000X0.200000X0.275000X-0.200000X0.275000X0*%
%ADD15R,1.400000X1.200000*%
%ADD16RoundRect,0.250000X1.450000X-0.312500X1.450000X0.312500X-1.450000X0.312500X-1.450000X-0.312500X0*%
%ADD17R,1.000000X0.700000*%
%ADD18RoundRect,0.225000X0.250000X-0.225000X0.250000X0.225000X-0.250000X0.225000X-0.250000X-0.225000X0*%
%ADD19RoundRect,0.150000X-0.512500X-0.150000X0.512500X-0.150000X0.512500X0.150000X-0.512500X0.150000X0*%
%ADD20RoundRect,0.225000X0.225000X0.250000X-0.225000X0.250000X-0.225000X-0.250000X0.225000X-0.250000X0*%
%ADD21RoundRect,0.225000X-0.250000X0.225000X-0.250000X-0.225000X0.250000X-0.225000X0.250000X0.225000X0*%
%ADD22RoundRect,0.200000X0.275000X-0.200000X0.275000X0.200000X-0.275000X0.200000X-0.275000X-0.200000X0*%
%ADD23R,1.500000X0.550000*%
%ADD24R,0.550000X1.500000*%
%ADD25R,1.500000X2.000000*%
%ADD26R,2.000000X0.500000*%
%ADD27R,1.700000X2.000000*%
%ADD28RoundRect,0.100000X-0.637500X-0.100000X0.637500X-0.100000X0.637500X0.100000X-0.637500X0.100000X0*%
G04 APERTURE END LIST*
D10*
%TO.C,C8*%
X217350000Y-103800000D03*
X219250000Y-103800000D03*
%TD*%
D11*
%TO.C,RED1*%
X186375000Y-77300000D03*
X188250000Y-77300000D03*
%TD*%
D12*
%TO.C,C6*%
X220450000Y-120000000D03*
X222000000Y-120000000D03*
%TD*%
D13*
%TO.C,R9*%
X219000000Y-94000000D03*
X220825000Y-94000000D03*
%TD*%
D14*
%TO.C,R15*%
X193475000Y-111800000D03*
X195125000Y-111800000D03*
%TD*%
D15*
%TO.C,Y1*%
X227999999Y-121999999D03*
X225799999Y-121999999D03*
X225799999Y-123699999D03*
X227999999Y-123699999D03*
%TD*%
D16*
%TO.C,F1*%
X238000000Y-121137500D03*
X238000000Y-116862500D03*
%TD*%
D13*
%TO.C,R4*%
X186587500Y-73500000D03*
X188412500Y-73500000D03*
%TD*%
D17*
%TO.C,S3*%
X249999999Y-80149999D03*
X255999999Y-80149999D03*
X249999999Y-83849999D03*
X255999999Y-83849999D03*
%TD*%
D18*
%TO.C,C9*%
X215300000Y-112575000D03*
X215300000Y-111025000D03*
%TD*%
D19*
%TO.C,U4*%
X198300000Y-111800000D03*
X198300000Y-112750000D03*
X198300000Y-113700000D03*
X200575000Y-113700000D03*
X200575000Y-112750000D03*
X200575000Y-111800000D03*
%TD*%
D13*
%TO.C,R1*%
X209175000Y-106000000D03*
X211000000Y-106000000D03*
%TD*%
D18*
%TO.C,C12*%
X221300000Y-103800000D03*
X221300000Y-102250000D03*
%TD*%
D12*
%TO.C,C4*%
X231525000Y-106800000D03*
X233075000Y-106800000D03*
%TD*%
D13*
%TO.C,R8*%
X219087500Y-89000000D03*
X220912500Y-89000000D03*
%TD*%
D12*
%TO.C,C14*%
X203362500Y-118950000D03*
X204912500Y-118950000D03*
%TD*%
D20*
%TO.C,C7*%
X227075000Y-103800000D03*
X225525000Y-103800000D03*
%TD*%
D12*
%TO.C,C1*%
X261450000Y-92000000D03*
X263000000Y-92000000D03*
%TD*%
D21*
%TO.C,C10*%
X231300000Y-117025000D03*
X231300000Y-118575000D03*
%TD*%
D13*
%TO.C,R6*%
X232677500Y-90000000D03*
X234502500Y-90000000D03*
%TD*%
%TO.C,R11*%
X214087500Y-94000000D03*
X215912500Y-94000000D03*
%TD*%
D21*
%TO.C,C2*%
X230000000Y-122225000D03*
X230000000Y-123775000D03*
%TD*%
D14*
%TO.C,R14*%
X193475000Y-113800000D03*
X195125000Y-113800000D03*
%TD*%
D22*
%TO.C,R17*%
X257000000Y-122825000D03*
X257000000Y-121175000D03*
%TD*%
D23*
%TO.C,U3*%
X217899999Y-107799999D03*
X217899999Y-108599999D03*
X217899999Y-109399999D03*
X217899999Y-110199999D03*
X217899999Y-110999999D03*
X217899999Y-111799999D03*
X217899999Y-112599999D03*
X217899999Y-113399999D03*
X217899999Y-114199999D03*
X217899999Y-114999999D03*
X217899999Y-115799999D03*
D24*
X219599999Y-117499999D03*
X220399999Y-117499999D03*
X221199999Y-117499999D03*
X221999999Y-117499999D03*
X222799999Y-117499999D03*
X223599999Y-117499999D03*
X224399999Y-117499999D03*
X225199999Y-117499999D03*
X225999999Y-117499999D03*
X226799999Y-117499999D03*
X227599999Y-117499999D03*
D23*
X229299999Y-115799999D03*
X229299999Y-114999999D03*
X229299999Y-114199999D03*
X229299999Y-113399999D03*
X229299999Y-112599999D03*
X229299999Y-111799999D03*
X229299999Y-110999999D03*
X229299999Y-110199999D03*
X229299999Y-109399999D03*
X229299999Y-108599999D03*
X229299999Y-107799999D03*
D24*
X227599999Y-106099999D03*
X226799999Y-106099999D03*
X225999999Y-106099999D03*
X225199999Y-106099999D03*
X224399999Y-106099999D03*
X223599999Y-106099999D03*
X222799999Y-106099999D03*
X221999999Y-106099999D03*
X221199999Y-106099999D03*
X220399999Y-106099999D03*
X219599999Y-106099999D03*
%TD*%
D13*
%TO.C,R10*%
X219000000Y-98950000D03*
X220825000Y-98950000D03*
%TD*%
%TO.C,R12*%
X214087500Y-99000000D03*
X215912500Y-99000000D03*
%TD*%
D11*
%TO.C,RED2*%
X185125000Y-122000000D03*
X187000000Y-122000000D03*
%TD*%
D13*
%TO.C,R5*%
X214175000Y-89000000D03*
X216000000Y-89000000D03*
%TD*%
D21*
%TO.C,C13*%
X197137500Y-118175000D03*
X197137500Y-119725000D03*
%TD*%
D14*
%TO.C,R16*%
X190175000Y-122000000D03*
X191825000Y-122000000D03*
%TD*%
D12*
%TO.C,C11*%
X232750000Y-114800000D03*
X234300000Y-114800000D03*
%TD*%
D13*
%TO.C,R7*%
X232590000Y-93000000D03*
X234415000Y-93000000D03*
%TD*%
D25*
%TO.C,S2*%
X207999999Y-87849999D03*
X207999999Y-102149999D03*
X202999999Y-87849999D03*
X202999999Y-102149999D03*
%TD*%
D13*
%TO.C,R2*%
X193175000Y-106000000D03*
X195000000Y-106000000D03*
%TD*%
D18*
%TO.C,C3*%
X224000000Y-123550000D03*
X224000000Y-122000000D03*
%TD*%
D11*
%TO.C,GREEN1*%
X186312500Y-71000000D03*
X188187500Y-71000000D03*
%TD*%
D19*
%TO.C,U5*%
X198862500Y-119050000D03*
X198862500Y-120000000D03*
X198862500Y-120950000D03*
X201137500Y-120950000D03*
X201137500Y-119050000D03*
%TD*%
D12*
%TO.C,C15*%
X203587500Y-120950000D03*
X205137500Y-120950000D03*
%TD*%
D26*
%TO.C,J1*%
X188999999Y-111199999D03*
X188999999Y-111999999D03*
X188999999Y-112799999D03*
X188999999Y-113599999D03*
X188999999Y-114399999D03*
D27*
X188899999Y-108349999D03*
X183449999Y-108349999D03*
X188899999Y-117249999D03*
X183449999Y-117249999D03*
%TD*%
D13*
%TO.C,R3*%
X186087500Y-82000000D03*
X187912500Y-82000000D03*
%TD*%
D22*
%TO.C,R13*%
X249000000Y-88825000D03*
X249000000Y-87175000D03*
%TD*%
D12*
%TO.C,C5*%
X229300000Y-103800000D03*
X230850000Y-103800000D03*
%TD*%
D25*
%TO.C,S1*%
X191499999Y-87849999D03*
X191499999Y-102149999D03*
X186499999Y-87849999D03*
X186499999Y-102149999D03*
%TD*%
D28*
%TO.C,U2*%
X223137500Y-90450000D03*
X223137500Y-91100000D03*
X223137500Y-91750000D03*
X223137500Y-92400000D03*
X223137500Y-93050000D03*
X223137500Y-93700000D03*
X223137500Y-94350000D03*
X223137500Y-95000000D03*
X228862500Y-95000000D03*
X228862500Y-94350000D03*
X228862500Y-93700000D03*
X228862500Y-93050000D03*
X228862500Y-92400000D03*
X228862500Y-91750000D03*
X228862500Y-91100000D03*
X228862500Y-90450000D03*
%TD*%
M02*
