%TF.GenerationSoftware,KiCad,Pcbnew,(7.0.0)*%
%TF.CreationDate,2023-04-21T00:37:14-06:00*%
%TF.ProjectId,Phase_B_Prototype,50686173-655f-4425-9f50-726f746f7479,rev?*%
%TF.SameCoordinates,Original*%
%TF.FileFunction,Copper,L1,Top*%
%TF.FilePolarity,Positive*%
%FSLAX46Y46*%
G04 Gerber Fmt 4.6, Leading zero omitted, Abs format (unit mm)*
G04 Created by KiCad (PCBNEW (7.0.0)) date 2023-04-21 00:37:14*
%MOMM*%
%LPD*%
G01*
G04 APERTURE LIST*
G04 Aperture macros list*
%AMRoundRect*
0 Rectangle with rounded corners*
0 $1 Rounding radius*
0 $2 $3 $4 $5 $6 $7 $8 $9 X,Y pos of 4 corners*
0 Add a 4 corners polygon primitive as box body*
4,1,4,$2,$3,$4,$5,$6,$7,$8,$9,$2,$3,0*
0 Add four circle primitives for the rounded corners*
1,1,$1+$1,$2,$3*
1,1,$1+$1,$4,$5*
1,1,$1+$1,$6,$7*
1,1,$1+$1,$8,$9*
0 Add four rect primitives between the rounded corners*
20,1,$1+$1,$2,$3,$4,$5,0*
20,1,$1+$1,$4,$5,$6,$7,0*
20,1,$1+$1,$6,$7,$8,$9,0*
20,1,$1+$1,$8,$9,$2,$3,0*%
G04 Aperture macros list end*
%ADD10C,0.300000*%
%TA.AperFunction,NonConductor*%
%ADD11C,0.300000*%
%TD*%
%TA.AperFunction,SMDPad,CuDef*%
%ADD12RoundRect,0.250000X-0.250000X-0.475000X0.250000X-0.475000X0.250000X0.475000X-0.250000X0.475000X0*%
%TD*%
%TA.AperFunction,SMDPad,CuDef*%
%ADD13RoundRect,0.243750X-0.243750X-0.456250X0.243750X-0.456250X0.243750X0.456250X-0.243750X0.456250X0*%
%TD*%
%TA.AperFunction,SMDPad,CuDef*%
%ADD14RoundRect,0.225000X-0.225000X-0.250000X0.225000X-0.250000X0.225000X0.250000X-0.225000X0.250000X0*%
%TD*%
%TA.AperFunction,SMDPad,CuDef*%
%ADD15RoundRect,0.250000X-0.262500X-0.450000X0.262500X-0.450000X0.262500X0.450000X-0.262500X0.450000X0*%
%TD*%
%TA.AperFunction,SMDPad,CuDef*%
%ADD16RoundRect,0.200000X-0.200000X-0.275000X0.200000X-0.275000X0.200000X0.275000X-0.200000X0.275000X0*%
%TD*%
%TA.AperFunction,SMDPad,CuDef*%
%ADD17R,1.400000X1.200000*%
%TD*%
%TA.AperFunction,SMDPad,CuDef*%
%ADD18RoundRect,0.250000X1.450000X-0.312500X1.450000X0.312500X-1.450000X0.312500X-1.450000X-0.312500X0*%
%TD*%
%TA.AperFunction,SMDPad,CuDef*%
%ADD19R,1.000000X0.700000*%
%TD*%
%TA.AperFunction,SMDPad,CuDef*%
%ADD20RoundRect,0.225000X0.250000X-0.225000X0.250000X0.225000X-0.250000X0.225000X-0.250000X-0.225000X0*%
%TD*%
%TA.AperFunction,SMDPad,CuDef*%
%ADD21RoundRect,0.150000X-0.512500X-0.150000X0.512500X-0.150000X0.512500X0.150000X-0.512500X0.150000X0*%
%TD*%
%TA.AperFunction,ComponentPad*%
%ADD22R,1.500000X1.500000*%
%TD*%
%TA.AperFunction,ComponentPad*%
%ADD23C,1.500000*%
%TD*%
%TA.AperFunction,ComponentPad*%
%ADD24R,1.700000X1.700000*%
%TD*%
%TA.AperFunction,ComponentPad*%
%ADD25O,1.700000X1.700000*%
%TD*%
%TA.AperFunction,SMDPad,CuDef*%
%ADD26RoundRect,0.225000X0.225000X0.250000X-0.225000X0.250000X-0.225000X-0.250000X0.225000X-0.250000X0*%
%TD*%
%TA.AperFunction,SMDPad,CuDef*%
%ADD27RoundRect,0.225000X-0.250000X0.225000X-0.250000X-0.225000X0.250000X-0.225000X0.250000X0.225000X0*%
%TD*%
%TA.AperFunction,SMDPad,CuDef*%
%ADD28RoundRect,0.200000X0.275000X-0.200000X0.275000X0.200000X-0.275000X0.200000X-0.275000X-0.200000X0*%
%TD*%
%TA.AperFunction,SMDPad,CuDef*%
%ADD29R,1.500000X0.550000*%
%TD*%
%TA.AperFunction,SMDPad,CuDef*%
%ADD30R,0.550000X1.500000*%
%TD*%
%TA.AperFunction,SMDPad,CuDef*%
%ADD31R,1.500000X2.000000*%
%TD*%
%TA.AperFunction,SMDPad,CuDef*%
%ADD32R,2.000000X0.500000*%
%TD*%
%TA.AperFunction,SMDPad,CuDef*%
%ADD33R,1.700000X2.000000*%
%TD*%
%TA.AperFunction,ComponentPad*%
%ADD34R,2.000000X2.000000*%
%TD*%
%TA.AperFunction,ComponentPad*%
%ADD35C,2.000000*%
%TD*%
%TA.AperFunction,SMDPad,CuDef*%
%ADD36RoundRect,0.100000X-0.637500X-0.100000X0.637500X-0.100000X0.637500X0.100000X-0.637500X0.100000X0*%
%TD*%
%TA.AperFunction,ViaPad*%
%ADD37C,0.800000*%
%TD*%
%TA.AperFunction,Conductor*%
%ADD38C,0.203200*%
%TD*%
%TA.AperFunction,Conductor*%
%ADD39C,0.508000*%
%TD*%
%TA.AperFunction,Conductor*%
%ADD40C,0.254000*%
%TD*%
%TA.AperFunction,Conductor*%
%ADD41C,0.304800*%
%TD*%
%TA.AperFunction,Conductor*%
%ADD42C,0.200000*%
%TD*%
G04 APERTURE END LIST*
D10*
D11*
X242442857Y-157153571D02*
X241585714Y-157153571D01*
X242014285Y-157153571D02*
X242014285Y-155653571D01*
X242014285Y-155653571D02*
X241871428Y-155867857D01*
X241871428Y-155867857D02*
X241728571Y-156010714D01*
X241728571Y-156010714D02*
X241585714Y-156082142D01*
X243371428Y-155653571D02*
X243514285Y-155653571D01*
X243514285Y-155653571D02*
X243657142Y-155725000D01*
X243657142Y-155725000D02*
X243728571Y-155796428D01*
X243728571Y-155796428D02*
X243799999Y-155939285D01*
X243799999Y-155939285D02*
X243871428Y-156225000D01*
X243871428Y-156225000D02*
X243871428Y-156582142D01*
X243871428Y-156582142D02*
X243799999Y-156867857D01*
X243799999Y-156867857D02*
X243728571Y-157010714D01*
X243728571Y-157010714D02*
X243657142Y-157082142D01*
X243657142Y-157082142D02*
X243514285Y-157153571D01*
X243514285Y-157153571D02*
X243371428Y-157153571D01*
X243371428Y-157153571D02*
X243228571Y-157082142D01*
X243228571Y-157082142D02*
X243157142Y-157010714D01*
X243157142Y-157010714D02*
X243085713Y-156867857D01*
X243085713Y-156867857D02*
X243014285Y-156582142D01*
X243014285Y-156582142D02*
X243014285Y-156225000D01*
X243014285Y-156225000D02*
X243085713Y-155939285D01*
X243085713Y-155939285D02*
X243157142Y-155796428D01*
X243157142Y-155796428D02*
X243228571Y-155725000D01*
X243228571Y-155725000D02*
X243371428Y-155653571D01*
X244799999Y-155653571D02*
X244942856Y-155653571D01*
X244942856Y-155653571D02*
X245085713Y-155725000D01*
X245085713Y-155725000D02*
X245157142Y-155796428D01*
X245157142Y-155796428D02*
X245228570Y-155939285D01*
X245228570Y-155939285D02*
X245299999Y-156225000D01*
X245299999Y-156225000D02*
X245299999Y-156582142D01*
X245299999Y-156582142D02*
X245228570Y-156867857D01*
X245228570Y-156867857D02*
X245157142Y-157010714D01*
X245157142Y-157010714D02*
X245085713Y-157082142D01*
X245085713Y-157082142D02*
X244942856Y-157153571D01*
X244942856Y-157153571D02*
X244799999Y-157153571D01*
X244799999Y-157153571D02*
X244657142Y-157082142D01*
X244657142Y-157082142D02*
X244585713Y-157010714D01*
X244585713Y-157010714D02*
X244514284Y-156867857D01*
X244514284Y-156867857D02*
X244442856Y-156582142D01*
X244442856Y-156582142D02*
X244442856Y-156225000D01*
X244442856Y-156225000D02*
X244514284Y-155939285D01*
X244514284Y-155939285D02*
X244585713Y-155796428D01*
X244585713Y-155796428D02*
X244657142Y-155725000D01*
X244657142Y-155725000D02*
X244799999Y-155653571D01*
X246842855Y-157153571D02*
X246842855Y-156153571D01*
X246842855Y-156296428D02*
X246914284Y-156225000D01*
X246914284Y-156225000D02*
X247057141Y-156153571D01*
X247057141Y-156153571D02*
X247271427Y-156153571D01*
X247271427Y-156153571D02*
X247414284Y-156225000D01*
X247414284Y-156225000D02*
X247485713Y-156367857D01*
X247485713Y-156367857D02*
X247485713Y-157153571D01*
X247485713Y-156367857D02*
X247557141Y-156225000D01*
X247557141Y-156225000D02*
X247699998Y-156153571D01*
X247699998Y-156153571D02*
X247914284Y-156153571D01*
X247914284Y-156153571D02*
X248057141Y-156225000D01*
X248057141Y-156225000D02*
X248128570Y-156367857D01*
X248128570Y-156367857D02*
X248128570Y-157153571D01*
X248842855Y-157153571D02*
X248842855Y-156153571D01*
X248842855Y-156296428D02*
X248914284Y-156225000D01*
X248914284Y-156225000D02*
X249057141Y-156153571D01*
X249057141Y-156153571D02*
X249271427Y-156153571D01*
X249271427Y-156153571D02*
X249414284Y-156225000D01*
X249414284Y-156225000D02*
X249485713Y-156367857D01*
X249485713Y-156367857D02*
X249485713Y-157153571D01*
X249485713Y-156367857D02*
X249557141Y-156225000D01*
X249557141Y-156225000D02*
X249699998Y-156153571D01*
X249699998Y-156153571D02*
X249914284Y-156153571D01*
X249914284Y-156153571D02*
X250057141Y-156225000D01*
X250057141Y-156225000D02*
X250128570Y-156367857D01*
X250128570Y-156367857D02*
X250128570Y-157153571D01*
X251671427Y-157082142D02*
X251814284Y-157153571D01*
X251814284Y-157153571D02*
X252099998Y-157153571D01*
X252099998Y-157153571D02*
X252242855Y-157082142D01*
X252242855Y-157082142D02*
X252314284Y-156939285D01*
X252314284Y-156939285D02*
X252314284Y-156867857D01*
X252314284Y-156867857D02*
X252242855Y-156725000D01*
X252242855Y-156725000D02*
X252099998Y-156653571D01*
X252099998Y-156653571D02*
X251885713Y-156653571D01*
X251885713Y-156653571D02*
X251742855Y-156582142D01*
X251742855Y-156582142D02*
X251671427Y-156439285D01*
X251671427Y-156439285D02*
X251671427Y-156367857D01*
X251671427Y-156367857D02*
X251742855Y-156225000D01*
X251742855Y-156225000D02*
X251885713Y-156153571D01*
X251885713Y-156153571D02*
X252099998Y-156153571D01*
X252099998Y-156153571D02*
X252242855Y-156225000D01*
X253599999Y-156153571D02*
X253599999Y-157653571D01*
X253599999Y-157082142D02*
X253457141Y-157153571D01*
X253457141Y-157153571D02*
X253171427Y-157153571D01*
X253171427Y-157153571D02*
X253028570Y-157082142D01*
X253028570Y-157082142D02*
X252957141Y-157010714D01*
X252957141Y-157010714D02*
X252885713Y-156867857D01*
X252885713Y-156867857D02*
X252885713Y-156439285D01*
X252885713Y-156439285D02*
X252957141Y-156296428D01*
X252957141Y-156296428D02*
X253028570Y-156225000D01*
X253028570Y-156225000D02*
X253171427Y-156153571D01*
X253171427Y-156153571D02*
X253457141Y-156153571D01*
X253457141Y-156153571D02*
X253599999Y-156225000D01*
X254957142Y-156153571D02*
X254957142Y-157153571D01*
X254314284Y-156153571D02*
X254314284Y-156939285D01*
X254314284Y-156939285D02*
X254385713Y-157082142D01*
X254385713Y-157082142D02*
X254528570Y-157153571D01*
X254528570Y-157153571D02*
X254742856Y-157153571D01*
X254742856Y-157153571D02*
X254885713Y-157082142D01*
X254885713Y-157082142D02*
X254957142Y-157010714D01*
X256314285Y-157153571D02*
X256314285Y-156367857D01*
X256314285Y-156367857D02*
X256242856Y-156225000D01*
X256242856Y-156225000D02*
X256099999Y-156153571D01*
X256099999Y-156153571D02*
X255814285Y-156153571D01*
X255814285Y-156153571D02*
X255671427Y-156225000D01*
X256314285Y-157082142D02*
X256171427Y-157153571D01*
X256171427Y-157153571D02*
X255814285Y-157153571D01*
X255814285Y-157153571D02*
X255671427Y-157082142D01*
X255671427Y-157082142D02*
X255599999Y-156939285D01*
X255599999Y-156939285D02*
X255599999Y-156796428D01*
X255599999Y-156796428D02*
X255671427Y-156653571D01*
X255671427Y-156653571D02*
X255814285Y-156582142D01*
X255814285Y-156582142D02*
X256171427Y-156582142D01*
X256171427Y-156582142D02*
X256314285Y-156510714D01*
X257028570Y-157153571D02*
X257028570Y-156153571D01*
X257028570Y-156439285D02*
X257099999Y-156296428D01*
X257099999Y-156296428D02*
X257171428Y-156225000D01*
X257171428Y-156225000D02*
X257314285Y-156153571D01*
X257314285Y-156153571D02*
X257457142Y-156153571D01*
X258528570Y-157082142D02*
X258385713Y-157153571D01*
X258385713Y-157153571D02*
X258099999Y-157153571D01*
X258099999Y-157153571D02*
X257957141Y-157082142D01*
X257957141Y-157082142D02*
X257885713Y-156939285D01*
X257885713Y-156939285D02*
X257885713Y-156367857D01*
X257885713Y-156367857D02*
X257957141Y-156225000D01*
X257957141Y-156225000D02*
X258099999Y-156153571D01*
X258099999Y-156153571D02*
X258385713Y-156153571D01*
X258385713Y-156153571D02*
X258528570Y-156225000D01*
X258528570Y-156225000D02*
X258599999Y-156367857D01*
X258599999Y-156367857D02*
X258599999Y-156510714D01*
X258599999Y-156510714D02*
X257885713Y-156653571D01*
D12*
%TO.P,C8,1*%
%TO.N,+5V*%
X217350000Y-103800000D03*
%TO.P,C8,2*%
%TO.N,GND*%
X219250000Y-103800000D03*
%TD*%
D13*
%TO.P,RED1,1,K*%
%TO.N,GND*%
X186375000Y-77300000D03*
%TO.P,RED1,2,A*%
%TO.N,Net-(RED1-A)*%
X188250000Y-77300000D03*
%TD*%
D14*
%TO.P,C6,1*%
%TO.N,+5V*%
X220450000Y-120000000D03*
%TO.P,C6,2*%
%TO.N,GND*%
X222000000Y-120000000D03*
%TD*%
D15*
%TO.P,R9,1*%
%TO.N,e*%
X219000000Y-94000000D03*
%TO.P,R9,2*%
%TO.N,Net-(U1-e)*%
X220825000Y-94000000D03*
%TD*%
D16*
%TO.P,R15,1*%
%TO.N,Net-(J1-D-)*%
X193475000Y-111800000D03*
%TO.P,R15,2*%
%TO.N,USB_CON_D-*%
X195125000Y-111800000D03*
%TD*%
D17*
%TO.P,Y1,1,1*%
%TO.N,XTAL1*%
X227999999Y-121999999D03*
%TO.P,Y1,2,2*%
%TO.N,GND*%
X225799999Y-121999999D03*
%TO.P,Y1,3,3*%
%TO.N,XTAL2*%
X225799999Y-123699999D03*
%TO.P,Y1,4,4*%
%TO.N,GND*%
X227999999Y-123699999D03*
%TD*%
D18*
%TO.P,F1,1*%
%TO.N,Net-(J1-VBUS)*%
X238000000Y-121137500D03*
%TO.P,F1,2*%
%TO.N,+5V*%
X238000000Y-116862500D03*
%TD*%
D15*
%TO.P,R4,1*%
%TO.N,GREEN_LED*%
X186587500Y-73500000D03*
%TO.P,R4,2*%
%TO.N,Net-(GREEN1-A)*%
X188412500Y-73500000D03*
%TD*%
D19*
%TO.P,S3,1*%
%TO.N,GND*%
X249999999Y-80149999D03*
%TO.P,S3,2*%
%TO.N,N/C*%
X255999999Y-80149999D03*
%TO.P,S3,3*%
%TO.N,RESET*%
X249999999Y-83849999D03*
%TO.P,S3,4*%
%TO.N,N/C*%
X255999999Y-83849999D03*
%TD*%
D20*
%TO.P,C9,1*%
%TO.N,/UCAP*%
X215300000Y-112575000D03*
%TO.P,C9,2*%
%TO.N,GND*%
X215300000Y-111025000D03*
%TD*%
D21*
%TO.P,U4,1,I/O1*%
%TO.N,USB_CON_D-*%
X198300000Y-111800000D03*
%TO.P,U4,2,GND*%
%TO.N,GND*%
X198300000Y-112750000D03*
%TO.P,U4,3,I/O2*%
%TO.N,USB_CON_D+*%
X198300000Y-113700000D03*
%TO.P,U4,4,I/O2*%
%TO.N,USB_D+*%
X200575000Y-113700000D03*
%TO.P,U4,5,VBUS*%
%TO.N,+5V*%
X200575000Y-112750000D03*
%TO.P,U4,6,I/O1*%
%TO.N,USB_D-*%
X200575000Y-111800000D03*
%TD*%
D15*
%TO.P,R1,1*%
%TO.N,Button_2*%
X209175000Y-106000000D03*
%TO.P,R1,2*%
%TO.N,GND*%
X211000000Y-106000000D03*
%TD*%
D20*
%TO.P,C12,1*%
%TO.N,/AREF*%
X221300000Y-103800000D03*
%TO.P,C12,2*%
%TO.N,GND*%
X221300000Y-102250000D03*
%TD*%
D22*
%TO.P,U1,1,e*%
%TO.N,Net-(U1-e)*%
X212299999Y-83239999D03*
D23*
%TO.P,U1,2,d*%
%TO.N,Net-(U1-d)*%
X214840000Y-83240000D03*
%TO.P,U1,3,DPX*%
%TO.N,Net-(U1-DPX)*%
X217380000Y-83240000D03*
%TO.P,U1,4,c*%
%TO.N,Net-(U1-c)*%
X219920000Y-83240000D03*
%TO.P,U1,5,g*%
%TO.N,Net-(U1-g)*%
X222460000Y-83240000D03*
%TO.P,U1,6,CA4*%
%TO.N,D4*%
X225000000Y-83240000D03*
%TO.P,U1,7,b*%
%TO.N,Net-(U1-b)*%
X225000000Y-68000000D03*
%TO.P,U1,8,CA3*%
%TO.N,D3*%
X222460000Y-68000000D03*
%TO.P,U1,9,CA2*%
%TO.N,D2*%
X219920000Y-68000000D03*
%TO.P,U1,10,f*%
%TO.N,Net-(U1-f)*%
X217380000Y-68000000D03*
%TO.P,U1,11,a*%
%TO.N,Net-(U1-a)*%
X214840000Y-68000000D03*
%TO.P,U1,12,CA1*%
%TO.N,D1*%
X212300000Y-68000000D03*
%TD*%
D14*
%TO.P,C4,1*%
%TO.N,+5V*%
X231525000Y-106800000D03*
%TO.P,C4,2*%
%TO.N,GND*%
X233075000Y-106800000D03*
%TD*%
D15*
%TO.P,R8,1*%
%TO.N,d*%
X219087500Y-89000000D03*
%TO.P,R8,2*%
%TO.N,Net-(U1-d)*%
X220912500Y-89000000D03*
%TD*%
D14*
%TO.P,C14,1*%
%TO.N,+3.3V*%
X203362500Y-118950000D03*
%TO.P,C14,2*%
%TO.N,GND*%
X204912500Y-118950000D03*
%TD*%
D24*
%TO.P,J2,1,MISO*%
%TO.N,MISO*%
X210209999Y-118669999D03*
D25*
%TO.P,J2,2,VCC*%
%TO.N,VDC*%
X212749999Y-118669999D03*
%TO.P,J2,3,SCK*%
%TO.N,SCK*%
X210209999Y-121209999D03*
%TO.P,J2,4,MOSI*%
%TO.N,MOSI*%
X212749999Y-121209999D03*
%TO.P,J2,5,~{RST}*%
%TO.N,RST*%
X210209999Y-123749999D03*
%TO.P,J2,6,GND*%
%TO.N,GND*%
X212749999Y-123749999D03*
%TD*%
D26*
%TO.P,C7,1*%
%TO.N,+5V*%
X227075000Y-103800000D03*
%TO.P,C7,2*%
%TO.N,GND*%
X225525000Y-103800000D03*
%TD*%
D14*
%TO.P,C1,1*%
%TO.N,VDC*%
X261450000Y-92000000D03*
%TO.P,C1,2*%
%TO.N,GND*%
X263000000Y-92000000D03*
%TD*%
D27*
%TO.P,C10,1*%
%TO.N,+5V*%
X231300000Y-117025000D03*
%TO.P,C10,2*%
%TO.N,GND*%
X231300000Y-118575000D03*
%TD*%
D15*
%TO.P,R6,1*%
%TO.N,b*%
X232677500Y-90000000D03*
%TO.P,R6,2*%
%TO.N,Net-(U1-b)*%
X234502500Y-90000000D03*
%TD*%
%TO.P,R11,1*%
%TO.N,g*%
X214087500Y-94000000D03*
%TO.P,R11,2*%
%TO.N,Net-(U1-g)*%
X215912500Y-94000000D03*
%TD*%
D27*
%TO.P,C2,1*%
%TO.N,XTAL1*%
X230000000Y-122225000D03*
%TO.P,C2,2*%
%TO.N,GND*%
X230000000Y-123775000D03*
%TD*%
D16*
%TO.P,R14,1*%
%TO.N,Net-(J1-D+)*%
X193475000Y-113800000D03*
%TO.P,R14,2*%
%TO.N,USB_CON_D+*%
X195125000Y-113800000D03*
%TD*%
D28*
%TO.P,R17,1*%
%TO.N,+3.3V*%
X257000000Y-122825000D03*
%TO.P,R17,2*%
%TO.N,Net-(J3-Pin_5)*%
X257000000Y-121175000D03*
%TD*%
D29*
%TO.P,U3,1,PE6*%
%TO.N,SH_CP*%
X217899999Y-107799999D03*
%TO.P,U3,2,UVCC*%
%TO.N,+5V*%
X217899999Y-108599999D03*
%TO.P,U3,3,D-*%
%TO.N,USB_D-*%
X217899999Y-109399999D03*
%TO.P,U3,4,D+*%
%TO.N,USB_D+*%
X217899999Y-110199999D03*
%TO.P,U3,5,UGND*%
%TO.N,GND*%
X217899999Y-110999999D03*
%TO.P,U3,6,UCAP*%
%TO.N,/UCAP*%
X217899999Y-111799999D03*
%TO.P,U3,7,VBUS*%
%TO.N,+5V*%
X217899999Y-112599999D03*
%TO.P,U3,8,PB0*%
%TO.N,unconnected-(U3-PB0-Pad8)*%
X217899999Y-113399999D03*
%TO.P,U3,9,PB1*%
%TO.N,SCK*%
X217899999Y-114199999D03*
%TO.P,U3,10,PB2*%
%TO.N,MISO*%
X217899999Y-114999999D03*
%TO.P,U3,11,PB3*%
%TO.N,MOSI*%
X217899999Y-115799999D03*
D30*
%TO.P,U3,12,PB7*%
%TO.N,D3*%
X219599999Y-117499999D03*
%TO.P,U3,13,~{RESET}*%
%TO.N,RESET*%
X220399999Y-117499999D03*
%TO.P,U3,14,VCC*%
%TO.N,+5V*%
X221199999Y-117499999D03*
%TO.P,U3,15,GND*%
%TO.N,GND*%
X221999999Y-117499999D03*
%TO.P,U3,16,XTAL2*%
%TO.N,XTAL2*%
X222799999Y-117499999D03*
%TO.P,U3,17,XTAL1*%
%TO.N,XTAL1*%
X223599999Y-117499999D03*
%TO.P,U3,18,PD0*%
%TO.N,Button_2*%
X224399999Y-117499999D03*
%TO.P,U3,19,PD1*%
%TO.N,Button_1*%
X225199999Y-117499999D03*
%TO.P,U3,20,PD2*%
%TO.N,TX*%
X225999999Y-117499999D03*
%TO.P,U3,21,PD3*%
%TO.N,RX*%
X226799999Y-117499999D03*
%TO.P,U3,22,PD5*%
%TO.N,unconnected-(U3-PD5-Pad22)*%
X227599999Y-117499999D03*
D29*
%TO.P,U3,23,GND*%
%TO.N,GND*%
X229299999Y-115799999D03*
%TO.P,U3,24,AVCC*%
%TO.N,+5V*%
X229299999Y-114999999D03*
%TO.P,U3,25,PD4*%
%TO.N,GREEN_LED*%
X229299999Y-114199999D03*
%TO.P,U3,26,PD6*%
%TO.N,D2*%
X229299999Y-113399999D03*
%TO.P,U3,27,PD7*%
%TO.N,Alarm*%
X229299999Y-112599999D03*
%TO.P,U3,28,PB4*%
%TO.N,ST_CP*%
X229299999Y-111799999D03*
%TO.P,U3,29,PB5*%
%TO.N,DS*%
X229299999Y-110999999D03*
%TO.P,U3,30,PB6*%
%TO.N,D4*%
X229299999Y-110199999D03*
%TO.P,U3,31,PC6*%
%TO.N,RED_LED*%
X229299999Y-109399999D03*
%TO.P,U3,32,PC7*%
%TO.N,D1*%
X229299999Y-108599999D03*
%TO.P,U3,33,~{HWB}/PE2*%
%TO.N,GND*%
X229299999Y-107799999D03*
D30*
%TO.P,U3,34,VCC*%
%TO.N,+5V*%
X227599999Y-106099999D03*
%TO.P,U3,35,GND*%
%TO.N,GND*%
X226799999Y-106099999D03*
%TO.P,U3,36,PF7*%
%TO.N,unconnected-(U3-PF7-Pad36)*%
X225999999Y-106099999D03*
%TO.P,U3,37,PF6*%
%TO.N,unconnected-(U3-PF6-Pad37)*%
X225199999Y-106099999D03*
%TO.P,U3,38,PF5*%
%TO.N,unconnected-(U3-PF5-Pad38)*%
X224399999Y-106099999D03*
%TO.P,U3,39,PF4*%
%TO.N,unconnected-(U3-PF4-Pad39)*%
X223599999Y-106099999D03*
%TO.P,U3,40,PF1*%
%TO.N,unconnected-(U3-PF1-Pad40)*%
X222799999Y-106099999D03*
%TO.P,U3,41,PF0*%
%TO.N,unconnected-(U3-PF0-Pad41)*%
X221999999Y-106099999D03*
%TO.P,U3,42,AREF*%
%TO.N,/AREF*%
X221199999Y-106099999D03*
%TO.P,U3,43,GND*%
%TO.N,GND*%
X220399999Y-106099999D03*
%TO.P,U3,44,AVCC*%
%TO.N,+5V*%
X219599999Y-106099999D03*
%TD*%
D15*
%TO.P,R10,1*%
%TO.N,f*%
X219000000Y-98950000D03*
%TO.P,R10,2*%
%TO.N,Net-(U1-f)*%
X220825000Y-98950000D03*
%TD*%
%TO.P,R12,1*%
%TO.N,dp*%
X214087500Y-99000000D03*
%TO.P,R12,2*%
%TO.N,Net-(U1-DPX)*%
X215912500Y-99000000D03*
%TD*%
D13*
%TO.P,RED2,1,K*%
%TO.N,GND*%
X185125000Y-122000000D03*
%TO.P,RED2,2,A*%
%TO.N,Net-(RED2-A)*%
X187000000Y-122000000D03*
%TD*%
D15*
%TO.P,R5,1*%
%TO.N,a*%
X214175000Y-89000000D03*
%TO.P,R5,2*%
%TO.N,Net-(U1-a)*%
X216000000Y-89000000D03*
%TD*%
D27*
%TO.P,C13,1*%
%TO.N,+5V*%
X197137500Y-118175000D03*
%TO.P,C13,2*%
%TO.N,GND*%
X197137500Y-119725000D03*
%TD*%
D16*
%TO.P,R16,1*%
%TO.N,+5V*%
X190175000Y-122000000D03*
%TO.P,R16,2*%
%TO.N,Net-(RED2-A)*%
X191825000Y-122000000D03*
%TD*%
D14*
%TO.P,C11,1*%
%TO.N,+5V*%
X232750000Y-114800000D03*
%TO.P,C11,2*%
%TO.N,GND*%
X234300000Y-114800000D03*
%TD*%
D15*
%TO.P,R7,1*%
%TO.N,c*%
X232590000Y-93000000D03*
%TO.P,R7,2*%
%TO.N,Net-(U1-c)*%
X234415000Y-93000000D03*
%TD*%
D31*
%TO.P,S2,A1,NO_1*%
%TO.N,unconnected-(S2-NO_1-PadA1)*%
X207999999Y-87849999D03*
%TO.P,S2,B1,NO_2*%
%TO.N,Button_2*%
X207999999Y-102149999D03*
%TO.P,S2,C1,COM_1*%
%TO.N,VDC*%
X202999999Y-87849999D03*
%TO.P,S2,D1,COM_2*%
%TO.N,unconnected-(S2-COM_2-PadD1)*%
X202999999Y-102149999D03*
%TD*%
D15*
%TO.P,R2,1*%
%TO.N,Button_1*%
X193175000Y-106000000D03*
%TO.P,R2,2*%
%TO.N,GND*%
X195000000Y-106000000D03*
%TD*%
D20*
%TO.P,C3,1*%
%TO.N,XTAL2*%
X224000000Y-123550000D03*
%TO.P,C3,2*%
%TO.N,GND*%
X224000000Y-122000000D03*
%TD*%
D13*
%TO.P,GREEN1,1,K*%
%TO.N,GND*%
X186312500Y-71000000D03*
%TO.P,GREEN1,2,A*%
%TO.N,Net-(GREEN1-A)*%
X188187500Y-71000000D03*
%TD*%
D21*
%TO.P,U5,1,VIN*%
%TO.N,+5V*%
X198862500Y-119050000D03*
%TO.P,U5,2,GND*%
%TO.N,GND*%
X198862500Y-120000000D03*
%TO.P,U5,3,ON/~{OFF}*%
%TO.N,+5V*%
X198862500Y-120950000D03*
%TO.P,U5,4,BP*%
%TO.N,Net-(U5-BP)*%
X201137500Y-120950000D03*
%TO.P,U5,5,VOUT*%
%TO.N,+3.3V*%
X201137500Y-119050000D03*
%TD*%
D14*
%TO.P,C15,1*%
%TO.N,Net-(U5-BP)*%
X203587500Y-120950000D03*
%TO.P,C15,2*%
%TO.N,GND*%
X205137500Y-120950000D03*
%TD*%
D32*
%TO.P,J1,1,VBUS*%
%TO.N,Net-(J1-VBUS)*%
X188999999Y-111199999D03*
%TO.P,J1,2,D-*%
%TO.N,Net-(J1-D-)*%
X188999999Y-111999999D03*
%TO.P,J1,3,D+*%
%TO.N,Net-(J1-D+)*%
X188999999Y-112799999D03*
%TO.P,J1,4,ID*%
%TO.N,unconnected-(J1-ID-Pad4)*%
X188999999Y-113599999D03*
%TO.P,J1,5,GND*%
%TO.N,GND*%
X188999999Y-114399999D03*
D33*
%TO.P,J1,6,Shield*%
%TO.N,unconnected-(J1-Shield-Pad6)*%
X188899999Y-108349999D03*
X183449999Y-108349999D03*
X188899999Y-117249999D03*
X183449999Y-117249999D03*
%TD*%
D15*
%TO.P,R3,1*%
%TO.N,RED_LED*%
X186087500Y-82000000D03*
%TO.P,R3,2*%
%TO.N,Net-(RED1-A)*%
X187912500Y-82000000D03*
%TD*%
D28*
%TO.P,R13,1*%
%TO.N,+5V*%
X249000000Y-88825000D03*
%TO.P,R13,2*%
%TO.N,RESET*%
X249000000Y-87175000D03*
%TD*%
D34*
%TO.P,LS1,1,1*%
%TO.N,Alarm*%
X250399999Y-70999999D03*
D35*
%TO.P,LS1,2,2*%
%TO.N,GND*%
X258000000Y-71000000D03*
%TD*%
D14*
%TO.P,C5,1*%
%TO.N,+5V*%
X229300000Y-103800000D03*
%TO.P,C5,2*%
%TO.N,GND*%
X230850000Y-103800000D03*
%TD*%
D31*
%TO.P,S1,A1,NO_1*%
%TO.N,unconnected-(S1-NO_1-PadA1)*%
X191499999Y-87849999D03*
%TO.P,S1,B1,NO_2*%
%TO.N,Button_1*%
X191499999Y-102149999D03*
%TO.P,S1,C1,COM_1*%
%TO.N,VDC*%
X186499999Y-87849999D03*
%TO.P,S1,D1,COM_2*%
%TO.N,unconnected-(S1-COM_2-PadD1)*%
X186499999Y-102149999D03*
%TD*%
D36*
%TO.P,U2,1,QB*%
%TO.N,b*%
X223137500Y-90450000D03*
%TO.P,U2,2,QC*%
%TO.N,c*%
X223137500Y-91100000D03*
%TO.P,U2,3,QD*%
%TO.N,d*%
X223137500Y-91750000D03*
%TO.P,U2,4,QE*%
%TO.N,e*%
X223137500Y-92400000D03*
%TO.P,U2,5,QF*%
%TO.N,f*%
X223137500Y-93050000D03*
%TO.P,U2,6,QG*%
%TO.N,g*%
X223137500Y-93700000D03*
%TO.P,U2,7,QH*%
%TO.N,dp*%
X223137500Y-94350000D03*
%TO.P,U2,8,GND*%
%TO.N,GND*%
X223137500Y-95000000D03*
%TO.P,U2,9,QH'*%
%TO.N,unconnected-(U2-QH'-Pad9)*%
X228862500Y-95000000D03*
%TO.P,U2,10,~{SRCLR}*%
%TO.N,VDC*%
X228862500Y-94350000D03*
%TO.P,U2,11,SRCLK*%
%TO.N,SH_CP*%
X228862500Y-93700000D03*
%TO.P,U2,12,RCLK*%
%TO.N,ST_CP*%
X228862500Y-93050000D03*
%TO.P,U2,13,~{OE}*%
%TO.N,GND*%
X228862500Y-92400000D03*
%TO.P,U2,14,SER*%
%TO.N,DS*%
X228862500Y-91750000D03*
%TO.P,U2,15,QA*%
%TO.N,a*%
X228862500Y-91100000D03*
%TO.P,U2,16,VCC*%
%TO.N,VDC*%
X228862500Y-90450000D03*
%TD*%
D24*
%TO.P,J3,1,Pin_1*%
%TO.N,GND*%
X260959999Y-114919999D03*
D25*
%TO.P,J3,2,Pin_2*%
%TO.N,TX*%
X263499999Y-114919999D03*
%TO.P,J3,3,Pin_3*%
%TO.N,unconnected-(J3-Pin_3-Pad3)*%
X260959999Y-117459999D03*
%TO.P,J3,4,Pin_4*%
%TO.N,+3.3V*%
X263499999Y-117459999D03*
%TO.P,J3,5,Pin_5*%
%TO.N,Net-(J3-Pin_5)*%
X260959999Y-119999999D03*
%TO.P,J3,6,Pin_6*%
%TO.N,+3.3V*%
X263499999Y-119999999D03*
%TO.P,J3,7,Pin_7*%
%TO.N,RX*%
X260959999Y-122539999D03*
%TO.P,J3,8,Pin_8*%
%TO.N,+3.3V*%
X263499999Y-122539999D03*
%TD*%
D37*
%TO.N,MISO*%
X209500000Y-116750000D03*
X211750000Y-116250000D03*
%TO.N,Button_2*%
X220000000Y-112250000D03*
X215750000Y-108500000D03*
%TO.N,VDC*%
X231061602Y-91438398D03*
X228500000Y-81487300D03*
X231061602Y-91438398D03*
X214500000Y-80500000D03*
X244000000Y-87500000D03*
X208500000Y-108500000D03*
X206629247Y-80620753D03*
X208750000Y-114750000D03*
%TO.N,XTAL1*%
X224000000Y-119750000D03*
X225858890Y-119789596D03*
%TO.N,GND*%
X184000000Y-122000000D03*
X205731250Y-119768750D03*
X229250000Y-107000000D03*
X230500000Y-118250000D03*
X224750000Y-122000000D03*
X234000000Y-106750000D03*
X227750000Y-115747300D03*
X231000000Y-124250000D03*
X211000000Y-104750000D03*
X185250000Y-71000000D03*
X229059701Y-123750000D03*
X197000000Y-112750000D03*
X224250000Y-95000000D03*
X225000000Y-103000000D03*
X222000000Y-116000000D03*
X248750000Y-80000000D03*
X189000000Y-115000000D03*
X221221800Y-107750000D03*
X195000000Y-104750000D03*
X206000000Y-121750000D03*
X216500000Y-111000000D03*
X226750000Y-107250000D03*
X219500000Y-110500000D03*
X185250000Y-77250000D03*
X225500000Y-120750000D03*
X232000000Y-103750000D03*
X235250000Y-114750000D03*
X221000000Y-121500000D03*
X196000000Y-119750000D03*
X200000000Y-120000000D03*
X220250000Y-104750000D03*
X264000000Y-92000000D03*
X227500000Y-92500000D03*
X222000000Y-102750000D03*
%TO.N,XTAL2*%
X223049500Y-120250000D03*
X223000000Y-123000000D03*
%TO.N,+5V*%
X199250000Y-115250000D03*
X198750000Y-117059500D03*
X218745753Y-106004247D03*
X203500000Y-110250000D03*
X225250000Y-112000000D03*
X233000000Y-116451100D03*
X202250000Y-113000000D03*
X205625000Y-108125000D03*
X244853800Y-93000000D03*
X241548900Y-96000000D03*
X225250000Y-107500000D03*
X202500000Y-114500000D03*
X231250000Y-114500000D03*
X204500000Y-112750000D03*
X207000000Y-105500000D03*
X236451100Y-101000000D03*
X217629247Y-106870753D03*
X232500000Y-105000000D03*
%TO.N,+3.3V*%
X216744252Y-125501300D03*
X212250000Y-125750000D03*
X220750000Y-124798900D03*
X209250000Y-125500000D03*
X242000000Y-125048900D03*
X245500000Y-126000000D03*
%TO.N,MISO*%
X213000000Y-116500000D03*
X216370753Y-116629247D03*
%TO.N,SCK*%
X215250000Y-115500000D03*
X214254247Y-116495753D03*
%TO.N,MOSI*%
X215879247Y-118120753D03*
X217240147Y-117240147D03*
%TO.N,TX*%
X244853800Y-115750000D03*
X242048900Y-115750000D03*
%TO.N,RX*%
X259250000Y-123750000D03*
X244853800Y-119750000D03*
X242000000Y-119500000D03*
X257483984Y-124516016D03*
%TO.N,Alarm*%
X243451100Y-110500000D03*
X241000000Y-110500000D03*
%TO.N,RED_LED*%
X227095203Y-111654797D03*
X212500000Y-109500000D03*
%TO.N,Button_1*%
X212000000Y-113250000D03*
X210750000Y-111100500D03*
X217719142Y-125280858D03*
X219000000Y-124000000D03*
%TO.N,GREEN_LED*%
X220704797Y-100704797D03*
X223750000Y-109301100D03*
X222250000Y-101250000D03*
X215799500Y-100299500D03*
X223750000Y-104000000D03*
X213250000Y-100250000D03*
%TO.N,a*%
X227000000Y-91500000D03*
X214397300Y-90000000D03*
%TO.N,b*%
X229463213Y-87286787D03*
X227750000Y-87750000D03*
%TO.N,Net-(U1-b)*%
X238976068Y-81273932D03*
X237048900Y-83120753D03*
%TO.N,d*%
X219706787Y-90706787D03*
X221073293Y-91323293D03*
%TO.N,Net-(U1-e)*%
X221000000Y-93101100D03*
X217000000Y-90750000D03*
X213000000Y-84750000D03*
X214489500Y-85000000D03*
%TO.N,f*%
X221999449Y-93111380D03*
X221654543Y-95654543D03*
%TO.N,Net-(U1-f)*%
X234250000Y-98250000D03*
X232798900Y-99000000D03*
%TO.N,g*%
X214397300Y-97000000D03*
X218504290Y-96750000D03*
%TO.N,dp*%
X215799500Y-101500000D03*
X214397300Y-101250000D03*
X222750000Y-99651100D03*
X222750000Y-98000000D03*
%TO.N,Net-(U1-DPX)*%
X217803190Y-94577105D03*
X218545753Y-85954247D03*
X217929247Y-87320753D03*
X217706787Y-92706787D03*
%TO.N,SH_CP*%
X220750000Y-109301100D03*
X230000000Y-99651100D03*
X230000000Y-98248900D03*
X224287133Y-102299411D03*
%TO.N,ST_CP*%
X231500000Y-98248900D03*
X231500000Y-99651100D03*
X237750000Y-101250000D03*
X232798900Y-101000000D03*
%TO.N,DS*%
X235750000Y-97750000D03*
X232750000Y-97250000D03*
%TO.N,Net-(J1-VBUS)*%
X245250000Y-124250000D03*
X242000000Y-124000000D03*
%TD*%
D38*
%TO.N,MISO*%
X212000000Y-116500000D02*
X211750000Y-116250000D01*
X213000000Y-116500000D02*
X212000000Y-116500000D01*
%TO.N,SCK*%
X214250000Y-116500000D02*
X214250000Y-117937500D01*
X214254247Y-116495753D02*
X214250000Y-116500000D01*
%TO.N,Net-(J1-VBUS)*%
X245250000Y-124390422D02*
X245250000Y-124250000D01*
X243084022Y-126556400D02*
X245250000Y-124390422D01*
X211935291Y-126556400D02*
X243084022Y-126556400D01*
X210687009Y-122598400D02*
X211361600Y-123272991D01*
X208793652Y-122598400D02*
X210687009Y-122598400D01*
X207892052Y-123500000D02*
X208793652Y-122598400D01*
X207500000Y-123107948D02*
X207892052Y-123500000D01*
X207500000Y-119500000D02*
X207500000Y-123107948D01*
X196390630Y-116250000D02*
X204250000Y-116250000D01*
X194423400Y-114282770D02*
X196390630Y-116250000D01*
X194129570Y-111023400D02*
X194423400Y-111317230D01*
X204250000Y-116250000D02*
X207500000Y-119500000D01*
X211361600Y-123272991D02*
X211361600Y-125982709D01*
X193067230Y-111023400D02*
X194129570Y-111023400D01*
X194423400Y-111317230D02*
X194423400Y-114282770D01*
X192890630Y-111200000D02*
X193067230Y-111023400D01*
X189000000Y-111200000D02*
X192890630Y-111200000D01*
X211361600Y-125982709D02*
X211935291Y-126556400D01*
%TO.N,MISO*%
X210210000Y-117460000D02*
X210210000Y-118670000D01*
X209500000Y-116750000D02*
X210210000Y-117460000D01*
%TO.N,SCK*%
X213191600Y-120058400D02*
X214250000Y-119000000D01*
X211361600Y-120058400D02*
X213191600Y-120058400D01*
X214250000Y-119000000D02*
X214250000Y-118000000D01*
X210210000Y-121210000D02*
X211361600Y-120058400D01*
%TO.N,MOSI*%
X215339247Y-118620753D02*
X212750000Y-121210000D01*
X215879247Y-118620753D02*
X215339247Y-118620753D01*
D39*
%TO.N,VDC*%
X209677500Y-115597500D02*
X212750000Y-118670000D01*
X209597500Y-115597500D02*
X209677500Y-115597500D01*
D38*
%TO.N,Button_2*%
X215750000Y-108500000D02*
X211675000Y-108500000D01*
X220000000Y-112250000D02*
X224400000Y-116650000D01*
X224400000Y-116650000D02*
X224400000Y-117500000D01*
X211675000Y-108500000D02*
X209175000Y-106000000D01*
X208000000Y-104825000D02*
X208000000Y-102150000D01*
X209175000Y-106000000D02*
X208000000Y-104825000D01*
D39*
%TO.N,VDC*%
X184250000Y-77042261D02*
X184250000Y-85600000D01*
X215487300Y-81487300D02*
X214500000Y-80500000D01*
X206629247Y-80620753D02*
X203000000Y-84250000D01*
X185146261Y-76146000D02*
X184250000Y-77042261D01*
X228500000Y-81487300D02*
X215487300Y-81487300D01*
X261450000Y-92000000D02*
X252496000Y-83046000D01*
D38*
X225500000Y-92750000D02*
X227100000Y-94350000D01*
D39*
X203000000Y-87850000D02*
X206088000Y-90938000D01*
X191296000Y-76146000D02*
X185146261Y-76146000D01*
X203000000Y-84250000D02*
X203000000Y-87850000D01*
D38*
X231061602Y-91438398D02*
X230073204Y-90450000D01*
X227100000Y-94350000D02*
X228862500Y-94350000D01*
D39*
X206088000Y-106088000D02*
X208500000Y-108500000D01*
X206088000Y-90938000D02*
X206088000Y-106088000D01*
D38*
X225500000Y-92000000D02*
X225500000Y-92750000D01*
X228862500Y-90450000D02*
X227050000Y-90450000D01*
D39*
X184250000Y-85600000D02*
X186500000Y-87850000D01*
D38*
X227050000Y-90450000D02*
X225500000Y-92000000D01*
D39*
X248454000Y-83046000D02*
X244000000Y-87500000D01*
X203000000Y-87850000D02*
X191296000Y-76146000D01*
X252496000Y-83046000D02*
X248454000Y-83046000D01*
D38*
X230073204Y-90450000D02*
X228862500Y-90450000D01*
D39*
X209597500Y-115597500D02*
X208750000Y-114750000D01*
D40*
X202825000Y-84425000D02*
X206629247Y-80620753D01*
D38*
%TO.N,XTAL1*%
X228000000Y-122000000D02*
X229775000Y-122000000D01*
X225858890Y-119789596D02*
X225858890Y-119858890D01*
X223600000Y-119350000D02*
X223600000Y-117500000D01*
X229775000Y-122000000D02*
X230000000Y-122225000D01*
X224000000Y-119750000D02*
X223600000Y-119350000D01*
X225858890Y-119858890D02*
X228000000Y-122000000D01*
%TO.N,GND*%
X225525000Y-103800000D02*
X225525000Y-103525000D01*
D39*
X221300000Y-102250000D02*
X221500000Y-102250000D01*
X185300000Y-77300000D02*
X185250000Y-77250000D01*
D41*
X220400000Y-106100000D02*
X220400000Y-106928200D01*
D39*
X219000000Y-111000000D02*
X219500000Y-110500000D01*
X211000000Y-106000000D02*
X211000000Y-104750000D01*
X231300000Y-118575000D02*
X230825000Y-118575000D01*
X229300000Y-107050000D02*
X229250000Y-107000000D01*
X219250000Y-103800000D02*
X219300000Y-103800000D01*
X198862500Y-120000000D02*
X200000000Y-120000000D01*
X195000000Y-106000000D02*
X195000000Y-104750000D01*
X227802700Y-115800000D02*
X227750000Y-115747300D01*
X216475000Y-111025000D02*
X216500000Y-111000000D01*
X219300000Y-103800000D02*
X220250000Y-104750000D01*
X224750000Y-122000000D02*
X224000000Y-122000000D01*
X230825000Y-118575000D02*
X230500000Y-118250000D01*
D38*
X186125000Y-71000000D02*
X185250000Y-71000000D01*
D39*
X230850000Y-103800000D02*
X231950000Y-103800000D01*
D38*
X248900000Y-80150000D02*
X248750000Y-80000000D01*
D39*
X233950000Y-106800000D02*
X234000000Y-106750000D01*
X196025000Y-119725000D02*
X196000000Y-119750000D01*
X185125000Y-122000000D02*
X184000000Y-122000000D01*
D41*
X220400000Y-106928200D02*
X221221800Y-107750000D01*
D38*
X235200000Y-114800000D02*
X235250000Y-114750000D01*
D39*
X263000000Y-92000000D02*
X264000000Y-92000000D01*
D41*
X228862500Y-92400000D02*
X227600000Y-92400000D01*
D39*
X222000000Y-120500000D02*
X221000000Y-121500000D01*
X186375000Y-77300000D02*
X185300000Y-77300000D01*
X229009701Y-123700000D02*
X229059701Y-123750000D01*
X230000000Y-123775000D02*
X230525000Y-123775000D01*
X205137500Y-120950000D02*
X205200000Y-120950000D01*
X229300000Y-107800000D02*
X229300000Y-107050000D01*
D38*
X225800000Y-122000000D02*
X224750000Y-122000000D01*
D41*
X198300000Y-112750000D02*
X197000000Y-112750000D01*
D39*
X189000000Y-114400000D02*
X189000000Y-115000000D01*
X222000000Y-116367000D02*
X222000000Y-116000000D01*
X204912500Y-118950000D02*
X205731250Y-119768750D01*
X230525000Y-123775000D02*
X231000000Y-124250000D01*
X225500000Y-121700000D02*
X225800000Y-122000000D01*
X225500000Y-120750000D02*
X225500000Y-121700000D01*
X215300000Y-111025000D02*
X216475000Y-111025000D01*
D41*
X227600000Y-92400000D02*
X227500000Y-92500000D01*
D39*
X226800000Y-106100000D02*
X226800000Y-107200000D01*
X229300000Y-115800000D02*
X227802700Y-115800000D01*
X228000000Y-123700000D02*
X229009701Y-123700000D01*
X205200000Y-120950000D02*
X206000000Y-121750000D01*
X222000000Y-117500000D02*
X222000000Y-116367000D01*
D38*
X250000000Y-80150000D02*
X248900000Y-80150000D01*
D39*
X197137500Y-119725000D02*
X196025000Y-119725000D01*
X217900000Y-111000000D02*
X219000000Y-111000000D01*
X186312500Y-71000000D02*
X185250000Y-71000000D01*
X233075000Y-106800000D02*
X233950000Y-106800000D01*
X221500000Y-102250000D02*
X222000000Y-102750000D01*
X222000000Y-120000000D02*
X222000000Y-120500000D01*
X231950000Y-103800000D02*
X232000000Y-103750000D01*
D38*
X225525000Y-103525000D02*
X225000000Y-103000000D01*
D39*
X226800000Y-107200000D02*
X226750000Y-107250000D01*
D38*
X234300000Y-114800000D02*
X235200000Y-114800000D01*
%TO.N,XTAL2*%
X223049500Y-120250000D02*
X222800000Y-120000500D01*
X224000000Y-123550000D02*
X223550000Y-123550000D01*
X225650000Y-123550000D02*
X225800000Y-123700000D01*
X223550000Y-123550000D02*
X223000000Y-123000000D01*
X224000000Y-123550000D02*
X225650000Y-123550000D01*
X222800000Y-120000500D02*
X222800000Y-117500000D01*
D39*
%TO.N,+5V*%
X197137500Y-118175000D02*
X197634500Y-118175000D01*
D41*
X220500000Y-110500000D02*
X220500000Y-111250000D01*
D39*
X206796000Y-105296000D02*
X206796000Y-100954000D01*
D41*
X223750000Y-110500000D02*
X225250000Y-112000000D01*
D40*
X231250000Y-115000000D02*
X231250000Y-114500000D01*
D39*
X216696000Y-108000000D02*
X216696000Y-108529000D01*
X204250000Y-113000000D02*
X204500000Y-112750000D01*
D41*
X227600000Y-104325000D02*
X227600000Y-106100000D01*
D39*
X231873900Y-116451100D02*
X231462500Y-116862500D01*
D40*
X229300000Y-115000000D02*
X231000000Y-115000000D01*
D39*
X217900000Y-112600000D02*
X219033000Y-112600000D01*
X229300000Y-104575000D02*
X231525000Y-106800000D01*
X229300000Y-103800000D02*
X227075000Y-103800000D01*
D40*
X231250000Y-115000000D02*
X232550000Y-115000000D01*
X220500000Y-110500000D02*
X220500000Y-110321000D01*
D41*
X225250000Y-112000000D02*
X228250000Y-115000000D01*
D40*
X233000000Y-116451100D02*
X233000000Y-116612500D01*
D39*
X206796000Y-100954000D02*
X207054000Y-100696000D01*
D41*
X220252400Y-111497600D02*
X219688345Y-111497600D01*
D39*
X238000000Y-116862500D02*
X231462500Y-116862500D01*
X209392000Y-100696000D02*
X216696000Y-108000000D01*
D38*
X216848400Y-108376600D02*
X217071800Y-108600000D01*
D39*
X219600000Y-106050000D02*
X217350000Y-103800000D01*
D41*
X217900000Y-112600000D02*
X218954800Y-112600000D01*
D40*
X220500000Y-110321000D02*
X218779000Y-108600000D01*
X231250000Y-114500000D02*
X231000000Y-114750000D01*
D41*
X220500000Y-110500000D02*
X223750000Y-110500000D01*
D39*
X201750000Y-115250000D02*
X202500000Y-114500000D01*
D41*
X227061655Y-108002400D02*
X227600000Y-107464055D01*
D39*
X221146000Y-117446000D02*
X221200000Y-117500000D01*
D38*
X217071800Y-108600000D02*
X217900000Y-108600000D01*
D41*
X219002400Y-112183545D02*
X219002400Y-112552400D01*
D39*
X192337500Y-119837500D02*
X190175000Y-122000000D01*
X241451100Y-96000000D02*
X241548900Y-96000000D01*
X219033000Y-112600000D02*
X221146000Y-114713000D01*
X232500000Y-105825000D02*
X231525000Y-106800000D01*
X202250000Y-113000000D02*
X202000000Y-112750000D01*
X233000000Y-116451100D02*
X231873900Y-116451100D01*
X198862500Y-117172000D02*
X198750000Y-117059500D01*
D40*
X218779000Y-108600000D02*
X217900000Y-108600000D01*
X231000000Y-115000000D02*
X231250000Y-115000000D01*
D39*
X207000000Y-105500000D02*
X206796000Y-105296000D01*
D41*
X225250000Y-107500000D02*
X225752400Y-108002400D01*
D40*
X231000000Y-114750000D02*
X231000000Y-115000000D01*
D39*
X229300000Y-103800000D02*
X229300000Y-104575000D01*
X218745753Y-106004247D02*
X219504247Y-106004247D01*
X231462500Y-116862500D02*
X231300000Y-117025000D01*
D41*
X220500000Y-111250000D02*
X220252400Y-111497600D01*
D39*
X221146000Y-114713000D02*
X221146000Y-117446000D01*
X198862500Y-119050000D02*
X198862500Y-117172000D01*
X219600000Y-106100000D02*
X219600000Y-106050000D01*
D41*
X228250000Y-115000000D02*
X229300000Y-115000000D01*
D39*
X202250000Y-113000000D02*
X204250000Y-113000000D01*
X197634500Y-118175000D02*
X198750000Y-117059500D01*
X232550000Y-115000000D02*
X229300000Y-115000000D01*
X232500000Y-105000000D02*
X232500000Y-105825000D01*
D38*
X206750000Y-105250000D02*
X207000000Y-105500000D01*
D39*
X202000000Y-112750000D02*
X200575000Y-112750000D01*
X216696000Y-108000000D02*
X216696000Y-107071000D01*
D41*
X221200000Y-119250000D02*
X221200000Y-117500000D01*
D38*
X217629247Y-106870753D02*
X217201047Y-106870753D01*
X217201047Y-106870753D02*
X216848400Y-107223400D01*
D39*
X232750000Y-114800000D02*
X232550000Y-115000000D01*
D41*
X225752400Y-108002400D02*
X227061655Y-108002400D01*
D39*
X197137500Y-118175000D02*
X194000000Y-118175000D01*
X249000000Y-88825000D02*
X244853800Y-92971200D01*
D38*
X227600000Y-107392213D02*
X227600000Y-106100000D01*
D41*
X220450000Y-120000000D02*
X221200000Y-119250000D01*
D39*
X207054000Y-100696000D02*
X209392000Y-100696000D01*
X216696000Y-108529000D02*
X216767000Y-108600000D01*
D41*
X227600000Y-107464055D02*
X227600000Y-106100000D01*
D38*
X216848400Y-107223400D02*
X216848400Y-108376600D01*
D39*
X199250000Y-115250000D02*
X201750000Y-115250000D01*
X216896247Y-106870753D02*
X217629247Y-106870753D01*
D41*
X227075000Y-103800000D02*
X227600000Y-104325000D01*
D39*
X219504247Y-106004247D02*
X219600000Y-106100000D01*
X244853800Y-92971200D02*
X244853800Y-93000000D01*
D38*
X226992213Y-108000000D02*
X227600000Y-107392213D01*
D39*
X236451100Y-101000000D02*
X241451100Y-96000000D01*
X203500000Y-110250000D02*
X205625000Y-108125000D01*
X194000000Y-118175000D02*
X192337500Y-119837500D01*
X198862500Y-120950000D02*
X193450000Y-120950000D01*
X193450000Y-120950000D02*
X192337500Y-119837500D01*
X216767000Y-108600000D02*
X217900000Y-108600000D01*
X216696000Y-107071000D02*
X216896247Y-106870753D01*
D41*
X219688345Y-111497600D02*
X219002400Y-112183545D01*
%TO.N,+3.3V*%
X260168609Y-125993609D02*
X260168609Y-126000000D01*
D39*
X203262500Y-119050000D02*
X203362500Y-118950000D01*
D41*
X206752400Y-119498333D02*
X205376667Y-118122600D01*
X257000000Y-122825000D02*
X260168609Y-125993609D01*
D39*
X263500000Y-117460000D02*
X263500000Y-120000000D01*
D41*
X260168609Y-125871391D02*
X260168609Y-125993609D01*
D39*
X241854500Y-125194400D02*
X242000000Y-125048900D01*
D41*
X205376667Y-118122600D02*
X204189900Y-118122600D01*
D39*
X263500000Y-120000000D02*
X263500000Y-122540000D01*
X259820000Y-125645000D02*
X260395000Y-125645000D01*
X230444400Y-125194400D02*
X241854500Y-125194400D01*
D41*
X209250000Y-125500000D02*
X206752400Y-123002400D01*
D39*
X216495552Y-125750000D02*
X216744252Y-125501300D01*
X201137500Y-119050000D02*
X203262500Y-119050000D01*
X230048900Y-124798900D02*
X230444400Y-125194400D01*
X212250000Y-125750000D02*
X216495552Y-125750000D01*
D41*
X204189900Y-118122600D02*
X203362500Y-118950000D01*
X206752400Y-123002400D02*
X206752400Y-119498333D01*
D39*
X260168609Y-126000000D02*
X260168609Y-125871391D01*
X260168609Y-126000000D02*
X245500000Y-126000000D01*
X260395000Y-125645000D02*
X263500000Y-122540000D01*
X257000000Y-122825000D02*
X259820000Y-125645000D01*
X260168609Y-125871391D02*
X260395000Y-125645000D01*
X220750000Y-124798900D02*
X230048900Y-124798900D01*
%TO.N,Net-(U5-BP)*%
X201137500Y-120950000D02*
X203587500Y-120950000D01*
D40*
%TO.N,Net-(GREEN1-A)*%
X188187500Y-71000000D02*
X188187500Y-73275000D01*
X188187500Y-73275000D02*
X188412500Y-73500000D01*
D38*
%TO.N,MISO*%
X216946800Y-115000000D02*
X216250000Y-115696800D01*
X216250000Y-115696800D02*
X216250000Y-116508494D01*
X217900000Y-115000000D02*
X216946800Y-115000000D01*
X216250000Y-116508494D02*
X216370753Y-116629247D01*
%TO.N,SCK*%
X215771800Y-115500000D02*
X215250000Y-115500000D01*
X217071800Y-114200000D02*
X215771800Y-115500000D01*
X217900000Y-114200000D02*
X217071800Y-114200000D01*
%TO.N,MOSI*%
X217900000Y-115800000D02*
X217900000Y-116580294D01*
X217900000Y-116580294D02*
X217240147Y-117240147D01*
X215879247Y-118120753D02*
X215879247Y-118620753D01*
%TO.N,TX*%
X230051600Y-116500000D02*
X228228200Y-116500000D01*
X258500000Y-115750000D02*
X244853800Y-115750000D01*
X242048900Y-115750000D02*
X230801600Y-115750000D01*
X258821600Y-116071600D02*
X262348400Y-116071600D01*
X262348400Y-116071600D02*
X263500000Y-114920000D01*
X228228200Y-116500000D02*
X228176600Y-116448400D01*
X226000000Y-116671800D02*
X226000000Y-117500000D01*
X226223400Y-116448400D02*
X226000000Y-116671800D01*
X258500000Y-115750000D02*
X258821600Y-116071600D01*
X230801600Y-115750000D02*
X230051600Y-116500000D01*
X228176600Y-116448400D02*
X226223400Y-116448400D01*
D41*
%TO.N,Net-(J3-Pin_5)*%
X257000000Y-121175000D02*
X258175000Y-120000000D01*
D38*
X257000000Y-121175000D02*
X258023400Y-120151600D01*
D41*
X258175000Y-120000000D02*
X260960000Y-120000000D01*
D38*
%TO.N,RX*%
X242000000Y-119500000D02*
X227846800Y-119500000D01*
X259250000Y-123750000D02*
X259750000Y-123750000D01*
X226800000Y-118453200D02*
X226800000Y-117500000D01*
X244853800Y-119750000D02*
X249603800Y-124500000D01*
X227846800Y-119500000D02*
X226800000Y-118453200D01*
X259750000Y-123750000D02*
X260960000Y-122540000D01*
X249603800Y-124500000D02*
X257467968Y-124500000D01*
X257467968Y-124500000D02*
X257483984Y-124516016D01*
%TO.N,Alarm*%
X250400000Y-71000000D02*
X243153200Y-78246800D01*
X243153200Y-110202100D02*
X243451100Y-110500000D01*
X243153200Y-78246800D02*
X243153200Y-110202100D01*
X238900000Y-112600000D02*
X229300000Y-112600000D01*
X241000000Y-110500000D02*
X238900000Y-112600000D01*
%TO.N,RED_LED*%
X188500000Y-84412500D02*
X186087500Y-82000000D01*
X207996800Y-109500000D02*
X188500000Y-90003200D01*
X227095203Y-110776597D02*
X228471800Y-109400000D01*
X188500000Y-90003200D02*
X188500000Y-84412500D01*
X228471800Y-109400000D02*
X229300000Y-109400000D01*
X212500000Y-109500000D02*
X207996800Y-109500000D01*
X227095203Y-111654797D02*
X227095203Y-110776597D01*
%TO.N,Net-(RED1-A)*%
X187912500Y-82000000D02*
X188250000Y-81662500D01*
X188250000Y-81662500D02*
X188250000Y-77300000D01*
%TO.N,Button_1*%
X193175000Y-106000000D02*
X191500000Y-104325000D01*
X216750000Y-118000000D02*
X216750000Y-124311716D01*
X219000000Y-124000000D02*
X220750000Y-124000000D01*
X193175000Y-107175000D02*
X197100500Y-111100500D01*
X225200000Y-119550000D02*
X225200000Y-117500000D01*
X197100500Y-111100500D02*
X210750000Y-111100500D01*
X193175000Y-107175000D02*
X193175000Y-106000000D01*
X216750000Y-124311716D02*
X217719142Y-125280858D01*
X212000000Y-113250000D02*
X216750000Y-118000000D01*
X191500000Y-104325000D02*
X191500000Y-102150000D01*
X220750000Y-124000000D02*
X225200000Y-119550000D01*
%TO.N,GREEN_LED*%
X228648900Y-114200000D02*
X223750000Y-109301100D01*
X223750000Y-102750000D02*
X222250000Y-101250000D01*
X210346800Y-84167010D02*
X210346800Y-83346800D01*
X220704797Y-100704797D02*
X216204797Y-100704797D01*
X223750000Y-104000000D02*
X223750000Y-102750000D01*
X216204797Y-100704797D02*
X215799500Y-100299500D01*
X187837500Y-74750000D02*
X186587500Y-73500000D01*
X210346800Y-83346800D02*
X201750000Y-74750000D01*
X213250000Y-100250000D02*
X213250000Y-87070210D01*
X201750000Y-74750000D02*
X187837500Y-74750000D01*
X229300000Y-114200000D02*
X228648900Y-114200000D01*
X213250000Y-87070210D02*
X210346800Y-84167010D01*
D40*
%TO.N,a*%
X214397300Y-89222300D02*
X214175000Y-89000000D01*
X214397300Y-90000000D02*
X214397300Y-89222300D01*
X227400000Y-91100000D02*
X227000000Y-91500000D01*
X228862500Y-91100000D02*
X227400000Y-91100000D01*
D38*
%TO.N,Net-(U1-a)*%
X213788400Y-86468190D02*
X216000000Y-88679790D01*
X213788400Y-69051600D02*
X213788400Y-86468190D01*
X214840000Y-68000000D02*
X213788400Y-69051600D01*
X216000000Y-88679790D02*
X216000000Y-89000000D01*
%TO.N,b*%
X227750000Y-87750000D02*
X225837500Y-87750000D01*
X232176426Y-90000000D02*
X229463213Y-87286787D01*
X225837500Y-87750000D02*
X223137500Y-90450000D01*
X232677500Y-90000000D02*
X232176426Y-90000000D01*
%TO.N,Net-(U1-b)*%
X225280840Y-68000000D02*
X238765420Y-81484580D01*
X238765420Y-81484580D02*
X238976068Y-81273932D01*
X225000000Y-68000000D02*
X225280840Y-68000000D01*
X237048900Y-83120753D02*
X234502500Y-85667153D01*
X234502500Y-85667153D02*
X234502500Y-90000000D01*
%TO.N,c*%
X225750000Y-89250000D02*
X223900000Y-91100000D01*
X223900000Y-91100000D02*
X223137500Y-91100000D01*
X229864710Y-89250000D02*
X225750000Y-89250000D01*
X232590000Y-91975290D02*
X229864710Y-89250000D01*
X232590000Y-93000000D02*
X232590000Y-91975290D01*
%TO.N,Net-(U1-c)*%
X220971600Y-82188400D02*
X237188400Y-82188400D01*
X219920000Y-83240000D02*
X220971600Y-82188400D01*
X237188400Y-82188400D02*
X237750000Y-82750000D01*
X237750000Y-89665000D02*
X234415000Y-93000000D01*
X237750000Y-82750000D02*
X237750000Y-89665000D01*
%TO.N,d*%
X219087500Y-89000000D02*
X219087500Y-90087500D01*
X221073293Y-91323293D02*
X221500000Y-91750000D01*
X219087500Y-90087500D02*
X219706787Y-90706787D01*
X221500000Y-91750000D02*
X223137500Y-91750000D01*
%TO.N,Net-(U1-d)*%
X214840000Y-83240000D02*
X220600000Y-89000000D01*
X220600000Y-89000000D02*
X220912500Y-89000000D01*
%TO.N,e*%
X219000000Y-94000000D02*
X220600000Y-92400000D01*
X220600000Y-92400000D02*
X223137500Y-92400000D01*
%TO.N,Net-(U1-e)*%
X217000000Y-90750000D02*
X217000000Y-87510500D01*
X221000000Y-93750000D02*
X221000000Y-93101100D01*
X213000000Y-84750000D02*
X213000000Y-83940000D01*
X220825000Y-94000000D02*
X220825000Y-93925000D01*
X217000000Y-87510500D02*
X214489500Y-85000000D01*
X213000000Y-83940000D02*
X212300000Y-83240000D01*
X220825000Y-93925000D02*
X221000000Y-93750000D01*
D40*
%TO.N,f*%
X222000000Y-93500000D02*
X222000000Y-93111931D01*
X222446131Y-93050000D02*
X222000000Y-93496131D01*
X221654543Y-95654543D02*
X221654543Y-96295457D01*
X222000000Y-93111931D02*
X221999449Y-93111380D01*
X221654543Y-96295457D02*
X219000000Y-98950000D01*
X222000000Y-93496131D02*
X222000000Y-93500000D01*
X223137500Y-93050000D02*
X222446131Y-93050000D01*
D38*
%TO.N,Net-(U1-f)*%
X238500000Y-94000000D02*
X234000000Y-98500000D01*
X238500000Y-82929790D02*
X238500000Y-94000000D01*
X220825000Y-98950000D02*
X232450000Y-98950000D01*
X217380000Y-68000000D02*
X231165200Y-81785200D01*
X237355410Y-81785200D02*
X238500000Y-82929790D01*
X232450000Y-98950000D02*
X232500000Y-99000000D01*
X232500000Y-99000000D02*
X232798900Y-99000000D01*
X231165200Y-81785200D02*
X237355410Y-81785200D01*
%TO.N,g*%
X214250000Y-97000000D02*
X214397300Y-97000000D01*
X222098400Y-94219180D02*
X222098400Y-94083652D01*
X222482052Y-93700000D02*
X223137500Y-93700000D01*
X218504290Y-96750000D02*
X219567580Y-96750000D01*
X214250000Y-94162500D02*
X214250000Y-97000000D01*
X222098400Y-94083652D02*
X222482052Y-93700000D01*
X219567580Y-96750000D02*
X222098400Y-94219180D01*
X214087500Y-94000000D02*
X214250000Y-94162500D01*
%TO.N,Net-(U1-g)*%
X217405080Y-94000000D02*
X222460000Y-88945080D01*
X215912500Y-94000000D02*
X217405080Y-94000000D01*
X222460000Y-88945080D02*
X222460000Y-83240000D01*
%TO.N,dp*%
X223237500Y-94250000D02*
X223137500Y-94350000D01*
X224951600Y-95798400D02*
X224951600Y-94709387D01*
X222750000Y-98000000D02*
X224951600Y-95798400D01*
X224492213Y-94250000D02*
X223237500Y-94250000D01*
X220901100Y-101500000D02*
X222750000Y-99651100D01*
X224951600Y-94709387D02*
X224492213Y-94250000D01*
X214087500Y-100940200D02*
X214397300Y-101250000D01*
X215799500Y-101500000D02*
X220901100Y-101500000D01*
X214087500Y-99000000D02*
X214087500Y-100940200D01*
%TO.N,Net-(U1-DPX)*%
X217803190Y-97109310D02*
X215912500Y-99000000D01*
X217706787Y-87543213D02*
X217706787Y-92706787D01*
X218500000Y-85908494D02*
X218545753Y-85954247D01*
X217380000Y-83240000D02*
X218500000Y-84360000D01*
X218500000Y-84750000D02*
X218500000Y-85908494D01*
X218500000Y-84360000D02*
X218500000Y-84750000D01*
X217929247Y-87320753D02*
X217706787Y-87543213D01*
X217803190Y-94577105D02*
X217803190Y-97109310D01*
%TO.N,RESET*%
X217346800Y-123917010D02*
X217346800Y-118125000D01*
X220400000Y-116546800D02*
X220400000Y-117500000D01*
X250000000Y-86175000D02*
X249000000Y-87175000D01*
X219582990Y-126153200D02*
X217346800Y-123917010D01*
X242917011Y-126153200D02*
X219582990Y-126153200D01*
X220301600Y-116448400D02*
X220400000Y-116546800D01*
X249000000Y-87175000D02*
X244152700Y-92022300D01*
X244152700Y-92022300D02*
X244152700Y-124917511D01*
X217346800Y-118125000D02*
X219023400Y-116448400D01*
X250000000Y-83850000D02*
X250000000Y-86175000D01*
X219023400Y-116448400D02*
X220301600Y-116448400D01*
X244152700Y-124917511D02*
X242917011Y-126153200D01*
%TO.N,Net-(RED2-A)*%
X191048400Y-122776600D02*
X187776600Y-122776600D01*
X187776600Y-122776600D02*
X187000000Y-122000000D01*
X191825000Y-122000000D02*
X191048400Y-122776600D01*
%TO.N,Net-(J1-D-)*%
X189000000Y-112000000D02*
X193275000Y-112000000D01*
X193275000Y-112000000D02*
X193475000Y-111800000D01*
D42*
%TO.N,USB_CON_D-*%
X198300000Y-111800000D02*
X195125000Y-111800000D01*
D38*
%TO.N,Net-(J1-D+)*%
X192475000Y-112800000D02*
X193475000Y-113800000D01*
X189000000Y-112800000D02*
X192475000Y-112800000D01*
D42*
%TO.N,USB_CON_D+*%
X198300000Y-113700000D02*
X198200000Y-113800000D01*
X198200000Y-113800000D02*
X195125000Y-113800000D01*
D38*
%TO.N,D4*%
X234701600Y-107040613D02*
X231542213Y-110200000D01*
X225000000Y-83240000D02*
X225000000Y-83815080D01*
X233500000Y-105257787D02*
X234701600Y-106459387D01*
X234701600Y-106459387D02*
X234701600Y-107040613D01*
X233500000Y-92315080D02*
X233500000Y-105257787D01*
X231542213Y-110200000D02*
X229300000Y-110200000D01*
X225000000Y-83815080D02*
X233500000Y-92315080D01*
%TO.N,D3*%
X222460000Y-68000000D02*
X234210000Y-79750000D01*
X242750000Y-86039370D02*
X242750000Y-125750000D01*
X217750000Y-123750000D02*
X217750000Y-122000000D01*
X224980275Y-125750000D02*
X224730275Y-125500000D01*
X217750000Y-122000000D02*
X219600000Y-120150000D01*
X242750000Y-125750000D02*
X224980275Y-125750000D01*
X234210000Y-79750000D02*
X236460630Y-79750000D01*
X224730275Y-125500000D02*
X219500000Y-125500000D01*
X219500000Y-125500000D02*
X217750000Y-123750000D01*
X219600000Y-120150000D02*
X219600000Y-117500000D01*
X236460630Y-79750000D02*
X242750000Y-86039370D01*
%TO.N,D2*%
X231332210Y-81382000D02*
X237522420Y-81382000D01*
X242250000Y-111000000D02*
X239850000Y-113400000D01*
X219920000Y-69969790D02*
X231332210Y-81382000D01*
X237522420Y-81382000D02*
X242250000Y-86109580D01*
X239850000Y-113400000D02*
X229300000Y-113400000D01*
X219920000Y-68000000D02*
X219920000Y-69969790D01*
X242250000Y-86109580D02*
X242250000Y-111000000D01*
%TO.N,D1*%
X210750000Y-69550000D02*
X210750000Y-84000000D01*
X210750000Y-84000000D02*
X215098400Y-88348400D01*
X219250000Y-107751816D02*
X220098184Y-108600000D01*
X215098400Y-88348400D02*
X215098400Y-103348400D01*
X220098184Y-108600000D02*
X229300000Y-108600000D01*
X215098400Y-103348400D02*
X219250000Y-107500000D01*
X219250000Y-107500000D02*
X219250000Y-107751816D01*
X212300000Y-68000000D02*
X210750000Y-69550000D01*
D40*
%TO.N,SH_CP*%
X220750000Y-109301100D02*
X220193152Y-109301100D01*
X220193152Y-109301100D02*
X218692052Y-107800000D01*
X218692052Y-107800000D02*
X217900000Y-107800000D01*
X224250000Y-102750000D02*
X224250000Y-102336544D01*
X228862500Y-93700000D02*
X229611948Y-93700000D01*
X224250000Y-102721866D02*
X224250000Y-102750000D01*
X230000000Y-99651100D02*
X227320766Y-99651100D01*
X229611948Y-93700000D02*
X230000000Y-94088052D01*
X230000000Y-94088052D02*
X230000000Y-98248900D01*
X224250000Y-102336544D02*
X224287133Y-102299411D01*
X227320766Y-99651100D02*
X224250000Y-102721866D01*
%TO.N,ST_CP*%
X237750000Y-105168555D02*
X231118555Y-111800000D01*
X231118555Y-111800000D02*
X229300000Y-111800000D01*
X231500000Y-99701100D02*
X232798900Y-101000000D01*
X237750000Y-101250000D02*
X237750000Y-105168555D01*
X229604000Y-93050000D02*
X231500000Y-94946000D01*
X228862500Y-93050000D02*
X229604000Y-93050000D01*
X231500000Y-94946000D02*
X231500000Y-98248900D01*
X231500000Y-99651100D02*
X231500000Y-99701100D01*
D38*
%TO.N,DS*%
X235750000Y-106562424D02*
X235750000Y-97750000D01*
X232750000Y-94685252D02*
X229814748Y-91750000D01*
X229300000Y-111000000D02*
X231312423Y-111000000D01*
X232750000Y-97250000D02*
X232750000Y-94685252D01*
X229814748Y-91750000D02*
X228862500Y-91750000D01*
X231312423Y-111000000D02*
X235750000Y-106562424D01*
%TO.N,/UCAP*%
X215300000Y-112575000D02*
X216075000Y-111800000D01*
X216075000Y-111800000D02*
X217900000Y-111800000D01*
%TO.N,/AREF*%
X221200000Y-103900000D02*
X221200000Y-106100000D01*
X221300000Y-103800000D02*
X221200000Y-103900000D01*
%TO.N,Net-(J1-VBUS)*%
X240862500Y-124000000D02*
X238000000Y-121137500D01*
X242000000Y-124000000D02*
X240862500Y-124000000D01*
D41*
%TO.N,unconnected-(J1-Shield-Pad6)*%
X183450000Y-108350000D02*
X183450000Y-117250000D01*
X188900000Y-108350000D02*
X183450000Y-108350000D01*
X183450000Y-117250000D02*
X188900000Y-117250000D01*
D42*
%TO.N,USB_D-*%
X213700000Y-109400000D02*
X217900000Y-109400000D01*
X200575000Y-111800000D02*
X211300000Y-111800000D01*
X211300000Y-111800000D02*
X213700000Y-109400000D01*
%TO.N,USB_D+*%
X210300000Y-113800000D02*
X213900000Y-110200000D01*
X200675000Y-113800000D02*
X210300000Y-113800000D01*
X213900000Y-110200000D02*
X217900000Y-110200000D01*
X200575000Y-113700000D02*
X200675000Y-113800000D01*
%TD*%
M02*
