%TF.GenerationSoftware,KiCad,Pcbnew,(7.0.0)*%
%TF.CreationDate,2023-04-21T00:37:14-06:00*%
%TF.ProjectId,Phase_B_Prototype,50686173-655f-4425-9f50-726f746f7479,rev?*%
%TF.SameCoordinates,Original*%
%TF.FileFunction,Legend,Bot*%
%TF.FilePolarity,Positive*%
%FSLAX46Y46*%
G04 Gerber Fmt 4.6, Leading zero omitted, Abs format (unit mm)*
G04 Created by KiCad (PCBNEW (7.0.0)) date 2023-04-21 00:37:14*
%MOMM*%
%LPD*%
G01*
G04 APERTURE LIST*
%ADD10C,0.150000*%
%ADD11C,0.120000*%
G04 APERTURE END LIST*
D10*
%TO.C,J2*%
X211813333Y-115267380D02*
X211813333Y-115981666D01*
X211813333Y-115981666D02*
X211860952Y-116124523D01*
X211860952Y-116124523D02*
X211956190Y-116219761D01*
X211956190Y-116219761D02*
X212099047Y-116267380D01*
X212099047Y-116267380D02*
X212194285Y-116267380D01*
X211384761Y-115362619D02*
X211337142Y-115315000D01*
X211337142Y-115315000D02*
X211241904Y-115267380D01*
X211241904Y-115267380D02*
X211003809Y-115267380D01*
X211003809Y-115267380D02*
X210908571Y-115315000D01*
X210908571Y-115315000D02*
X210860952Y-115362619D01*
X210860952Y-115362619D02*
X210813333Y-115457857D01*
X210813333Y-115457857D02*
X210813333Y-115553095D01*
X210813333Y-115553095D02*
X210860952Y-115695952D01*
X210860952Y-115695952D02*
X211432380Y-116267380D01*
X211432380Y-116267380D02*
X210813333Y-116267380D01*
%TO.C,J3*%
X262563333Y-111517380D02*
X262563333Y-112231666D01*
X262563333Y-112231666D02*
X262610952Y-112374523D01*
X262610952Y-112374523D02*
X262706190Y-112469761D01*
X262706190Y-112469761D02*
X262849047Y-112517380D01*
X262849047Y-112517380D02*
X262944285Y-112517380D01*
X262182380Y-111517380D02*
X261563333Y-111517380D01*
X261563333Y-111517380D02*
X261896666Y-111898333D01*
X261896666Y-111898333D02*
X261753809Y-111898333D01*
X261753809Y-111898333D02*
X261658571Y-111945952D01*
X261658571Y-111945952D02*
X261610952Y-111993571D01*
X261610952Y-111993571D02*
X261563333Y-112088809D01*
X261563333Y-112088809D02*
X261563333Y-112326904D01*
X261563333Y-112326904D02*
X261610952Y-112422142D01*
X261610952Y-112422142D02*
X261658571Y-112469761D01*
X261658571Y-112469761D02*
X261753809Y-112517380D01*
X261753809Y-112517380D02*
X262039523Y-112517380D01*
X262039523Y-112517380D02*
X262134761Y-112469761D01*
X262134761Y-112469761D02*
X262182380Y-112422142D01*
D11*
%TO.C,J2*%
X214080000Y-117340000D02*
X214080000Y-125080000D01*
X214080000Y-117340000D02*
X211480000Y-117340000D01*
X214080000Y-125080000D02*
X208880000Y-125080000D01*
X211480000Y-117340000D02*
X211480000Y-119940000D01*
X211480000Y-119940000D02*
X208880000Y-119940000D01*
X210210000Y-117340000D02*
X208880000Y-117340000D01*
X208880000Y-117340000D02*
X208880000Y-118670000D01*
X208880000Y-119940000D02*
X208880000Y-125080000D01*
%TO.C,J3*%
X264830000Y-123870000D02*
X259630000Y-123870000D01*
X264830000Y-113590000D02*
X264830000Y-123870000D01*
X264830000Y-113590000D02*
X262230000Y-113590000D01*
X262230000Y-116190000D02*
X259630000Y-116190000D01*
X262230000Y-113590000D02*
X262230000Y-116190000D01*
X260960000Y-113590000D02*
X259630000Y-113590000D01*
X259630000Y-116190000D02*
X259630000Y-123870000D01*
X259630000Y-113590000D02*
X259630000Y-114920000D01*
%TD*%
M02*
