%TF.GenerationSoftware,KiCad,Pcbnew,(7.0.0)*%
%TF.CreationDate,2023-04-21T00:37:14-06:00*%
%TF.ProjectId,Phase_B_Prototype,50686173-655f-4425-9f50-726f746f7479,rev?*%
%TF.SameCoordinates,Original*%
%TF.FileFunction,Legend,Top*%
%TF.FilePolarity,Positive*%
%FSLAX46Y46*%
G04 Gerber Fmt 4.6, Leading zero omitted, Abs format (unit mm)*
G04 Created by KiCad (PCBNEW (7.0.0)) date 2023-04-21 00:37:14*
%MOMM*%
%LPD*%
G01*
G04 APERTURE LIST*
%ADD10C,0.150000*%
%ADD11C,0.254000*%
%ADD12C,0.120000*%
%ADD13C,0.127000*%
%ADD14C,0.200000*%
%ADD15C,0.100000*%
G04 APERTURE END LIST*
D10*
X246238095Y-105042380D02*
X246238095Y-104042380D01*
X246809523Y-105042380D02*
X246380952Y-104470952D01*
X246809523Y-104042380D02*
X246238095Y-104613809D01*
X247238095Y-105042380D02*
X247238095Y-104375714D01*
X247238095Y-104042380D02*
X247190476Y-104090000D01*
X247190476Y-104090000D02*
X247238095Y-104137619D01*
X247238095Y-104137619D02*
X247285714Y-104090000D01*
X247285714Y-104090000D02*
X247238095Y-104042380D01*
X247238095Y-104042380D02*
X247238095Y-104137619D01*
X247571428Y-104375714D02*
X247952380Y-104375714D01*
X247714285Y-104042380D02*
X247714285Y-104899523D01*
X247714285Y-104899523D02*
X247761904Y-104994761D01*
X247761904Y-104994761D02*
X247857142Y-105042380D01*
X247857142Y-105042380D02*
X247952380Y-105042380D01*
X248714285Y-104994761D02*
X248619047Y-105042380D01*
X248619047Y-105042380D02*
X248428571Y-105042380D01*
X248428571Y-105042380D02*
X248333333Y-104994761D01*
X248333333Y-104994761D02*
X248285714Y-104947142D01*
X248285714Y-104947142D02*
X248238095Y-104851904D01*
X248238095Y-104851904D02*
X248238095Y-104566190D01*
X248238095Y-104566190D02*
X248285714Y-104470952D01*
X248285714Y-104470952D02*
X248333333Y-104423333D01*
X248333333Y-104423333D02*
X248428571Y-104375714D01*
X248428571Y-104375714D02*
X248619047Y-104375714D01*
X248619047Y-104375714D02*
X248714285Y-104423333D01*
X249142857Y-105042380D02*
X249142857Y-104042380D01*
X249571428Y-105042380D02*
X249571428Y-104518571D01*
X249571428Y-104518571D02*
X249523809Y-104423333D01*
X249523809Y-104423333D02*
X249428571Y-104375714D01*
X249428571Y-104375714D02*
X249285714Y-104375714D01*
X249285714Y-104375714D02*
X249190476Y-104423333D01*
X249190476Y-104423333D02*
X249142857Y-104470952D01*
X250428571Y-104994761D02*
X250333333Y-105042380D01*
X250333333Y-105042380D02*
X250142857Y-105042380D01*
X250142857Y-105042380D02*
X250047619Y-104994761D01*
X250047619Y-104994761D02*
X250000000Y-104899523D01*
X250000000Y-104899523D02*
X250000000Y-104518571D01*
X250000000Y-104518571D02*
X250047619Y-104423333D01*
X250047619Y-104423333D02*
X250142857Y-104375714D01*
X250142857Y-104375714D02*
X250333333Y-104375714D01*
X250333333Y-104375714D02*
X250428571Y-104423333D01*
X250428571Y-104423333D02*
X250476190Y-104518571D01*
X250476190Y-104518571D02*
X250476190Y-104613809D01*
X250476190Y-104613809D02*
X250000000Y-104709047D01*
X250904762Y-104375714D02*
X250904762Y-105042380D01*
X250904762Y-104470952D02*
X250952381Y-104423333D01*
X250952381Y-104423333D02*
X251047619Y-104375714D01*
X251047619Y-104375714D02*
X251190476Y-104375714D01*
X251190476Y-104375714D02*
X251285714Y-104423333D01*
X251285714Y-104423333D02*
X251333333Y-104518571D01*
X251333333Y-104518571D02*
X251333333Y-105042380D01*
X252266667Y-104042380D02*
X252838095Y-104042380D01*
X252552381Y-105042380D02*
X252552381Y-104042380D01*
X253171429Y-105042380D02*
X253171429Y-104375714D01*
X253171429Y-104042380D02*
X253123810Y-104090000D01*
X253123810Y-104090000D02*
X253171429Y-104137619D01*
X253171429Y-104137619D02*
X253219048Y-104090000D01*
X253219048Y-104090000D02*
X253171429Y-104042380D01*
X253171429Y-104042380D02*
X253171429Y-104137619D01*
X253647619Y-105042380D02*
X253647619Y-104375714D01*
X253647619Y-104470952D02*
X253695238Y-104423333D01*
X253695238Y-104423333D02*
X253790476Y-104375714D01*
X253790476Y-104375714D02*
X253933333Y-104375714D01*
X253933333Y-104375714D02*
X254028571Y-104423333D01*
X254028571Y-104423333D02*
X254076190Y-104518571D01*
X254076190Y-104518571D02*
X254076190Y-105042380D01*
X254076190Y-104518571D02*
X254123809Y-104423333D01*
X254123809Y-104423333D02*
X254219047Y-104375714D01*
X254219047Y-104375714D02*
X254361904Y-104375714D01*
X254361904Y-104375714D02*
X254457143Y-104423333D01*
X254457143Y-104423333D02*
X254504762Y-104518571D01*
X254504762Y-104518571D02*
X254504762Y-105042380D01*
X255361904Y-104994761D02*
X255266666Y-105042380D01*
X255266666Y-105042380D02*
X255076190Y-105042380D01*
X255076190Y-105042380D02*
X254980952Y-104994761D01*
X254980952Y-104994761D02*
X254933333Y-104899523D01*
X254933333Y-104899523D02*
X254933333Y-104518571D01*
X254933333Y-104518571D02*
X254980952Y-104423333D01*
X254980952Y-104423333D02*
X255076190Y-104375714D01*
X255076190Y-104375714D02*
X255266666Y-104375714D01*
X255266666Y-104375714D02*
X255361904Y-104423333D01*
X255361904Y-104423333D02*
X255409523Y-104518571D01*
X255409523Y-104518571D02*
X255409523Y-104613809D01*
X255409523Y-104613809D02*
X254933333Y-104709047D01*
X255838095Y-105042380D02*
X255838095Y-104375714D01*
X255838095Y-104566190D02*
X255885714Y-104470952D01*
X255885714Y-104470952D02*
X255933333Y-104423333D01*
X255933333Y-104423333D02*
X256028571Y-104375714D01*
X256028571Y-104375714D02*
X256123809Y-104375714D01*
X256914286Y-104042380D02*
X257247619Y-105042380D01*
X257247619Y-105042380D02*
X257580952Y-104042380D01*
X258295238Y-104994761D02*
X258200000Y-105042380D01*
X258200000Y-105042380D02*
X258009524Y-105042380D01*
X258009524Y-105042380D02*
X257914286Y-104994761D01*
X257914286Y-104994761D02*
X257866667Y-104899523D01*
X257866667Y-104899523D02*
X257866667Y-104518571D01*
X257866667Y-104518571D02*
X257914286Y-104423333D01*
X257914286Y-104423333D02*
X258009524Y-104375714D01*
X258009524Y-104375714D02*
X258200000Y-104375714D01*
X258200000Y-104375714D02*
X258295238Y-104423333D01*
X258295238Y-104423333D02*
X258342857Y-104518571D01*
X258342857Y-104518571D02*
X258342857Y-104613809D01*
X258342857Y-104613809D02*
X257866667Y-104709047D01*
X258771429Y-105042380D02*
X258771429Y-104375714D01*
X258771429Y-104566190D02*
X258819048Y-104470952D01*
X258819048Y-104470952D02*
X258866667Y-104423333D01*
X258866667Y-104423333D02*
X258961905Y-104375714D01*
X258961905Y-104375714D02*
X259057143Y-104375714D01*
X259342858Y-104994761D02*
X259438096Y-105042380D01*
X259438096Y-105042380D02*
X259628572Y-105042380D01*
X259628572Y-105042380D02*
X259723810Y-104994761D01*
X259723810Y-104994761D02*
X259771429Y-104899523D01*
X259771429Y-104899523D02*
X259771429Y-104851904D01*
X259771429Y-104851904D02*
X259723810Y-104756666D01*
X259723810Y-104756666D02*
X259628572Y-104709047D01*
X259628572Y-104709047D02*
X259485715Y-104709047D01*
X259485715Y-104709047D02*
X259390477Y-104661428D01*
X259390477Y-104661428D02*
X259342858Y-104566190D01*
X259342858Y-104566190D02*
X259342858Y-104518571D01*
X259342858Y-104518571D02*
X259390477Y-104423333D01*
X259390477Y-104423333D02*
X259485715Y-104375714D01*
X259485715Y-104375714D02*
X259628572Y-104375714D01*
X259628572Y-104375714D02*
X259723810Y-104423333D01*
X260200001Y-105042380D02*
X260200001Y-104375714D01*
X260200001Y-104042380D02*
X260152382Y-104090000D01*
X260152382Y-104090000D02*
X260200001Y-104137619D01*
X260200001Y-104137619D02*
X260247620Y-104090000D01*
X260247620Y-104090000D02*
X260200001Y-104042380D01*
X260200001Y-104042380D02*
X260200001Y-104137619D01*
X260819048Y-105042380D02*
X260723810Y-104994761D01*
X260723810Y-104994761D02*
X260676191Y-104947142D01*
X260676191Y-104947142D02*
X260628572Y-104851904D01*
X260628572Y-104851904D02*
X260628572Y-104566190D01*
X260628572Y-104566190D02*
X260676191Y-104470952D01*
X260676191Y-104470952D02*
X260723810Y-104423333D01*
X260723810Y-104423333D02*
X260819048Y-104375714D01*
X260819048Y-104375714D02*
X260961905Y-104375714D01*
X260961905Y-104375714D02*
X261057143Y-104423333D01*
X261057143Y-104423333D02*
X261104762Y-104470952D01*
X261104762Y-104470952D02*
X261152381Y-104566190D01*
X261152381Y-104566190D02*
X261152381Y-104851904D01*
X261152381Y-104851904D02*
X261104762Y-104947142D01*
X261104762Y-104947142D02*
X261057143Y-104994761D01*
X261057143Y-104994761D02*
X260961905Y-105042380D01*
X260961905Y-105042380D02*
X260819048Y-105042380D01*
X261580953Y-104375714D02*
X261580953Y-105042380D01*
X261580953Y-104470952D02*
X261628572Y-104423333D01*
X261628572Y-104423333D02*
X261723810Y-104375714D01*
X261723810Y-104375714D02*
X261866667Y-104375714D01*
X261866667Y-104375714D02*
X261961905Y-104423333D01*
X261961905Y-104423333D02*
X262009524Y-104518571D01*
X262009524Y-104518571D02*
X262009524Y-105042380D01*
X262990477Y-104042380D02*
X263609524Y-104042380D01*
X263609524Y-104042380D02*
X263276191Y-104423333D01*
X263276191Y-104423333D02*
X263419048Y-104423333D01*
X263419048Y-104423333D02*
X263514286Y-104470952D01*
X263514286Y-104470952D02*
X263561905Y-104518571D01*
X263561905Y-104518571D02*
X263609524Y-104613809D01*
X263609524Y-104613809D02*
X263609524Y-104851904D01*
X263609524Y-104851904D02*
X263561905Y-104947142D01*
X263561905Y-104947142D02*
X263514286Y-104994761D01*
X263514286Y-104994761D02*
X263419048Y-105042380D01*
X263419048Y-105042380D02*
X263133334Y-105042380D01*
X263133334Y-105042380D02*
X263038096Y-104994761D01*
X263038096Y-104994761D02*
X262990477Y-104947142D01*
X264038096Y-104947142D02*
X264085715Y-104994761D01*
X264085715Y-104994761D02*
X264038096Y-105042380D01*
X264038096Y-105042380D02*
X263990477Y-104994761D01*
X263990477Y-104994761D02*
X264038096Y-104947142D01*
X264038096Y-104947142D02*
X264038096Y-105042380D01*
X264704762Y-104042380D02*
X264800000Y-104042380D01*
X264800000Y-104042380D02*
X264895238Y-104090000D01*
X264895238Y-104090000D02*
X264942857Y-104137619D01*
X264942857Y-104137619D02*
X264990476Y-104232857D01*
X264990476Y-104232857D02*
X265038095Y-104423333D01*
X265038095Y-104423333D02*
X265038095Y-104661428D01*
X265038095Y-104661428D02*
X264990476Y-104851904D01*
X264990476Y-104851904D02*
X264942857Y-104947142D01*
X264942857Y-104947142D02*
X264895238Y-104994761D01*
X264895238Y-104994761D02*
X264800000Y-105042380D01*
X264800000Y-105042380D02*
X264704762Y-105042380D01*
X264704762Y-105042380D02*
X264609524Y-104994761D01*
X264609524Y-104994761D02*
X264561905Y-104947142D01*
X264561905Y-104947142D02*
X264514286Y-104851904D01*
X264514286Y-104851904D02*
X264466667Y-104661428D01*
X264466667Y-104661428D02*
X264466667Y-104423333D01*
X264466667Y-104423333D02*
X264514286Y-104232857D01*
X264514286Y-104232857D02*
X264561905Y-104137619D01*
X264561905Y-104137619D02*
X264609524Y-104090000D01*
X264609524Y-104090000D02*
X264704762Y-104042380D01*
X246666666Y-105995714D02*
X246666666Y-106662380D01*
X246428571Y-105614761D02*
X246190476Y-106329047D01*
X246190476Y-106329047D02*
X246809523Y-106329047D01*
X247904761Y-105614761D02*
X247047619Y-106900476D01*
X248190476Y-105757619D02*
X248238095Y-105710000D01*
X248238095Y-105710000D02*
X248333333Y-105662380D01*
X248333333Y-105662380D02*
X248571428Y-105662380D01*
X248571428Y-105662380D02*
X248666666Y-105710000D01*
X248666666Y-105710000D02*
X248714285Y-105757619D01*
X248714285Y-105757619D02*
X248761904Y-105852857D01*
X248761904Y-105852857D02*
X248761904Y-105948095D01*
X248761904Y-105948095D02*
X248714285Y-106090952D01*
X248714285Y-106090952D02*
X248142857Y-106662380D01*
X248142857Y-106662380D02*
X248761904Y-106662380D01*
X249714285Y-106662380D02*
X249142857Y-106662380D01*
X249428571Y-106662380D02*
X249428571Y-105662380D01*
X249428571Y-105662380D02*
X249333333Y-105805238D01*
X249333333Y-105805238D02*
X249238095Y-105900476D01*
X249238095Y-105900476D02*
X249142857Y-105948095D01*
X250857142Y-105614761D02*
X250000000Y-106900476D01*
X251142857Y-105757619D02*
X251190476Y-105710000D01*
X251190476Y-105710000D02*
X251285714Y-105662380D01*
X251285714Y-105662380D02*
X251523809Y-105662380D01*
X251523809Y-105662380D02*
X251619047Y-105710000D01*
X251619047Y-105710000D02*
X251666666Y-105757619D01*
X251666666Y-105757619D02*
X251714285Y-105852857D01*
X251714285Y-105852857D02*
X251714285Y-105948095D01*
X251714285Y-105948095D02*
X251666666Y-106090952D01*
X251666666Y-106090952D02*
X251095238Y-106662380D01*
X251095238Y-106662380D02*
X251714285Y-106662380D01*
X252047619Y-105662380D02*
X252666666Y-105662380D01*
X252666666Y-105662380D02*
X252333333Y-106043333D01*
X252333333Y-106043333D02*
X252476190Y-106043333D01*
X252476190Y-106043333D02*
X252571428Y-106090952D01*
X252571428Y-106090952D02*
X252619047Y-106138571D01*
X252619047Y-106138571D02*
X252666666Y-106233809D01*
X252666666Y-106233809D02*
X252666666Y-106471904D01*
X252666666Y-106471904D02*
X252619047Y-106567142D01*
X252619047Y-106567142D02*
X252571428Y-106614761D01*
X252571428Y-106614761D02*
X252476190Y-106662380D01*
X252476190Y-106662380D02*
X252190476Y-106662380D01*
X252190476Y-106662380D02*
X252095238Y-106614761D01*
X252095238Y-106614761D02*
X252047619Y-106567142D01*
X246238095Y-108282380D02*
X246238095Y-107282380D01*
X246238095Y-107282380D02*
X246809523Y-108282380D01*
X246809523Y-108282380D02*
X246809523Y-107282380D01*
X247428571Y-108282380D02*
X247333333Y-108234761D01*
X247333333Y-108234761D02*
X247285714Y-108187142D01*
X247285714Y-108187142D02*
X247238095Y-108091904D01*
X247238095Y-108091904D02*
X247238095Y-107806190D01*
X247238095Y-107806190D02*
X247285714Y-107710952D01*
X247285714Y-107710952D02*
X247333333Y-107663333D01*
X247333333Y-107663333D02*
X247428571Y-107615714D01*
X247428571Y-107615714D02*
X247571428Y-107615714D01*
X247571428Y-107615714D02*
X247666666Y-107663333D01*
X247666666Y-107663333D02*
X247714285Y-107710952D01*
X247714285Y-107710952D02*
X247761904Y-107806190D01*
X247761904Y-107806190D02*
X247761904Y-108091904D01*
X247761904Y-108091904D02*
X247714285Y-108187142D01*
X247714285Y-108187142D02*
X247666666Y-108234761D01*
X247666666Y-108234761D02*
X247571428Y-108282380D01*
X247571428Y-108282380D02*
X247428571Y-108282380D01*
X248571428Y-108234761D02*
X248476190Y-108282380D01*
X248476190Y-108282380D02*
X248285714Y-108282380D01*
X248285714Y-108282380D02*
X248190476Y-108234761D01*
X248190476Y-108234761D02*
X248142857Y-108139523D01*
X248142857Y-108139523D02*
X248142857Y-107758571D01*
X248142857Y-107758571D02*
X248190476Y-107663333D01*
X248190476Y-107663333D02*
X248285714Y-107615714D01*
X248285714Y-107615714D02*
X248476190Y-107615714D01*
X248476190Y-107615714D02*
X248571428Y-107663333D01*
X248571428Y-107663333D02*
X248619047Y-107758571D01*
X248619047Y-107758571D02*
X248619047Y-107853809D01*
X248619047Y-107853809D02*
X248142857Y-107949047D01*
X249600000Y-108234761D02*
X249742857Y-108282380D01*
X249742857Y-108282380D02*
X249980952Y-108282380D01*
X249980952Y-108282380D02*
X250076190Y-108234761D01*
X250076190Y-108234761D02*
X250123809Y-108187142D01*
X250123809Y-108187142D02*
X250171428Y-108091904D01*
X250171428Y-108091904D02*
X250171428Y-107996666D01*
X250171428Y-107996666D02*
X250123809Y-107901428D01*
X250123809Y-107901428D02*
X250076190Y-107853809D01*
X250076190Y-107853809D02*
X249980952Y-107806190D01*
X249980952Y-107806190D02*
X249790476Y-107758571D01*
X249790476Y-107758571D02*
X249695238Y-107710952D01*
X249695238Y-107710952D02*
X249647619Y-107663333D01*
X249647619Y-107663333D02*
X249600000Y-107568095D01*
X249600000Y-107568095D02*
X249600000Y-107472857D01*
X249600000Y-107472857D02*
X249647619Y-107377619D01*
X249647619Y-107377619D02*
X249695238Y-107330000D01*
X249695238Y-107330000D02*
X249790476Y-107282380D01*
X249790476Y-107282380D02*
X250028571Y-107282380D01*
X250028571Y-107282380D02*
X250171428Y-107330000D01*
X250600000Y-108282380D02*
X250600000Y-107282380D01*
X251028571Y-108282380D02*
X251028571Y-107758571D01*
X251028571Y-107758571D02*
X250980952Y-107663333D01*
X250980952Y-107663333D02*
X250885714Y-107615714D01*
X250885714Y-107615714D02*
X250742857Y-107615714D01*
X250742857Y-107615714D02*
X250647619Y-107663333D01*
X250647619Y-107663333D02*
X250600000Y-107710952D01*
X251885714Y-108234761D02*
X251790476Y-108282380D01*
X251790476Y-108282380D02*
X251600000Y-108282380D01*
X251600000Y-108282380D02*
X251504762Y-108234761D01*
X251504762Y-108234761D02*
X251457143Y-108139523D01*
X251457143Y-108139523D02*
X251457143Y-107758571D01*
X251457143Y-107758571D02*
X251504762Y-107663333D01*
X251504762Y-107663333D02*
X251600000Y-107615714D01*
X251600000Y-107615714D02*
X251790476Y-107615714D01*
X251790476Y-107615714D02*
X251885714Y-107663333D01*
X251885714Y-107663333D02*
X251933333Y-107758571D01*
X251933333Y-107758571D02*
X251933333Y-107853809D01*
X251933333Y-107853809D02*
X251457143Y-107949047D01*
X252361905Y-108282380D02*
X252361905Y-107615714D01*
X252361905Y-107806190D02*
X252409524Y-107710952D01*
X252409524Y-107710952D02*
X252457143Y-107663333D01*
X252457143Y-107663333D02*
X252552381Y-107615714D01*
X252552381Y-107615714D02*
X252647619Y-107615714D01*
X252980953Y-108282380D02*
X252980953Y-107615714D01*
X252980953Y-107282380D02*
X252933334Y-107330000D01*
X252933334Y-107330000D02*
X252980953Y-107377619D01*
X252980953Y-107377619D02*
X253028572Y-107330000D01*
X253028572Y-107330000D02*
X252980953Y-107282380D01*
X252980953Y-107282380D02*
X252980953Y-107377619D01*
X253885714Y-108282380D02*
X253885714Y-107282380D01*
X253885714Y-108234761D02*
X253790476Y-108282380D01*
X253790476Y-108282380D02*
X253600000Y-108282380D01*
X253600000Y-108282380D02*
X253504762Y-108234761D01*
X253504762Y-108234761D02*
X253457143Y-108187142D01*
X253457143Y-108187142D02*
X253409524Y-108091904D01*
X253409524Y-108091904D02*
X253409524Y-107806190D01*
X253409524Y-107806190D02*
X253457143Y-107710952D01*
X253457143Y-107710952D02*
X253504762Y-107663333D01*
X253504762Y-107663333D02*
X253600000Y-107615714D01*
X253600000Y-107615714D02*
X253790476Y-107615714D01*
X253790476Y-107615714D02*
X253885714Y-107663333D01*
X254790476Y-108282380D02*
X254790476Y-107758571D01*
X254790476Y-107758571D02*
X254742857Y-107663333D01*
X254742857Y-107663333D02*
X254647619Y-107615714D01*
X254647619Y-107615714D02*
X254457143Y-107615714D01*
X254457143Y-107615714D02*
X254361905Y-107663333D01*
X254790476Y-108234761D02*
X254695238Y-108282380D01*
X254695238Y-108282380D02*
X254457143Y-108282380D01*
X254457143Y-108282380D02*
X254361905Y-108234761D01*
X254361905Y-108234761D02*
X254314286Y-108139523D01*
X254314286Y-108139523D02*
X254314286Y-108044285D01*
X254314286Y-108044285D02*
X254361905Y-107949047D01*
X254361905Y-107949047D02*
X254457143Y-107901428D01*
X254457143Y-107901428D02*
X254695238Y-107901428D01*
X254695238Y-107901428D02*
X254790476Y-107853809D01*
X255266667Y-107615714D02*
X255266667Y-108282380D01*
X255266667Y-107710952D02*
X255314286Y-107663333D01*
X255314286Y-107663333D02*
X255409524Y-107615714D01*
X255409524Y-107615714D02*
X255552381Y-107615714D01*
X255552381Y-107615714D02*
X255647619Y-107663333D01*
X255647619Y-107663333D02*
X255695238Y-107758571D01*
X255695238Y-107758571D02*
X255695238Y-108282380D01*
%TO.C,C8*%
X215183333Y-104072142D02*
X215135714Y-104119761D01*
X215135714Y-104119761D02*
X214992857Y-104167380D01*
X214992857Y-104167380D02*
X214897619Y-104167380D01*
X214897619Y-104167380D02*
X214754762Y-104119761D01*
X214754762Y-104119761D02*
X214659524Y-104024523D01*
X214659524Y-104024523D02*
X214611905Y-103929285D01*
X214611905Y-103929285D02*
X214564286Y-103738809D01*
X214564286Y-103738809D02*
X214564286Y-103595952D01*
X214564286Y-103595952D02*
X214611905Y-103405476D01*
X214611905Y-103405476D02*
X214659524Y-103310238D01*
X214659524Y-103310238D02*
X214754762Y-103215000D01*
X214754762Y-103215000D02*
X214897619Y-103167380D01*
X214897619Y-103167380D02*
X214992857Y-103167380D01*
X214992857Y-103167380D02*
X215135714Y-103215000D01*
X215135714Y-103215000D02*
X215183333Y-103262619D01*
X215754762Y-103595952D02*
X215659524Y-103548333D01*
X215659524Y-103548333D02*
X215611905Y-103500714D01*
X215611905Y-103500714D02*
X215564286Y-103405476D01*
X215564286Y-103405476D02*
X215564286Y-103357857D01*
X215564286Y-103357857D02*
X215611905Y-103262619D01*
X215611905Y-103262619D02*
X215659524Y-103215000D01*
X215659524Y-103215000D02*
X215754762Y-103167380D01*
X215754762Y-103167380D02*
X215945238Y-103167380D01*
X215945238Y-103167380D02*
X216040476Y-103215000D01*
X216040476Y-103215000D02*
X216088095Y-103262619D01*
X216088095Y-103262619D02*
X216135714Y-103357857D01*
X216135714Y-103357857D02*
X216135714Y-103405476D01*
X216135714Y-103405476D02*
X216088095Y-103500714D01*
X216088095Y-103500714D02*
X216040476Y-103548333D01*
X216040476Y-103548333D02*
X215945238Y-103595952D01*
X215945238Y-103595952D02*
X215754762Y-103595952D01*
X215754762Y-103595952D02*
X215659524Y-103643571D01*
X215659524Y-103643571D02*
X215611905Y-103691190D01*
X215611905Y-103691190D02*
X215564286Y-103786428D01*
X215564286Y-103786428D02*
X215564286Y-103976904D01*
X215564286Y-103976904D02*
X215611905Y-104072142D01*
X215611905Y-104072142D02*
X215659524Y-104119761D01*
X215659524Y-104119761D02*
X215754762Y-104167380D01*
X215754762Y-104167380D02*
X215945238Y-104167380D01*
X215945238Y-104167380D02*
X216040476Y-104119761D01*
X216040476Y-104119761D02*
X216088095Y-104072142D01*
X216088095Y-104072142D02*
X216135714Y-103976904D01*
X216135714Y-103976904D02*
X216135714Y-103786428D01*
X216135714Y-103786428D02*
X216088095Y-103691190D01*
X216088095Y-103691190D02*
X216040476Y-103643571D01*
X216040476Y-103643571D02*
X215945238Y-103595952D01*
%TO.C,RED1*%
X183617380Y-78619047D02*
X183141190Y-78952380D01*
X183617380Y-79190475D02*
X182617380Y-79190475D01*
X182617380Y-79190475D02*
X182617380Y-78809523D01*
X182617380Y-78809523D02*
X182665000Y-78714285D01*
X182665000Y-78714285D02*
X182712619Y-78666666D01*
X182712619Y-78666666D02*
X182807857Y-78619047D01*
X182807857Y-78619047D02*
X182950714Y-78619047D01*
X182950714Y-78619047D02*
X183045952Y-78666666D01*
X183045952Y-78666666D02*
X183093571Y-78714285D01*
X183093571Y-78714285D02*
X183141190Y-78809523D01*
X183141190Y-78809523D02*
X183141190Y-79190475D01*
X183093571Y-78190475D02*
X183093571Y-77857142D01*
X183617380Y-77714285D02*
X183617380Y-78190475D01*
X183617380Y-78190475D02*
X182617380Y-78190475D01*
X182617380Y-78190475D02*
X182617380Y-77714285D01*
X183617380Y-77285713D02*
X182617380Y-77285713D01*
X182617380Y-77285713D02*
X182617380Y-77047618D01*
X182617380Y-77047618D02*
X182665000Y-76904761D01*
X182665000Y-76904761D02*
X182760238Y-76809523D01*
X182760238Y-76809523D02*
X182855476Y-76761904D01*
X182855476Y-76761904D02*
X183045952Y-76714285D01*
X183045952Y-76714285D02*
X183188809Y-76714285D01*
X183188809Y-76714285D02*
X183379285Y-76761904D01*
X183379285Y-76761904D02*
X183474523Y-76809523D01*
X183474523Y-76809523D02*
X183569761Y-76904761D01*
X183569761Y-76904761D02*
X183617380Y-77047618D01*
X183617380Y-77047618D02*
X183617380Y-77285713D01*
X183617380Y-75761904D02*
X183617380Y-76333332D01*
X183617380Y-76047618D02*
X182617380Y-76047618D01*
X182617380Y-76047618D02*
X182760238Y-76142856D01*
X182760238Y-76142856D02*
X182855476Y-76238094D01*
X182855476Y-76238094D02*
X182903095Y-76333332D01*
%TO.C,C6*%
X217758333Y-121272142D02*
X217710714Y-121319761D01*
X217710714Y-121319761D02*
X217567857Y-121367380D01*
X217567857Y-121367380D02*
X217472619Y-121367380D01*
X217472619Y-121367380D02*
X217329762Y-121319761D01*
X217329762Y-121319761D02*
X217234524Y-121224523D01*
X217234524Y-121224523D02*
X217186905Y-121129285D01*
X217186905Y-121129285D02*
X217139286Y-120938809D01*
X217139286Y-120938809D02*
X217139286Y-120795952D01*
X217139286Y-120795952D02*
X217186905Y-120605476D01*
X217186905Y-120605476D02*
X217234524Y-120510238D01*
X217234524Y-120510238D02*
X217329762Y-120415000D01*
X217329762Y-120415000D02*
X217472619Y-120367380D01*
X217472619Y-120367380D02*
X217567857Y-120367380D01*
X217567857Y-120367380D02*
X217710714Y-120415000D01*
X217710714Y-120415000D02*
X217758333Y-120462619D01*
X218615476Y-120367380D02*
X218425000Y-120367380D01*
X218425000Y-120367380D02*
X218329762Y-120415000D01*
X218329762Y-120415000D02*
X218282143Y-120462619D01*
X218282143Y-120462619D02*
X218186905Y-120605476D01*
X218186905Y-120605476D02*
X218139286Y-120795952D01*
X218139286Y-120795952D02*
X218139286Y-121176904D01*
X218139286Y-121176904D02*
X218186905Y-121272142D01*
X218186905Y-121272142D02*
X218234524Y-121319761D01*
X218234524Y-121319761D02*
X218329762Y-121367380D01*
X218329762Y-121367380D02*
X218520238Y-121367380D01*
X218520238Y-121367380D02*
X218615476Y-121319761D01*
X218615476Y-121319761D02*
X218663095Y-121272142D01*
X218663095Y-121272142D02*
X218710714Y-121176904D01*
X218710714Y-121176904D02*
X218710714Y-120938809D01*
X218710714Y-120938809D02*
X218663095Y-120843571D01*
X218663095Y-120843571D02*
X218615476Y-120795952D01*
X218615476Y-120795952D02*
X218520238Y-120748333D01*
X218520238Y-120748333D02*
X218329762Y-120748333D01*
X218329762Y-120748333D02*
X218234524Y-120795952D01*
X218234524Y-120795952D02*
X218186905Y-120843571D01*
X218186905Y-120843571D02*
X218139286Y-120938809D01*
%TO.C,R9*%
X219745833Y-92717380D02*
X219412500Y-92241190D01*
X219174405Y-92717380D02*
X219174405Y-91717380D01*
X219174405Y-91717380D02*
X219555357Y-91717380D01*
X219555357Y-91717380D02*
X219650595Y-91765000D01*
X219650595Y-91765000D02*
X219698214Y-91812619D01*
X219698214Y-91812619D02*
X219745833Y-91907857D01*
X219745833Y-91907857D02*
X219745833Y-92050714D01*
X219745833Y-92050714D02*
X219698214Y-92145952D01*
X219698214Y-92145952D02*
X219650595Y-92193571D01*
X219650595Y-92193571D02*
X219555357Y-92241190D01*
X219555357Y-92241190D02*
X219174405Y-92241190D01*
X220222024Y-92717380D02*
X220412500Y-92717380D01*
X220412500Y-92717380D02*
X220507738Y-92669761D01*
X220507738Y-92669761D02*
X220555357Y-92622142D01*
X220555357Y-92622142D02*
X220650595Y-92479285D01*
X220650595Y-92479285D02*
X220698214Y-92288809D01*
X220698214Y-92288809D02*
X220698214Y-91907857D01*
X220698214Y-91907857D02*
X220650595Y-91812619D01*
X220650595Y-91812619D02*
X220602976Y-91765000D01*
X220602976Y-91765000D02*
X220507738Y-91717380D01*
X220507738Y-91717380D02*
X220317262Y-91717380D01*
X220317262Y-91717380D02*
X220222024Y-91765000D01*
X220222024Y-91765000D02*
X220174405Y-91812619D01*
X220174405Y-91812619D02*
X220126786Y-91907857D01*
X220126786Y-91907857D02*
X220126786Y-92145952D01*
X220126786Y-92145952D02*
X220174405Y-92241190D01*
X220174405Y-92241190D02*
X220222024Y-92288809D01*
X220222024Y-92288809D02*
X220317262Y-92336428D01*
X220317262Y-92336428D02*
X220507738Y-92336428D01*
X220507738Y-92336428D02*
X220602976Y-92288809D01*
X220602976Y-92288809D02*
X220650595Y-92241190D01*
X220650595Y-92241190D02*
X220698214Y-92145952D01*
%TO.C,R15*%
X193657142Y-110167380D02*
X193323809Y-109691190D01*
X193085714Y-110167380D02*
X193085714Y-109167380D01*
X193085714Y-109167380D02*
X193466666Y-109167380D01*
X193466666Y-109167380D02*
X193561904Y-109215000D01*
X193561904Y-109215000D02*
X193609523Y-109262619D01*
X193609523Y-109262619D02*
X193657142Y-109357857D01*
X193657142Y-109357857D02*
X193657142Y-109500714D01*
X193657142Y-109500714D02*
X193609523Y-109595952D01*
X193609523Y-109595952D02*
X193561904Y-109643571D01*
X193561904Y-109643571D02*
X193466666Y-109691190D01*
X193466666Y-109691190D02*
X193085714Y-109691190D01*
X194609523Y-110167380D02*
X194038095Y-110167380D01*
X194323809Y-110167380D02*
X194323809Y-109167380D01*
X194323809Y-109167380D02*
X194228571Y-109310238D01*
X194228571Y-109310238D02*
X194133333Y-109405476D01*
X194133333Y-109405476D02*
X194038095Y-109453095D01*
X195514285Y-109167380D02*
X195038095Y-109167380D01*
X195038095Y-109167380D02*
X194990476Y-109643571D01*
X194990476Y-109643571D02*
X195038095Y-109595952D01*
X195038095Y-109595952D02*
X195133333Y-109548333D01*
X195133333Y-109548333D02*
X195371428Y-109548333D01*
X195371428Y-109548333D02*
X195466666Y-109595952D01*
X195466666Y-109595952D02*
X195514285Y-109643571D01*
X195514285Y-109643571D02*
X195561904Y-109738809D01*
X195561904Y-109738809D02*
X195561904Y-109976904D01*
X195561904Y-109976904D02*
X195514285Y-110072142D01*
X195514285Y-110072142D02*
X195466666Y-110119761D01*
X195466666Y-110119761D02*
X195371428Y-110167380D01*
X195371428Y-110167380D02*
X195133333Y-110167380D01*
X195133333Y-110167380D02*
X195038095Y-110119761D01*
X195038095Y-110119761D02*
X194990476Y-110072142D01*
%TO.C,Y1*%
X226273809Y-122891190D02*
X226273809Y-123367380D01*
X225940476Y-122367380D02*
X226273809Y-122891190D01*
X226273809Y-122891190D02*
X226607142Y-122367380D01*
X227464285Y-123367380D02*
X226892857Y-123367380D01*
X227178571Y-123367380D02*
X227178571Y-122367380D01*
X227178571Y-122367380D02*
X227083333Y-122510238D01*
X227083333Y-122510238D02*
X226988095Y-122605476D01*
X226988095Y-122605476D02*
X226892857Y-122653095D01*
%TO.C,F1*%
X237343571Y-123583333D02*
X237343571Y-123916666D01*
X237867380Y-123916666D02*
X236867380Y-123916666D01*
X236867380Y-123916666D02*
X236867380Y-123440476D01*
X237867380Y-122535714D02*
X237867380Y-123107142D01*
X237867380Y-122821428D02*
X236867380Y-122821428D01*
X236867380Y-122821428D02*
X237010238Y-122916666D01*
X237010238Y-122916666D02*
X237105476Y-123011904D01*
X237105476Y-123011904D02*
X237153095Y-123107142D01*
%TO.C,R4*%
X190083333Y-73867380D02*
X189750000Y-73391190D01*
X189511905Y-73867380D02*
X189511905Y-72867380D01*
X189511905Y-72867380D02*
X189892857Y-72867380D01*
X189892857Y-72867380D02*
X189988095Y-72915000D01*
X189988095Y-72915000D02*
X190035714Y-72962619D01*
X190035714Y-72962619D02*
X190083333Y-73057857D01*
X190083333Y-73057857D02*
X190083333Y-73200714D01*
X190083333Y-73200714D02*
X190035714Y-73295952D01*
X190035714Y-73295952D02*
X189988095Y-73343571D01*
X189988095Y-73343571D02*
X189892857Y-73391190D01*
X189892857Y-73391190D02*
X189511905Y-73391190D01*
X190940476Y-73200714D02*
X190940476Y-73867380D01*
X190702381Y-72819761D02*
X190464286Y-73534047D01*
X190464286Y-73534047D02*
X191083333Y-73534047D01*
%TO.C,S3*%
X258488095Y-81819761D02*
X258630952Y-81867380D01*
X258630952Y-81867380D02*
X258869047Y-81867380D01*
X258869047Y-81867380D02*
X258964285Y-81819761D01*
X258964285Y-81819761D02*
X259011904Y-81772142D01*
X259011904Y-81772142D02*
X259059523Y-81676904D01*
X259059523Y-81676904D02*
X259059523Y-81581666D01*
X259059523Y-81581666D02*
X259011904Y-81486428D01*
X259011904Y-81486428D02*
X258964285Y-81438809D01*
X258964285Y-81438809D02*
X258869047Y-81391190D01*
X258869047Y-81391190D02*
X258678571Y-81343571D01*
X258678571Y-81343571D02*
X258583333Y-81295952D01*
X258583333Y-81295952D02*
X258535714Y-81248333D01*
X258535714Y-81248333D02*
X258488095Y-81153095D01*
X258488095Y-81153095D02*
X258488095Y-81057857D01*
X258488095Y-81057857D02*
X258535714Y-80962619D01*
X258535714Y-80962619D02*
X258583333Y-80915000D01*
X258583333Y-80915000D02*
X258678571Y-80867380D01*
X258678571Y-80867380D02*
X258916666Y-80867380D01*
X258916666Y-80867380D02*
X259059523Y-80915000D01*
X259392857Y-80867380D02*
X260011904Y-80867380D01*
X260011904Y-80867380D02*
X259678571Y-81248333D01*
X259678571Y-81248333D02*
X259821428Y-81248333D01*
X259821428Y-81248333D02*
X259916666Y-81295952D01*
X259916666Y-81295952D02*
X259964285Y-81343571D01*
X259964285Y-81343571D02*
X260011904Y-81438809D01*
X260011904Y-81438809D02*
X260011904Y-81676904D01*
X260011904Y-81676904D02*
X259964285Y-81772142D01*
X259964285Y-81772142D02*
X259916666Y-81819761D01*
X259916666Y-81819761D02*
X259821428Y-81867380D01*
X259821428Y-81867380D02*
X259535714Y-81867380D01*
X259535714Y-81867380D02*
X259440476Y-81819761D01*
X259440476Y-81819761D02*
X259392857Y-81772142D01*
%TO.C,C9*%
X214142142Y-111966666D02*
X214189761Y-112014285D01*
X214189761Y-112014285D02*
X214237380Y-112157142D01*
X214237380Y-112157142D02*
X214237380Y-112252380D01*
X214237380Y-112252380D02*
X214189761Y-112395237D01*
X214189761Y-112395237D02*
X214094523Y-112490475D01*
X214094523Y-112490475D02*
X213999285Y-112538094D01*
X213999285Y-112538094D02*
X213808809Y-112585713D01*
X213808809Y-112585713D02*
X213665952Y-112585713D01*
X213665952Y-112585713D02*
X213475476Y-112538094D01*
X213475476Y-112538094D02*
X213380238Y-112490475D01*
X213380238Y-112490475D02*
X213285000Y-112395237D01*
X213285000Y-112395237D02*
X213237380Y-112252380D01*
X213237380Y-112252380D02*
X213237380Y-112157142D01*
X213237380Y-112157142D02*
X213285000Y-112014285D01*
X213285000Y-112014285D02*
X213332619Y-111966666D01*
X214237380Y-111490475D02*
X214237380Y-111299999D01*
X214237380Y-111299999D02*
X214189761Y-111204761D01*
X214189761Y-111204761D02*
X214142142Y-111157142D01*
X214142142Y-111157142D02*
X213999285Y-111061904D01*
X213999285Y-111061904D02*
X213808809Y-111014285D01*
X213808809Y-111014285D02*
X213427857Y-111014285D01*
X213427857Y-111014285D02*
X213332619Y-111061904D01*
X213332619Y-111061904D02*
X213285000Y-111109523D01*
X213285000Y-111109523D02*
X213237380Y-111204761D01*
X213237380Y-111204761D02*
X213237380Y-111395237D01*
X213237380Y-111395237D02*
X213285000Y-111490475D01*
X213285000Y-111490475D02*
X213332619Y-111538094D01*
X213332619Y-111538094D02*
X213427857Y-111585713D01*
X213427857Y-111585713D02*
X213665952Y-111585713D01*
X213665952Y-111585713D02*
X213761190Y-111538094D01*
X213761190Y-111538094D02*
X213808809Y-111490475D01*
X213808809Y-111490475D02*
X213856428Y-111395237D01*
X213856428Y-111395237D02*
X213856428Y-111204761D01*
X213856428Y-111204761D02*
X213808809Y-111109523D01*
X213808809Y-111109523D02*
X213761190Y-111061904D01*
X213761190Y-111061904D02*
X213665952Y-111014285D01*
%TO.C,U4*%
X198675595Y-109717380D02*
X198675595Y-110526904D01*
X198675595Y-110526904D02*
X198723214Y-110622142D01*
X198723214Y-110622142D02*
X198770833Y-110669761D01*
X198770833Y-110669761D02*
X198866071Y-110717380D01*
X198866071Y-110717380D02*
X199056547Y-110717380D01*
X199056547Y-110717380D02*
X199151785Y-110669761D01*
X199151785Y-110669761D02*
X199199404Y-110622142D01*
X199199404Y-110622142D02*
X199247023Y-110526904D01*
X199247023Y-110526904D02*
X199247023Y-109717380D01*
X200151785Y-110050714D02*
X200151785Y-110717380D01*
X199913690Y-109669761D02*
X199675595Y-110384047D01*
X199675595Y-110384047D02*
X200294642Y-110384047D01*
%TO.C,R1*%
X212833333Y-107867380D02*
X212500000Y-107391190D01*
X212261905Y-107867380D02*
X212261905Y-106867380D01*
X212261905Y-106867380D02*
X212642857Y-106867380D01*
X212642857Y-106867380D02*
X212738095Y-106915000D01*
X212738095Y-106915000D02*
X212785714Y-106962619D01*
X212785714Y-106962619D02*
X212833333Y-107057857D01*
X212833333Y-107057857D02*
X212833333Y-107200714D01*
X212833333Y-107200714D02*
X212785714Y-107295952D01*
X212785714Y-107295952D02*
X212738095Y-107343571D01*
X212738095Y-107343571D02*
X212642857Y-107391190D01*
X212642857Y-107391190D02*
X212261905Y-107391190D01*
X213785714Y-107867380D02*
X213214286Y-107867380D01*
X213500000Y-107867380D02*
X213500000Y-106867380D01*
X213500000Y-106867380D02*
X213404762Y-107010238D01*
X213404762Y-107010238D02*
X213309524Y-107105476D01*
X213309524Y-107105476D02*
X213214286Y-107153095D01*
%TO.C,C12*%
X218657142Y-102297142D02*
X218609523Y-102344761D01*
X218609523Y-102344761D02*
X218466666Y-102392380D01*
X218466666Y-102392380D02*
X218371428Y-102392380D01*
X218371428Y-102392380D02*
X218228571Y-102344761D01*
X218228571Y-102344761D02*
X218133333Y-102249523D01*
X218133333Y-102249523D02*
X218085714Y-102154285D01*
X218085714Y-102154285D02*
X218038095Y-101963809D01*
X218038095Y-101963809D02*
X218038095Y-101820952D01*
X218038095Y-101820952D02*
X218085714Y-101630476D01*
X218085714Y-101630476D02*
X218133333Y-101535238D01*
X218133333Y-101535238D02*
X218228571Y-101440000D01*
X218228571Y-101440000D02*
X218371428Y-101392380D01*
X218371428Y-101392380D02*
X218466666Y-101392380D01*
X218466666Y-101392380D02*
X218609523Y-101440000D01*
X218609523Y-101440000D02*
X218657142Y-101487619D01*
X219609523Y-102392380D02*
X219038095Y-102392380D01*
X219323809Y-102392380D02*
X219323809Y-101392380D01*
X219323809Y-101392380D02*
X219228571Y-101535238D01*
X219228571Y-101535238D02*
X219133333Y-101630476D01*
X219133333Y-101630476D02*
X219038095Y-101678095D01*
X219990476Y-101487619D02*
X220038095Y-101440000D01*
X220038095Y-101440000D02*
X220133333Y-101392380D01*
X220133333Y-101392380D02*
X220371428Y-101392380D01*
X220371428Y-101392380D02*
X220466666Y-101440000D01*
X220466666Y-101440000D02*
X220514285Y-101487619D01*
X220514285Y-101487619D02*
X220561904Y-101582857D01*
X220561904Y-101582857D02*
X220561904Y-101678095D01*
X220561904Y-101678095D02*
X220514285Y-101820952D01*
X220514285Y-101820952D02*
X219942857Y-102392380D01*
X219942857Y-102392380D02*
X220561904Y-102392380D01*
%TO.C,U1*%
X191357380Y-84401904D02*
X192166904Y-84401904D01*
X192166904Y-84401904D02*
X192262142Y-84354285D01*
X192262142Y-84354285D02*
X192309761Y-84306666D01*
X192309761Y-84306666D02*
X192357380Y-84211428D01*
X192357380Y-84211428D02*
X192357380Y-84020952D01*
X192357380Y-84020952D02*
X192309761Y-83925714D01*
X192309761Y-83925714D02*
X192262142Y-83878095D01*
X192262142Y-83878095D02*
X192166904Y-83830476D01*
X192166904Y-83830476D02*
X191357380Y-83830476D01*
X192357380Y-82830476D02*
X192357380Y-83401904D01*
X192357380Y-83116190D02*
X191357380Y-83116190D01*
X191357380Y-83116190D02*
X191500238Y-83211428D01*
X191500238Y-83211428D02*
X191595476Y-83306666D01*
X191595476Y-83306666D02*
X191643095Y-83401904D01*
%TO.C,C4*%
X231583333Y-108772142D02*
X231535714Y-108819761D01*
X231535714Y-108819761D02*
X231392857Y-108867380D01*
X231392857Y-108867380D02*
X231297619Y-108867380D01*
X231297619Y-108867380D02*
X231154762Y-108819761D01*
X231154762Y-108819761D02*
X231059524Y-108724523D01*
X231059524Y-108724523D02*
X231011905Y-108629285D01*
X231011905Y-108629285D02*
X230964286Y-108438809D01*
X230964286Y-108438809D02*
X230964286Y-108295952D01*
X230964286Y-108295952D02*
X231011905Y-108105476D01*
X231011905Y-108105476D02*
X231059524Y-108010238D01*
X231059524Y-108010238D02*
X231154762Y-107915000D01*
X231154762Y-107915000D02*
X231297619Y-107867380D01*
X231297619Y-107867380D02*
X231392857Y-107867380D01*
X231392857Y-107867380D02*
X231535714Y-107915000D01*
X231535714Y-107915000D02*
X231583333Y-107962619D01*
X232440476Y-108200714D02*
X232440476Y-108867380D01*
X232202381Y-107819761D02*
X231964286Y-108534047D01*
X231964286Y-108534047D02*
X232583333Y-108534047D01*
%TO.C,R8*%
X219833333Y-87717380D02*
X219500000Y-87241190D01*
X219261905Y-87717380D02*
X219261905Y-86717380D01*
X219261905Y-86717380D02*
X219642857Y-86717380D01*
X219642857Y-86717380D02*
X219738095Y-86765000D01*
X219738095Y-86765000D02*
X219785714Y-86812619D01*
X219785714Y-86812619D02*
X219833333Y-86907857D01*
X219833333Y-86907857D02*
X219833333Y-87050714D01*
X219833333Y-87050714D02*
X219785714Y-87145952D01*
X219785714Y-87145952D02*
X219738095Y-87193571D01*
X219738095Y-87193571D02*
X219642857Y-87241190D01*
X219642857Y-87241190D02*
X219261905Y-87241190D01*
X220404762Y-87145952D02*
X220309524Y-87098333D01*
X220309524Y-87098333D02*
X220261905Y-87050714D01*
X220261905Y-87050714D02*
X220214286Y-86955476D01*
X220214286Y-86955476D02*
X220214286Y-86907857D01*
X220214286Y-86907857D02*
X220261905Y-86812619D01*
X220261905Y-86812619D02*
X220309524Y-86765000D01*
X220309524Y-86765000D02*
X220404762Y-86717380D01*
X220404762Y-86717380D02*
X220595238Y-86717380D01*
X220595238Y-86717380D02*
X220690476Y-86765000D01*
X220690476Y-86765000D02*
X220738095Y-86812619D01*
X220738095Y-86812619D02*
X220785714Y-86907857D01*
X220785714Y-86907857D02*
X220785714Y-86955476D01*
X220785714Y-86955476D02*
X220738095Y-87050714D01*
X220738095Y-87050714D02*
X220690476Y-87098333D01*
X220690476Y-87098333D02*
X220595238Y-87145952D01*
X220595238Y-87145952D02*
X220404762Y-87145952D01*
X220404762Y-87145952D02*
X220309524Y-87193571D01*
X220309524Y-87193571D02*
X220261905Y-87241190D01*
X220261905Y-87241190D02*
X220214286Y-87336428D01*
X220214286Y-87336428D02*
X220214286Y-87526904D01*
X220214286Y-87526904D02*
X220261905Y-87622142D01*
X220261905Y-87622142D02*
X220309524Y-87669761D01*
X220309524Y-87669761D02*
X220404762Y-87717380D01*
X220404762Y-87717380D02*
X220595238Y-87717380D01*
X220595238Y-87717380D02*
X220690476Y-87669761D01*
X220690476Y-87669761D02*
X220738095Y-87622142D01*
X220738095Y-87622142D02*
X220785714Y-87526904D01*
X220785714Y-87526904D02*
X220785714Y-87336428D01*
X220785714Y-87336428D02*
X220738095Y-87241190D01*
X220738095Y-87241190D02*
X220690476Y-87193571D01*
X220690476Y-87193571D02*
X220595238Y-87145952D01*
%TO.C,C14*%
X202857142Y-117772142D02*
X202809523Y-117819761D01*
X202809523Y-117819761D02*
X202666666Y-117867380D01*
X202666666Y-117867380D02*
X202571428Y-117867380D01*
X202571428Y-117867380D02*
X202428571Y-117819761D01*
X202428571Y-117819761D02*
X202333333Y-117724523D01*
X202333333Y-117724523D02*
X202285714Y-117629285D01*
X202285714Y-117629285D02*
X202238095Y-117438809D01*
X202238095Y-117438809D02*
X202238095Y-117295952D01*
X202238095Y-117295952D02*
X202285714Y-117105476D01*
X202285714Y-117105476D02*
X202333333Y-117010238D01*
X202333333Y-117010238D02*
X202428571Y-116915000D01*
X202428571Y-116915000D02*
X202571428Y-116867380D01*
X202571428Y-116867380D02*
X202666666Y-116867380D01*
X202666666Y-116867380D02*
X202809523Y-116915000D01*
X202809523Y-116915000D02*
X202857142Y-116962619D01*
X203809523Y-117867380D02*
X203238095Y-117867380D01*
X203523809Y-117867380D02*
X203523809Y-116867380D01*
X203523809Y-116867380D02*
X203428571Y-117010238D01*
X203428571Y-117010238D02*
X203333333Y-117105476D01*
X203333333Y-117105476D02*
X203238095Y-117153095D01*
X204666666Y-117200714D02*
X204666666Y-117867380D01*
X204428571Y-116819761D02*
X204190476Y-117534047D01*
X204190476Y-117534047D02*
X204809523Y-117534047D01*
%TO.C,C7*%
X226133333Y-103072142D02*
X226085714Y-103119761D01*
X226085714Y-103119761D02*
X225942857Y-103167380D01*
X225942857Y-103167380D02*
X225847619Y-103167380D01*
X225847619Y-103167380D02*
X225704762Y-103119761D01*
X225704762Y-103119761D02*
X225609524Y-103024523D01*
X225609524Y-103024523D02*
X225561905Y-102929285D01*
X225561905Y-102929285D02*
X225514286Y-102738809D01*
X225514286Y-102738809D02*
X225514286Y-102595952D01*
X225514286Y-102595952D02*
X225561905Y-102405476D01*
X225561905Y-102405476D02*
X225609524Y-102310238D01*
X225609524Y-102310238D02*
X225704762Y-102215000D01*
X225704762Y-102215000D02*
X225847619Y-102167380D01*
X225847619Y-102167380D02*
X225942857Y-102167380D01*
X225942857Y-102167380D02*
X226085714Y-102215000D01*
X226085714Y-102215000D02*
X226133333Y-102262619D01*
X226466667Y-102167380D02*
X227133333Y-102167380D01*
X227133333Y-102167380D02*
X226704762Y-103167380D01*
%TO.C,C1*%
X262058333Y-90842142D02*
X262010714Y-90889761D01*
X262010714Y-90889761D02*
X261867857Y-90937380D01*
X261867857Y-90937380D02*
X261772619Y-90937380D01*
X261772619Y-90937380D02*
X261629762Y-90889761D01*
X261629762Y-90889761D02*
X261534524Y-90794523D01*
X261534524Y-90794523D02*
X261486905Y-90699285D01*
X261486905Y-90699285D02*
X261439286Y-90508809D01*
X261439286Y-90508809D02*
X261439286Y-90365952D01*
X261439286Y-90365952D02*
X261486905Y-90175476D01*
X261486905Y-90175476D02*
X261534524Y-90080238D01*
X261534524Y-90080238D02*
X261629762Y-89985000D01*
X261629762Y-89985000D02*
X261772619Y-89937380D01*
X261772619Y-89937380D02*
X261867857Y-89937380D01*
X261867857Y-89937380D02*
X262010714Y-89985000D01*
X262010714Y-89985000D02*
X262058333Y-90032619D01*
X263010714Y-90937380D02*
X262439286Y-90937380D01*
X262725000Y-90937380D02*
X262725000Y-89937380D01*
X262725000Y-89937380D02*
X262629762Y-90080238D01*
X262629762Y-90080238D02*
X262534524Y-90175476D01*
X262534524Y-90175476D02*
X262439286Y-90223095D01*
%TO.C,C10*%
X233002142Y-118442857D02*
X233049761Y-118490476D01*
X233049761Y-118490476D02*
X233097380Y-118633333D01*
X233097380Y-118633333D02*
X233097380Y-118728571D01*
X233097380Y-118728571D02*
X233049761Y-118871428D01*
X233049761Y-118871428D02*
X232954523Y-118966666D01*
X232954523Y-118966666D02*
X232859285Y-119014285D01*
X232859285Y-119014285D02*
X232668809Y-119061904D01*
X232668809Y-119061904D02*
X232525952Y-119061904D01*
X232525952Y-119061904D02*
X232335476Y-119014285D01*
X232335476Y-119014285D02*
X232240238Y-118966666D01*
X232240238Y-118966666D02*
X232145000Y-118871428D01*
X232145000Y-118871428D02*
X232097380Y-118728571D01*
X232097380Y-118728571D02*
X232097380Y-118633333D01*
X232097380Y-118633333D02*
X232145000Y-118490476D01*
X232145000Y-118490476D02*
X232192619Y-118442857D01*
X233097380Y-117490476D02*
X233097380Y-118061904D01*
X233097380Y-117776190D02*
X232097380Y-117776190D01*
X232097380Y-117776190D02*
X232240238Y-117871428D01*
X232240238Y-117871428D02*
X232335476Y-117966666D01*
X232335476Y-117966666D02*
X232383095Y-118061904D01*
X232097380Y-116871428D02*
X232097380Y-116776190D01*
X232097380Y-116776190D02*
X232145000Y-116680952D01*
X232145000Y-116680952D02*
X232192619Y-116633333D01*
X232192619Y-116633333D02*
X232287857Y-116585714D01*
X232287857Y-116585714D02*
X232478333Y-116538095D01*
X232478333Y-116538095D02*
X232716428Y-116538095D01*
X232716428Y-116538095D02*
X232906904Y-116585714D01*
X232906904Y-116585714D02*
X233002142Y-116633333D01*
X233002142Y-116633333D02*
X233049761Y-116680952D01*
X233049761Y-116680952D02*
X233097380Y-116776190D01*
X233097380Y-116776190D02*
X233097380Y-116871428D01*
X233097380Y-116871428D02*
X233049761Y-116966666D01*
X233049761Y-116966666D02*
X233002142Y-117014285D01*
X233002142Y-117014285D02*
X232906904Y-117061904D01*
X232906904Y-117061904D02*
X232716428Y-117109523D01*
X232716428Y-117109523D02*
X232478333Y-117109523D01*
X232478333Y-117109523D02*
X232287857Y-117061904D01*
X232287857Y-117061904D02*
X232192619Y-117014285D01*
X232192619Y-117014285D02*
X232145000Y-116966666D01*
X232145000Y-116966666D02*
X232097380Y-116871428D01*
%TO.C,R6*%
X232833333Y-88717380D02*
X232500000Y-88241190D01*
X232261905Y-88717380D02*
X232261905Y-87717380D01*
X232261905Y-87717380D02*
X232642857Y-87717380D01*
X232642857Y-87717380D02*
X232738095Y-87765000D01*
X232738095Y-87765000D02*
X232785714Y-87812619D01*
X232785714Y-87812619D02*
X232833333Y-87907857D01*
X232833333Y-87907857D02*
X232833333Y-88050714D01*
X232833333Y-88050714D02*
X232785714Y-88145952D01*
X232785714Y-88145952D02*
X232738095Y-88193571D01*
X232738095Y-88193571D02*
X232642857Y-88241190D01*
X232642857Y-88241190D02*
X232261905Y-88241190D01*
X233690476Y-87717380D02*
X233500000Y-87717380D01*
X233500000Y-87717380D02*
X233404762Y-87765000D01*
X233404762Y-87765000D02*
X233357143Y-87812619D01*
X233357143Y-87812619D02*
X233261905Y-87955476D01*
X233261905Y-87955476D02*
X233214286Y-88145952D01*
X233214286Y-88145952D02*
X233214286Y-88526904D01*
X233214286Y-88526904D02*
X233261905Y-88622142D01*
X233261905Y-88622142D02*
X233309524Y-88669761D01*
X233309524Y-88669761D02*
X233404762Y-88717380D01*
X233404762Y-88717380D02*
X233595238Y-88717380D01*
X233595238Y-88717380D02*
X233690476Y-88669761D01*
X233690476Y-88669761D02*
X233738095Y-88622142D01*
X233738095Y-88622142D02*
X233785714Y-88526904D01*
X233785714Y-88526904D02*
X233785714Y-88288809D01*
X233785714Y-88288809D02*
X233738095Y-88193571D01*
X233738095Y-88193571D02*
X233690476Y-88145952D01*
X233690476Y-88145952D02*
X233595238Y-88098333D01*
X233595238Y-88098333D02*
X233404762Y-88098333D01*
X233404762Y-88098333D02*
X233309524Y-88145952D01*
X233309524Y-88145952D02*
X233261905Y-88193571D01*
X233261905Y-88193571D02*
X233214286Y-88288809D01*
%TO.C,R11*%
X214357142Y-92717380D02*
X214023809Y-92241190D01*
X213785714Y-92717380D02*
X213785714Y-91717380D01*
X213785714Y-91717380D02*
X214166666Y-91717380D01*
X214166666Y-91717380D02*
X214261904Y-91765000D01*
X214261904Y-91765000D02*
X214309523Y-91812619D01*
X214309523Y-91812619D02*
X214357142Y-91907857D01*
X214357142Y-91907857D02*
X214357142Y-92050714D01*
X214357142Y-92050714D02*
X214309523Y-92145952D01*
X214309523Y-92145952D02*
X214261904Y-92193571D01*
X214261904Y-92193571D02*
X214166666Y-92241190D01*
X214166666Y-92241190D02*
X213785714Y-92241190D01*
X215309523Y-92717380D02*
X214738095Y-92717380D01*
X215023809Y-92717380D02*
X215023809Y-91717380D01*
X215023809Y-91717380D02*
X214928571Y-91860238D01*
X214928571Y-91860238D02*
X214833333Y-91955476D01*
X214833333Y-91955476D02*
X214738095Y-92003095D01*
X216261904Y-92717380D02*
X215690476Y-92717380D01*
X215976190Y-92717380D02*
X215976190Y-91717380D01*
X215976190Y-91717380D02*
X215880952Y-91860238D01*
X215880952Y-91860238D02*
X215785714Y-91955476D01*
X215785714Y-91955476D02*
X215690476Y-92003095D01*
%TO.C,C2*%
X232272142Y-123166666D02*
X232319761Y-123214285D01*
X232319761Y-123214285D02*
X232367380Y-123357142D01*
X232367380Y-123357142D02*
X232367380Y-123452380D01*
X232367380Y-123452380D02*
X232319761Y-123595237D01*
X232319761Y-123595237D02*
X232224523Y-123690475D01*
X232224523Y-123690475D02*
X232129285Y-123738094D01*
X232129285Y-123738094D02*
X231938809Y-123785713D01*
X231938809Y-123785713D02*
X231795952Y-123785713D01*
X231795952Y-123785713D02*
X231605476Y-123738094D01*
X231605476Y-123738094D02*
X231510238Y-123690475D01*
X231510238Y-123690475D02*
X231415000Y-123595237D01*
X231415000Y-123595237D02*
X231367380Y-123452380D01*
X231367380Y-123452380D02*
X231367380Y-123357142D01*
X231367380Y-123357142D02*
X231415000Y-123214285D01*
X231415000Y-123214285D02*
X231462619Y-123166666D01*
X231462619Y-122785713D02*
X231415000Y-122738094D01*
X231415000Y-122738094D02*
X231367380Y-122642856D01*
X231367380Y-122642856D02*
X231367380Y-122404761D01*
X231367380Y-122404761D02*
X231415000Y-122309523D01*
X231415000Y-122309523D02*
X231462619Y-122261904D01*
X231462619Y-122261904D02*
X231557857Y-122214285D01*
X231557857Y-122214285D02*
X231653095Y-122214285D01*
X231653095Y-122214285D02*
X231795952Y-122261904D01*
X231795952Y-122261904D02*
X232367380Y-122833332D01*
X232367380Y-122833332D02*
X232367380Y-122214285D01*
%TO.C,R14*%
X193657142Y-116167380D02*
X193323809Y-115691190D01*
X193085714Y-116167380D02*
X193085714Y-115167380D01*
X193085714Y-115167380D02*
X193466666Y-115167380D01*
X193466666Y-115167380D02*
X193561904Y-115215000D01*
X193561904Y-115215000D02*
X193609523Y-115262619D01*
X193609523Y-115262619D02*
X193657142Y-115357857D01*
X193657142Y-115357857D02*
X193657142Y-115500714D01*
X193657142Y-115500714D02*
X193609523Y-115595952D01*
X193609523Y-115595952D02*
X193561904Y-115643571D01*
X193561904Y-115643571D02*
X193466666Y-115691190D01*
X193466666Y-115691190D02*
X193085714Y-115691190D01*
X194609523Y-116167380D02*
X194038095Y-116167380D01*
X194323809Y-116167380D02*
X194323809Y-115167380D01*
X194323809Y-115167380D02*
X194228571Y-115310238D01*
X194228571Y-115310238D02*
X194133333Y-115405476D01*
X194133333Y-115405476D02*
X194038095Y-115453095D01*
X195466666Y-115500714D02*
X195466666Y-116167380D01*
X195228571Y-115119761D02*
X194990476Y-115834047D01*
X194990476Y-115834047D02*
X195609523Y-115834047D01*
%TO.C,R17*%
X255617380Y-122142857D02*
X255141190Y-122476190D01*
X255617380Y-122714285D02*
X254617380Y-122714285D01*
X254617380Y-122714285D02*
X254617380Y-122333333D01*
X254617380Y-122333333D02*
X254665000Y-122238095D01*
X254665000Y-122238095D02*
X254712619Y-122190476D01*
X254712619Y-122190476D02*
X254807857Y-122142857D01*
X254807857Y-122142857D02*
X254950714Y-122142857D01*
X254950714Y-122142857D02*
X255045952Y-122190476D01*
X255045952Y-122190476D02*
X255093571Y-122238095D01*
X255093571Y-122238095D02*
X255141190Y-122333333D01*
X255141190Y-122333333D02*
X255141190Y-122714285D01*
X255617380Y-121190476D02*
X255617380Y-121761904D01*
X255617380Y-121476190D02*
X254617380Y-121476190D01*
X254617380Y-121476190D02*
X254760238Y-121571428D01*
X254760238Y-121571428D02*
X254855476Y-121666666D01*
X254855476Y-121666666D02*
X254903095Y-121761904D01*
X254617380Y-120857142D02*
X254617380Y-120190476D01*
X254617380Y-120190476D02*
X255617380Y-120619047D01*
%TO.C,U3*%
X228488095Y-105367380D02*
X228488095Y-106176904D01*
X228488095Y-106176904D02*
X228535714Y-106272142D01*
X228535714Y-106272142D02*
X228583333Y-106319761D01*
X228583333Y-106319761D02*
X228678571Y-106367380D01*
X228678571Y-106367380D02*
X228869047Y-106367380D01*
X228869047Y-106367380D02*
X228964285Y-106319761D01*
X228964285Y-106319761D02*
X229011904Y-106272142D01*
X229011904Y-106272142D02*
X229059523Y-106176904D01*
X229059523Y-106176904D02*
X229059523Y-105367380D01*
X229440476Y-105367380D02*
X230059523Y-105367380D01*
X230059523Y-105367380D02*
X229726190Y-105748333D01*
X229726190Y-105748333D02*
X229869047Y-105748333D01*
X229869047Y-105748333D02*
X229964285Y-105795952D01*
X229964285Y-105795952D02*
X230011904Y-105843571D01*
X230011904Y-105843571D02*
X230059523Y-105938809D01*
X230059523Y-105938809D02*
X230059523Y-106176904D01*
X230059523Y-106176904D02*
X230011904Y-106272142D01*
X230011904Y-106272142D02*
X229964285Y-106319761D01*
X229964285Y-106319761D02*
X229869047Y-106367380D01*
X229869047Y-106367380D02*
X229583333Y-106367380D01*
X229583333Y-106367380D02*
X229488095Y-106319761D01*
X229488095Y-106319761D02*
X229440476Y-106272142D01*
%TO.C,R10*%
X219269642Y-97667380D02*
X218936309Y-97191190D01*
X218698214Y-97667380D02*
X218698214Y-96667380D01*
X218698214Y-96667380D02*
X219079166Y-96667380D01*
X219079166Y-96667380D02*
X219174404Y-96715000D01*
X219174404Y-96715000D02*
X219222023Y-96762619D01*
X219222023Y-96762619D02*
X219269642Y-96857857D01*
X219269642Y-96857857D02*
X219269642Y-97000714D01*
X219269642Y-97000714D02*
X219222023Y-97095952D01*
X219222023Y-97095952D02*
X219174404Y-97143571D01*
X219174404Y-97143571D02*
X219079166Y-97191190D01*
X219079166Y-97191190D02*
X218698214Y-97191190D01*
X220222023Y-97667380D02*
X219650595Y-97667380D01*
X219936309Y-97667380D02*
X219936309Y-96667380D01*
X219936309Y-96667380D02*
X219841071Y-96810238D01*
X219841071Y-96810238D02*
X219745833Y-96905476D01*
X219745833Y-96905476D02*
X219650595Y-96953095D01*
X220841071Y-96667380D02*
X220936309Y-96667380D01*
X220936309Y-96667380D02*
X221031547Y-96715000D01*
X221031547Y-96715000D02*
X221079166Y-96762619D01*
X221079166Y-96762619D02*
X221126785Y-96857857D01*
X221126785Y-96857857D02*
X221174404Y-97048333D01*
X221174404Y-97048333D02*
X221174404Y-97286428D01*
X221174404Y-97286428D02*
X221126785Y-97476904D01*
X221126785Y-97476904D02*
X221079166Y-97572142D01*
X221079166Y-97572142D02*
X221031547Y-97619761D01*
X221031547Y-97619761D02*
X220936309Y-97667380D01*
X220936309Y-97667380D02*
X220841071Y-97667380D01*
X220841071Y-97667380D02*
X220745833Y-97619761D01*
X220745833Y-97619761D02*
X220698214Y-97572142D01*
X220698214Y-97572142D02*
X220650595Y-97476904D01*
X220650595Y-97476904D02*
X220602976Y-97286428D01*
X220602976Y-97286428D02*
X220602976Y-97048333D01*
X220602976Y-97048333D02*
X220650595Y-96857857D01*
X220650595Y-96857857D02*
X220698214Y-96762619D01*
X220698214Y-96762619D02*
X220745833Y-96715000D01*
X220745833Y-96715000D02*
X220841071Y-96667380D01*
%TO.C,R12*%
X214357142Y-97717380D02*
X214023809Y-97241190D01*
X213785714Y-97717380D02*
X213785714Y-96717380D01*
X213785714Y-96717380D02*
X214166666Y-96717380D01*
X214166666Y-96717380D02*
X214261904Y-96765000D01*
X214261904Y-96765000D02*
X214309523Y-96812619D01*
X214309523Y-96812619D02*
X214357142Y-96907857D01*
X214357142Y-96907857D02*
X214357142Y-97050714D01*
X214357142Y-97050714D02*
X214309523Y-97145952D01*
X214309523Y-97145952D02*
X214261904Y-97193571D01*
X214261904Y-97193571D02*
X214166666Y-97241190D01*
X214166666Y-97241190D02*
X213785714Y-97241190D01*
X215309523Y-97717380D02*
X214738095Y-97717380D01*
X215023809Y-97717380D02*
X215023809Y-96717380D01*
X215023809Y-96717380D02*
X214928571Y-96860238D01*
X214928571Y-96860238D02*
X214833333Y-96955476D01*
X214833333Y-96955476D02*
X214738095Y-97003095D01*
X215690476Y-96812619D02*
X215738095Y-96765000D01*
X215738095Y-96765000D02*
X215833333Y-96717380D01*
X215833333Y-96717380D02*
X216071428Y-96717380D01*
X216071428Y-96717380D02*
X216166666Y-96765000D01*
X216166666Y-96765000D02*
X216214285Y-96812619D01*
X216214285Y-96812619D02*
X216261904Y-96907857D01*
X216261904Y-96907857D02*
X216261904Y-97003095D01*
X216261904Y-97003095D02*
X216214285Y-97145952D01*
X216214285Y-97145952D02*
X215642857Y-97717380D01*
X215642857Y-97717380D02*
X216261904Y-97717380D01*
%TO.C,RED2*%
X184943452Y-120717380D02*
X184610119Y-120241190D01*
X184372024Y-120717380D02*
X184372024Y-119717380D01*
X184372024Y-119717380D02*
X184752976Y-119717380D01*
X184752976Y-119717380D02*
X184848214Y-119765000D01*
X184848214Y-119765000D02*
X184895833Y-119812619D01*
X184895833Y-119812619D02*
X184943452Y-119907857D01*
X184943452Y-119907857D02*
X184943452Y-120050714D01*
X184943452Y-120050714D02*
X184895833Y-120145952D01*
X184895833Y-120145952D02*
X184848214Y-120193571D01*
X184848214Y-120193571D02*
X184752976Y-120241190D01*
X184752976Y-120241190D02*
X184372024Y-120241190D01*
X185372024Y-120193571D02*
X185705357Y-120193571D01*
X185848214Y-120717380D02*
X185372024Y-120717380D01*
X185372024Y-120717380D02*
X185372024Y-119717380D01*
X185372024Y-119717380D02*
X185848214Y-119717380D01*
X186276786Y-120717380D02*
X186276786Y-119717380D01*
X186276786Y-119717380D02*
X186514881Y-119717380D01*
X186514881Y-119717380D02*
X186657738Y-119765000D01*
X186657738Y-119765000D02*
X186752976Y-119860238D01*
X186752976Y-119860238D02*
X186800595Y-119955476D01*
X186800595Y-119955476D02*
X186848214Y-120145952D01*
X186848214Y-120145952D02*
X186848214Y-120288809D01*
X186848214Y-120288809D02*
X186800595Y-120479285D01*
X186800595Y-120479285D02*
X186752976Y-120574523D01*
X186752976Y-120574523D02*
X186657738Y-120669761D01*
X186657738Y-120669761D02*
X186514881Y-120717380D01*
X186514881Y-120717380D02*
X186276786Y-120717380D01*
X187229167Y-119812619D02*
X187276786Y-119765000D01*
X187276786Y-119765000D02*
X187372024Y-119717380D01*
X187372024Y-119717380D02*
X187610119Y-119717380D01*
X187610119Y-119717380D02*
X187705357Y-119765000D01*
X187705357Y-119765000D02*
X187752976Y-119812619D01*
X187752976Y-119812619D02*
X187800595Y-119907857D01*
X187800595Y-119907857D02*
X187800595Y-120003095D01*
X187800595Y-120003095D02*
X187752976Y-120145952D01*
X187752976Y-120145952D02*
X187181548Y-120717380D01*
X187181548Y-120717380D02*
X187800595Y-120717380D01*
%TO.C,R5*%
X214920833Y-87717380D02*
X214587500Y-87241190D01*
X214349405Y-87717380D02*
X214349405Y-86717380D01*
X214349405Y-86717380D02*
X214730357Y-86717380D01*
X214730357Y-86717380D02*
X214825595Y-86765000D01*
X214825595Y-86765000D02*
X214873214Y-86812619D01*
X214873214Y-86812619D02*
X214920833Y-86907857D01*
X214920833Y-86907857D02*
X214920833Y-87050714D01*
X214920833Y-87050714D02*
X214873214Y-87145952D01*
X214873214Y-87145952D02*
X214825595Y-87193571D01*
X214825595Y-87193571D02*
X214730357Y-87241190D01*
X214730357Y-87241190D02*
X214349405Y-87241190D01*
X215825595Y-86717380D02*
X215349405Y-86717380D01*
X215349405Y-86717380D02*
X215301786Y-87193571D01*
X215301786Y-87193571D02*
X215349405Y-87145952D01*
X215349405Y-87145952D02*
X215444643Y-87098333D01*
X215444643Y-87098333D02*
X215682738Y-87098333D01*
X215682738Y-87098333D02*
X215777976Y-87145952D01*
X215777976Y-87145952D02*
X215825595Y-87193571D01*
X215825595Y-87193571D02*
X215873214Y-87288809D01*
X215873214Y-87288809D02*
X215873214Y-87526904D01*
X215873214Y-87526904D02*
X215825595Y-87622142D01*
X215825595Y-87622142D02*
X215777976Y-87669761D01*
X215777976Y-87669761D02*
X215682738Y-87717380D01*
X215682738Y-87717380D02*
X215444643Y-87717380D01*
X215444643Y-87717380D02*
X215349405Y-87669761D01*
X215349405Y-87669761D02*
X215301786Y-87622142D01*
%TO.C,C13*%
X195272142Y-120142857D02*
X195319761Y-120190476D01*
X195319761Y-120190476D02*
X195367380Y-120333333D01*
X195367380Y-120333333D02*
X195367380Y-120428571D01*
X195367380Y-120428571D02*
X195319761Y-120571428D01*
X195319761Y-120571428D02*
X195224523Y-120666666D01*
X195224523Y-120666666D02*
X195129285Y-120714285D01*
X195129285Y-120714285D02*
X194938809Y-120761904D01*
X194938809Y-120761904D02*
X194795952Y-120761904D01*
X194795952Y-120761904D02*
X194605476Y-120714285D01*
X194605476Y-120714285D02*
X194510238Y-120666666D01*
X194510238Y-120666666D02*
X194415000Y-120571428D01*
X194415000Y-120571428D02*
X194367380Y-120428571D01*
X194367380Y-120428571D02*
X194367380Y-120333333D01*
X194367380Y-120333333D02*
X194415000Y-120190476D01*
X194415000Y-120190476D02*
X194462619Y-120142857D01*
X195367380Y-119190476D02*
X195367380Y-119761904D01*
X195367380Y-119476190D02*
X194367380Y-119476190D01*
X194367380Y-119476190D02*
X194510238Y-119571428D01*
X194510238Y-119571428D02*
X194605476Y-119666666D01*
X194605476Y-119666666D02*
X194653095Y-119761904D01*
X194367380Y-118857142D02*
X194367380Y-118238095D01*
X194367380Y-118238095D02*
X194748333Y-118571428D01*
X194748333Y-118571428D02*
X194748333Y-118428571D01*
X194748333Y-118428571D02*
X194795952Y-118333333D01*
X194795952Y-118333333D02*
X194843571Y-118285714D01*
X194843571Y-118285714D02*
X194938809Y-118238095D01*
X194938809Y-118238095D02*
X195176904Y-118238095D01*
X195176904Y-118238095D02*
X195272142Y-118285714D01*
X195272142Y-118285714D02*
X195319761Y-118333333D01*
X195319761Y-118333333D02*
X195367380Y-118428571D01*
X195367380Y-118428571D02*
X195367380Y-118714285D01*
X195367380Y-118714285D02*
X195319761Y-118809523D01*
X195319761Y-118809523D02*
X195272142Y-118857142D01*
%TO.C,R16*%
X189107142Y-120867380D02*
X188773809Y-120391190D01*
X188535714Y-120867380D02*
X188535714Y-119867380D01*
X188535714Y-119867380D02*
X188916666Y-119867380D01*
X188916666Y-119867380D02*
X189011904Y-119915000D01*
X189011904Y-119915000D02*
X189059523Y-119962619D01*
X189059523Y-119962619D02*
X189107142Y-120057857D01*
X189107142Y-120057857D02*
X189107142Y-120200714D01*
X189107142Y-120200714D02*
X189059523Y-120295952D01*
X189059523Y-120295952D02*
X189011904Y-120343571D01*
X189011904Y-120343571D02*
X188916666Y-120391190D01*
X188916666Y-120391190D02*
X188535714Y-120391190D01*
X190059523Y-120867380D02*
X189488095Y-120867380D01*
X189773809Y-120867380D02*
X189773809Y-119867380D01*
X189773809Y-119867380D02*
X189678571Y-120010238D01*
X189678571Y-120010238D02*
X189583333Y-120105476D01*
X189583333Y-120105476D02*
X189488095Y-120153095D01*
X190916666Y-119867380D02*
X190726190Y-119867380D01*
X190726190Y-119867380D02*
X190630952Y-119915000D01*
X190630952Y-119915000D02*
X190583333Y-119962619D01*
X190583333Y-119962619D02*
X190488095Y-120105476D01*
X190488095Y-120105476D02*
X190440476Y-120295952D01*
X190440476Y-120295952D02*
X190440476Y-120676904D01*
X190440476Y-120676904D02*
X190488095Y-120772142D01*
X190488095Y-120772142D02*
X190535714Y-120819761D01*
X190535714Y-120819761D02*
X190630952Y-120867380D01*
X190630952Y-120867380D02*
X190821428Y-120867380D01*
X190821428Y-120867380D02*
X190916666Y-120819761D01*
X190916666Y-120819761D02*
X190964285Y-120772142D01*
X190964285Y-120772142D02*
X191011904Y-120676904D01*
X191011904Y-120676904D02*
X191011904Y-120438809D01*
X191011904Y-120438809D02*
X190964285Y-120343571D01*
X190964285Y-120343571D02*
X190916666Y-120295952D01*
X190916666Y-120295952D02*
X190821428Y-120248333D01*
X190821428Y-120248333D02*
X190630952Y-120248333D01*
X190630952Y-120248333D02*
X190535714Y-120295952D01*
X190535714Y-120295952D02*
X190488095Y-120343571D01*
X190488095Y-120343571D02*
X190440476Y-120438809D01*
%TO.C,C11*%
X232882142Y-113642142D02*
X232834523Y-113689761D01*
X232834523Y-113689761D02*
X232691666Y-113737380D01*
X232691666Y-113737380D02*
X232596428Y-113737380D01*
X232596428Y-113737380D02*
X232453571Y-113689761D01*
X232453571Y-113689761D02*
X232358333Y-113594523D01*
X232358333Y-113594523D02*
X232310714Y-113499285D01*
X232310714Y-113499285D02*
X232263095Y-113308809D01*
X232263095Y-113308809D02*
X232263095Y-113165952D01*
X232263095Y-113165952D02*
X232310714Y-112975476D01*
X232310714Y-112975476D02*
X232358333Y-112880238D01*
X232358333Y-112880238D02*
X232453571Y-112785000D01*
X232453571Y-112785000D02*
X232596428Y-112737380D01*
X232596428Y-112737380D02*
X232691666Y-112737380D01*
X232691666Y-112737380D02*
X232834523Y-112785000D01*
X232834523Y-112785000D02*
X232882142Y-112832619D01*
X233834523Y-113737380D02*
X233263095Y-113737380D01*
X233548809Y-113737380D02*
X233548809Y-112737380D01*
X233548809Y-112737380D02*
X233453571Y-112880238D01*
X233453571Y-112880238D02*
X233358333Y-112975476D01*
X233358333Y-112975476D02*
X233263095Y-113023095D01*
X234786904Y-113737380D02*
X234215476Y-113737380D01*
X234501190Y-113737380D02*
X234501190Y-112737380D01*
X234501190Y-112737380D02*
X234405952Y-112880238D01*
X234405952Y-112880238D02*
X234310714Y-112975476D01*
X234310714Y-112975476D02*
X234215476Y-113023095D01*
%TO.C,R7*%
X236083333Y-93617380D02*
X235750000Y-93141190D01*
X235511905Y-93617380D02*
X235511905Y-92617380D01*
X235511905Y-92617380D02*
X235892857Y-92617380D01*
X235892857Y-92617380D02*
X235988095Y-92665000D01*
X235988095Y-92665000D02*
X236035714Y-92712619D01*
X236035714Y-92712619D02*
X236083333Y-92807857D01*
X236083333Y-92807857D02*
X236083333Y-92950714D01*
X236083333Y-92950714D02*
X236035714Y-93045952D01*
X236035714Y-93045952D02*
X235988095Y-93093571D01*
X235988095Y-93093571D02*
X235892857Y-93141190D01*
X235892857Y-93141190D02*
X235511905Y-93141190D01*
X236416667Y-92617380D02*
X237083333Y-92617380D01*
X237083333Y-92617380D02*
X236654762Y-93617380D01*
D11*
%TO.C,S2*%
X205906097Y-95967619D02*
X205966573Y-95786190D01*
X205966573Y-95786190D02*
X205966573Y-95483809D01*
X205966573Y-95483809D02*
X205906097Y-95362857D01*
X205906097Y-95362857D02*
X205845621Y-95302381D01*
X205845621Y-95302381D02*
X205724669Y-95241904D01*
X205724669Y-95241904D02*
X205603716Y-95241904D01*
X205603716Y-95241904D02*
X205482764Y-95302381D01*
X205482764Y-95302381D02*
X205422288Y-95362857D01*
X205422288Y-95362857D02*
X205361811Y-95483809D01*
X205361811Y-95483809D02*
X205301335Y-95725714D01*
X205301335Y-95725714D02*
X205240859Y-95846666D01*
X205240859Y-95846666D02*
X205180383Y-95907143D01*
X205180383Y-95907143D02*
X205059430Y-95967619D01*
X205059430Y-95967619D02*
X204938478Y-95967619D01*
X204938478Y-95967619D02*
X204817526Y-95907143D01*
X204817526Y-95907143D02*
X204757050Y-95846666D01*
X204757050Y-95846666D02*
X204696573Y-95725714D01*
X204696573Y-95725714D02*
X204696573Y-95423333D01*
X204696573Y-95423333D02*
X204757050Y-95241904D01*
X204817526Y-94758095D02*
X204757050Y-94697619D01*
X204757050Y-94697619D02*
X204696573Y-94576666D01*
X204696573Y-94576666D02*
X204696573Y-94274285D01*
X204696573Y-94274285D02*
X204757050Y-94153333D01*
X204757050Y-94153333D02*
X204817526Y-94092857D01*
X204817526Y-94092857D02*
X204938478Y-94032380D01*
X204938478Y-94032380D02*
X205059430Y-94032380D01*
X205059430Y-94032380D02*
X205240859Y-94092857D01*
X205240859Y-94092857D02*
X205966573Y-94818571D01*
X205966573Y-94818571D02*
X205966573Y-94032380D01*
D10*
%TO.C,R2*%
X193920833Y-104717380D02*
X193587500Y-104241190D01*
X193349405Y-104717380D02*
X193349405Y-103717380D01*
X193349405Y-103717380D02*
X193730357Y-103717380D01*
X193730357Y-103717380D02*
X193825595Y-103765000D01*
X193825595Y-103765000D02*
X193873214Y-103812619D01*
X193873214Y-103812619D02*
X193920833Y-103907857D01*
X193920833Y-103907857D02*
X193920833Y-104050714D01*
X193920833Y-104050714D02*
X193873214Y-104145952D01*
X193873214Y-104145952D02*
X193825595Y-104193571D01*
X193825595Y-104193571D02*
X193730357Y-104241190D01*
X193730357Y-104241190D02*
X193349405Y-104241190D01*
X194301786Y-103812619D02*
X194349405Y-103765000D01*
X194349405Y-103765000D02*
X194444643Y-103717380D01*
X194444643Y-103717380D02*
X194682738Y-103717380D01*
X194682738Y-103717380D02*
X194777976Y-103765000D01*
X194777976Y-103765000D02*
X194825595Y-103812619D01*
X194825595Y-103812619D02*
X194873214Y-103907857D01*
X194873214Y-103907857D02*
X194873214Y-104003095D01*
X194873214Y-104003095D02*
X194825595Y-104145952D01*
X194825595Y-104145952D02*
X194254167Y-104717380D01*
X194254167Y-104717380D02*
X194873214Y-104717380D01*
%TO.C,C3*%
X222842142Y-122941666D02*
X222889761Y-122989285D01*
X222889761Y-122989285D02*
X222937380Y-123132142D01*
X222937380Y-123132142D02*
X222937380Y-123227380D01*
X222937380Y-123227380D02*
X222889761Y-123370237D01*
X222889761Y-123370237D02*
X222794523Y-123465475D01*
X222794523Y-123465475D02*
X222699285Y-123513094D01*
X222699285Y-123513094D02*
X222508809Y-123560713D01*
X222508809Y-123560713D02*
X222365952Y-123560713D01*
X222365952Y-123560713D02*
X222175476Y-123513094D01*
X222175476Y-123513094D02*
X222080238Y-123465475D01*
X222080238Y-123465475D02*
X221985000Y-123370237D01*
X221985000Y-123370237D02*
X221937380Y-123227380D01*
X221937380Y-123227380D02*
X221937380Y-123132142D01*
X221937380Y-123132142D02*
X221985000Y-122989285D01*
X221985000Y-122989285D02*
X222032619Y-122941666D01*
X221937380Y-122608332D02*
X221937380Y-121989285D01*
X221937380Y-121989285D02*
X222318333Y-122322618D01*
X222318333Y-122322618D02*
X222318333Y-122179761D01*
X222318333Y-122179761D02*
X222365952Y-122084523D01*
X222365952Y-122084523D02*
X222413571Y-122036904D01*
X222413571Y-122036904D02*
X222508809Y-121989285D01*
X222508809Y-121989285D02*
X222746904Y-121989285D01*
X222746904Y-121989285D02*
X222842142Y-122036904D01*
X222842142Y-122036904D02*
X222889761Y-122084523D01*
X222889761Y-122084523D02*
X222937380Y-122179761D01*
X222937380Y-122179761D02*
X222937380Y-122465475D01*
X222937380Y-122465475D02*
X222889761Y-122560713D01*
X222889761Y-122560713D02*
X222842142Y-122608332D01*
%TO.C,GREEN1*%
X185107142Y-68765000D02*
X185011904Y-68717380D01*
X185011904Y-68717380D02*
X184869047Y-68717380D01*
X184869047Y-68717380D02*
X184726190Y-68765000D01*
X184726190Y-68765000D02*
X184630952Y-68860238D01*
X184630952Y-68860238D02*
X184583333Y-68955476D01*
X184583333Y-68955476D02*
X184535714Y-69145952D01*
X184535714Y-69145952D02*
X184535714Y-69288809D01*
X184535714Y-69288809D02*
X184583333Y-69479285D01*
X184583333Y-69479285D02*
X184630952Y-69574523D01*
X184630952Y-69574523D02*
X184726190Y-69669761D01*
X184726190Y-69669761D02*
X184869047Y-69717380D01*
X184869047Y-69717380D02*
X184964285Y-69717380D01*
X184964285Y-69717380D02*
X185107142Y-69669761D01*
X185107142Y-69669761D02*
X185154761Y-69622142D01*
X185154761Y-69622142D02*
X185154761Y-69288809D01*
X185154761Y-69288809D02*
X184964285Y-69288809D01*
X186154761Y-69717380D02*
X185821428Y-69241190D01*
X185583333Y-69717380D02*
X185583333Y-68717380D01*
X185583333Y-68717380D02*
X185964285Y-68717380D01*
X185964285Y-68717380D02*
X186059523Y-68765000D01*
X186059523Y-68765000D02*
X186107142Y-68812619D01*
X186107142Y-68812619D02*
X186154761Y-68907857D01*
X186154761Y-68907857D02*
X186154761Y-69050714D01*
X186154761Y-69050714D02*
X186107142Y-69145952D01*
X186107142Y-69145952D02*
X186059523Y-69193571D01*
X186059523Y-69193571D02*
X185964285Y-69241190D01*
X185964285Y-69241190D02*
X185583333Y-69241190D01*
X186583333Y-69193571D02*
X186916666Y-69193571D01*
X187059523Y-69717380D02*
X186583333Y-69717380D01*
X186583333Y-69717380D02*
X186583333Y-68717380D01*
X186583333Y-68717380D02*
X187059523Y-68717380D01*
X187488095Y-69193571D02*
X187821428Y-69193571D01*
X187964285Y-69717380D02*
X187488095Y-69717380D01*
X187488095Y-69717380D02*
X187488095Y-68717380D01*
X187488095Y-68717380D02*
X187964285Y-68717380D01*
X188392857Y-69717380D02*
X188392857Y-68717380D01*
X188392857Y-68717380D02*
X188964285Y-69717380D01*
X188964285Y-69717380D02*
X188964285Y-68717380D01*
X189964285Y-69717380D02*
X189392857Y-69717380D01*
X189678571Y-69717380D02*
X189678571Y-68717380D01*
X189678571Y-68717380D02*
X189583333Y-68860238D01*
X189583333Y-68860238D02*
X189488095Y-68955476D01*
X189488095Y-68955476D02*
X189392857Y-69003095D01*
%TO.C,U5*%
X199488095Y-116867380D02*
X199488095Y-117676904D01*
X199488095Y-117676904D02*
X199535714Y-117772142D01*
X199535714Y-117772142D02*
X199583333Y-117819761D01*
X199583333Y-117819761D02*
X199678571Y-117867380D01*
X199678571Y-117867380D02*
X199869047Y-117867380D01*
X199869047Y-117867380D02*
X199964285Y-117819761D01*
X199964285Y-117819761D02*
X200011904Y-117772142D01*
X200011904Y-117772142D02*
X200059523Y-117676904D01*
X200059523Y-117676904D02*
X200059523Y-116867380D01*
X201011904Y-116867380D02*
X200535714Y-116867380D01*
X200535714Y-116867380D02*
X200488095Y-117343571D01*
X200488095Y-117343571D02*
X200535714Y-117295952D01*
X200535714Y-117295952D02*
X200630952Y-117248333D01*
X200630952Y-117248333D02*
X200869047Y-117248333D01*
X200869047Y-117248333D02*
X200964285Y-117295952D01*
X200964285Y-117295952D02*
X201011904Y-117343571D01*
X201011904Y-117343571D02*
X201059523Y-117438809D01*
X201059523Y-117438809D02*
X201059523Y-117676904D01*
X201059523Y-117676904D02*
X201011904Y-117772142D01*
X201011904Y-117772142D02*
X200964285Y-117819761D01*
X200964285Y-117819761D02*
X200869047Y-117867380D01*
X200869047Y-117867380D02*
X200630952Y-117867380D01*
X200630952Y-117867380D02*
X200535714Y-117819761D01*
X200535714Y-117819761D02*
X200488095Y-117772142D01*
%TO.C,C15*%
X203494642Y-123222142D02*
X203447023Y-123269761D01*
X203447023Y-123269761D02*
X203304166Y-123317380D01*
X203304166Y-123317380D02*
X203208928Y-123317380D01*
X203208928Y-123317380D02*
X203066071Y-123269761D01*
X203066071Y-123269761D02*
X202970833Y-123174523D01*
X202970833Y-123174523D02*
X202923214Y-123079285D01*
X202923214Y-123079285D02*
X202875595Y-122888809D01*
X202875595Y-122888809D02*
X202875595Y-122745952D01*
X202875595Y-122745952D02*
X202923214Y-122555476D01*
X202923214Y-122555476D02*
X202970833Y-122460238D01*
X202970833Y-122460238D02*
X203066071Y-122365000D01*
X203066071Y-122365000D02*
X203208928Y-122317380D01*
X203208928Y-122317380D02*
X203304166Y-122317380D01*
X203304166Y-122317380D02*
X203447023Y-122365000D01*
X203447023Y-122365000D02*
X203494642Y-122412619D01*
X204447023Y-123317380D02*
X203875595Y-123317380D01*
X204161309Y-123317380D02*
X204161309Y-122317380D01*
X204161309Y-122317380D02*
X204066071Y-122460238D01*
X204066071Y-122460238D02*
X203970833Y-122555476D01*
X203970833Y-122555476D02*
X203875595Y-122603095D01*
X205351785Y-122317380D02*
X204875595Y-122317380D01*
X204875595Y-122317380D02*
X204827976Y-122793571D01*
X204827976Y-122793571D02*
X204875595Y-122745952D01*
X204875595Y-122745952D02*
X204970833Y-122698333D01*
X204970833Y-122698333D02*
X205208928Y-122698333D01*
X205208928Y-122698333D02*
X205304166Y-122745952D01*
X205304166Y-122745952D02*
X205351785Y-122793571D01*
X205351785Y-122793571D02*
X205399404Y-122888809D01*
X205399404Y-122888809D02*
X205399404Y-123126904D01*
X205399404Y-123126904D02*
X205351785Y-123222142D01*
X205351785Y-123222142D02*
X205304166Y-123269761D01*
X205304166Y-123269761D02*
X205208928Y-123317380D01*
X205208928Y-123317380D02*
X204970833Y-123317380D01*
X204970833Y-123317380D02*
X204875595Y-123269761D01*
X204875595Y-123269761D02*
X204827976Y-123222142D01*
%TO.C,J1*%
X190667380Y-113133333D02*
X191381666Y-113133333D01*
X191381666Y-113133333D02*
X191524523Y-113180952D01*
X191524523Y-113180952D02*
X191619761Y-113276190D01*
X191619761Y-113276190D02*
X191667380Y-113419047D01*
X191667380Y-113419047D02*
X191667380Y-113514285D01*
X191667380Y-112133333D02*
X191667380Y-112704761D01*
X191667380Y-112419047D02*
X190667380Y-112419047D01*
X190667380Y-112419047D02*
X190810238Y-112514285D01*
X190810238Y-112514285D02*
X190905476Y-112609523D01*
X190905476Y-112609523D02*
X190953095Y-112704761D01*
%TO.C,R3*%
X189833333Y-82367380D02*
X189500000Y-81891190D01*
X189261905Y-82367380D02*
X189261905Y-81367380D01*
X189261905Y-81367380D02*
X189642857Y-81367380D01*
X189642857Y-81367380D02*
X189738095Y-81415000D01*
X189738095Y-81415000D02*
X189785714Y-81462619D01*
X189785714Y-81462619D02*
X189833333Y-81557857D01*
X189833333Y-81557857D02*
X189833333Y-81700714D01*
X189833333Y-81700714D02*
X189785714Y-81795952D01*
X189785714Y-81795952D02*
X189738095Y-81843571D01*
X189738095Y-81843571D02*
X189642857Y-81891190D01*
X189642857Y-81891190D02*
X189261905Y-81891190D01*
X190166667Y-81367380D02*
X190785714Y-81367380D01*
X190785714Y-81367380D02*
X190452381Y-81748333D01*
X190452381Y-81748333D02*
X190595238Y-81748333D01*
X190595238Y-81748333D02*
X190690476Y-81795952D01*
X190690476Y-81795952D02*
X190738095Y-81843571D01*
X190738095Y-81843571D02*
X190785714Y-81938809D01*
X190785714Y-81938809D02*
X190785714Y-82176904D01*
X190785714Y-82176904D02*
X190738095Y-82272142D01*
X190738095Y-82272142D02*
X190690476Y-82319761D01*
X190690476Y-82319761D02*
X190595238Y-82367380D01*
X190595238Y-82367380D02*
X190309524Y-82367380D01*
X190309524Y-82367380D02*
X190214286Y-82319761D01*
X190214286Y-82319761D02*
X190166667Y-82272142D01*
%TO.C,R13*%
X251367380Y-88892857D02*
X250891190Y-89226190D01*
X251367380Y-89464285D02*
X250367380Y-89464285D01*
X250367380Y-89464285D02*
X250367380Y-89083333D01*
X250367380Y-89083333D02*
X250415000Y-88988095D01*
X250415000Y-88988095D02*
X250462619Y-88940476D01*
X250462619Y-88940476D02*
X250557857Y-88892857D01*
X250557857Y-88892857D02*
X250700714Y-88892857D01*
X250700714Y-88892857D02*
X250795952Y-88940476D01*
X250795952Y-88940476D02*
X250843571Y-88988095D01*
X250843571Y-88988095D02*
X250891190Y-89083333D01*
X250891190Y-89083333D02*
X250891190Y-89464285D01*
X251367380Y-87940476D02*
X251367380Y-88511904D01*
X251367380Y-88226190D02*
X250367380Y-88226190D01*
X250367380Y-88226190D02*
X250510238Y-88321428D01*
X250510238Y-88321428D02*
X250605476Y-88416666D01*
X250605476Y-88416666D02*
X250653095Y-88511904D01*
X250367380Y-87607142D02*
X250367380Y-86988095D01*
X250367380Y-86988095D02*
X250748333Y-87321428D01*
X250748333Y-87321428D02*
X250748333Y-87178571D01*
X250748333Y-87178571D02*
X250795952Y-87083333D01*
X250795952Y-87083333D02*
X250843571Y-87035714D01*
X250843571Y-87035714D02*
X250938809Y-86988095D01*
X250938809Y-86988095D02*
X251176904Y-86988095D01*
X251176904Y-86988095D02*
X251272142Y-87035714D01*
X251272142Y-87035714D02*
X251319761Y-87083333D01*
X251319761Y-87083333D02*
X251367380Y-87178571D01*
X251367380Y-87178571D02*
X251367380Y-87464285D01*
X251367380Y-87464285D02*
X251319761Y-87559523D01*
X251319761Y-87559523D02*
X251272142Y-87607142D01*
%TO.C,LS1*%
X260357142Y-76617380D02*
X259880952Y-76617380D01*
X259880952Y-76617380D02*
X259880952Y-75617380D01*
X260642857Y-76569761D02*
X260785714Y-76617380D01*
X260785714Y-76617380D02*
X261023809Y-76617380D01*
X261023809Y-76617380D02*
X261119047Y-76569761D01*
X261119047Y-76569761D02*
X261166666Y-76522142D01*
X261166666Y-76522142D02*
X261214285Y-76426904D01*
X261214285Y-76426904D02*
X261214285Y-76331666D01*
X261214285Y-76331666D02*
X261166666Y-76236428D01*
X261166666Y-76236428D02*
X261119047Y-76188809D01*
X261119047Y-76188809D02*
X261023809Y-76141190D01*
X261023809Y-76141190D02*
X260833333Y-76093571D01*
X260833333Y-76093571D02*
X260738095Y-76045952D01*
X260738095Y-76045952D02*
X260690476Y-75998333D01*
X260690476Y-75998333D02*
X260642857Y-75903095D01*
X260642857Y-75903095D02*
X260642857Y-75807857D01*
X260642857Y-75807857D02*
X260690476Y-75712619D01*
X260690476Y-75712619D02*
X260738095Y-75665000D01*
X260738095Y-75665000D02*
X260833333Y-75617380D01*
X260833333Y-75617380D02*
X261071428Y-75617380D01*
X261071428Y-75617380D02*
X261214285Y-75665000D01*
X262166666Y-76617380D02*
X261595238Y-76617380D01*
X261880952Y-76617380D02*
X261880952Y-75617380D01*
X261880952Y-75617380D02*
X261785714Y-75760238D01*
X261785714Y-75760238D02*
X261690476Y-75855476D01*
X261690476Y-75855476D02*
X261595238Y-75903095D01*
X251459048Y-69496428D02*
X252220953Y-69496428D01*
X251840000Y-69877380D02*
X251840000Y-69115476D01*
%TO.C,C5*%
X229908333Y-102642142D02*
X229860714Y-102689761D01*
X229860714Y-102689761D02*
X229717857Y-102737380D01*
X229717857Y-102737380D02*
X229622619Y-102737380D01*
X229622619Y-102737380D02*
X229479762Y-102689761D01*
X229479762Y-102689761D02*
X229384524Y-102594523D01*
X229384524Y-102594523D02*
X229336905Y-102499285D01*
X229336905Y-102499285D02*
X229289286Y-102308809D01*
X229289286Y-102308809D02*
X229289286Y-102165952D01*
X229289286Y-102165952D02*
X229336905Y-101975476D01*
X229336905Y-101975476D02*
X229384524Y-101880238D01*
X229384524Y-101880238D02*
X229479762Y-101785000D01*
X229479762Y-101785000D02*
X229622619Y-101737380D01*
X229622619Y-101737380D02*
X229717857Y-101737380D01*
X229717857Y-101737380D02*
X229860714Y-101785000D01*
X229860714Y-101785000D02*
X229908333Y-101832619D01*
X230813095Y-101737380D02*
X230336905Y-101737380D01*
X230336905Y-101737380D02*
X230289286Y-102213571D01*
X230289286Y-102213571D02*
X230336905Y-102165952D01*
X230336905Y-102165952D02*
X230432143Y-102118333D01*
X230432143Y-102118333D02*
X230670238Y-102118333D01*
X230670238Y-102118333D02*
X230765476Y-102165952D01*
X230765476Y-102165952D02*
X230813095Y-102213571D01*
X230813095Y-102213571D02*
X230860714Y-102308809D01*
X230860714Y-102308809D02*
X230860714Y-102546904D01*
X230860714Y-102546904D02*
X230813095Y-102642142D01*
X230813095Y-102642142D02*
X230765476Y-102689761D01*
X230765476Y-102689761D02*
X230670238Y-102737380D01*
X230670238Y-102737380D02*
X230432143Y-102737380D01*
X230432143Y-102737380D02*
X230336905Y-102689761D01*
X230336905Y-102689761D02*
X230289286Y-102642142D01*
D11*
%TO.C,S1*%
X189406097Y-95967619D02*
X189466573Y-95786190D01*
X189466573Y-95786190D02*
X189466573Y-95483809D01*
X189466573Y-95483809D02*
X189406097Y-95362857D01*
X189406097Y-95362857D02*
X189345621Y-95302381D01*
X189345621Y-95302381D02*
X189224669Y-95241904D01*
X189224669Y-95241904D02*
X189103716Y-95241904D01*
X189103716Y-95241904D02*
X188982764Y-95302381D01*
X188982764Y-95302381D02*
X188922288Y-95362857D01*
X188922288Y-95362857D02*
X188861811Y-95483809D01*
X188861811Y-95483809D02*
X188801335Y-95725714D01*
X188801335Y-95725714D02*
X188740859Y-95846666D01*
X188740859Y-95846666D02*
X188680383Y-95907143D01*
X188680383Y-95907143D02*
X188559430Y-95967619D01*
X188559430Y-95967619D02*
X188438478Y-95967619D01*
X188438478Y-95967619D02*
X188317526Y-95907143D01*
X188317526Y-95907143D02*
X188257050Y-95846666D01*
X188257050Y-95846666D02*
X188196573Y-95725714D01*
X188196573Y-95725714D02*
X188196573Y-95423333D01*
X188196573Y-95423333D02*
X188257050Y-95241904D01*
X189466573Y-94032380D02*
X189466573Y-94758095D01*
X189466573Y-94395238D02*
X188196573Y-94395238D01*
X188196573Y-94395238D02*
X188378002Y-94516190D01*
X188378002Y-94516190D02*
X188498954Y-94637142D01*
X188498954Y-94637142D02*
X188559430Y-94758095D01*
D10*
%TO.C,U2*%
X222988095Y-87367380D02*
X222988095Y-88176904D01*
X222988095Y-88176904D02*
X223035714Y-88272142D01*
X223035714Y-88272142D02*
X223083333Y-88319761D01*
X223083333Y-88319761D02*
X223178571Y-88367380D01*
X223178571Y-88367380D02*
X223369047Y-88367380D01*
X223369047Y-88367380D02*
X223464285Y-88319761D01*
X223464285Y-88319761D02*
X223511904Y-88272142D01*
X223511904Y-88272142D02*
X223559523Y-88176904D01*
X223559523Y-88176904D02*
X223559523Y-87367380D01*
X223988095Y-87462619D02*
X224035714Y-87415000D01*
X224035714Y-87415000D02*
X224130952Y-87367380D01*
X224130952Y-87367380D02*
X224369047Y-87367380D01*
X224369047Y-87367380D02*
X224464285Y-87415000D01*
X224464285Y-87415000D02*
X224511904Y-87462619D01*
X224511904Y-87462619D02*
X224559523Y-87557857D01*
X224559523Y-87557857D02*
X224559523Y-87653095D01*
X224559523Y-87653095D02*
X224511904Y-87795952D01*
X224511904Y-87795952D02*
X223940476Y-88367380D01*
X223940476Y-88367380D02*
X224559523Y-88367380D01*
D12*
%TO.C,C8*%
X218038748Y-103065000D02*
X218561252Y-103065000D01*
X218038748Y-104535000D02*
X218561252Y-104535000D01*
%TO.C,RED1*%
X185627500Y-76340000D02*
X185627500Y-78260000D01*
X185627500Y-78260000D02*
X188312500Y-78260000D01*
X188312500Y-76340000D02*
X185627500Y-76340000D01*
%TO.C,C6*%
X221084420Y-119490000D02*
X221365580Y-119490000D01*
X221084420Y-120510000D02*
X221365580Y-120510000D01*
%TO.C,R9*%
X219685436Y-93265000D02*
X220139564Y-93265000D01*
X219685436Y-94735000D02*
X220139564Y-94735000D01*
%TO.C,R15*%
X194062742Y-111277500D02*
X194537258Y-111277500D01*
X194062742Y-112322500D02*
X194537258Y-112322500D01*
%TO.C,Y1*%
X228900000Y-124500000D02*
X228900000Y-121200000D01*
X228900000Y-121200000D02*
X224900000Y-121200000D01*
%TO.C,F1*%
X236290000Y-120386252D02*
X236290000Y-117613748D01*
X239710000Y-120386252D02*
X239710000Y-117613748D01*
%TO.C,R4*%
X187272936Y-72765000D02*
X187727064Y-72765000D01*
X187272936Y-74235000D02*
X187727064Y-74235000D01*
D13*
%TO.C,S3*%
X250600000Y-81000000D02*
X250600000Y-83000000D01*
X250900000Y-83800000D02*
X251500000Y-84400000D01*
X251500000Y-79600000D02*
X250900000Y-80200000D01*
X251500000Y-84400000D02*
X254500000Y-84400000D01*
X254500000Y-79600000D02*
X251500000Y-79600000D01*
X254500000Y-79600000D02*
X255100000Y-80200000D01*
X254500000Y-84400000D02*
X255100000Y-83800000D01*
X255400000Y-81000000D02*
X255400000Y-83000000D01*
D14*
X248700000Y-80100000D02*
G75*
G03*
X248700000Y-80100000I-100000J0D01*
G01*
D12*
%TO.C,C9*%
X214790000Y-111940580D02*
X214790000Y-111659420D01*
X215810000Y-111940580D02*
X215810000Y-111659420D01*
%TO.C,U4*%
X199437500Y-111190000D02*
X197637500Y-111190000D01*
X199437500Y-111190000D02*
X200237500Y-111190000D01*
X199437500Y-114310000D02*
X198637500Y-114310000D01*
X199437500Y-114310000D02*
X200237500Y-114310000D01*
%TO.C,R1*%
X209860436Y-105265000D02*
X210314564Y-105265000D01*
X209860436Y-106735000D02*
X210314564Y-106735000D01*
%TO.C,C12*%
X220790000Y-103165580D02*
X220790000Y-102884420D01*
X221810000Y-103165580D02*
X221810000Y-102884420D01*
%TO.C,U1*%
X211300000Y-85620000D02*
X213300000Y-85620000D01*
X193380000Y-85240000D02*
X243920000Y-85240000D01*
X193380000Y-85240000D02*
X193380000Y-66000000D01*
X243920000Y-85240000D02*
X243920000Y-66000000D01*
X243920000Y-66000000D02*
X193380000Y-66000000D01*
%TO.C,C4*%
X232159420Y-106290000D02*
X232440580Y-106290000D01*
X232159420Y-107310000D02*
X232440580Y-107310000D01*
%TO.C,R8*%
X219772936Y-88265000D02*
X220227064Y-88265000D01*
X219772936Y-89735000D02*
X220227064Y-89735000D01*
%TO.C,C14*%
X203996920Y-118440000D02*
X204278080Y-118440000D01*
X203996920Y-119460000D02*
X204278080Y-119460000D01*
%TO.C,C7*%
X226440580Y-104310000D02*
X226159420Y-104310000D01*
X226440580Y-103290000D02*
X226159420Y-103290000D01*
%TO.C,C1*%
X262084420Y-91490000D02*
X262365580Y-91490000D01*
X262084420Y-92510000D02*
X262365580Y-92510000D01*
%TO.C,C10*%
X231810000Y-117659420D02*
X231810000Y-117940580D01*
X230790000Y-117659420D02*
X230790000Y-117940580D01*
%TO.C,R6*%
X233362936Y-89265000D02*
X233817064Y-89265000D01*
X233362936Y-90735000D02*
X233817064Y-90735000D01*
%TO.C,R11*%
X214772936Y-93265000D02*
X215227064Y-93265000D01*
X214772936Y-94735000D02*
X215227064Y-94735000D01*
%TO.C,C2*%
X230510000Y-122859420D02*
X230510000Y-123140580D01*
X229490000Y-122859420D02*
X229490000Y-123140580D01*
%TO.C,R14*%
X194062742Y-113277500D02*
X194537258Y-113277500D01*
X194062742Y-114322500D02*
X194537258Y-114322500D01*
%TO.C,R17*%
X256477500Y-122237258D02*
X256477500Y-121762742D01*
X257522500Y-122237258D02*
X257522500Y-121762742D01*
D10*
%TO.C,U3*%
X218425000Y-106625000D02*
X218425000Y-107200000D01*
X218425000Y-106625000D02*
X219100000Y-106625000D01*
X218425000Y-107200000D02*
X217150000Y-107200000D01*
X218425000Y-116975000D02*
X218425000Y-116300000D01*
X218425000Y-116975000D02*
X219100000Y-116975000D01*
X228775000Y-106625000D02*
X228100000Y-106625000D01*
X228775000Y-106625000D02*
X228775000Y-107300000D01*
X228775000Y-116975000D02*
X228100000Y-116975000D01*
X228775000Y-116975000D02*
X228775000Y-116300000D01*
D12*
%TO.C,R10*%
X219685436Y-98215000D02*
X220139564Y-98215000D01*
X219685436Y-99685000D02*
X220139564Y-99685000D01*
%TO.C,R12*%
X214772936Y-98265000D02*
X215227064Y-98265000D01*
X214772936Y-99735000D02*
X215227064Y-99735000D01*
%TO.C,RED2*%
X184377500Y-121040000D02*
X184377500Y-122960000D01*
X184377500Y-122960000D02*
X187062500Y-122960000D01*
X187062500Y-121040000D02*
X184377500Y-121040000D01*
%TO.C,R5*%
X214860436Y-88265000D02*
X215314564Y-88265000D01*
X214860436Y-89735000D02*
X215314564Y-89735000D01*
%TO.C,C13*%
X197647500Y-118809420D02*
X197647500Y-119090580D01*
X196627500Y-118809420D02*
X196627500Y-119090580D01*
%TO.C,R16*%
X190762742Y-121477500D02*
X191237258Y-121477500D01*
X190762742Y-122522500D02*
X191237258Y-122522500D01*
%TO.C,C11*%
X233384420Y-114290000D02*
X233665580Y-114290000D01*
X233384420Y-115310000D02*
X233665580Y-115310000D01*
%TO.C,R7*%
X233275436Y-92265000D02*
X233729564Y-92265000D01*
X233275436Y-93735000D02*
X233729564Y-93735000D01*
D15*
%TO.C,S2*%
X208100000Y-86400000D02*
X208100000Y-86400000D01*
X208000000Y-86400000D02*
X208000000Y-86400000D01*
D14*
X211500000Y-89000000D02*
X211500000Y-101000000D01*
X209100000Y-89000000D02*
X211500000Y-89000000D01*
X209100000Y-89000000D02*
X209100000Y-89000000D01*
X206900000Y-89000000D02*
X204100000Y-89000000D01*
X201900000Y-89000000D02*
X199500000Y-89000000D01*
X199500000Y-89000000D02*
X199500000Y-101000000D01*
X211500000Y-101000000D02*
X209100000Y-101000000D01*
X206900000Y-101000000D02*
X204100000Y-101000000D01*
X199500000Y-101000000D02*
X201900000Y-101000000D01*
D15*
X208000000Y-86400000D02*
G75*
G03*
X208100000Y-86400000I50000J0D01*
G01*
X208100000Y-86400000D02*
G75*
G03*
X208000000Y-86400000I-50000J0D01*
G01*
D12*
%TO.C,R2*%
X193860436Y-105265000D02*
X194314564Y-105265000D01*
X193860436Y-106735000D02*
X194314564Y-106735000D01*
%TO.C,C3*%
X223490000Y-122915580D02*
X223490000Y-122634420D01*
X224510000Y-122915580D02*
X224510000Y-122634420D01*
%TO.C,GREEN1*%
X185565000Y-70040000D02*
X185565000Y-71960000D01*
X185565000Y-71960000D02*
X188250000Y-71960000D01*
X188250000Y-70040000D02*
X185565000Y-70040000D01*
%TO.C,U5*%
X200000000Y-118440000D02*
X198200000Y-118440000D01*
X200000000Y-118440000D02*
X200800000Y-118440000D01*
X200000000Y-121560000D02*
X199200000Y-121560000D01*
X200000000Y-121560000D02*
X200800000Y-121560000D01*
%TO.C,C15*%
X204221920Y-120440000D02*
X204503080Y-120440000D01*
X204221920Y-121460000D02*
X204503080Y-121460000D01*
%TO.C,J1*%
X184560000Y-108890000D02*
X187790000Y-108890000D01*
X180390000Y-108890000D02*
X182340000Y-108890000D01*
X189710000Y-109610000D02*
X189710000Y-110690000D01*
X189710000Y-110690000D02*
X190140000Y-110690000D01*
X189710000Y-114910000D02*
X189710000Y-115990000D01*
X184560000Y-116710000D02*
X187790000Y-116710000D01*
X180390000Y-116710000D02*
X180390000Y-108890000D01*
X180390000Y-116710000D02*
X182340000Y-116710000D01*
%TO.C,R3*%
X186772936Y-81265000D02*
X187227064Y-81265000D01*
X186772936Y-82735000D02*
X187227064Y-82735000D01*
%TO.C,R13*%
X248477500Y-88237258D02*
X248477500Y-87762742D01*
X249522500Y-88237258D02*
X249522500Y-87762742D01*
%TO.C,LS1*%
X260300000Y-71000000D02*
G75*
G03*
X260300000Y-71000000I-6100000J0D01*
G01*
%TO.C,C5*%
X229934420Y-103290000D02*
X230215580Y-103290000D01*
X229934420Y-104310000D02*
X230215580Y-104310000D01*
D15*
%TO.C,S1*%
X191600000Y-86400000D02*
X191600000Y-86400000D01*
X191500000Y-86400000D02*
X191500000Y-86400000D01*
D14*
X195000000Y-89000000D02*
X195000000Y-101000000D01*
X192600000Y-89000000D02*
X195000000Y-89000000D01*
X192600000Y-89000000D02*
X192600000Y-89000000D01*
X190400000Y-89000000D02*
X187600000Y-89000000D01*
X185400000Y-89000000D02*
X183000000Y-89000000D01*
X183000000Y-89000000D02*
X183000000Y-101000000D01*
X195000000Y-101000000D02*
X192600000Y-101000000D01*
X190400000Y-101000000D02*
X187600000Y-101000000D01*
X183000000Y-101000000D02*
X185400000Y-101000000D01*
D15*
X191500000Y-86400000D02*
G75*
G03*
X191600000Y-86400000I50000J0D01*
G01*
X191600000Y-86400000D02*
G75*
G03*
X191500000Y-86400000I-50000J0D01*
G01*
D12*
%TO.C,U2*%
X226000000Y-89990000D02*
X222400000Y-89990000D01*
X226000000Y-89990000D02*
X228200000Y-89990000D01*
X226000000Y-95460000D02*
X223800000Y-95460000D01*
X226000000Y-95460000D02*
X228200000Y-95460000D01*
%TD*%
M02*
