%TF.GenerationSoftware,KiCad,Pcbnew,(7.0.0)*%
%TF.CreationDate,2023-05-31T00:06:15-06:00*%
%TF.ProjectId,Oximeter,4f78696d-6574-4657-922e-6b696361645f,rev?*%
%TF.SameCoordinates,Original*%
%TF.FileFunction,Paste,Top*%
%TF.FilePolarity,Positive*%
%FSLAX46Y46*%
G04 Gerber Fmt 4.6, Leading zero omitted, Abs format (unit mm)*
G04 Created by KiCad (PCBNEW (7.0.0)) date 2023-05-31 00:06:15*
%MOMM*%
%LPD*%
G01*
G04 APERTURE LIST*
G04 Aperture macros list*
%AMRoundRect*
0 Rectangle with rounded corners*
0 $1 Rounding radius*
0 $2 $3 $4 $5 $6 $7 $8 $9 X,Y pos of 4 corners*
0 Add a 4 corners polygon primitive as box body*
4,1,4,$2,$3,$4,$5,$6,$7,$8,$9,$2,$3,0*
0 Add four circle primitives for the rounded corners*
1,1,$1+$1,$2,$3*
1,1,$1+$1,$4,$5*
1,1,$1+$1,$6,$7*
1,1,$1+$1,$8,$9*
0 Add four rect primitives between the rounded corners*
20,1,$1+$1,$2,$3,$4,$5,0*
20,1,$1+$1,$4,$5,$6,$7,0*
20,1,$1+$1,$6,$7,$8,$9,0*
20,1,$1+$1,$8,$9,$2,$3,0*%
G04 Aperture macros list end*
%ADD10RoundRect,0.250000X-0.262500X-0.450000X0.262500X-0.450000X0.262500X0.450000X-0.262500X0.450000X0*%
%ADD11R,0.880000X1.050000*%
%ADD12R,1.050000X0.450000*%
%ADD13RoundRect,0.250000X0.262500X0.450000X-0.262500X0.450000X-0.262500X-0.450000X0.262500X-0.450000X0*%
G04 APERTURE END LIST*
D10*
%TO.C,R3*%
X238425000Y-89600000D03*
X240250000Y-89600000D03*
%TD*%
D11*
%TO.C,U2*%
X229266599Y-90474999D03*
X231533399Y-89224999D03*
X229266599Y-91724999D03*
X231533399Y-92974999D03*
X230399999Y-91724999D03*
X231533399Y-91724999D03*
X230399999Y-92974999D03*
X229266599Y-89224999D03*
X230399999Y-89224999D03*
X229266599Y-92974999D03*
X230399999Y-90474999D03*
X231533399Y-90474999D03*
D12*
X227624999Y-88824999D03*
X227624999Y-89474999D03*
X227624999Y-90124999D03*
X227624999Y-90774999D03*
X227624999Y-91424999D03*
X227624999Y-92074999D03*
X227624999Y-92724999D03*
X227624999Y-93374999D03*
X233174999Y-93374999D03*
X233174999Y-92724999D03*
X233174999Y-92074999D03*
X233174999Y-91424999D03*
X233174999Y-90774999D03*
X233174999Y-90124999D03*
X233174999Y-89474999D03*
X233174999Y-88824999D03*
%TD*%
D13*
%TO.C,R11*%
X152950000Y-79025000D03*
X151125000Y-79025000D03*
%TD*%
%TO.C,R10*%
X213525000Y-103200000D03*
X211700000Y-103200000D03*
%TD*%
%TO.C,R9*%
X215275000Y-98375000D03*
X213450000Y-98375000D03*
%TD*%
%TO.C,R8*%
X215250000Y-93900000D03*
X213425000Y-93900000D03*
%TD*%
%TO.C,R7*%
X215250000Y-90025000D03*
X213425000Y-90025000D03*
%TD*%
%TO.C,R6*%
X214275000Y-85600000D03*
X216100000Y-85600000D03*
%TD*%
%TO.C,R5*%
X213600000Y-80675000D03*
X215425000Y-80675000D03*
%TD*%
%TO.C,R4*%
X217825000Y-76925000D03*
X219650000Y-76925000D03*
%TD*%
D10*
%TO.C,R2*%
X189735000Y-65950000D03*
X191560000Y-65950000D03*
%TD*%
%TO.C,R1*%
X189985000Y-71250000D03*
X191810000Y-71250000D03*
%TD*%
M02*
