%TF.GenerationSoftware,KiCad,Pcbnew,(7.0.0)*%
%TF.CreationDate,2023-05-31T00:06:15-06:00*%
%TF.ProjectId,Oximeter,4f78696d-6574-4657-922e-6b696361645f,rev?*%
%TF.SameCoordinates,Original*%
%TF.FileFunction,Soldermask,Top*%
%TF.FilePolarity,Negative*%
%FSLAX46Y46*%
G04 Gerber Fmt 4.6, Leading zero omitted, Abs format (unit mm)*
G04 Created by KiCad (PCBNEW (7.0.0)) date 2023-05-31 00:06:15*
%MOMM*%
%LPD*%
G01*
G04 APERTURE LIST*
G04 Aperture macros list*
%AMRoundRect*
0 Rectangle with rounded corners*
0 $1 Rounding radius*
0 $2 $3 $4 $5 $6 $7 $8 $9 X,Y pos of 4 corners*
0 Add a 4 corners polygon primitive as box body*
4,1,4,$2,$3,$4,$5,$6,$7,$8,$9,$2,$3,0*
0 Add four circle primitives for the rounded corners*
1,1,$1+$1,$2,$3*
1,1,$1+$1,$4,$5*
1,1,$1+$1,$6,$7*
1,1,$1+$1,$8,$9*
0 Add four rect primitives between the rounded corners*
20,1,$1+$1,$2,$3,$4,$5,0*
20,1,$1+$1,$4,$5,$6,$7,0*
20,1,$1+$1,$6,$7,$8,$9,0*
20,1,$1+$1,$8,$9,$2,$3,0*%
G04 Aperture macros list end*
%ADD10RoundRect,0.250000X-0.262500X-0.450000X0.262500X-0.450000X0.262500X0.450000X-0.262500X0.450000X0*%
%ADD11R,1.050000X0.450000*%
%ADD12R,3.400000X5.000000*%
%ADD13R,1.500000X1.500000*%
%ADD14C,1.500000*%
%ADD15RoundRect,0.250000X0.262500X0.450000X-0.262500X0.450000X-0.262500X-0.450000X0.262500X-0.450000X0*%
%ADD16R,1.700000X1.700000*%
%ADD17O,1.700000X1.700000*%
%ADD18R,1.800000X1.800000*%
%ADD19C,1.800000*%
G04 APERTURE END LIST*
D10*
%TO.C,R3*%
X238425000Y-89600000D03*
X240250000Y-89600000D03*
%TD*%
D11*
%TO.C,U2*%
X227624999Y-88824999D03*
X227624999Y-89474999D03*
X227624999Y-90124999D03*
X227624999Y-90774999D03*
X227624999Y-91424999D03*
X227624999Y-92074999D03*
X227624999Y-92724999D03*
X227624999Y-93374999D03*
X233174999Y-93374999D03*
X233174999Y-92724999D03*
X233174999Y-92074999D03*
X233174999Y-91424999D03*
X233174999Y-90774999D03*
X233174999Y-90124999D03*
X233174999Y-89474999D03*
X233174999Y-88824999D03*
D12*
X230399999Y-91099999D03*
%TD*%
D13*
%TO.C,U1*%
X159024999Y-130264999D03*
D14*
X161565000Y-130265000D03*
X164105000Y-130265000D03*
X166645000Y-130265000D03*
X169185000Y-130265000D03*
X171725000Y-130265000D03*
X171725000Y-115025000D03*
X169185000Y-115025000D03*
X166645000Y-115025000D03*
X164105000Y-115025000D03*
X161565000Y-115025000D03*
X159025000Y-115025000D03*
%TD*%
D15*
%TO.C,R11*%
X152950000Y-79025000D03*
X151125000Y-79025000D03*
%TD*%
%TO.C,R10*%
X213525000Y-103200000D03*
X211700000Y-103200000D03*
%TD*%
%TO.C,R9*%
X215275000Y-98375000D03*
X213450000Y-98375000D03*
%TD*%
%TO.C,R8*%
X215250000Y-93900000D03*
X213425000Y-93900000D03*
%TD*%
%TO.C,R7*%
X215250000Y-90025000D03*
X213425000Y-90025000D03*
%TD*%
%TO.C,R6*%
X214275000Y-85600000D03*
X216100000Y-85600000D03*
%TD*%
%TO.C,R5*%
X213600000Y-80675000D03*
X215425000Y-80675000D03*
%TD*%
%TO.C,R4*%
X217825000Y-76925000D03*
X219650000Y-76925000D03*
%TD*%
D10*
%TO.C,R2*%
X189735000Y-65950000D03*
X191560000Y-65950000D03*
%TD*%
%TO.C,R1*%
X189985000Y-71250000D03*
X191810000Y-71250000D03*
%TD*%
D16*
%TO.C,J2*%
X253974999Y-73994999D03*
D17*
X251434999Y-73994999D03*
X253974999Y-76534999D03*
X251434999Y-76534999D03*
X253974999Y-79074999D03*
X251434999Y-79074999D03*
X253974999Y-81614999D03*
X251434999Y-81614999D03*
X253974999Y-84154999D03*
X251434999Y-84154999D03*
X253974999Y-86694999D03*
X251434999Y-86694999D03*
X253974999Y-89234999D03*
X251434999Y-89234999D03*
X253974999Y-91774999D03*
X251434999Y-91774999D03*
X253974999Y-94314999D03*
X251434999Y-94314999D03*
X253974999Y-96854999D03*
X251434999Y-96854999D03*
X253974999Y-99394999D03*
X251434999Y-99394999D03*
X253974999Y-101934999D03*
X251434999Y-101934999D03*
X253974999Y-104474999D03*
X251434999Y-104474999D03*
X253974999Y-107014999D03*
X251434999Y-107014999D03*
X253974999Y-109554999D03*
X251434999Y-109554999D03*
X253974999Y-112094999D03*
X251434999Y-112094999D03*
X253974999Y-114634999D03*
X251434999Y-114634999D03*
X253974999Y-117174999D03*
X251434999Y-117174999D03*
X253974999Y-119714999D03*
X251434999Y-119714999D03*
X253974999Y-122254999D03*
X251434999Y-122254999D03*
X253974999Y-124794999D03*
X251434999Y-124794999D03*
X253974999Y-127334999D03*
X251434999Y-127334999D03*
X253974999Y-129874999D03*
X251434999Y-129874999D03*
X253974999Y-132414999D03*
X251434999Y-132414999D03*
X253974999Y-134954999D03*
X251434999Y-134954999D03*
%TD*%
D16*
%TO.C,J1*%
X204089999Y-73979999D03*
D17*
X201549999Y-73979999D03*
X204089999Y-76519999D03*
X201549999Y-76519999D03*
X204089999Y-79059999D03*
X201549999Y-79059999D03*
X204089999Y-81599999D03*
X201549999Y-81599999D03*
X204089999Y-84139999D03*
X201549999Y-84139999D03*
X204089999Y-86679999D03*
X201549999Y-86679999D03*
X204089999Y-89219999D03*
X201549999Y-89219999D03*
X204089999Y-91759999D03*
X201549999Y-91759999D03*
X204089999Y-94299999D03*
X201549999Y-94299999D03*
X204089999Y-96839999D03*
X201549999Y-96839999D03*
X204089999Y-99379999D03*
X201549999Y-99379999D03*
X204089999Y-101919999D03*
X201549999Y-101919999D03*
X204089999Y-104459999D03*
X201549999Y-104459999D03*
X204089999Y-106999999D03*
X201549999Y-106999999D03*
X204089999Y-109539999D03*
X201549999Y-109539999D03*
X204089999Y-112079999D03*
X201549999Y-112079999D03*
X204089999Y-114619999D03*
X201549999Y-114619999D03*
X204089999Y-117159999D03*
X201549999Y-117159999D03*
X204089999Y-119699999D03*
X201549999Y-119699999D03*
X204089999Y-122239999D03*
X201549999Y-122239999D03*
X204089999Y-124779999D03*
X201549999Y-124779999D03*
X204089999Y-127319999D03*
X201549999Y-127319999D03*
X204089999Y-129859999D03*
X201549999Y-129859999D03*
X204089999Y-132399999D03*
X201549999Y-132399999D03*
X204089999Y-134939999D03*
X201549999Y-134939999D03*
%TD*%
D18*
%TO.C,D3*%
X151312499Y-67424999D03*
D19*
X151312500Y-69965000D03*
%TD*%
D18*
%TO.C,D2*%
X186549999Y-70799999D03*
D19*
X184010000Y-70800000D03*
%TD*%
D18*
%TO.C,D1*%
X186549999Y-65724999D03*
D19*
X184010000Y-65725000D03*
%TD*%
M02*
