%TF.GenerationSoftware,KiCad,Pcbnew,(7.0.0)*%
%TF.CreationDate,2023-05-31T00:06:15-06:00*%
%TF.ProjectId,Oximeter,4f78696d-6574-4657-922e-6b696361645f,rev?*%
%TF.SameCoordinates,Original*%
%TF.FileFunction,Legend,Top*%
%TF.FilePolarity,Positive*%
%FSLAX46Y46*%
G04 Gerber Fmt 4.6, Leading zero omitted, Abs format (unit mm)*
G04 Created by KiCad (PCBNEW (7.0.0)) date 2023-05-31 00:06:15*
%MOMM*%
%LPD*%
G01*
G04 APERTURE LIST*
%ADD10C,0.150000*%
%ADD11C,0.120000*%
G04 APERTURE END LIST*
D10*
X150282142Y-134637380D02*
X150282142Y-135589761D01*
X149615476Y-133589761D02*
X150282142Y-134637380D01*
X150282142Y-134637380D02*
X150948809Y-133589761D01*
X151901190Y-135589761D02*
X151710714Y-135494523D01*
X151710714Y-135494523D02*
X151615476Y-135399285D01*
X151615476Y-135399285D02*
X151520238Y-135208809D01*
X151520238Y-135208809D02*
X151520238Y-134637380D01*
X151520238Y-134637380D02*
X151615476Y-134446904D01*
X151615476Y-134446904D02*
X151710714Y-134351666D01*
X151710714Y-134351666D02*
X151901190Y-134256428D01*
X151901190Y-134256428D02*
X152186905Y-134256428D01*
X152186905Y-134256428D02*
X152377381Y-134351666D01*
X152377381Y-134351666D02*
X152472619Y-134446904D01*
X152472619Y-134446904D02*
X152567857Y-134637380D01*
X152567857Y-134637380D02*
X152567857Y-135208809D01*
X152567857Y-135208809D02*
X152472619Y-135399285D01*
X152472619Y-135399285D02*
X152377381Y-135494523D01*
X152377381Y-135494523D02*
X152186905Y-135589761D01*
X152186905Y-135589761D02*
X151901190Y-135589761D01*
X154282143Y-134256428D02*
X154282143Y-135589761D01*
X153425000Y-134256428D02*
X153425000Y-135304047D01*
X153425000Y-135304047D02*
X153520238Y-135494523D01*
X153520238Y-135494523D02*
X153710714Y-135589761D01*
X153710714Y-135589761D02*
X153996429Y-135589761D01*
X153996429Y-135589761D02*
X154186905Y-135494523D01*
X154186905Y-135494523D02*
X154282143Y-135399285D01*
X155234524Y-135589761D02*
X155234524Y-134256428D01*
X155234524Y-134637380D02*
X155329762Y-134446904D01*
X155329762Y-134446904D02*
X155425000Y-134351666D01*
X155425000Y-134351666D02*
X155615476Y-134256428D01*
X155615476Y-134256428D02*
X155805953Y-134256428D01*
X158339286Y-134542142D02*
X158625000Y-134637380D01*
X158625000Y-134637380D02*
X158720238Y-134732619D01*
X158720238Y-134732619D02*
X158815476Y-134923095D01*
X158815476Y-134923095D02*
X158815476Y-135208809D01*
X158815476Y-135208809D02*
X158720238Y-135399285D01*
X158720238Y-135399285D02*
X158625000Y-135494523D01*
X158625000Y-135494523D02*
X158434524Y-135589761D01*
X158434524Y-135589761D02*
X157672619Y-135589761D01*
X157672619Y-135589761D02*
X157672619Y-133589761D01*
X157672619Y-133589761D02*
X158339286Y-133589761D01*
X158339286Y-133589761D02*
X158529762Y-133685000D01*
X158529762Y-133685000D02*
X158625000Y-133780238D01*
X158625000Y-133780238D02*
X158720238Y-133970714D01*
X158720238Y-133970714D02*
X158720238Y-134161190D01*
X158720238Y-134161190D02*
X158625000Y-134351666D01*
X158625000Y-134351666D02*
X158529762Y-134446904D01*
X158529762Y-134446904D02*
X158339286Y-134542142D01*
X158339286Y-134542142D02*
X157672619Y-134542142D01*
X159958333Y-135589761D02*
X159767857Y-135494523D01*
X159767857Y-135494523D02*
X159672619Y-135304047D01*
X159672619Y-135304047D02*
X159672619Y-133589761D01*
X161005952Y-135589761D02*
X160815476Y-135494523D01*
X160815476Y-135494523D02*
X160720238Y-135399285D01*
X160720238Y-135399285D02*
X160625000Y-135208809D01*
X160625000Y-135208809D02*
X160625000Y-134637380D01*
X160625000Y-134637380D02*
X160720238Y-134446904D01*
X160720238Y-134446904D02*
X160815476Y-134351666D01*
X160815476Y-134351666D02*
X161005952Y-134256428D01*
X161005952Y-134256428D02*
X161291667Y-134256428D01*
X161291667Y-134256428D02*
X161482143Y-134351666D01*
X161482143Y-134351666D02*
X161577381Y-134446904D01*
X161577381Y-134446904D02*
X161672619Y-134637380D01*
X161672619Y-134637380D02*
X161672619Y-135208809D01*
X161672619Y-135208809D02*
X161577381Y-135399285D01*
X161577381Y-135399285D02*
X161482143Y-135494523D01*
X161482143Y-135494523D02*
X161291667Y-135589761D01*
X161291667Y-135589761D02*
X161005952Y-135589761D01*
X162815476Y-135589761D02*
X162625000Y-135494523D01*
X162625000Y-135494523D02*
X162529762Y-135399285D01*
X162529762Y-135399285D02*
X162434524Y-135208809D01*
X162434524Y-135208809D02*
X162434524Y-134637380D01*
X162434524Y-134637380D02*
X162529762Y-134446904D01*
X162529762Y-134446904D02*
X162625000Y-134351666D01*
X162625000Y-134351666D02*
X162815476Y-134256428D01*
X162815476Y-134256428D02*
X163101191Y-134256428D01*
X163101191Y-134256428D02*
X163291667Y-134351666D01*
X163291667Y-134351666D02*
X163386905Y-134446904D01*
X163386905Y-134446904D02*
X163482143Y-134637380D01*
X163482143Y-134637380D02*
X163482143Y-135208809D01*
X163482143Y-135208809D02*
X163386905Y-135399285D01*
X163386905Y-135399285D02*
X163291667Y-135494523D01*
X163291667Y-135494523D02*
X163101191Y-135589761D01*
X163101191Y-135589761D02*
X162815476Y-135589761D01*
X165196429Y-135589761D02*
X165196429Y-133589761D01*
X165196429Y-135494523D02*
X165005953Y-135589761D01*
X165005953Y-135589761D02*
X164625000Y-135589761D01*
X164625000Y-135589761D02*
X164434524Y-135494523D01*
X164434524Y-135494523D02*
X164339286Y-135399285D01*
X164339286Y-135399285D02*
X164244048Y-135208809D01*
X164244048Y-135208809D02*
X164244048Y-134637380D01*
X164244048Y-134637380D02*
X164339286Y-134446904D01*
X164339286Y-134446904D02*
X164434524Y-134351666D01*
X164434524Y-134351666D02*
X164625000Y-134256428D01*
X164625000Y-134256428D02*
X165005953Y-134256428D01*
X165005953Y-134256428D02*
X165196429Y-134351666D01*
X167729762Y-133589761D02*
X168110715Y-133589761D01*
X168110715Y-133589761D02*
X168301191Y-133685000D01*
X168301191Y-133685000D02*
X168491667Y-133875476D01*
X168491667Y-133875476D02*
X168586905Y-134256428D01*
X168586905Y-134256428D02*
X168586905Y-134923095D01*
X168586905Y-134923095D02*
X168491667Y-135304047D01*
X168491667Y-135304047D02*
X168301191Y-135494523D01*
X168301191Y-135494523D02*
X168110715Y-135589761D01*
X168110715Y-135589761D02*
X167729762Y-135589761D01*
X167729762Y-135589761D02*
X167539286Y-135494523D01*
X167539286Y-135494523D02*
X167348810Y-135304047D01*
X167348810Y-135304047D02*
X167253572Y-134923095D01*
X167253572Y-134923095D02*
X167253572Y-134256428D01*
X167253572Y-134256428D02*
X167348810Y-133875476D01*
X167348810Y-133875476D02*
X167539286Y-133685000D01*
X167539286Y-133685000D02*
X167729762Y-133589761D01*
X169253572Y-135589761D02*
X170301191Y-134256428D01*
X169253572Y-134256428D02*
X170301191Y-135589761D01*
X171063096Y-135589761D02*
X171063096Y-134256428D01*
X171063096Y-133589761D02*
X170967858Y-133685000D01*
X170967858Y-133685000D02*
X171063096Y-133780238D01*
X171063096Y-133780238D02*
X171158334Y-133685000D01*
X171158334Y-133685000D02*
X171063096Y-133589761D01*
X171063096Y-133589761D02*
X171063096Y-133780238D01*
X172872620Y-134256428D02*
X172872620Y-135875476D01*
X172872620Y-135875476D02*
X172777382Y-136065952D01*
X172777382Y-136065952D02*
X172682144Y-136161190D01*
X172682144Y-136161190D02*
X172491667Y-136256428D01*
X172491667Y-136256428D02*
X172205953Y-136256428D01*
X172205953Y-136256428D02*
X172015477Y-136161190D01*
X172872620Y-135494523D02*
X172682144Y-135589761D01*
X172682144Y-135589761D02*
X172301191Y-135589761D01*
X172301191Y-135589761D02*
X172110715Y-135494523D01*
X172110715Y-135494523D02*
X172015477Y-135399285D01*
X172015477Y-135399285D02*
X171920239Y-135208809D01*
X171920239Y-135208809D02*
X171920239Y-134637380D01*
X171920239Y-134637380D02*
X172015477Y-134446904D01*
X172015477Y-134446904D02*
X172110715Y-134351666D01*
X172110715Y-134351666D02*
X172301191Y-134256428D01*
X172301191Y-134256428D02*
X172682144Y-134256428D01*
X172682144Y-134256428D02*
X172872620Y-134351666D01*
X174586906Y-135494523D02*
X174396430Y-135589761D01*
X174396430Y-135589761D02*
X174015477Y-135589761D01*
X174015477Y-135589761D02*
X173825001Y-135494523D01*
X173825001Y-135494523D02*
X173729763Y-135304047D01*
X173729763Y-135304047D02*
X173729763Y-134542142D01*
X173729763Y-134542142D02*
X173825001Y-134351666D01*
X173825001Y-134351666D02*
X174015477Y-134256428D01*
X174015477Y-134256428D02*
X174396430Y-134256428D01*
X174396430Y-134256428D02*
X174586906Y-134351666D01*
X174586906Y-134351666D02*
X174682144Y-134542142D01*
X174682144Y-134542142D02*
X174682144Y-134732619D01*
X174682144Y-134732619D02*
X173729763Y-134923095D01*
X175539287Y-134256428D02*
X175539287Y-135589761D01*
X175539287Y-134446904D02*
X175634525Y-134351666D01*
X175634525Y-134351666D02*
X175825001Y-134256428D01*
X175825001Y-134256428D02*
X176110716Y-134256428D01*
X176110716Y-134256428D02*
X176301192Y-134351666D01*
X176301192Y-134351666D02*
X176396430Y-134542142D01*
X176396430Y-134542142D02*
X176396430Y-135589761D01*
X178453573Y-135589761D02*
X179977382Y-133589761D01*
X178739287Y-133589761D02*
X178929763Y-133685000D01*
X178929763Y-133685000D02*
X179025001Y-133875476D01*
X179025001Y-133875476D02*
X178929763Y-134065952D01*
X178929763Y-134065952D02*
X178739287Y-134161190D01*
X178739287Y-134161190D02*
X178548811Y-134065952D01*
X178548811Y-134065952D02*
X178453573Y-133875476D01*
X178453573Y-133875476D02*
X178548811Y-133685000D01*
X178548811Y-133685000D02*
X178739287Y-133589761D01*
X179882144Y-135494523D02*
X179977382Y-135304047D01*
X179977382Y-135304047D02*
X179882144Y-135113571D01*
X179882144Y-135113571D02*
X179691668Y-135018333D01*
X179691668Y-135018333D02*
X179501192Y-135113571D01*
X179501192Y-135113571D02*
X179405954Y-135304047D01*
X179405954Y-135304047D02*
X179501192Y-135494523D01*
X179501192Y-135494523D02*
X179691668Y-135589761D01*
X179691668Y-135589761D02*
X179882144Y-135494523D01*
X137901190Y-46984761D02*
X137901190Y-44984761D01*
X137901190Y-44984761D02*
X139044047Y-46984761D01*
X139044047Y-46984761D02*
X139044047Y-44984761D01*
X140282142Y-46984761D02*
X140091666Y-46889523D01*
X140091666Y-46889523D02*
X139996428Y-46794285D01*
X139996428Y-46794285D02*
X139901190Y-46603809D01*
X139901190Y-46603809D02*
X139901190Y-46032380D01*
X139901190Y-46032380D02*
X139996428Y-45841904D01*
X139996428Y-45841904D02*
X140091666Y-45746666D01*
X140091666Y-45746666D02*
X140282142Y-45651428D01*
X140282142Y-45651428D02*
X140567857Y-45651428D01*
X140567857Y-45651428D02*
X140758333Y-45746666D01*
X140758333Y-45746666D02*
X140853571Y-45841904D01*
X140853571Y-45841904D02*
X140948809Y-46032380D01*
X140948809Y-46032380D02*
X140948809Y-46603809D01*
X140948809Y-46603809D02*
X140853571Y-46794285D01*
X140853571Y-46794285D02*
X140758333Y-46889523D01*
X140758333Y-46889523D02*
X140567857Y-46984761D01*
X140567857Y-46984761D02*
X140282142Y-46984761D01*
X142567857Y-46889523D02*
X142377381Y-46984761D01*
X142377381Y-46984761D02*
X141996428Y-46984761D01*
X141996428Y-46984761D02*
X141805952Y-46889523D01*
X141805952Y-46889523D02*
X141710714Y-46699047D01*
X141710714Y-46699047D02*
X141710714Y-45937142D01*
X141710714Y-45937142D02*
X141805952Y-45746666D01*
X141805952Y-45746666D02*
X141996428Y-45651428D01*
X141996428Y-45651428D02*
X142377381Y-45651428D01*
X142377381Y-45651428D02*
X142567857Y-45746666D01*
X142567857Y-45746666D02*
X142663095Y-45937142D01*
X142663095Y-45937142D02*
X142663095Y-46127619D01*
X142663095Y-46127619D02*
X141710714Y-46318095D01*
X144625000Y-46889523D02*
X144910714Y-46984761D01*
X144910714Y-46984761D02*
X145386905Y-46984761D01*
X145386905Y-46984761D02*
X145577381Y-46889523D01*
X145577381Y-46889523D02*
X145672619Y-46794285D01*
X145672619Y-46794285D02*
X145767857Y-46603809D01*
X145767857Y-46603809D02*
X145767857Y-46413333D01*
X145767857Y-46413333D02*
X145672619Y-46222857D01*
X145672619Y-46222857D02*
X145577381Y-46127619D01*
X145577381Y-46127619D02*
X145386905Y-46032380D01*
X145386905Y-46032380D02*
X145005952Y-45937142D01*
X145005952Y-45937142D02*
X144815476Y-45841904D01*
X144815476Y-45841904D02*
X144720238Y-45746666D01*
X144720238Y-45746666D02*
X144625000Y-45556190D01*
X144625000Y-45556190D02*
X144625000Y-45365714D01*
X144625000Y-45365714D02*
X144720238Y-45175238D01*
X144720238Y-45175238D02*
X144815476Y-45080000D01*
X144815476Y-45080000D02*
X145005952Y-44984761D01*
X145005952Y-44984761D02*
X145482143Y-44984761D01*
X145482143Y-44984761D02*
X145767857Y-45080000D01*
X146625000Y-46984761D02*
X146625000Y-44984761D01*
X147482143Y-46984761D02*
X147482143Y-45937142D01*
X147482143Y-45937142D02*
X147386905Y-45746666D01*
X147386905Y-45746666D02*
X147196429Y-45651428D01*
X147196429Y-45651428D02*
X146910714Y-45651428D01*
X146910714Y-45651428D02*
X146720238Y-45746666D01*
X146720238Y-45746666D02*
X146625000Y-45841904D01*
X149196429Y-46889523D02*
X149005953Y-46984761D01*
X149005953Y-46984761D02*
X148625000Y-46984761D01*
X148625000Y-46984761D02*
X148434524Y-46889523D01*
X148434524Y-46889523D02*
X148339286Y-46699047D01*
X148339286Y-46699047D02*
X148339286Y-45937142D01*
X148339286Y-45937142D02*
X148434524Y-45746666D01*
X148434524Y-45746666D02*
X148625000Y-45651428D01*
X148625000Y-45651428D02*
X149005953Y-45651428D01*
X149005953Y-45651428D02*
X149196429Y-45746666D01*
X149196429Y-45746666D02*
X149291667Y-45937142D01*
X149291667Y-45937142D02*
X149291667Y-46127619D01*
X149291667Y-46127619D02*
X148339286Y-46318095D01*
X150148810Y-46984761D02*
X150148810Y-45651428D01*
X150148810Y-46032380D02*
X150244048Y-45841904D01*
X150244048Y-45841904D02*
X150339286Y-45746666D01*
X150339286Y-45746666D02*
X150529762Y-45651428D01*
X150529762Y-45651428D02*
X150720239Y-45651428D01*
X151386905Y-46984761D02*
X151386905Y-45651428D01*
X151386905Y-44984761D02*
X151291667Y-45080000D01*
X151291667Y-45080000D02*
X151386905Y-45175238D01*
X151386905Y-45175238D02*
X151482143Y-45080000D01*
X151482143Y-45080000D02*
X151386905Y-44984761D01*
X151386905Y-44984761D02*
X151386905Y-45175238D01*
X153196429Y-46984761D02*
X153196429Y-44984761D01*
X153196429Y-46889523D02*
X153005953Y-46984761D01*
X153005953Y-46984761D02*
X152625000Y-46984761D01*
X152625000Y-46984761D02*
X152434524Y-46889523D01*
X152434524Y-46889523D02*
X152339286Y-46794285D01*
X152339286Y-46794285D02*
X152244048Y-46603809D01*
X152244048Y-46603809D02*
X152244048Y-46032380D01*
X152244048Y-46032380D02*
X152339286Y-45841904D01*
X152339286Y-45841904D02*
X152434524Y-45746666D01*
X152434524Y-45746666D02*
X152625000Y-45651428D01*
X152625000Y-45651428D02*
X153005953Y-45651428D01*
X153005953Y-45651428D02*
X153196429Y-45746666D01*
X155005953Y-46984761D02*
X155005953Y-45937142D01*
X155005953Y-45937142D02*
X154910715Y-45746666D01*
X154910715Y-45746666D02*
X154720239Y-45651428D01*
X154720239Y-45651428D02*
X154339286Y-45651428D01*
X154339286Y-45651428D02*
X154148810Y-45746666D01*
X155005953Y-46889523D02*
X154815477Y-46984761D01*
X154815477Y-46984761D02*
X154339286Y-46984761D01*
X154339286Y-46984761D02*
X154148810Y-46889523D01*
X154148810Y-46889523D02*
X154053572Y-46699047D01*
X154053572Y-46699047D02*
X154053572Y-46508571D01*
X154053572Y-46508571D02*
X154148810Y-46318095D01*
X154148810Y-46318095D02*
X154339286Y-46222857D01*
X154339286Y-46222857D02*
X154815477Y-46222857D01*
X154815477Y-46222857D02*
X155005953Y-46127619D01*
X155958334Y-45651428D02*
X155958334Y-46984761D01*
X155958334Y-45841904D02*
X156053572Y-45746666D01*
X156053572Y-45746666D02*
X156244048Y-45651428D01*
X156244048Y-45651428D02*
X156529763Y-45651428D01*
X156529763Y-45651428D02*
X156720239Y-45746666D01*
X156720239Y-45746666D02*
X156815477Y-45937142D01*
X156815477Y-45937142D02*
X156815477Y-46984761D01*
X137805952Y-50129523D02*
X138091666Y-50224761D01*
X138091666Y-50224761D02*
X138567857Y-50224761D01*
X138567857Y-50224761D02*
X138758333Y-50129523D01*
X138758333Y-50129523D02*
X138853571Y-50034285D01*
X138853571Y-50034285D02*
X138948809Y-49843809D01*
X138948809Y-49843809D02*
X138948809Y-49653333D01*
X138948809Y-49653333D02*
X138853571Y-49462857D01*
X138853571Y-49462857D02*
X138758333Y-49367619D01*
X138758333Y-49367619D02*
X138567857Y-49272380D01*
X138567857Y-49272380D02*
X138186904Y-49177142D01*
X138186904Y-49177142D02*
X137996428Y-49081904D01*
X137996428Y-49081904D02*
X137901190Y-48986666D01*
X137901190Y-48986666D02*
X137805952Y-48796190D01*
X137805952Y-48796190D02*
X137805952Y-48605714D01*
X137805952Y-48605714D02*
X137901190Y-48415238D01*
X137901190Y-48415238D02*
X137996428Y-48320000D01*
X137996428Y-48320000D02*
X138186904Y-48224761D01*
X138186904Y-48224761D02*
X138663095Y-48224761D01*
X138663095Y-48224761D02*
X138948809Y-48320000D01*
X139520238Y-48224761D02*
X140663095Y-48224761D01*
X140091666Y-50224761D02*
X140091666Y-48224761D01*
X141329762Y-50224761D02*
X141329762Y-48224761D01*
X141329762Y-48224761D02*
X141996429Y-49653333D01*
X141996429Y-49653333D02*
X142663095Y-48224761D01*
X142663095Y-48224761D02*
X142663095Y-50224761D01*
X143425000Y-48224761D02*
X144663095Y-48224761D01*
X144663095Y-48224761D02*
X143996428Y-48986666D01*
X143996428Y-48986666D02*
X144282143Y-48986666D01*
X144282143Y-48986666D02*
X144472619Y-49081904D01*
X144472619Y-49081904D02*
X144567857Y-49177142D01*
X144567857Y-49177142D02*
X144663095Y-49367619D01*
X144663095Y-49367619D02*
X144663095Y-49843809D01*
X144663095Y-49843809D02*
X144567857Y-50034285D01*
X144567857Y-50034285D02*
X144472619Y-50129523D01*
X144472619Y-50129523D02*
X144282143Y-50224761D01*
X144282143Y-50224761D02*
X143710714Y-50224761D01*
X143710714Y-50224761D02*
X143520238Y-50129523D01*
X143520238Y-50129523D02*
X143425000Y-50034285D01*
X145425000Y-48415238D02*
X145520238Y-48320000D01*
X145520238Y-48320000D02*
X145710714Y-48224761D01*
X145710714Y-48224761D02*
X146186905Y-48224761D01*
X146186905Y-48224761D02*
X146377381Y-48320000D01*
X146377381Y-48320000D02*
X146472619Y-48415238D01*
X146472619Y-48415238D02*
X146567857Y-48605714D01*
X146567857Y-48605714D02*
X146567857Y-48796190D01*
X146567857Y-48796190D02*
X146472619Y-49081904D01*
X146472619Y-49081904D02*
X145329762Y-50224761D01*
X145329762Y-50224761D02*
X146567857Y-50224761D01*
X148529762Y-50129523D02*
X148815476Y-50224761D01*
X148815476Y-50224761D02*
X149291667Y-50224761D01*
X149291667Y-50224761D02*
X149482143Y-50129523D01*
X149482143Y-50129523D02*
X149577381Y-50034285D01*
X149577381Y-50034285D02*
X149672619Y-49843809D01*
X149672619Y-49843809D02*
X149672619Y-49653333D01*
X149672619Y-49653333D02*
X149577381Y-49462857D01*
X149577381Y-49462857D02*
X149482143Y-49367619D01*
X149482143Y-49367619D02*
X149291667Y-49272380D01*
X149291667Y-49272380D02*
X148910714Y-49177142D01*
X148910714Y-49177142D02*
X148720238Y-49081904D01*
X148720238Y-49081904D02*
X148625000Y-48986666D01*
X148625000Y-48986666D02*
X148529762Y-48796190D01*
X148529762Y-48796190D02*
X148529762Y-48605714D01*
X148529762Y-48605714D02*
X148625000Y-48415238D01*
X148625000Y-48415238D02*
X148720238Y-48320000D01*
X148720238Y-48320000D02*
X148910714Y-48224761D01*
X148910714Y-48224761D02*
X149386905Y-48224761D01*
X149386905Y-48224761D02*
X149672619Y-48320000D01*
X150529762Y-50224761D02*
X150529762Y-48224761D01*
X151386905Y-50224761D02*
X151386905Y-49177142D01*
X151386905Y-49177142D02*
X151291667Y-48986666D01*
X151291667Y-48986666D02*
X151101191Y-48891428D01*
X151101191Y-48891428D02*
X150815476Y-48891428D01*
X150815476Y-48891428D02*
X150625000Y-48986666D01*
X150625000Y-48986666D02*
X150529762Y-49081904D01*
X153101191Y-50129523D02*
X152910715Y-50224761D01*
X152910715Y-50224761D02*
X152529762Y-50224761D01*
X152529762Y-50224761D02*
X152339286Y-50129523D01*
X152339286Y-50129523D02*
X152244048Y-49939047D01*
X152244048Y-49939047D02*
X152244048Y-49177142D01*
X152244048Y-49177142D02*
X152339286Y-48986666D01*
X152339286Y-48986666D02*
X152529762Y-48891428D01*
X152529762Y-48891428D02*
X152910715Y-48891428D01*
X152910715Y-48891428D02*
X153101191Y-48986666D01*
X153101191Y-48986666D02*
X153196429Y-49177142D01*
X153196429Y-49177142D02*
X153196429Y-49367619D01*
X153196429Y-49367619D02*
X152244048Y-49558095D01*
X154053572Y-50224761D02*
X154053572Y-48891428D01*
X154053572Y-48224761D02*
X153958334Y-48320000D01*
X153958334Y-48320000D02*
X154053572Y-48415238D01*
X154053572Y-48415238D02*
X154148810Y-48320000D01*
X154148810Y-48320000D02*
X154053572Y-48224761D01*
X154053572Y-48224761D02*
X154053572Y-48415238D01*
X155291667Y-50224761D02*
X155101191Y-50129523D01*
X155101191Y-50129523D02*
X155005953Y-49939047D01*
X155005953Y-49939047D02*
X155005953Y-48224761D01*
X156910715Y-50224761D02*
X156910715Y-48224761D01*
X156910715Y-50129523D02*
X156720239Y-50224761D01*
X156720239Y-50224761D02*
X156339286Y-50224761D01*
X156339286Y-50224761D02*
X156148810Y-50129523D01*
X156148810Y-50129523D02*
X156053572Y-50034285D01*
X156053572Y-50034285D02*
X155958334Y-49843809D01*
X155958334Y-49843809D02*
X155958334Y-49272380D01*
X155958334Y-49272380D02*
X156053572Y-49081904D01*
X156053572Y-49081904D02*
X156148810Y-48986666D01*
X156148810Y-48986666D02*
X156339286Y-48891428D01*
X156339286Y-48891428D02*
X156720239Y-48891428D01*
X156720239Y-48891428D02*
X156910715Y-48986666D01*
X159063096Y-50224761D02*
X159063096Y-48224761D01*
X159063096Y-48224761D02*
X159825001Y-48224761D01*
X159825001Y-48224761D02*
X160015477Y-48320000D01*
X160015477Y-48320000D02*
X160110715Y-48415238D01*
X160110715Y-48415238D02*
X160205953Y-48605714D01*
X160205953Y-48605714D02*
X160205953Y-48891428D01*
X160205953Y-48891428D02*
X160110715Y-49081904D01*
X160110715Y-49081904D02*
X160015477Y-49177142D01*
X160015477Y-49177142D02*
X159825001Y-49272380D01*
X159825001Y-49272380D02*
X159063096Y-49272380D01*
X161920239Y-48891428D02*
X161920239Y-50224761D01*
X161063096Y-48891428D02*
X161063096Y-49939047D01*
X161063096Y-49939047D02*
X161158334Y-50129523D01*
X161158334Y-50129523D02*
X161348810Y-50224761D01*
X161348810Y-50224761D02*
X161634525Y-50224761D01*
X161634525Y-50224761D02*
X161825001Y-50129523D01*
X161825001Y-50129523D02*
X161920239Y-50034285D01*
X163158334Y-50224761D02*
X162967858Y-50129523D01*
X162967858Y-50129523D02*
X162872620Y-49939047D01*
X162872620Y-49939047D02*
X162872620Y-48224761D01*
X163825001Y-50129523D02*
X164015477Y-50224761D01*
X164015477Y-50224761D02*
X164396429Y-50224761D01*
X164396429Y-50224761D02*
X164586906Y-50129523D01*
X164586906Y-50129523D02*
X164682144Y-49939047D01*
X164682144Y-49939047D02*
X164682144Y-49843809D01*
X164682144Y-49843809D02*
X164586906Y-49653333D01*
X164586906Y-49653333D02*
X164396429Y-49558095D01*
X164396429Y-49558095D02*
X164110715Y-49558095D01*
X164110715Y-49558095D02*
X163920239Y-49462857D01*
X163920239Y-49462857D02*
X163825001Y-49272380D01*
X163825001Y-49272380D02*
X163825001Y-49177142D01*
X163825001Y-49177142D02*
X163920239Y-48986666D01*
X163920239Y-48986666D02*
X164110715Y-48891428D01*
X164110715Y-48891428D02*
X164396429Y-48891428D01*
X164396429Y-48891428D02*
X164586906Y-48986666D01*
X166301192Y-50129523D02*
X166110716Y-50224761D01*
X166110716Y-50224761D02*
X165729763Y-50224761D01*
X165729763Y-50224761D02*
X165539287Y-50129523D01*
X165539287Y-50129523D02*
X165444049Y-49939047D01*
X165444049Y-49939047D02*
X165444049Y-49177142D01*
X165444049Y-49177142D02*
X165539287Y-48986666D01*
X165539287Y-48986666D02*
X165729763Y-48891428D01*
X165729763Y-48891428D02*
X166110716Y-48891428D01*
X166110716Y-48891428D02*
X166301192Y-48986666D01*
X166301192Y-48986666D02*
X166396430Y-49177142D01*
X166396430Y-49177142D02*
X166396430Y-49367619D01*
X166396430Y-49367619D02*
X165444049Y-49558095D01*
X168834525Y-48224761D02*
X169215478Y-48224761D01*
X169215478Y-48224761D02*
X169405954Y-48320000D01*
X169405954Y-48320000D02*
X169596430Y-48510476D01*
X169596430Y-48510476D02*
X169691668Y-48891428D01*
X169691668Y-48891428D02*
X169691668Y-49558095D01*
X169691668Y-49558095D02*
X169596430Y-49939047D01*
X169596430Y-49939047D02*
X169405954Y-50129523D01*
X169405954Y-50129523D02*
X169215478Y-50224761D01*
X169215478Y-50224761D02*
X168834525Y-50224761D01*
X168834525Y-50224761D02*
X168644049Y-50129523D01*
X168644049Y-50129523D02*
X168453573Y-49939047D01*
X168453573Y-49939047D02*
X168358335Y-49558095D01*
X168358335Y-49558095D02*
X168358335Y-48891428D01*
X168358335Y-48891428D02*
X168453573Y-48510476D01*
X168453573Y-48510476D02*
X168644049Y-48320000D01*
X168644049Y-48320000D02*
X168834525Y-48224761D01*
X170358335Y-50224761D02*
X171405954Y-48891428D01*
X170358335Y-48891428D02*
X171405954Y-50224761D01*
X172167859Y-50224761D02*
X172167859Y-48891428D01*
X172167859Y-48224761D02*
X172072621Y-48320000D01*
X172072621Y-48320000D02*
X172167859Y-48415238D01*
X172167859Y-48415238D02*
X172263097Y-48320000D01*
X172263097Y-48320000D02*
X172167859Y-48224761D01*
X172167859Y-48224761D02*
X172167859Y-48415238D01*
X173120240Y-50224761D02*
X173120240Y-48891428D01*
X173120240Y-49081904D02*
X173215478Y-48986666D01*
X173215478Y-48986666D02*
X173405954Y-48891428D01*
X173405954Y-48891428D02*
X173691669Y-48891428D01*
X173691669Y-48891428D02*
X173882145Y-48986666D01*
X173882145Y-48986666D02*
X173977383Y-49177142D01*
X173977383Y-49177142D02*
X173977383Y-50224761D01*
X173977383Y-49177142D02*
X174072621Y-48986666D01*
X174072621Y-48986666D02*
X174263097Y-48891428D01*
X174263097Y-48891428D02*
X174548811Y-48891428D01*
X174548811Y-48891428D02*
X174739288Y-48986666D01*
X174739288Y-48986666D02*
X174834526Y-49177142D01*
X174834526Y-49177142D02*
X174834526Y-50224761D01*
X176548812Y-50129523D02*
X176358336Y-50224761D01*
X176358336Y-50224761D02*
X175977383Y-50224761D01*
X175977383Y-50224761D02*
X175786907Y-50129523D01*
X175786907Y-50129523D02*
X175691669Y-49939047D01*
X175691669Y-49939047D02*
X175691669Y-49177142D01*
X175691669Y-49177142D02*
X175786907Y-48986666D01*
X175786907Y-48986666D02*
X175977383Y-48891428D01*
X175977383Y-48891428D02*
X176358336Y-48891428D01*
X176358336Y-48891428D02*
X176548812Y-48986666D01*
X176548812Y-48986666D02*
X176644050Y-49177142D01*
X176644050Y-49177142D02*
X176644050Y-49367619D01*
X176644050Y-49367619D02*
X175691669Y-49558095D01*
X177215479Y-48891428D02*
X177977383Y-48891428D01*
X177501193Y-48224761D02*
X177501193Y-49939047D01*
X177501193Y-49939047D02*
X177596431Y-50129523D01*
X177596431Y-50129523D02*
X177786907Y-50224761D01*
X177786907Y-50224761D02*
X177977383Y-50224761D01*
X179405955Y-50129523D02*
X179215479Y-50224761D01*
X179215479Y-50224761D02*
X178834526Y-50224761D01*
X178834526Y-50224761D02*
X178644050Y-50129523D01*
X178644050Y-50129523D02*
X178548812Y-49939047D01*
X178548812Y-49939047D02*
X178548812Y-49177142D01*
X178548812Y-49177142D02*
X178644050Y-48986666D01*
X178644050Y-48986666D02*
X178834526Y-48891428D01*
X178834526Y-48891428D02*
X179215479Y-48891428D01*
X179215479Y-48891428D02*
X179405955Y-48986666D01*
X179405955Y-48986666D02*
X179501193Y-49177142D01*
X179501193Y-49177142D02*
X179501193Y-49367619D01*
X179501193Y-49367619D02*
X178548812Y-49558095D01*
X180358336Y-50224761D02*
X180358336Y-48891428D01*
X180358336Y-49272380D02*
X180453574Y-49081904D01*
X180453574Y-49081904D02*
X180548812Y-48986666D01*
X180548812Y-48986666D02*
X180739288Y-48891428D01*
X180739288Y-48891428D02*
X180929765Y-48891428D01*
X183844050Y-50224761D02*
X182701193Y-50224761D01*
X183272621Y-50224761D02*
X183272621Y-48224761D01*
X183272621Y-48224761D02*
X183082145Y-48510476D01*
X183082145Y-48510476D02*
X182891669Y-48700952D01*
X182891669Y-48700952D02*
X182701193Y-48796190D01*
X184701193Y-50034285D02*
X184796431Y-50129523D01*
X184796431Y-50129523D02*
X184701193Y-50224761D01*
X184701193Y-50224761D02*
X184605955Y-50129523D01*
X184605955Y-50129523D02*
X184701193Y-50034285D01*
X184701193Y-50034285D02*
X184701193Y-50224761D01*
X186034526Y-48224761D02*
X186225003Y-48224761D01*
X186225003Y-48224761D02*
X186415479Y-48320000D01*
X186415479Y-48320000D02*
X186510717Y-48415238D01*
X186510717Y-48415238D02*
X186605955Y-48605714D01*
X186605955Y-48605714D02*
X186701193Y-48986666D01*
X186701193Y-48986666D02*
X186701193Y-49462857D01*
X186701193Y-49462857D02*
X186605955Y-49843809D01*
X186605955Y-49843809D02*
X186510717Y-50034285D01*
X186510717Y-50034285D02*
X186415479Y-50129523D01*
X186415479Y-50129523D02*
X186225003Y-50224761D01*
X186225003Y-50224761D02*
X186034526Y-50224761D01*
X186034526Y-50224761D02*
X185844050Y-50129523D01*
X185844050Y-50129523D02*
X185748812Y-50034285D01*
X185748812Y-50034285D02*
X185653574Y-49843809D01*
X185653574Y-49843809D02*
X185558336Y-49462857D01*
X185558336Y-49462857D02*
X185558336Y-48986666D01*
X185558336Y-48986666D02*
X185653574Y-48605714D01*
X185653574Y-48605714D02*
X185748812Y-48415238D01*
X185748812Y-48415238D02*
X185844050Y-48320000D01*
X185844050Y-48320000D02*
X186034526Y-48224761D01*
X138853571Y-51464761D02*
X137901190Y-51464761D01*
X137901190Y-51464761D02*
X137805952Y-52417142D01*
X137805952Y-52417142D02*
X137901190Y-52321904D01*
X137901190Y-52321904D02*
X138091666Y-52226666D01*
X138091666Y-52226666D02*
X138567857Y-52226666D01*
X138567857Y-52226666D02*
X138758333Y-52321904D01*
X138758333Y-52321904D02*
X138853571Y-52417142D01*
X138853571Y-52417142D02*
X138948809Y-52607619D01*
X138948809Y-52607619D02*
X138948809Y-53083809D01*
X138948809Y-53083809D02*
X138853571Y-53274285D01*
X138853571Y-53274285D02*
X138758333Y-53369523D01*
X138758333Y-53369523D02*
X138567857Y-53464761D01*
X138567857Y-53464761D02*
X138091666Y-53464761D01*
X138091666Y-53464761D02*
X137901190Y-53369523D01*
X137901190Y-53369523D02*
X137805952Y-53274285D01*
X141234523Y-51369523D02*
X139520238Y-53940952D01*
X141710714Y-51464761D02*
X142948809Y-51464761D01*
X142948809Y-51464761D02*
X142282142Y-52226666D01*
X142282142Y-52226666D02*
X142567857Y-52226666D01*
X142567857Y-52226666D02*
X142758333Y-52321904D01*
X142758333Y-52321904D02*
X142853571Y-52417142D01*
X142853571Y-52417142D02*
X142948809Y-52607619D01*
X142948809Y-52607619D02*
X142948809Y-53083809D01*
X142948809Y-53083809D02*
X142853571Y-53274285D01*
X142853571Y-53274285D02*
X142758333Y-53369523D01*
X142758333Y-53369523D02*
X142567857Y-53464761D01*
X142567857Y-53464761D02*
X141996428Y-53464761D01*
X141996428Y-53464761D02*
X141805952Y-53369523D01*
X141805952Y-53369523D02*
X141710714Y-53274285D01*
X144186904Y-51464761D02*
X144377381Y-51464761D01*
X144377381Y-51464761D02*
X144567857Y-51560000D01*
X144567857Y-51560000D02*
X144663095Y-51655238D01*
X144663095Y-51655238D02*
X144758333Y-51845714D01*
X144758333Y-51845714D02*
X144853571Y-52226666D01*
X144853571Y-52226666D02*
X144853571Y-52702857D01*
X144853571Y-52702857D02*
X144758333Y-53083809D01*
X144758333Y-53083809D02*
X144663095Y-53274285D01*
X144663095Y-53274285D02*
X144567857Y-53369523D01*
X144567857Y-53369523D02*
X144377381Y-53464761D01*
X144377381Y-53464761D02*
X144186904Y-53464761D01*
X144186904Y-53464761D02*
X143996428Y-53369523D01*
X143996428Y-53369523D02*
X143901190Y-53274285D01*
X143901190Y-53274285D02*
X143805952Y-53083809D01*
X143805952Y-53083809D02*
X143710714Y-52702857D01*
X143710714Y-52702857D02*
X143710714Y-52226666D01*
X143710714Y-52226666D02*
X143805952Y-51845714D01*
X143805952Y-51845714D02*
X143901190Y-51655238D01*
X143901190Y-51655238D02*
X143996428Y-51560000D01*
X143996428Y-51560000D02*
X144186904Y-51464761D01*
X147139285Y-51369523D02*
X145425000Y-53940952D01*
X147710714Y-51655238D02*
X147805952Y-51560000D01*
X147805952Y-51560000D02*
X147996428Y-51464761D01*
X147996428Y-51464761D02*
X148472619Y-51464761D01*
X148472619Y-51464761D02*
X148663095Y-51560000D01*
X148663095Y-51560000D02*
X148758333Y-51655238D01*
X148758333Y-51655238D02*
X148853571Y-51845714D01*
X148853571Y-51845714D02*
X148853571Y-52036190D01*
X148853571Y-52036190D02*
X148758333Y-52321904D01*
X148758333Y-52321904D02*
X147615476Y-53464761D01*
X147615476Y-53464761D02*
X148853571Y-53464761D01*
X149520238Y-51464761D02*
X150758333Y-51464761D01*
X150758333Y-51464761D02*
X150091666Y-52226666D01*
X150091666Y-52226666D02*
X150377381Y-52226666D01*
X150377381Y-52226666D02*
X150567857Y-52321904D01*
X150567857Y-52321904D02*
X150663095Y-52417142D01*
X150663095Y-52417142D02*
X150758333Y-52607619D01*
X150758333Y-52607619D02*
X150758333Y-53083809D01*
X150758333Y-53083809D02*
X150663095Y-53274285D01*
X150663095Y-53274285D02*
X150567857Y-53369523D01*
X150567857Y-53369523D02*
X150377381Y-53464761D01*
X150377381Y-53464761D02*
X149805952Y-53464761D01*
X149805952Y-53464761D02*
X149615476Y-53369523D01*
X149615476Y-53369523D02*
X149520238Y-53274285D01*
X156550000Y-54475000D02*
X179025000Y-54475000D01*
X179025000Y-54475000D02*
X179025000Y-76950000D01*
X179025000Y-76950000D02*
X156550000Y-76950000D01*
X156550000Y-76950000D02*
X156550000Y-54475000D01*
X158232142Y-70073571D02*
X158232142Y-68573571D01*
X158232142Y-68573571D02*
X158803571Y-68573571D01*
X158803571Y-68573571D02*
X158946428Y-68645000D01*
X158946428Y-68645000D02*
X159017857Y-68716428D01*
X159017857Y-68716428D02*
X159089285Y-68859285D01*
X159089285Y-68859285D02*
X159089285Y-69073571D01*
X159089285Y-69073571D02*
X159017857Y-69216428D01*
X159017857Y-69216428D02*
X158946428Y-69287857D01*
X158946428Y-69287857D02*
X158803571Y-69359285D01*
X158803571Y-69359285D02*
X158232142Y-69359285D01*
X159946428Y-70073571D02*
X159803571Y-70002142D01*
X159803571Y-70002142D02*
X159732142Y-69859285D01*
X159732142Y-69859285D02*
X159732142Y-68573571D01*
X161160714Y-70073571D02*
X161160714Y-69287857D01*
X161160714Y-69287857D02*
X161089285Y-69145000D01*
X161089285Y-69145000D02*
X160946428Y-69073571D01*
X160946428Y-69073571D02*
X160660714Y-69073571D01*
X160660714Y-69073571D02*
X160517856Y-69145000D01*
X161160714Y-70002142D02*
X161017856Y-70073571D01*
X161017856Y-70073571D02*
X160660714Y-70073571D01*
X160660714Y-70073571D02*
X160517856Y-70002142D01*
X160517856Y-70002142D02*
X160446428Y-69859285D01*
X160446428Y-69859285D02*
X160446428Y-69716428D01*
X160446428Y-69716428D02*
X160517856Y-69573571D01*
X160517856Y-69573571D02*
X160660714Y-69502142D01*
X160660714Y-69502142D02*
X161017856Y-69502142D01*
X161017856Y-69502142D02*
X161160714Y-69430714D01*
X162517857Y-70002142D02*
X162374999Y-70073571D01*
X162374999Y-70073571D02*
X162089285Y-70073571D01*
X162089285Y-70073571D02*
X161946428Y-70002142D01*
X161946428Y-70002142D02*
X161874999Y-69930714D01*
X161874999Y-69930714D02*
X161803571Y-69787857D01*
X161803571Y-69787857D02*
X161803571Y-69359285D01*
X161803571Y-69359285D02*
X161874999Y-69216428D01*
X161874999Y-69216428D02*
X161946428Y-69145000D01*
X161946428Y-69145000D02*
X162089285Y-69073571D01*
X162089285Y-69073571D02*
X162374999Y-69073571D01*
X162374999Y-69073571D02*
X162517857Y-69145000D01*
X163732142Y-70002142D02*
X163589285Y-70073571D01*
X163589285Y-70073571D02*
X163303571Y-70073571D01*
X163303571Y-70073571D02*
X163160713Y-70002142D01*
X163160713Y-70002142D02*
X163089285Y-69859285D01*
X163089285Y-69859285D02*
X163089285Y-69287857D01*
X163089285Y-69287857D02*
X163160713Y-69145000D01*
X163160713Y-69145000D02*
X163303571Y-69073571D01*
X163303571Y-69073571D02*
X163589285Y-69073571D01*
X163589285Y-69073571D02*
X163732142Y-69145000D01*
X163732142Y-69145000D02*
X163803571Y-69287857D01*
X163803571Y-69287857D02*
X163803571Y-69430714D01*
X163803571Y-69430714D02*
X163089285Y-69573571D01*
X165846427Y-69287857D02*
X165346427Y-69287857D01*
X165346427Y-70073571D02*
X165346427Y-68573571D01*
X165346427Y-68573571D02*
X166060713Y-68573571D01*
X166632141Y-70073571D02*
X166632141Y-69073571D01*
X166632141Y-68573571D02*
X166560713Y-68645000D01*
X166560713Y-68645000D02*
X166632141Y-68716428D01*
X166632141Y-68716428D02*
X166703570Y-68645000D01*
X166703570Y-68645000D02*
X166632141Y-68573571D01*
X166632141Y-68573571D02*
X166632141Y-68716428D01*
X167346427Y-69073571D02*
X167346427Y-70073571D01*
X167346427Y-69216428D02*
X167417856Y-69145000D01*
X167417856Y-69145000D02*
X167560713Y-69073571D01*
X167560713Y-69073571D02*
X167774999Y-69073571D01*
X167774999Y-69073571D02*
X167917856Y-69145000D01*
X167917856Y-69145000D02*
X167989285Y-69287857D01*
X167989285Y-69287857D02*
X167989285Y-70073571D01*
X169346428Y-69073571D02*
X169346428Y-70287857D01*
X169346428Y-70287857D02*
X169274999Y-70430714D01*
X169274999Y-70430714D02*
X169203570Y-70502142D01*
X169203570Y-70502142D02*
X169060713Y-70573571D01*
X169060713Y-70573571D02*
X168846428Y-70573571D01*
X168846428Y-70573571D02*
X168703570Y-70502142D01*
X169346428Y-70002142D02*
X169203570Y-70073571D01*
X169203570Y-70073571D02*
X168917856Y-70073571D01*
X168917856Y-70073571D02*
X168774999Y-70002142D01*
X168774999Y-70002142D02*
X168703570Y-69930714D01*
X168703570Y-69930714D02*
X168632142Y-69787857D01*
X168632142Y-69787857D02*
X168632142Y-69359285D01*
X168632142Y-69359285D02*
X168703570Y-69216428D01*
X168703570Y-69216428D02*
X168774999Y-69145000D01*
X168774999Y-69145000D02*
X168917856Y-69073571D01*
X168917856Y-69073571D02*
X169203570Y-69073571D01*
X169203570Y-69073571D02*
X169346428Y-69145000D01*
X170632142Y-70002142D02*
X170489285Y-70073571D01*
X170489285Y-70073571D02*
X170203571Y-70073571D01*
X170203571Y-70073571D02*
X170060713Y-70002142D01*
X170060713Y-70002142D02*
X169989285Y-69859285D01*
X169989285Y-69859285D02*
X169989285Y-69287857D01*
X169989285Y-69287857D02*
X170060713Y-69145000D01*
X170060713Y-69145000D02*
X170203571Y-69073571D01*
X170203571Y-69073571D02*
X170489285Y-69073571D01*
X170489285Y-69073571D02*
X170632142Y-69145000D01*
X170632142Y-69145000D02*
X170703571Y-69287857D01*
X170703571Y-69287857D02*
X170703571Y-69430714D01*
X170703571Y-69430714D02*
X169989285Y-69573571D01*
X171346427Y-70073571D02*
X171346427Y-69073571D01*
X171346427Y-69359285D02*
X171417856Y-69216428D01*
X171417856Y-69216428D02*
X171489285Y-69145000D01*
X171489285Y-69145000D02*
X171632142Y-69073571D01*
X171632142Y-69073571D02*
X171774999Y-69073571D01*
X173174998Y-70073571D02*
X173174998Y-68573571D01*
X173174998Y-69287857D02*
X174032141Y-69287857D01*
X174032141Y-70073571D02*
X174032141Y-68573571D01*
X175317856Y-70002142D02*
X175174999Y-70073571D01*
X175174999Y-70073571D02*
X174889285Y-70073571D01*
X174889285Y-70073571D02*
X174746427Y-70002142D01*
X174746427Y-70002142D02*
X174674999Y-69859285D01*
X174674999Y-69859285D02*
X174674999Y-69287857D01*
X174674999Y-69287857D02*
X174746427Y-69145000D01*
X174746427Y-69145000D02*
X174889285Y-69073571D01*
X174889285Y-69073571D02*
X175174999Y-69073571D01*
X175174999Y-69073571D02*
X175317856Y-69145000D01*
X175317856Y-69145000D02*
X175389285Y-69287857D01*
X175389285Y-69287857D02*
X175389285Y-69430714D01*
X175389285Y-69430714D02*
X174674999Y-69573571D01*
X176032141Y-70073571D02*
X176032141Y-69073571D01*
X176032141Y-69359285D02*
X176103570Y-69216428D01*
X176103570Y-69216428D02*
X176174999Y-69145000D01*
X176174999Y-69145000D02*
X176317856Y-69073571D01*
X176317856Y-69073571D02*
X176460713Y-69073571D01*
X177532141Y-70002142D02*
X177389284Y-70073571D01*
X177389284Y-70073571D02*
X177103570Y-70073571D01*
X177103570Y-70073571D02*
X176960712Y-70002142D01*
X176960712Y-70002142D02*
X176889284Y-69859285D01*
X176889284Y-69859285D02*
X176889284Y-69287857D01*
X176889284Y-69287857D02*
X176960712Y-69145000D01*
X176960712Y-69145000D02*
X177103570Y-69073571D01*
X177103570Y-69073571D02*
X177389284Y-69073571D01*
X177389284Y-69073571D02*
X177532141Y-69145000D01*
X177532141Y-69145000D02*
X177603570Y-69287857D01*
X177603570Y-69287857D02*
X177603570Y-69430714D01*
X177603570Y-69430714D02*
X176889284Y-69573571D01*
%TO.C,R3*%
X239170833Y-88392380D02*
X238837500Y-87916190D01*
X238599405Y-88392380D02*
X238599405Y-87392380D01*
X238599405Y-87392380D02*
X238980357Y-87392380D01*
X238980357Y-87392380D02*
X239075595Y-87440000D01*
X239075595Y-87440000D02*
X239123214Y-87487619D01*
X239123214Y-87487619D02*
X239170833Y-87582857D01*
X239170833Y-87582857D02*
X239170833Y-87725714D01*
X239170833Y-87725714D02*
X239123214Y-87820952D01*
X239123214Y-87820952D02*
X239075595Y-87868571D01*
X239075595Y-87868571D02*
X238980357Y-87916190D01*
X238980357Y-87916190D02*
X238599405Y-87916190D01*
X239504167Y-87392380D02*
X240123214Y-87392380D01*
X240123214Y-87392380D02*
X239789881Y-87773333D01*
X239789881Y-87773333D02*
X239932738Y-87773333D01*
X239932738Y-87773333D02*
X240027976Y-87820952D01*
X240027976Y-87820952D02*
X240075595Y-87868571D01*
X240075595Y-87868571D02*
X240123214Y-87963809D01*
X240123214Y-87963809D02*
X240123214Y-88201904D01*
X240123214Y-88201904D02*
X240075595Y-88297142D01*
X240075595Y-88297142D02*
X240027976Y-88344761D01*
X240027976Y-88344761D02*
X239932738Y-88392380D01*
X239932738Y-88392380D02*
X239647024Y-88392380D01*
X239647024Y-88392380D02*
X239551786Y-88344761D01*
X239551786Y-88344761D02*
X239504167Y-88297142D01*
%TO.C,U2*%
X229638095Y-86917380D02*
X229638095Y-87726904D01*
X229638095Y-87726904D02*
X229685714Y-87822142D01*
X229685714Y-87822142D02*
X229733333Y-87869761D01*
X229733333Y-87869761D02*
X229828571Y-87917380D01*
X229828571Y-87917380D02*
X230019047Y-87917380D01*
X230019047Y-87917380D02*
X230114285Y-87869761D01*
X230114285Y-87869761D02*
X230161904Y-87822142D01*
X230161904Y-87822142D02*
X230209523Y-87726904D01*
X230209523Y-87726904D02*
X230209523Y-86917380D01*
X230638095Y-87012619D02*
X230685714Y-86965000D01*
X230685714Y-86965000D02*
X230780952Y-86917380D01*
X230780952Y-86917380D02*
X231019047Y-86917380D01*
X231019047Y-86917380D02*
X231114285Y-86965000D01*
X231114285Y-86965000D02*
X231161904Y-87012619D01*
X231161904Y-87012619D02*
X231209523Y-87107857D01*
X231209523Y-87107857D02*
X231209523Y-87203095D01*
X231209523Y-87203095D02*
X231161904Y-87345952D01*
X231161904Y-87345952D02*
X230590476Y-87917380D01*
X230590476Y-87917380D02*
X231209523Y-87917380D01*
%TO.C,U1*%
X138392380Y-131026904D02*
X139201904Y-131026904D01*
X139201904Y-131026904D02*
X139297142Y-130979285D01*
X139297142Y-130979285D02*
X139344761Y-130931666D01*
X139344761Y-130931666D02*
X139392380Y-130836428D01*
X139392380Y-130836428D02*
X139392380Y-130645952D01*
X139392380Y-130645952D02*
X139344761Y-130550714D01*
X139344761Y-130550714D02*
X139297142Y-130503095D01*
X139297142Y-130503095D02*
X139201904Y-130455476D01*
X139201904Y-130455476D02*
X138392380Y-130455476D01*
X139392380Y-129455476D02*
X139392380Y-130026904D01*
X139392380Y-129741190D02*
X138392380Y-129741190D01*
X138392380Y-129741190D02*
X138535238Y-129836428D01*
X138535238Y-129836428D02*
X138630476Y-129931666D01*
X138630476Y-129931666D02*
X138678095Y-130026904D01*
%TO.C,R11*%
X150032142Y-81167380D02*
X149698809Y-80691190D01*
X149460714Y-81167380D02*
X149460714Y-80167380D01*
X149460714Y-80167380D02*
X149841666Y-80167380D01*
X149841666Y-80167380D02*
X149936904Y-80215000D01*
X149936904Y-80215000D02*
X149984523Y-80262619D01*
X149984523Y-80262619D02*
X150032142Y-80357857D01*
X150032142Y-80357857D02*
X150032142Y-80500714D01*
X150032142Y-80500714D02*
X149984523Y-80595952D01*
X149984523Y-80595952D02*
X149936904Y-80643571D01*
X149936904Y-80643571D02*
X149841666Y-80691190D01*
X149841666Y-80691190D02*
X149460714Y-80691190D01*
X150984523Y-81167380D02*
X150413095Y-81167380D01*
X150698809Y-81167380D02*
X150698809Y-80167380D01*
X150698809Y-80167380D02*
X150603571Y-80310238D01*
X150603571Y-80310238D02*
X150508333Y-80405476D01*
X150508333Y-80405476D02*
X150413095Y-80453095D01*
X151936904Y-81167380D02*
X151365476Y-81167380D01*
X151651190Y-81167380D02*
X151651190Y-80167380D01*
X151651190Y-80167380D02*
X151555952Y-80310238D01*
X151555952Y-80310238D02*
X151460714Y-80405476D01*
X151460714Y-80405476D02*
X151365476Y-80453095D01*
%TO.C,R10*%
X211969642Y-105217380D02*
X211636309Y-104741190D01*
X211398214Y-105217380D02*
X211398214Y-104217380D01*
X211398214Y-104217380D02*
X211779166Y-104217380D01*
X211779166Y-104217380D02*
X211874404Y-104265000D01*
X211874404Y-104265000D02*
X211922023Y-104312619D01*
X211922023Y-104312619D02*
X211969642Y-104407857D01*
X211969642Y-104407857D02*
X211969642Y-104550714D01*
X211969642Y-104550714D02*
X211922023Y-104645952D01*
X211922023Y-104645952D02*
X211874404Y-104693571D01*
X211874404Y-104693571D02*
X211779166Y-104741190D01*
X211779166Y-104741190D02*
X211398214Y-104741190D01*
X212922023Y-105217380D02*
X212350595Y-105217380D01*
X212636309Y-105217380D02*
X212636309Y-104217380D01*
X212636309Y-104217380D02*
X212541071Y-104360238D01*
X212541071Y-104360238D02*
X212445833Y-104455476D01*
X212445833Y-104455476D02*
X212350595Y-104503095D01*
X213541071Y-104217380D02*
X213636309Y-104217380D01*
X213636309Y-104217380D02*
X213731547Y-104265000D01*
X213731547Y-104265000D02*
X213779166Y-104312619D01*
X213779166Y-104312619D02*
X213826785Y-104407857D01*
X213826785Y-104407857D02*
X213874404Y-104598333D01*
X213874404Y-104598333D02*
X213874404Y-104836428D01*
X213874404Y-104836428D02*
X213826785Y-105026904D01*
X213826785Y-105026904D02*
X213779166Y-105122142D01*
X213779166Y-105122142D02*
X213731547Y-105169761D01*
X213731547Y-105169761D02*
X213636309Y-105217380D01*
X213636309Y-105217380D02*
X213541071Y-105217380D01*
X213541071Y-105217380D02*
X213445833Y-105169761D01*
X213445833Y-105169761D02*
X213398214Y-105122142D01*
X213398214Y-105122142D02*
X213350595Y-105026904D01*
X213350595Y-105026904D02*
X213302976Y-104836428D01*
X213302976Y-104836428D02*
X213302976Y-104598333D01*
X213302976Y-104598333D02*
X213350595Y-104407857D01*
X213350595Y-104407857D02*
X213398214Y-104312619D01*
X213398214Y-104312619D02*
X213445833Y-104265000D01*
X213445833Y-104265000D02*
X213541071Y-104217380D01*
%TO.C,R9*%
X212558333Y-100642380D02*
X212225000Y-100166190D01*
X211986905Y-100642380D02*
X211986905Y-99642380D01*
X211986905Y-99642380D02*
X212367857Y-99642380D01*
X212367857Y-99642380D02*
X212463095Y-99690000D01*
X212463095Y-99690000D02*
X212510714Y-99737619D01*
X212510714Y-99737619D02*
X212558333Y-99832857D01*
X212558333Y-99832857D02*
X212558333Y-99975714D01*
X212558333Y-99975714D02*
X212510714Y-100070952D01*
X212510714Y-100070952D02*
X212463095Y-100118571D01*
X212463095Y-100118571D02*
X212367857Y-100166190D01*
X212367857Y-100166190D02*
X211986905Y-100166190D01*
X213034524Y-100642380D02*
X213225000Y-100642380D01*
X213225000Y-100642380D02*
X213320238Y-100594761D01*
X213320238Y-100594761D02*
X213367857Y-100547142D01*
X213367857Y-100547142D02*
X213463095Y-100404285D01*
X213463095Y-100404285D02*
X213510714Y-100213809D01*
X213510714Y-100213809D02*
X213510714Y-99832857D01*
X213510714Y-99832857D02*
X213463095Y-99737619D01*
X213463095Y-99737619D02*
X213415476Y-99690000D01*
X213415476Y-99690000D02*
X213320238Y-99642380D01*
X213320238Y-99642380D02*
X213129762Y-99642380D01*
X213129762Y-99642380D02*
X213034524Y-99690000D01*
X213034524Y-99690000D02*
X212986905Y-99737619D01*
X212986905Y-99737619D02*
X212939286Y-99832857D01*
X212939286Y-99832857D02*
X212939286Y-100070952D01*
X212939286Y-100070952D02*
X212986905Y-100166190D01*
X212986905Y-100166190D02*
X213034524Y-100213809D01*
X213034524Y-100213809D02*
X213129762Y-100261428D01*
X213129762Y-100261428D02*
X213320238Y-100261428D01*
X213320238Y-100261428D02*
X213415476Y-100213809D01*
X213415476Y-100213809D02*
X213463095Y-100166190D01*
X213463095Y-100166190D02*
X213510714Y-100070952D01*
%TO.C,R8*%
X214408333Y-96117380D02*
X214075000Y-95641190D01*
X213836905Y-96117380D02*
X213836905Y-95117380D01*
X213836905Y-95117380D02*
X214217857Y-95117380D01*
X214217857Y-95117380D02*
X214313095Y-95165000D01*
X214313095Y-95165000D02*
X214360714Y-95212619D01*
X214360714Y-95212619D02*
X214408333Y-95307857D01*
X214408333Y-95307857D02*
X214408333Y-95450714D01*
X214408333Y-95450714D02*
X214360714Y-95545952D01*
X214360714Y-95545952D02*
X214313095Y-95593571D01*
X214313095Y-95593571D02*
X214217857Y-95641190D01*
X214217857Y-95641190D02*
X213836905Y-95641190D01*
X214979762Y-95545952D02*
X214884524Y-95498333D01*
X214884524Y-95498333D02*
X214836905Y-95450714D01*
X214836905Y-95450714D02*
X214789286Y-95355476D01*
X214789286Y-95355476D02*
X214789286Y-95307857D01*
X214789286Y-95307857D02*
X214836905Y-95212619D01*
X214836905Y-95212619D02*
X214884524Y-95165000D01*
X214884524Y-95165000D02*
X214979762Y-95117380D01*
X214979762Y-95117380D02*
X215170238Y-95117380D01*
X215170238Y-95117380D02*
X215265476Y-95165000D01*
X215265476Y-95165000D02*
X215313095Y-95212619D01*
X215313095Y-95212619D02*
X215360714Y-95307857D01*
X215360714Y-95307857D02*
X215360714Y-95355476D01*
X215360714Y-95355476D02*
X215313095Y-95450714D01*
X215313095Y-95450714D02*
X215265476Y-95498333D01*
X215265476Y-95498333D02*
X215170238Y-95545952D01*
X215170238Y-95545952D02*
X214979762Y-95545952D01*
X214979762Y-95545952D02*
X214884524Y-95593571D01*
X214884524Y-95593571D02*
X214836905Y-95641190D01*
X214836905Y-95641190D02*
X214789286Y-95736428D01*
X214789286Y-95736428D02*
X214789286Y-95926904D01*
X214789286Y-95926904D02*
X214836905Y-96022142D01*
X214836905Y-96022142D02*
X214884524Y-96069761D01*
X214884524Y-96069761D02*
X214979762Y-96117380D01*
X214979762Y-96117380D02*
X215170238Y-96117380D01*
X215170238Y-96117380D02*
X215265476Y-96069761D01*
X215265476Y-96069761D02*
X215313095Y-96022142D01*
X215313095Y-96022142D02*
X215360714Y-95926904D01*
X215360714Y-95926904D02*
X215360714Y-95736428D01*
X215360714Y-95736428D02*
X215313095Y-95641190D01*
X215313095Y-95641190D02*
X215265476Y-95593571D01*
X215265476Y-95593571D02*
X215170238Y-95545952D01*
%TO.C,R7*%
X210683333Y-90892380D02*
X210350000Y-90416190D01*
X210111905Y-90892380D02*
X210111905Y-89892380D01*
X210111905Y-89892380D02*
X210492857Y-89892380D01*
X210492857Y-89892380D02*
X210588095Y-89940000D01*
X210588095Y-89940000D02*
X210635714Y-89987619D01*
X210635714Y-89987619D02*
X210683333Y-90082857D01*
X210683333Y-90082857D02*
X210683333Y-90225714D01*
X210683333Y-90225714D02*
X210635714Y-90320952D01*
X210635714Y-90320952D02*
X210588095Y-90368571D01*
X210588095Y-90368571D02*
X210492857Y-90416190D01*
X210492857Y-90416190D02*
X210111905Y-90416190D01*
X211016667Y-89892380D02*
X211683333Y-89892380D01*
X211683333Y-89892380D02*
X211254762Y-90892380D01*
%TO.C,R6*%
X215833333Y-88042380D02*
X215500000Y-87566190D01*
X215261905Y-88042380D02*
X215261905Y-87042380D01*
X215261905Y-87042380D02*
X215642857Y-87042380D01*
X215642857Y-87042380D02*
X215738095Y-87090000D01*
X215738095Y-87090000D02*
X215785714Y-87137619D01*
X215785714Y-87137619D02*
X215833333Y-87232857D01*
X215833333Y-87232857D02*
X215833333Y-87375714D01*
X215833333Y-87375714D02*
X215785714Y-87470952D01*
X215785714Y-87470952D02*
X215738095Y-87518571D01*
X215738095Y-87518571D02*
X215642857Y-87566190D01*
X215642857Y-87566190D02*
X215261905Y-87566190D01*
X216690476Y-87042380D02*
X216500000Y-87042380D01*
X216500000Y-87042380D02*
X216404762Y-87090000D01*
X216404762Y-87090000D02*
X216357143Y-87137619D01*
X216357143Y-87137619D02*
X216261905Y-87280476D01*
X216261905Y-87280476D02*
X216214286Y-87470952D01*
X216214286Y-87470952D02*
X216214286Y-87851904D01*
X216214286Y-87851904D02*
X216261905Y-87947142D01*
X216261905Y-87947142D02*
X216309524Y-87994761D01*
X216309524Y-87994761D02*
X216404762Y-88042380D01*
X216404762Y-88042380D02*
X216595238Y-88042380D01*
X216595238Y-88042380D02*
X216690476Y-87994761D01*
X216690476Y-87994761D02*
X216738095Y-87947142D01*
X216738095Y-87947142D02*
X216785714Y-87851904D01*
X216785714Y-87851904D02*
X216785714Y-87613809D01*
X216785714Y-87613809D02*
X216738095Y-87518571D01*
X216738095Y-87518571D02*
X216690476Y-87470952D01*
X216690476Y-87470952D02*
X216595238Y-87423333D01*
X216595238Y-87423333D02*
X216404762Y-87423333D01*
X216404762Y-87423333D02*
X216309524Y-87470952D01*
X216309524Y-87470952D02*
X216261905Y-87518571D01*
X216261905Y-87518571D02*
X216214286Y-87613809D01*
%TO.C,R5*%
X217258333Y-81167380D02*
X216925000Y-80691190D01*
X216686905Y-81167380D02*
X216686905Y-80167380D01*
X216686905Y-80167380D02*
X217067857Y-80167380D01*
X217067857Y-80167380D02*
X217163095Y-80215000D01*
X217163095Y-80215000D02*
X217210714Y-80262619D01*
X217210714Y-80262619D02*
X217258333Y-80357857D01*
X217258333Y-80357857D02*
X217258333Y-80500714D01*
X217258333Y-80500714D02*
X217210714Y-80595952D01*
X217210714Y-80595952D02*
X217163095Y-80643571D01*
X217163095Y-80643571D02*
X217067857Y-80691190D01*
X217067857Y-80691190D02*
X216686905Y-80691190D01*
X218163095Y-80167380D02*
X217686905Y-80167380D01*
X217686905Y-80167380D02*
X217639286Y-80643571D01*
X217639286Y-80643571D02*
X217686905Y-80595952D01*
X217686905Y-80595952D02*
X217782143Y-80548333D01*
X217782143Y-80548333D02*
X218020238Y-80548333D01*
X218020238Y-80548333D02*
X218115476Y-80595952D01*
X218115476Y-80595952D02*
X218163095Y-80643571D01*
X218163095Y-80643571D02*
X218210714Y-80738809D01*
X218210714Y-80738809D02*
X218210714Y-80976904D01*
X218210714Y-80976904D02*
X218163095Y-81072142D01*
X218163095Y-81072142D02*
X218115476Y-81119761D01*
X218115476Y-81119761D02*
X218020238Y-81167380D01*
X218020238Y-81167380D02*
X217782143Y-81167380D01*
X217782143Y-81167380D02*
X217686905Y-81119761D01*
X217686905Y-81119761D02*
X217639286Y-81072142D01*
%TO.C,R4*%
X218183333Y-79067380D02*
X217850000Y-78591190D01*
X217611905Y-79067380D02*
X217611905Y-78067380D01*
X217611905Y-78067380D02*
X217992857Y-78067380D01*
X217992857Y-78067380D02*
X218088095Y-78115000D01*
X218088095Y-78115000D02*
X218135714Y-78162619D01*
X218135714Y-78162619D02*
X218183333Y-78257857D01*
X218183333Y-78257857D02*
X218183333Y-78400714D01*
X218183333Y-78400714D02*
X218135714Y-78495952D01*
X218135714Y-78495952D02*
X218088095Y-78543571D01*
X218088095Y-78543571D02*
X217992857Y-78591190D01*
X217992857Y-78591190D02*
X217611905Y-78591190D01*
X219040476Y-78400714D02*
X219040476Y-79067380D01*
X218802381Y-78019761D02*
X218564286Y-78734047D01*
X218564286Y-78734047D02*
X219183333Y-78734047D01*
%TO.C,R2*%
X190480833Y-64667380D02*
X190147500Y-64191190D01*
X189909405Y-64667380D02*
X189909405Y-63667380D01*
X189909405Y-63667380D02*
X190290357Y-63667380D01*
X190290357Y-63667380D02*
X190385595Y-63715000D01*
X190385595Y-63715000D02*
X190433214Y-63762619D01*
X190433214Y-63762619D02*
X190480833Y-63857857D01*
X190480833Y-63857857D02*
X190480833Y-64000714D01*
X190480833Y-64000714D02*
X190433214Y-64095952D01*
X190433214Y-64095952D02*
X190385595Y-64143571D01*
X190385595Y-64143571D02*
X190290357Y-64191190D01*
X190290357Y-64191190D02*
X189909405Y-64191190D01*
X190861786Y-63762619D02*
X190909405Y-63715000D01*
X190909405Y-63715000D02*
X191004643Y-63667380D01*
X191004643Y-63667380D02*
X191242738Y-63667380D01*
X191242738Y-63667380D02*
X191337976Y-63715000D01*
X191337976Y-63715000D02*
X191385595Y-63762619D01*
X191385595Y-63762619D02*
X191433214Y-63857857D01*
X191433214Y-63857857D02*
X191433214Y-63953095D01*
X191433214Y-63953095D02*
X191385595Y-64095952D01*
X191385595Y-64095952D02*
X190814167Y-64667380D01*
X190814167Y-64667380D02*
X191433214Y-64667380D01*
%TO.C,R1*%
X190730833Y-69967380D02*
X190397500Y-69491190D01*
X190159405Y-69967380D02*
X190159405Y-68967380D01*
X190159405Y-68967380D02*
X190540357Y-68967380D01*
X190540357Y-68967380D02*
X190635595Y-69015000D01*
X190635595Y-69015000D02*
X190683214Y-69062619D01*
X190683214Y-69062619D02*
X190730833Y-69157857D01*
X190730833Y-69157857D02*
X190730833Y-69300714D01*
X190730833Y-69300714D02*
X190683214Y-69395952D01*
X190683214Y-69395952D02*
X190635595Y-69443571D01*
X190635595Y-69443571D02*
X190540357Y-69491190D01*
X190540357Y-69491190D02*
X190159405Y-69491190D01*
X191683214Y-69967380D02*
X191111786Y-69967380D01*
X191397500Y-69967380D02*
X191397500Y-68967380D01*
X191397500Y-68967380D02*
X191302262Y-69110238D01*
X191302262Y-69110238D02*
X191207024Y-69205476D01*
X191207024Y-69205476D02*
X191111786Y-69253095D01*
%TO.C,J2*%
X252371666Y-70592380D02*
X252371666Y-71306666D01*
X252371666Y-71306666D02*
X252324047Y-71449523D01*
X252324047Y-71449523D02*
X252228809Y-71544761D01*
X252228809Y-71544761D02*
X252085952Y-71592380D01*
X252085952Y-71592380D02*
X251990714Y-71592380D01*
X252800238Y-70687619D02*
X252847857Y-70640000D01*
X252847857Y-70640000D02*
X252943095Y-70592380D01*
X252943095Y-70592380D02*
X253181190Y-70592380D01*
X253181190Y-70592380D02*
X253276428Y-70640000D01*
X253276428Y-70640000D02*
X253324047Y-70687619D01*
X253324047Y-70687619D02*
X253371666Y-70782857D01*
X253371666Y-70782857D02*
X253371666Y-70878095D01*
X253371666Y-70878095D02*
X253324047Y-71020952D01*
X253324047Y-71020952D02*
X252752619Y-71592380D01*
X252752619Y-71592380D02*
X253371666Y-71592380D01*
%TO.C,J1*%
X202486666Y-70577380D02*
X202486666Y-71291666D01*
X202486666Y-71291666D02*
X202439047Y-71434523D01*
X202439047Y-71434523D02*
X202343809Y-71529761D01*
X202343809Y-71529761D02*
X202200952Y-71577380D01*
X202200952Y-71577380D02*
X202105714Y-71577380D01*
X203486666Y-71577380D02*
X202915238Y-71577380D01*
X203200952Y-71577380D02*
X203200952Y-70577380D01*
X203200952Y-70577380D02*
X203105714Y-70720238D01*
X203105714Y-70720238D02*
X203010476Y-70815476D01*
X203010476Y-70815476D02*
X202915238Y-70863095D01*
%TO.C,D3*%
X154639880Y-69433094D02*
X153639880Y-69433094D01*
X153639880Y-69433094D02*
X153639880Y-69194999D01*
X153639880Y-69194999D02*
X153687500Y-69052142D01*
X153687500Y-69052142D02*
X153782738Y-68956904D01*
X153782738Y-68956904D02*
X153877976Y-68909285D01*
X153877976Y-68909285D02*
X154068452Y-68861666D01*
X154068452Y-68861666D02*
X154211309Y-68861666D01*
X154211309Y-68861666D02*
X154401785Y-68909285D01*
X154401785Y-68909285D02*
X154497023Y-68956904D01*
X154497023Y-68956904D02*
X154592261Y-69052142D01*
X154592261Y-69052142D02*
X154639880Y-69194999D01*
X154639880Y-69194999D02*
X154639880Y-69433094D01*
X153639880Y-68528332D02*
X153639880Y-67909285D01*
X153639880Y-67909285D02*
X154020833Y-68242618D01*
X154020833Y-68242618D02*
X154020833Y-68099761D01*
X154020833Y-68099761D02*
X154068452Y-68004523D01*
X154068452Y-68004523D02*
X154116071Y-67956904D01*
X154116071Y-67956904D02*
X154211309Y-67909285D01*
X154211309Y-67909285D02*
X154449404Y-67909285D01*
X154449404Y-67909285D02*
X154544642Y-67956904D01*
X154544642Y-67956904D02*
X154592261Y-68004523D01*
X154592261Y-68004523D02*
X154639880Y-68099761D01*
X154639880Y-68099761D02*
X154639880Y-68385475D01*
X154639880Y-68385475D02*
X154592261Y-68480713D01*
X154592261Y-68480713D02*
X154544642Y-68528332D01*
%TO.C,D2*%
X180896905Y-72817380D02*
X180896905Y-71817380D01*
X180896905Y-71817380D02*
X181135000Y-71817380D01*
X181135000Y-71817380D02*
X181277857Y-71865000D01*
X181277857Y-71865000D02*
X181373095Y-71960238D01*
X181373095Y-71960238D02*
X181420714Y-72055476D01*
X181420714Y-72055476D02*
X181468333Y-72245952D01*
X181468333Y-72245952D02*
X181468333Y-72388809D01*
X181468333Y-72388809D02*
X181420714Y-72579285D01*
X181420714Y-72579285D02*
X181373095Y-72674523D01*
X181373095Y-72674523D02*
X181277857Y-72769761D01*
X181277857Y-72769761D02*
X181135000Y-72817380D01*
X181135000Y-72817380D02*
X180896905Y-72817380D01*
X181849286Y-71912619D02*
X181896905Y-71865000D01*
X181896905Y-71865000D02*
X181992143Y-71817380D01*
X181992143Y-71817380D02*
X182230238Y-71817380D01*
X182230238Y-71817380D02*
X182325476Y-71865000D01*
X182325476Y-71865000D02*
X182373095Y-71912619D01*
X182373095Y-71912619D02*
X182420714Y-72007857D01*
X182420714Y-72007857D02*
X182420714Y-72103095D01*
X182420714Y-72103095D02*
X182373095Y-72245952D01*
X182373095Y-72245952D02*
X181801667Y-72817380D01*
X181801667Y-72817380D02*
X182420714Y-72817380D01*
%TO.C,D1*%
X180861905Y-66042380D02*
X180861905Y-65042380D01*
X180861905Y-65042380D02*
X181100000Y-65042380D01*
X181100000Y-65042380D02*
X181242857Y-65090000D01*
X181242857Y-65090000D02*
X181338095Y-65185238D01*
X181338095Y-65185238D02*
X181385714Y-65280476D01*
X181385714Y-65280476D02*
X181433333Y-65470952D01*
X181433333Y-65470952D02*
X181433333Y-65613809D01*
X181433333Y-65613809D02*
X181385714Y-65804285D01*
X181385714Y-65804285D02*
X181338095Y-65899523D01*
X181338095Y-65899523D02*
X181242857Y-65994761D01*
X181242857Y-65994761D02*
X181100000Y-66042380D01*
X181100000Y-66042380D02*
X180861905Y-66042380D01*
X182385714Y-66042380D02*
X181814286Y-66042380D01*
X182100000Y-66042380D02*
X182100000Y-65042380D01*
X182100000Y-65042380D02*
X182004762Y-65185238D01*
X182004762Y-65185238D02*
X181909524Y-65280476D01*
X181909524Y-65280476D02*
X181814286Y-65328095D01*
D11*
%TO.C,R3*%
X239110436Y-88865000D02*
X239564564Y-88865000D01*
X239110436Y-90335000D02*
X239564564Y-90335000D01*
D10*
%TO.C,U2*%
X228150000Y-93825000D02*
X232650000Y-93825000D01*
X227025000Y-88275000D02*
X232650000Y-88275000D01*
D11*
%TO.C,U1*%
X140105000Y-132265000D02*
X190645000Y-132265000D01*
X190645000Y-113025000D02*
X140105000Y-113025000D01*
X140105000Y-132265000D02*
X140105000Y-113025000D01*
X190645000Y-132265000D02*
X190645000Y-113025000D01*
X158025000Y-132645000D02*
X160025000Y-132645000D01*
%TO.C,R11*%
X152264564Y-79760000D02*
X151810436Y-79760000D01*
X152264564Y-78290000D02*
X151810436Y-78290000D01*
%TO.C,R10*%
X212839564Y-103935000D02*
X212385436Y-103935000D01*
X212839564Y-102465000D02*
X212385436Y-102465000D01*
%TO.C,R9*%
X214589564Y-99110000D02*
X214135436Y-99110000D01*
X214589564Y-97640000D02*
X214135436Y-97640000D01*
%TO.C,R8*%
X214564564Y-94635000D02*
X214110436Y-94635000D01*
X214564564Y-93165000D02*
X214110436Y-93165000D01*
%TO.C,R7*%
X214564564Y-90760000D02*
X214110436Y-90760000D01*
X214564564Y-89290000D02*
X214110436Y-89290000D01*
%TO.C,R6*%
X215414564Y-84865000D02*
X214960436Y-84865000D01*
X215414564Y-86335000D02*
X214960436Y-86335000D01*
%TO.C,R5*%
X214739564Y-79940000D02*
X214285436Y-79940000D01*
X214739564Y-81410000D02*
X214285436Y-81410000D01*
%TO.C,R4*%
X218964564Y-76190000D02*
X218510436Y-76190000D01*
X218964564Y-77660000D02*
X218510436Y-77660000D01*
%TO.C,R2*%
X190420436Y-65215000D02*
X190874564Y-65215000D01*
X190420436Y-66685000D02*
X190874564Y-66685000D01*
%TO.C,R1*%
X190670436Y-70515000D02*
X191124564Y-70515000D01*
X190670436Y-71985000D02*
X191124564Y-71985000D01*
%TO.C,J2*%
X255305000Y-72665000D02*
X255305000Y-73995000D01*
X252705000Y-72665000D02*
X252705000Y-75265000D01*
X253975000Y-72665000D02*
X255305000Y-72665000D01*
X250105000Y-72665000D02*
X250105000Y-136285000D01*
X252705000Y-75265000D02*
X255305000Y-75265000D01*
X250105000Y-72665000D02*
X252705000Y-72665000D01*
X250105000Y-136285000D02*
X255305000Y-136285000D01*
X255305000Y-75265000D02*
X255305000Y-136285000D01*
%TO.C,J1*%
X205420000Y-72650000D02*
X205420000Y-73980000D01*
X202820000Y-72650000D02*
X202820000Y-75250000D01*
X204090000Y-72650000D02*
X205420000Y-72650000D01*
X200220000Y-72650000D02*
X200220000Y-136270000D01*
X202820000Y-75250000D02*
X205420000Y-75250000D01*
X200220000Y-72650000D02*
X202820000Y-72650000D01*
X200220000Y-136270000D02*
X205420000Y-136270000D01*
X205420000Y-75250000D02*
X205420000Y-136270000D01*
%TO.C,D3*%
X150232500Y-67135000D02*
X150076500Y-67135000D01*
X152548500Y-67135000D02*
X152392500Y-67135000D01*
X152392336Y-69736129D02*
G75*
G03*
X152392499Y-67654040I-1079836J1041129D01*
G01*
X152391108Y-70367334D02*
G75*
G03*
X152548015Y-67135001I-1078608J1672334D01*
G01*
X150232501Y-67654040D02*
G75*
G03*
X150232664Y-69736129I1079999J-1040960D01*
G01*
X150076985Y-67135001D02*
G75*
G03*
X150233892Y-70367334I1235515J-1559999D01*
G01*
%TO.C,D2*%
X186840000Y-72036000D02*
X186840000Y-71880000D01*
X186840000Y-69720000D02*
X186840000Y-69564000D01*
X186320960Y-69720001D02*
G75*
G03*
X184238871Y-69720164I-1040960J-1079999D01*
G01*
X186839999Y-69564485D02*
G75*
G03*
X183607666Y-69721392I-1559999J-1235515D01*
G01*
X183607666Y-71878608D02*
G75*
G03*
X186839999Y-72035515I1672334J1078608D01*
G01*
X184238871Y-71879836D02*
G75*
G03*
X186320960Y-71879999I1041129J1079836D01*
G01*
%TO.C,D1*%
X186840000Y-66961000D02*
X186840000Y-66805000D01*
X186840000Y-64645000D02*
X186840000Y-64489000D01*
X184238871Y-66804836D02*
G75*
G03*
X186320960Y-66804999I1041129J1079836D01*
G01*
X186839999Y-64489485D02*
G75*
G03*
X183607666Y-64646392I-1559999J-1235515D01*
G01*
X186320960Y-64645001D02*
G75*
G03*
X184238871Y-64645164I-1040960J-1079999D01*
G01*
X183607666Y-66803608D02*
G75*
G03*
X186839999Y-66960515I1672334J1078608D01*
G01*
%TD*%
M02*
