%TF.GenerationSoftware,KiCad,Pcbnew,(7.0.0)*%
%TF.CreationDate,2023-05-31T00:06:15-06:00*%
%TF.ProjectId,Oximeter,4f78696d-6574-4657-922e-6b696361645f,rev?*%
%TF.SameCoordinates,Original*%
%TF.FileFunction,Copper,L2,Bot*%
%TF.FilePolarity,Positive*%
%FSLAX46Y46*%
G04 Gerber Fmt 4.6, Leading zero omitted, Abs format (unit mm)*
G04 Created by KiCad (PCBNEW (7.0.0)) date 2023-05-31 00:06:15*
%MOMM*%
%LPD*%
G01*
G04 APERTURE LIST*
%TA.AperFunction,ComponentPad*%
%ADD10R,1.500000X1.500000*%
%TD*%
%TA.AperFunction,ComponentPad*%
%ADD11C,1.500000*%
%TD*%
%TA.AperFunction,ComponentPad*%
%ADD12R,1.700000X1.700000*%
%TD*%
%TA.AperFunction,ComponentPad*%
%ADD13O,1.700000X1.700000*%
%TD*%
%TA.AperFunction,ComponentPad*%
%ADD14R,1.800000X1.800000*%
%TD*%
%TA.AperFunction,ComponentPad*%
%ADD15C,1.800000*%
%TD*%
%TA.AperFunction,ViaPad*%
%ADD16C,0.800000*%
%TD*%
%TA.AperFunction,Conductor*%
%ADD17C,0.203200*%
%TD*%
%TA.AperFunction,Conductor*%
%ADD18C,0.508000*%
%TD*%
G04 APERTURE END LIST*
D10*
%TO.P,U1,1,e*%
%TO.N,Net-(U1-e)*%
X159024999Y-130264999D03*
D11*
%TO.P,U1,2,d*%
%TO.N,Net-(U1-d)*%
X161565000Y-130265000D03*
%TO.P,U1,3,DPX*%
%TO.N,Net-(U1-DPX)*%
X164105000Y-130265000D03*
%TO.P,U1,4,c*%
%TO.N,Net-(U1-c)*%
X166645000Y-130265000D03*
%TO.P,U1,5,g*%
%TO.N,Net-(U1-g)*%
X169185000Y-130265000D03*
%TO.P,U1,6,CA4*%
%TO.N,Dig4*%
X171725000Y-130265000D03*
%TO.P,U1,7,b*%
%TO.N,Net-(U1-b)*%
X171725000Y-115025000D03*
%TO.P,U1,8,CA3*%
%TO.N,Dig3*%
X169185000Y-115025000D03*
%TO.P,U1,9,CA2*%
%TO.N,Dig2*%
X166645000Y-115025000D03*
%TO.P,U1,10,f*%
%TO.N,Net-(U1-f)*%
X164105000Y-115025000D03*
%TO.P,U1,11,a*%
%TO.N,Net-(U1-a)*%
X161565000Y-115025000D03*
%TO.P,U1,12,CA1*%
%TO.N,Dig1*%
X159025000Y-115025000D03*
%TD*%
D12*
%TO.P,J2,1,Pin_1*%
%TO.N,GND*%
X253974999Y-73994999D03*
D13*
%TO.P,J2,2,Pin_2*%
X251434999Y-73994999D03*
%TO.P,J2,3,Pin_3*%
%TO.N,+5V*%
X253974999Y-76534999D03*
%TO.P,J2,4,Pin_4*%
X251434999Y-76534999D03*
%TO.P,J2,5,Pin_5*%
%TO.N,/3V*%
X253974999Y-79074999D03*
%TO.P,J2,6,Pin_6*%
X251434999Y-79074999D03*
%TO.P,J2,7,Pin_7*%
%TO.N,/PH0*%
X253974999Y-81614999D03*
%TO.P,J2,8,Pin_8*%
%TO.N,/PH1*%
X251434999Y-81614999D03*
%TO.P,J2,9,Pin_9*%
%TO.N,/PC14*%
X253974999Y-84154999D03*
%TO.P,J2,10,Pin_10*%
%TO.N,/PC15*%
X251434999Y-84154999D03*
%TO.P,J2,11,Pin_11*%
%TO.N,/PE6*%
X253974999Y-86694999D03*
%TO.P,J2,12,Pin_12*%
%TO.N,/PC13*%
X251434999Y-86694999D03*
%TO.P,J2,13,Pin_13*%
%TO.N,/PE4*%
X253974999Y-89234999D03*
%TO.P,J2,14,Pin_14*%
%TO.N,/PE5*%
X251434999Y-89234999D03*
%TO.P,J2,15,Pin_15*%
%TO.N,/PE2*%
X253974999Y-91774999D03*
%TO.P,J2,16,Pin_16*%
%TO.N,/PE3*%
X251434999Y-91774999D03*
%TO.P,J2,17,Pin_17*%
%TO.N,/PE0*%
X253974999Y-94314999D03*
%TO.P,J2,18,Pin_18*%
%TO.N,/PE1*%
X251434999Y-94314999D03*
%TO.P,J2,19,Pin_19*%
%TO.N,/PB8*%
X253974999Y-96854999D03*
%TO.P,J2,20,Pin_20*%
%TO.N,/PB9*%
X251434999Y-96854999D03*
%TO.P,J2,21,Pin_21*%
%TO.N,/BOOT0*%
X253974999Y-99394999D03*
%TO.P,J2,22,Pin_22*%
%TO.N,/VDD*%
X251434999Y-99394999D03*
%TO.P,J2,23,Pin_23*%
%TO.N,/PB6*%
X253974999Y-101934999D03*
%TO.P,J2,24,Pin_24*%
%TO.N,/PB7*%
X251434999Y-101934999D03*
%TO.P,J2,25,Pin_25*%
%TO.N,/PB4*%
X253974999Y-104474999D03*
%TO.P,J2,26,Pin_26*%
%TO.N,/PB5*%
X251434999Y-104474999D03*
%TO.P,J2,27,Pin_27*%
%TO.N,/PD7*%
X253974999Y-107014999D03*
%TO.P,J2,28,Pin_28*%
%TO.N,/PB3*%
X251434999Y-107014999D03*
%TO.P,J2,29,Pin_29*%
%TO.N,/PD5*%
X253974999Y-109554999D03*
%TO.P,J2,30,Pin_30*%
%TO.N,/PD6*%
X251434999Y-109554999D03*
%TO.P,J2,31,Pin_31*%
%TO.N,/PD3*%
X253974999Y-112094999D03*
%TO.P,J2,32,Pin_32*%
%TO.N,/PD4*%
X251434999Y-112094999D03*
%TO.P,J2,33,Pin_33*%
%TO.N,/PD1*%
X253974999Y-114634999D03*
%TO.P,J2,34,Pin_34*%
%TO.N,/PD2*%
X251434999Y-114634999D03*
%TO.P,J2,35,Pin_35*%
%TO.N,/PC12*%
X253974999Y-117174999D03*
%TO.P,J2,36,Pin_36*%
%TO.N,/PD0*%
X251434999Y-117174999D03*
%TO.P,J2,37,Pin_37*%
%TO.N,/PC10*%
X253974999Y-119714999D03*
%TO.P,J2,38,Pin_38*%
%TO.N,/PC11*%
X251434999Y-119714999D03*
%TO.P,J2,39,Pin_39*%
%TO.N,/PA14*%
X253974999Y-122254999D03*
%TO.P,J2,40,Pin_40*%
%TO.N,/PA15*%
X251434999Y-122254999D03*
%TO.P,J2,41,Pin_41*%
%TO.N,/PA10*%
X253974999Y-124794999D03*
%TO.P,J2,42,Pin_42*%
%TO.N,/PA13*%
X251434999Y-124794999D03*
%TO.P,J2,43,Pin_43*%
%TO.N,/PA8*%
X253974999Y-127334999D03*
%TO.P,J2,44,Pin_44*%
%TO.N,/PA9*%
X251434999Y-127334999D03*
%TO.P,J2,45,Pin_45*%
%TO.N,/PC8*%
X253974999Y-129874999D03*
%TO.P,J2,46,Pin_46*%
%TO.N,/PC9*%
X251434999Y-129874999D03*
%TO.P,J2,47,Pin_47*%
%TO.N,/PC6*%
X253974999Y-132414999D03*
%TO.P,J2,48,Pin_48*%
%TO.N,/PC7*%
X251434999Y-132414999D03*
%TO.P,J2,49,Pin_49*%
%TO.N,GND*%
X253974999Y-134954999D03*
%TO.P,J2,50,Pin_50*%
X251434999Y-134954999D03*
%TD*%
D12*
%TO.P,J1,1,Pin_1*%
%TO.N,GND*%
X204089999Y-73979999D03*
D13*
%TO.P,J1,2,Pin_2*%
X201549999Y-73979999D03*
%TO.P,J1,3,Pin_3*%
%TO.N,/VDD*%
X204089999Y-76519999D03*
%TO.P,J1,4,Pin_4*%
X201549999Y-76519999D03*
%TO.P,J1,5,Pin_5*%
%TO.N,GND*%
X204089999Y-79059999D03*
%TO.P,J1,6,Pin_6*%
%TO.N,/NSRT*%
X201549999Y-79059999D03*
%TO.P,J1,7,Pin_7*%
%TO.N,/PC1*%
X204089999Y-81599999D03*
%TO.P,J1,8,Pin_8*%
%TO.N,/PC0*%
X201549999Y-81599999D03*
%TO.P,J1,9,Pin_9*%
%TO.N,/PC3*%
X204089999Y-84139999D03*
%TO.P,J1,10,Pin_10*%
%TO.N,/PC2*%
X201549999Y-84139999D03*
%TO.P,J1,11,Pin_11*%
%TO.N,LightSensor*%
X204089999Y-86679999D03*
%TO.P,J1,12,Pin_12*%
%TO.N,/PA0*%
X201549999Y-86679999D03*
%TO.P,J1,13,Pin_13*%
%TO.N,/PA3*%
X204089999Y-89219999D03*
%TO.P,J1,14,Pin_14*%
%TO.N,/PA2*%
X201549999Y-89219999D03*
%TO.P,J1,15,Pin_15*%
%TO.N,Infared_LED*%
X204089999Y-91759999D03*
%TO.P,J1,16,Pin_16*%
%TO.N,Red_LED*%
X201549999Y-91759999D03*
%TO.P,J1,17,Pin_17*%
%TO.N,/PA7*%
X204089999Y-94299999D03*
%TO.P,J1,18,Pin_18*%
%TO.N,/PA6*%
X201549999Y-94299999D03*
%TO.P,J1,19,Pin_19*%
%TO.N,Dig1*%
X204089999Y-96839999D03*
%TO.P,J1,20,Pin_20*%
%TO.N,/PC4*%
X201549999Y-96839999D03*
%TO.P,J1,21,Pin_21*%
%TO.N,Dig2*%
X204089999Y-99379999D03*
%TO.P,J1,22,Pin_22*%
%TO.N,/PB0*%
X201549999Y-99379999D03*
%TO.P,J1,23,Pin_23*%
%TO.N,GND*%
X204089999Y-101919999D03*
%TO.P,J1,24,Pin_24*%
%TO.N,/PB2*%
X201549999Y-101919999D03*
%TO.P,J1,25,Pin_25*%
%TO.N,Dig3*%
X204089999Y-104459999D03*
%TO.P,J1,26,Pin_26*%
%TO.N,/PE8*%
X201549999Y-104459999D03*
%TO.P,J1,27,Pin_27*%
%TO.N,Dig4*%
X204089999Y-106999999D03*
%TO.P,J1,28,Pin_28*%
%TO.N,/PE10*%
X201549999Y-106999999D03*
%TO.P,J1,29,Pin_29*%
%TO.N,DS*%
X204089999Y-109539999D03*
%TO.P,J1,30,Pin_30*%
%TO.N,/PE12*%
X201549999Y-109539999D03*
%TO.P,J1,31,Pin_31*%
%TO.N,ST_CP*%
X204089999Y-112079999D03*
%TO.P,J1,32,Pin_32*%
%TO.N,/PE14*%
X201549999Y-112079999D03*
%TO.P,J1,33,Pin_33*%
%TO.N,SH_CP*%
X204089999Y-114619999D03*
%TO.P,J1,34,Pin_34*%
%TO.N,/PB10*%
X201549999Y-114619999D03*
%TO.P,J1,35,Pin_35*%
%TO.N,/PB11*%
X204089999Y-117159999D03*
%TO.P,J1,36,Pin_36*%
%TO.N,/PB12*%
X201549999Y-117159999D03*
%TO.P,J1,37,Pin_37*%
%TO.N,/PB13*%
X204089999Y-119699999D03*
%TO.P,J1,38,Pin_38*%
%TO.N,/PB14*%
X201549999Y-119699999D03*
%TO.P,J1,39,Pin_39*%
%TO.N,/PB15*%
X204089999Y-122239999D03*
%TO.P,J1,40,Pin_40*%
%TO.N,/PD8*%
X201549999Y-122239999D03*
%TO.P,J1,41,Pin_41*%
%TO.N,/PD9*%
X204089999Y-124779999D03*
%TO.P,J1,42,Pin_42*%
%TO.N,/PD10*%
X201549999Y-124779999D03*
%TO.P,J1,43,Pin_43*%
%TO.N,/PD11*%
X204089999Y-127319999D03*
%TO.P,J1,44,Pin_44*%
%TO.N,/PD12*%
X201549999Y-127319999D03*
%TO.P,J1,45,Pin_45*%
%TO.N,/PD13*%
X204089999Y-129859999D03*
%TO.P,J1,46,Pin_46*%
%TO.N,/PD14*%
X201549999Y-129859999D03*
%TO.P,J1,47,Pin_47*%
%TO.N,/PD15*%
X204089999Y-132399999D03*
%TO.P,J1,48,Pin_48*%
%TO.N,/NC*%
X201549999Y-132399999D03*
%TO.P,J1,49,Pin_49*%
%TO.N,GND*%
X204089999Y-134939999D03*
%TO.P,J1,50,Pin_50*%
X201549999Y-134939999D03*
%TD*%
D14*
%TO.P,D3,1,K*%
%TO.N,GND*%
X151312499Y-67424999D03*
D15*
%TO.P,D3,2,A*%
%TO.N,LightSensor*%
X151312500Y-69965000D03*
%TD*%
D14*
%TO.P,D2,1,K*%
%TO.N,Net-(D2-K)*%
X186549999Y-70799999D03*
D15*
%TO.P,D2,2,A*%
%TO.N,Infared_LED*%
X184010000Y-70800000D03*
%TD*%
D14*
%TO.P,D1,1,K*%
%TO.N,Net-(D1-K)*%
X186549999Y-65724999D03*
D15*
%TO.P,D1,2,A*%
%TO.N,Red_LED*%
X184010000Y-65725000D03*
%TD*%
D16*
%TO.N,Net-(U1-e)*%
X209850000Y-93300000D03*
X194550000Y-94150000D03*
%TO.N,Dig1*%
X198875000Y-97150000D03*
X191575000Y-95875000D03*
%TO.N,Net-(U1-a)*%
X244550000Y-90550000D03*
X248200000Y-90550000D03*
%TO.N,Net-(U1-f)*%
X210100000Y-96250000D03*
X194200000Y-95173900D03*
%TO.N,Dig2*%
X187900000Y-99400000D03*
X197725000Y-101575000D03*
%TO.N,Dig3*%
X197175000Y-109750000D03*
X194350000Y-110600000D03*
%TO.N,Net-(U1-b)*%
X194175000Y-100475000D03*
X196728500Y-97950000D03*
%TO.N,Net-(U1-DPX)*%
X209275000Y-104800000D03*
X206700000Y-100550000D03*
X193775000Y-106125000D03*
X197150000Y-104250000D03*
%TO.N,Net-(U1-d)*%
X208650000Y-96300000D03*
X194475000Y-101950000D03*
%TO.N,Net-(U1-c)*%
X194025000Y-107400000D03*
X197150000Y-105900000D03*
%TO.N,Net-(U1-g)*%
X194325000Y-108725000D03*
X207962500Y-103862500D03*
%TO.N,Dig4*%
X194575000Y-125275000D03*
X197800000Y-124475000D03*
%TO.N,LightSensor*%
X194925000Y-85100000D03*
X189350000Y-85100000D03*
%TO.N,GND*%
X192985000Y-71225000D03*
X193010000Y-65975000D03*
%TO.N,SH_CP*%
X239200000Y-97100000D03*
X237175000Y-94000000D03*
%TO.N,ST_CP*%
X217425000Y-110750000D03*
X218450000Y-108650000D03*
%TO.N,+5V*%
X241198900Y-80700000D03*
X244725000Y-79725000D03*
%TO.N,GND*%
X234425000Y-90775000D03*
X226400000Y-93426100D03*
%TD*%
D17*
%TO.N,Net-(U1-e)*%
X209698400Y-93148400D02*
X209850000Y-93300000D01*
X194550000Y-94150000D02*
X195551600Y-93148400D01*
X195551600Y-93148400D02*
X209698400Y-93148400D01*
%TO.N,Net-(U1-b)*%
X196728500Y-97950000D02*
X196700000Y-97950000D01*
X196700000Y-97950000D02*
X194175000Y-100475000D01*
%TO.N,Net-(U1-f)*%
X209301600Y-95451600D02*
X210100000Y-96250000D01*
X196623400Y-95451600D02*
X209301600Y-95451600D01*
X196345700Y-95173900D02*
X196623400Y-95451600D01*
X194200000Y-95173900D02*
X196345700Y-95173900D01*
%TO.N,Dig1*%
X197967213Y-97150000D02*
X198875000Y-97150000D01*
X196692213Y-95875000D02*
X197967213Y-97150000D01*
X191575000Y-95875000D02*
X196692213Y-95875000D01*
%TO.N,Net-(U1-d)*%
X195551600Y-100873400D02*
X194475000Y-101950000D01*
X197451600Y-100873400D02*
X195551600Y-100873400D01*
X200096600Y-98228400D02*
X197451600Y-100873400D01*
X206721600Y-98228400D02*
X200096600Y-98228400D01*
X208650000Y-96300000D02*
X206721600Y-98228400D01*
%TO.N,ST_CP*%
X218450000Y-109725000D02*
X217425000Y-110750000D01*
X218450000Y-108650000D02*
X218450000Y-109725000D01*
%TO.N,Net-(U1-a)*%
X248200000Y-90550000D02*
X244550000Y-90550000D01*
%TO.N,Dig2*%
X191151600Y-102651600D02*
X196648400Y-102651600D01*
X187900000Y-99400000D02*
X191151600Y-102651600D01*
X196648400Y-102651600D02*
X197725000Y-101575000D01*
%TO.N,Dig3*%
X196325000Y-110600000D02*
X197175000Y-109750000D01*
X194350000Y-110600000D02*
X196325000Y-110600000D01*
%TO.N,Net-(U1-g)*%
X195317213Y-108725000D02*
X194325000Y-108725000D01*
X198430613Y-105611600D02*
X195317213Y-108725000D01*
X206213400Y-105611600D02*
X198430613Y-105611600D01*
X207962500Y-103862500D02*
X206213400Y-105611600D01*
%TO.N,Net-(U1-DPX)*%
X209275000Y-103125000D02*
X209275000Y-104800000D01*
X206700000Y-100550000D02*
X209275000Y-103125000D01*
X193775000Y-106125000D02*
X195650000Y-104250000D01*
X195650000Y-104250000D02*
X197150000Y-104250000D01*
%TO.N,Net-(U1-c)*%
X195525000Y-105900000D02*
X197150000Y-105900000D01*
X194025000Y-107400000D02*
X195525000Y-105900000D01*
%TO.N,Dig4*%
X195375000Y-124475000D02*
X194575000Y-125275000D01*
X197800000Y-124475000D02*
X195375000Y-124475000D01*
%TO.N,LightSensor*%
X189350000Y-85100000D02*
X194925000Y-85100000D01*
%TO.N,SH_CP*%
X237175000Y-95075000D02*
X239200000Y-97100000D01*
X237175000Y-94000000D02*
X237175000Y-95075000D01*
D18*
%TO.N,+5V*%
X242173900Y-79725000D02*
X241198900Y-80700000D01*
X244725000Y-79725000D02*
X242173900Y-79725000D01*
%TD*%
%TA.AperFunction,Conductor*%
%TO.N,GND*%
G36*
X260288000Y-41241613D02*
G01*
X260333387Y-41287000D01*
X260350000Y-41349000D01*
X260350000Y-137301000D01*
X260333387Y-137363000D01*
X260288000Y-137408387D01*
X260226000Y-137425000D01*
X134349000Y-137425000D01*
X134287000Y-137408387D01*
X134241613Y-137363000D01*
X134225000Y-137301000D01*
X134225000Y-135192551D01*
X200222688Y-135192551D01*
X200223056Y-135203780D01*
X200275168Y-135398263D01*
X200278856Y-135408397D01*
X200374113Y-135612676D01*
X200379501Y-135622008D01*
X200508784Y-135806643D01*
X200515721Y-135814909D01*
X200675090Y-135974278D01*
X200683356Y-135981215D01*
X200867991Y-136110498D01*
X200877323Y-136115886D01*
X201081602Y-136211143D01*
X201091736Y-136214831D01*
X201286219Y-136266943D01*
X201297448Y-136267311D01*
X201300000Y-136256369D01*
X201800000Y-136256369D01*
X201802551Y-136267311D01*
X201813780Y-136266943D01*
X202008263Y-136214831D01*
X202018397Y-136211143D01*
X202222676Y-136115886D01*
X202232008Y-136110498D01*
X202416643Y-135981215D01*
X202424909Y-135974278D01*
X202584278Y-135814909D01*
X202591215Y-135806643D01*
X202718425Y-135624969D01*
X202762743Y-135586104D01*
X202820000Y-135572093D01*
X202877257Y-135586104D01*
X202921575Y-135624969D01*
X203048784Y-135806643D01*
X203055721Y-135814909D01*
X203215090Y-135974278D01*
X203223356Y-135981215D01*
X203407991Y-136110498D01*
X203417323Y-136115886D01*
X203621602Y-136211143D01*
X203631736Y-136214831D01*
X203826219Y-136266943D01*
X203837448Y-136267311D01*
X203840000Y-136256369D01*
X204340000Y-136256369D01*
X204342551Y-136267311D01*
X204353780Y-136266943D01*
X204548263Y-136214831D01*
X204558397Y-136211143D01*
X204762676Y-136115886D01*
X204772008Y-136110498D01*
X204956643Y-135981215D01*
X204964909Y-135974278D01*
X205124278Y-135814909D01*
X205131215Y-135806643D01*
X205260498Y-135622008D01*
X205265886Y-135612676D01*
X205361143Y-135408397D01*
X205364831Y-135398263D01*
X205415933Y-135207551D01*
X250107688Y-135207551D01*
X250108056Y-135218780D01*
X250160168Y-135413263D01*
X250163856Y-135423397D01*
X250259113Y-135627676D01*
X250264501Y-135637008D01*
X250393784Y-135821643D01*
X250400721Y-135829909D01*
X250560090Y-135989278D01*
X250568356Y-135996215D01*
X250752991Y-136125498D01*
X250762323Y-136130886D01*
X250966602Y-136226143D01*
X250976736Y-136229831D01*
X251171219Y-136281943D01*
X251182448Y-136282311D01*
X251185000Y-136271369D01*
X251685000Y-136271369D01*
X251687551Y-136282311D01*
X251698780Y-136281943D01*
X251893263Y-136229831D01*
X251903397Y-136226143D01*
X252107676Y-136130886D01*
X252117008Y-136125498D01*
X252301643Y-135996215D01*
X252309909Y-135989278D01*
X252469278Y-135829909D01*
X252476215Y-135821643D01*
X252603425Y-135639969D01*
X252647743Y-135601104D01*
X252705000Y-135587093D01*
X252762257Y-135601104D01*
X252806575Y-135639969D01*
X252933784Y-135821643D01*
X252940721Y-135829909D01*
X253100090Y-135989278D01*
X253108356Y-135996215D01*
X253292991Y-136125498D01*
X253302323Y-136130886D01*
X253506602Y-136226143D01*
X253516736Y-136229831D01*
X253711219Y-136281943D01*
X253722448Y-136282311D01*
X253725000Y-136271369D01*
X254225000Y-136271369D01*
X254227551Y-136282311D01*
X254238780Y-136281943D01*
X254433263Y-136229831D01*
X254443397Y-136226143D01*
X254647676Y-136130886D01*
X254657008Y-136125498D01*
X254841643Y-135996215D01*
X254849909Y-135989278D01*
X255009278Y-135829909D01*
X255016215Y-135821643D01*
X255145498Y-135637008D01*
X255150886Y-135627676D01*
X255246143Y-135423397D01*
X255249831Y-135413263D01*
X255301943Y-135218780D01*
X255302311Y-135207551D01*
X255291369Y-135205000D01*
X254241326Y-135205000D01*
X254228450Y-135208450D01*
X254225000Y-135221326D01*
X254225000Y-136271369D01*
X253725000Y-136271369D01*
X253725000Y-135221326D01*
X253721549Y-135208450D01*
X253708674Y-135205000D01*
X251701326Y-135205000D01*
X251688450Y-135208450D01*
X251685000Y-135221326D01*
X251685000Y-136271369D01*
X251185000Y-136271369D01*
X251185000Y-135221326D01*
X251181549Y-135208450D01*
X251168674Y-135205000D01*
X250118631Y-135205000D01*
X250107688Y-135207551D01*
X205415933Y-135207551D01*
X205416943Y-135203780D01*
X205417311Y-135192551D01*
X205406369Y-135190000D01*
X204356326Y-135190000D01*
X204343450Y-135193450D01*
X204340000Y-135206326D01*
X204340000Y-136256369D01*
X203840000Y-136256369D01*
X203840000Y-135206326D01*
X203836549Y-135193450D01*
X203823674Y-135190000D01*
X201816326Y-135190000D01*
X201803450Y-135193450D01*
X201800000Y-135206326D01*
X201800000Y-136256369D01*
X201300000Y-136256369D01*
X201300000Y-135206326D01*
X201296549Y-135193450D01*
X201283674Y-135190000D01*
X200233631Y-135190000D01*
X200222688Y-135192551D01*
X134225000Y-135192551D01*
X134225000Y-131059578D01*
X157774500Y-131059578D01*
X157774501Y-131062872D01*
X157774853Y-131066150D01*
X157774854Y-131066161D01*
X157780079Y-131114768D01*
X157780080Y-131114773D01*
X157780909Y-131122483D01*
X157783619Y-131129749D01*
X157783620Y-131129753D01*
X157789307Y-131145000D01*
X157831204Y-131257331D01*
X157836518Y-131264430D01*
X157836519Y-131264431D01*
X157912056Y-131365336D01*
X157917454Y-131372546D01*
X158032669Y-131458796D01*
X158167517Y-131509091D01*
X158227127Y-131515500D01*
X159822872Y-131515499D01*
X159882483Y-131509091D01*
X160017331Y-131458796D01*
X160132546Y-131372546D01*
X160218796Y-131257331D01*
X160269091Y-131122483D01*
X160275500Y-131062873D01*
X160275499Y-130996861D01*
X160291045Y-130936748D01*
X160333788Y-130891706D01*
X160393008Y-130873033D01*
X160453856Y-130885412D01*
X160501074Y-130925739D01*
X160600296Y-131067442D01*
X160600299Y-131067446D01*
X160603402Y-131071877D01*
X160758123Y-131226598D01*
X160762555Y-131229701D01*
X160762557Y-131229703D01*
X160778641Y-131240965D01*
X160937361Y-131352102D01*
X160942261Y-131354387D01*
X160942263Y-131354388D01*
X160997904Y-131380334D01*
X161135670Y-131444575D01*
X161293522Y-131486871D01*
X161341790Y-131499805D01*
X161341791Y-131499805D01*
X161347023Y-131501207D01*
X161565000Y-131520277D01*
X161782977Y-131501207D01*
X161994330Y-131444575D01*
X162192639Y-131352102D01*
X162371877Y-131226598D01*
X162526598Y-131071877D01*
X162652102Y-130892639D01*
X162722617Y-130741417D01*
X162768375Y-130689241D01*
X162835000Y-130669821D01*
X162901625Y-130689241D01*
X162947382Y-130741417D01*
X163015609Y-130887732D01*
X163015613Y-130887739D01*
X163017898Y-130892639D01*
X163020997Y-130897066D01*
X163020999Y-130897068D01*
X163140296Y-131067442D01*
X163140299Y-131067446D01*
X163143402Y-131071877D01*
X163298123Y-131226598D01*
X163302555Y-131229701D01*
X163302557Y-131229703D01*
X163318641Y-131240965D01*
X163477361Y-131352102D01*
X163482261Y-131354387D01*
X163482263Y-131354388D01*
X163537904Y-131380334D01*
X163675670Y-131444575D01*
X163833522Y-131486871D01*
X163881790Y-131499805D01*
X163881791Y-131499805D01*
X163887023Y-131501207D01*
X164105000Y-131520277D01*
X164322977Y-131501207D01*
X164534330Y-131444575D01*
X164732639Y-131352102D01*
X164911877Y-131226598D01*
X165066598Y-131071877D01*
X165192102Y-130892639D01*
X165262617Y-130741417D01*
X165308375Y-130689241D01*
X165375000Y-130669821D01*
X165441625Y-130689241D01*
X165487382Y-130741417D01*
X165555609Y-130887732D01*
X165555613Y-130887739D01*
X165557898Y-130892639D01*
X165560997Y-130897066D01*
X165560999Y-130897068D01*
X165680296Y-131067442D01*
X165680299Y-131067446D01*
X165683402Y-131071877D01*
X165838123Y-131226598D01*
X165842555Y-131229701D01*
X165842557Y-131229703D01*
X165858641Y-131240965D01*
X166017361Y-131352102D01*
X166022261Y-131354387D01*
X166022263Y-131354388D01*
X166077904Y-131380334D01*
X166215670Y-131444575D01*
X166373522Y-131486871D01*
X166421790Y-131499805D01*
X166421791Y-131499805D01*
X166427023Y-131501207D01*
X166645000Y-131520277D01*
X166862977Y-131501207D01*
X167074330Y-131444575D01*
X167272639Y-131352102D01*
X167451877Y-131226598D01*
X167606598Y-131071877D01*
X167732102Y-130892639D01*
X167802617Y-130741417D01*
X167848375Y-130689241D01*
X167915000Y-130669821D01*
X167981625Y-130689241D01*
X168027382Y-130741417D01*
X168095609Y-130887732D01*
X168095613Y-130887739D01*
X168097898Y-130892639D01*
X168100997Y-130897066D01*
X168100999Y-130897068D01*
X168220296Y-131067442D01*
X168220299Y-131067446D01*
X168223402Y-131071877D01*
X168378123Y-131226598D01*
X168382555Y-131229701D01*
X168382557Y-131229703D01*
X168398641Y-131240965D01*
X168557361Y-131352102D01*
X168562261Y-131354387D01*
X168562263Y-131354388D01*
X168617904Y-131380334D01*
X168755670Y-131444575D01*
X168913522Y-131486871D01*
X168961790Y-131499805D01*
X168961791Y-131499805D01*
X168967023Y-131501207D01*
X169185000Y-131520277D01*
X169402977Y-131501207D01*
X169614330Y-131444575D01*
X169812639Y-131352102D01*
X169991877Y-131226598D01*
X170146598Y-131071877D01*
X170272102Y-130892639D01*
X170342617Y-130741417D01*
X170388375Y-130689241D01*
X170455000Y-130669821D01*
X170521625Y-130689241D01*
X170567382Y-130741417D01*
X170635609Y-130887732D01*
X170635613Y-130887739D01*
X170637898Y-130892639D01*
X170640997Y-130897066D01*
X170640999Y-130897068D01*
X170760296Y-131067442D01*
X170760299Y-131067446D01*
X170763402Y-131071877D01*
X170918123Y-131226598D01*
X170922555Y-131229701D01*
X170922557Y-131229703D01*
X170938641Y-131240965D01*
X171097361Y-131352102D01*
X171102261Y-131354387D01*
X171102263Y-131354388D01*
X171157904Y-131380334D01*
X171295670Y-131444575D01*
X171453522Y-131486871D01*
X171501790Y-131499805D01*
X171501791Y-131499805D01*
X171507023Y-131501207D01*
X171725000Y-131520277D01*
X171942977Y-131501207D01*
X172154330Y-131444575D01*
X172352639Y-131352102D01*
X172531877Y-131226598D01*
X172686598Y-131071877D01*
X172812102Y-130892639D01*
X172904575Y-130694330D01*
X172961207Y-130482977D01*
X172980277Y-130265000D01*
X172961207Y-130047023D01*
X172904575Y-129835670D01*
X172812102Y-129637362D01*
X172686598Y-129458123D01*
X172531877Y-129303402D01*
X172527446Y-129300299D01*
X172527442Y-129300296D01*
X172357068Y-129180999D01*
X172357066Y-129180997D01*
X172352639Y-129177898D01*
X172347742Y-129175614D01*
X172347736Y-129175611D01*
X172159236Y-129087712D01*
X172159229Y-129087709D01*
X172154330Y-129085425D01*
X172149103Y-129084024D01*
X172149102Y-129084024D01*
X171948209Y-129030194D01*
X171948199Y-129030192D01*
X171942977Y-129028793D01*
X171937585Y-129028321D01*
X171937578Y-129028320D01*
X171730395Y-129010195D01*
X171725000Y-129009723D01*
X171719605Y-129010195D01*
X171512421Y-129028320D01*
X171512412Y-129028321D01*
X171507023Y-129028793D01*
X171501802Y-129030191D01*
X171501790Y-129030194D01*
X171300897Y-129084024D01*
X171300892Y-129084025D01*
X171295670Y-129085425D01*
X171290774Y-129087707D01*
X171290763Y-129087712D01*
X171102272Y-129175608D01*
X171102268Y-129175610D01*
X171097362Y-129177898D01*
X171092929Y-129181001D01*
X171092922Y-129181006D01*
X170922558Y-129300296D01*
X170922553Y-129300299D01*
X170918123Y-129303402D01*
X170914299Y-129307225D01*
X170914293Y-129307231D01*
X170767231Y-129454293D01*
X170767225Y-129454299D01*
X170763402Y-129458123D01*
X170760299Y-129462553D01*
X170760296Y-129462558D01*
X170641006Y-129632922D01*
X170641001Y-129632929D01*
X170637898Y-129637362D01*
X170635610Y-129642268D01*
X170635608Y-129642272D01*
X170567382Y-129788583D01*
X170521625Y-129840759D01*
X170455000Y-129860178D01*
X170388375Y-129840759D01*
X170342618Y-129788583D01*
X170275472Y-129644590D01*
X170272102Y-129637362D01*
X170146598Y-129458123D01*
X169991877Y-129303402D01*
X169987446Y-129300299D01*
X169987442Y-129300296D01*
X169817068Y-129180999D01*
X169817066Y-129180997D01*
X169812639Y-129177898D01*
X169807742Y-129175614D01*
X169807736Y-129175611D01*
X169619236Y-129087712D01*
X169619229Y-129087709D01*
X169614330Y-129085425D01*
X169609103Y-129084024D01*
X169609102Y-129084024D01*
X169408209Y-129030194D01*
X169408199Y-129030192D01*
X169402977Y-129028793D01*
X169397585Y-129028321D01*
X169397578Y-129028320D01*
X169190395Y-129010195D01*
X169185000Y-129009723D01*
X169179605Y-129010195D01*
X168972421Y-129028320D01*
X168972412Y-129028321D01*
X168967023Y-129028793D01*
X168961802Y-129030191D01*
X168961790Y-129030194D01*
X168760897Y-129084024D01*
X168760892Y-129084025D01*
X168755670Y-129085425D01*
X168750774Y-129087707D01*
X168750763Y-129087712D01*
X168562272Y-129175608D01*
X168562268Y-129175610D01*
X168557362Y-129177898D01*
X168552929Y-129181001D01*
X168552922Y-129181006D01*
X168382558Y-129300296D01*
X168382553Y-129300299D01*
X168378123Y-129303402D01*
X168374299Y-129307225D01*
X168374293Y-129307231D01*
X168227231Y-129454293D01*
X168227225Y-129454299D01*
X168223402Y-129458123D01*
X168220299Y-129462553D01*
X168220296Y-129462558D01*
X168101006Y-129632922D01*
X168101001Y-129632929D01*
X168097898Y-129637362D01*
X168095610Y-129642268D01*
X168095608Y-129642272D01*
X168027382Y-129788583D01*
X167981625Y-129840759D01*
X167915000Y-129860178D01*
X167848375Y-129840759D01*
X167802618Y-129788583D01*
X167735472Y-129644590D01*
X167732102Y-129637362D01*
X167606598Y-129458123D01*
X167451877Y-129303402D01*
X167447446Y-129300299D01*
X167447442Y-129300296D01*
X167277068Y-129180999D01*
X167277066Y-129180997D01*
X167272639Y-129177898D01*
X167267742Y-129175614D01*
X167267736Y-129175611D01*
X167079236Y-129087712D01*
X167079229Y-129087709D01*
X167074330Y-129085425D01*
X167069103Y-129084024D01*
X167069102Y-129084024D01*
X166868209Y-129030194D01*
X166868199Y-129030192D01*
X166862977Y-129028793D01*
X166857585Y-129028321D01*
X166857578Y-129028320D01*
X166650395Y-129010195D01*
X166645000Y-129009723D01*
X166639605Y-129010195D01*
X166432421Y-129028320D01*
X166432412Y-129028321D01*
X166427023Y-129028793D01*
X166421802Y-129030191D01*
X166421790Y-129030194D01*
X166220897Y-129084024D01*
X166220892Y-129084025D01*
X166215670Y-129085425D01*
X166210774Y-129087707D01*
X166210763Y-129087712D01*
X166022272Y-129175608D01*
X166022268Y-129175610D01*
X166017362Y-129177898D01*
X166012929Y-129181001D01*
X166012922Y-129181006D01*
X165842558Y-129300296D01*
X165842553Y-129300299D01*
X165838123Y-129303402D01*
X165834299Y-129307225D01*
X165834293Y-129307231D01*
X165687231Y-129454293D01*
X165687225Y-129454299D01*
X165683402Y-129458123D01*
X165680299Y-129462553D01*
X165680296Y-129462558D01*
X165561006Y-129632922D01*
X165561001Y-129632929D01*
X165557898Y-129637362D01*
X165555610Y-129642268D01*
X165555608Y-129642272D01*
X165487382Y-129788583D01*
X165441625Y-129840759D01*
X165375000Y-129860178D01*
X165308375Y-129840759D01*
X165262618Y-129788583D01*
X165195472Y-129644590D01*
X165192102Y-129637362D01*
X165066598Y-129458123D01*
X164911877Y-129303402D01*
X164907446Y-129300299D01*
X164907442Y-129300296D01*
X164737068Y-129180999D01*
X164737066Y-129180997D01*
X164732639Y-129177898D01*
X164727742Y-129175614D01*
X164727736Y-129175611D01*
X164539236Y-129087712D01*
X164539229Y-129087709D01*
X164534330Y-129085425D01*
X164529103Y-129084024D01*
X164529102Y-129084024D01*
X164328209Y-129030194D01*
X164328199Y-129030192D01*
X164322977Y-129028793D01*
X164317585Y-129028321D01*
X164317578Y-129028320D01*
X164110395Y-129010195D01*
X164105000Y-129009723D01*
X164099605Y-129010195D01*
X163892421Y-129028320D01*
X163892412Y-129028321D01*
X163887023Y-129028793D01*
X163881802Y-129030191D01*
X163881790Y-129030194D01*
X163680897Y-129084024D01*
X163680892Y-129084025D01*
X163675670Y-129085425D01*
X163670774Y-129087707D01*
X163670763Y-129087712D01*
X163482272Y-129175608D01*
X163482268Y-129175610D01*
X163477362Y-129177898D01*
X163472929Y-129181001D01*
X163472922Y-129181006D01*
X163302558Y-129300296D01*
X163302553Y-129300299D01*
X163298123Y-129303402D01*
X163294299Y-129307225D01*
X163294293Y-129307231D01*
X163147231Y-129454293D01*
X163147225Y-129454299D01*
X163143402Y-129458123D01*
X163140299Y-129462553D01*
X163140296Y-129462558D01*
X163021006Y-129632922D01*
X163021001Y-129632929D01*
X163017898Y-129637362D01*
X163015610Y-129642268D01*
X163015608Y-129642272D01*
X162947382Y-129788583D01*
X162901625Y-129840759D01*
X162835000Y-129860178D01*
X162768375Y-129840759D01*
X162722618Y-129788583D01*
X162655472Y-129644590D01*
X162652102Y-129637362D01*
X162526598Y-129458123D01*
X162371877Y-129303402D01*
X162367446Y-129300299D01*
X162367442Y-129300296D01*
X162197068Y-129180999D01*
X162197066Y-129180997D01*
X162192639Y-129177898D01*
X162187742Y-129175614D01*
X162187736Y-129175611D01*
X161999236Y-129087712D01*
X161999229Y-129087709D01*
X161994330Y-129085425D01*
X161989103Y-129084024D01*
X161989102Y-129084024D01*
X161788209Y-129030194D01*
X161788199Y-129030192D01*
X161782977Y-129028793D01*
X161777585Y-129028321D01*
X161777578Y-129028320D01*
X161570395Y-129010195D01*
X161565000Y-129009723D01*
X161559605Y-129010195D01*
X161352421Y-129028320D01*
X161352412Y-129028321D01*
X161347023Y-129028793D01*
X161341802Y-129030191D01*
X161341790Y-129030194D01*
X161140897Y-129084024D01*
X161140892Y-129084025D01*
X161135670Y-129085425D01*
X161130774Y-129087707D01*
X161130763Y-129087712D01*
X160942272Y-129175608D01*
X160942268Y-129175610D01*
X160937362Y-129177898D01*
X160932929Y-129181001D01*
X160932922Y-129181006D01*
X160762558Y-129300296D01*
X160762553Y-129300299D01*
X160758123Y-129303402D01*
X160754299Y-129307225D01*
X160754293Y-129307231D01*
X160607231Y-129454293D01*
X160607225Y-129454299D01*
X160603402Y-129458123D01*
X160600299Y-129462553D01*
X160600296Y-129462558D01*
X160501074Y-129604263D01*
X160453857Y-129644590D01*
X160393009Y-129656970D01*
X160333789Y-129638298D01*
X160291046Y-129593256D01*
X160275499Y-129533140D01*
X160275499Y-129470439D01*
X160275499Y-129467128D01*
X160269091Y-129407517D01*
X160218796Y-129272669D01*
X160132546Y-129157454D01*
X160017331Y-129071204D01*
X159946965Y-129044959D01*
X159889752Y-129023620D01*
X159889750Y-129023619D01*
X159882483Y-129020909D01*
X159874770Y-129020079D01*
X159874767Y-129020079D01*
X159826180Y-129014855D01*
X159826169Y-129014854D01*
X159822873Y-129014500D01*
X159819550Y-129014500D01*
X158230439Y-129014500D01*
X158230420Y-129014500D01*
X158227128Y-129014501D01*
X158223850Y-129014853D01*
X158223838Y-129014854D01*
X158175231Y-129020079D01*
X158175225Y-129020080D01*
X158167517Y-129020909D01*
X158160252Y-129023618D01*
X158160246Y-129023620D01*
X158040980Y-129068104D01*
X158040978Y-129068104D01*
X158032669Y-129071204D01*
X158025572Y-129076516D01*
X158025568Y-129076519D01*
X157924550Y-129152141D01*
X157924546Y-129152144D01*
X157917454Y-129157454D01*
X157912144Y-129164546D01*
X157912141Y-129164550D01*
X157836519Y-129265568D01*
X157836516Y-129265572D01*
X157831204Y-129272669D01*
X157828104Y-129280978D01*
X157828104Y-129280980D01*
X157783620Y-129400247D01*
X157783619Y-129400250D01*
X157780909Y-129407517D01*
X157780079Y-129415227D01*
X157780079Y-129415232D01*
X157774855Y-129463819D01*
X157774854Y-129463831D01*
X157774500Y-129467127D01*
X157774500Y-129470448D01*
X157774500Y-129470449D01*
X157774500Y-131059560D01*
X157774500Y-131059578D01*
X134225000Y-131059578D01*
X134225000Y-125275000D01*
X193669540Y-125275000D01*
X193670219Y-125281460D01*
X193688646Y-125456795D01*
X193688647Y-125456803D01*
X193689326Y-125463256D01*
X193691331Y-125469428D01*
X193691333Y-125469435D01*
X193745813Y-125637105D01*
X193747821Y-125643284D01*
X193751068Y-125648908D01*
X193751069Y-125648910D01*
X193761167Y-125666401D01*
X193842467Y-125807216D01*
X193846811Y-125812041D01*
X193846813Y-125812043D01*
X193855422Y-125821604D01*
X193969129Y-125947888D01*
X193974387Y-125951708D01*
X193974388Y-125951709D01*
X193990514Y-125963425D01*
X194122270Y-126059151D01*
X194295197Y-126136144D01*
X194480354Y-126175500D01*
X194663143Y-126175500D01*
X194669646Y-126175500D01*
X194854803Y-126136144D01*
X195027730Y-126059151D01*
X195180871Y-125947888D01*
X195307533Y-125807216D01*
X195402179Y-125643284D01*
X195460674Y-125463256D01*
X195480460Y-125275000D01*
X195480093Y-125271509D01*
X195489220Y-125225626D01*
X195516100Y-125185397D01*
X195588080Y-125113418D01*
X195628309Y-125086539D01*
X195675761Y-125077100D01*
X197075183Y-125077100D01*
X197125618Y-125087820D01*
X197167332Y-125118127D01*
X197194129Y-125147888D01*
X197347270Y-125259151D01*
X197520197Y-125336144D01*
X197705354Y-125375500D01*
X197888143Y-125375500D01*
X197894646Y-125375500D01*
X198079803Y-125336144D01*
X198252730Y-125259151D01*
X198405871Y-125147888D01*
X198532533Y-125007216D01*
X198627179Y-124843284D01*
X198685674Y-124663256D01*
X198705460Y-124475000D01*
X198685674Y-124286744D01*
X198627179Y-124106716D01*
X198532533Y-123942784D01*
X198483563Y-123888398D01*
X198410220Y-123806942D01*
X198410219Y-123806941D01*
X198405871Y-123802112D01*
X198400613Y-123798292D01*
X198400611Y-123798290D01*
X198257988Y-123694669D01*
X198257987Y-123694668D01*
X198252730Y-123690849D01*
X198246792Y-123688205D01*
X198085745Y-123616501D01*
X198085740Y-123616499D01*
X198079803Y-123613856D01*
X198073444Y-123612504D01*
X198073440Y-123612503D01*
X197901008Y-123575852D01*
X197901005Y-123575851D01*
X197894646Y-123574500D01*
X197705354Y-123574500D01*
X197698995Y-123575851D01*
X197698991Y-123575852D01*
X197526559Y-123612503D01*
X197526552Y-123612505D01*
X197520197Y-123613856D01*
X197514262Y-123616498D01*
X197514254Y-123616501D01*
X197353207Y-123688205D01*
X197353202Y-123688207D01*
X197347270Y-123690849D01*
X197342016Y-123694665D01*
X197342011Y-123694669D01*
X197199388Y-123798290D01*
X197199381Y-123798295D01*
X197194129Y-123802112D01*
X197189784Y-123806937D01*
X197189779Y-123806942D01*
X197167333Y-123831872D01*
X197125618Y-123862180D01*
X197075183Y-123872900D01*
X195422586Y-123872900D01*
X195406401Y-123871839D01*
X195383059Y-123868766D01*
X195375000Y-123867705D01*
X195366941Y-123868766D01*
X195225879Y-123887336D01*
X195225871Y-123887338D01*
X195217820Y-123888398D01*
X195210315Y-123891506D01*
X195210310Y-123891508D01*
X195078860Y-123945957D01*
X195078857Y-123945958D01*
X195071353Y-123949067D01*
X195064908Y-123954011D01*
X195064905Y-123954014D01*
X194977154Y-124021348D01*
X194977150Y-124021351D01*
X194952024Y-124040631D01*
X194952021Y-124040633D01*
X194945578Y-124045578D01*
X194940636Y-124052017D01*
X194940629Y-124052025D01*
X194926292Y-124070709D01*
X194915601Y-124082899D01*
X194660318Y-124338183D01*
X194620093Y-124365061D01*
X194572640Y-124374500D01*
X194480354Y-124374500D01*
X194473995Y-124375851D01*
X194473991Y-124375852D01*
X194301559Y-124412503D01*
X194301552Y-124412505D01*
X194295197Y-124413856D01*
X194289262Y-124416498D01*
X194289254Y-124416501D01*
X194128207Y-124488205D01*
X194128202Y-124488207D01*
X194122270Y-124490849D01*
X194117016Y-124494665D01*
X194117011Y-124494669D01*
X193974388Y-124598290D01*
X193974381Y-124598295D01*
X193969129Y-124602112D01*
X193964784Y-124606937D01*
X193964779Y-124606942D01*
X193846813Y-124737956D01*
X193846808Y-124737962D01*
X193842467Y-124742784D01*
X193839222Y-124748404D01*
X193839218Y-124748410D01*
X193751069Y-124901089D01*
X193751066Y-124901094D01*
X193747821Y-124906716D01*
X193745815Y-124912888D01*
X193745813Y-124912894D01*
X193691333Y-125080564D01*
X193691331Y-125080573D01*
X193689326Y-125086744D01*
X193688648Y-125093194D01*
X193688646Y-125093204D01*
X193672318Y-125248572D01*
X193669540Y-125275000D01*
X134225000Y-125275000D01*
X134225000Y-115025000D01*
X157769723Y-115025000D01*
X157770195Y-115030395D01*
X157788320Y-115237578D01*
X157788321Y-115237585D01*
X157788793Y-115242977D01*
X157790192Y-115248199D01*
X157790194Y-115248209D01*
X157838858Y-115429821D01*
X157845425Y-115454330D01*
X157847709Y-115459229D01*
X157847712Y-115459236D01*
X157935611Y-115647736D01*
X157935614Y-115647742D01*
X157937898Y-115652639D01*
X157940997Y-115657066D01*
X157940999Y-115657068D01*
X158060296Y-115827442D01*
X158060299Y-115827446D01*
X158063402Y-115831877D01*
X158218123Y-115986598D01*
X158222555Y-115989701D01*
X158222557Y-115989703D01*
X158246653Y-116006575D01*
X158397361Y-116112102D01*
X158402261Y-116114387D01*
X158402263Y-116114388D01*
X158457904Y-116140334D01*
X158595670Y-116204575D01*
X158753522Y-116246871D01*
X158801790Y-116259805D01*
X158801791Y-116259805D01*
X158807023Y-116261207D01*
X159025000Y-116280277D01*
X159242977Y-116261207D01*
X159454330Y-116204575D01*
X159652639Y-116112102D01*
X159831877Y-115986598D01*
X159986598Y-115831877D01*
X160112102Y-115652639D01*
X160182617Y-115501417D01*
X160228375Y-115449241D01*
X160295000Y-115429821D01*
X160361625Y-115449241D01*
X160407382Y-115501417D01*
X160475609Y-115647732D01*
X160475613Y-115647739D01*
X160477898Y-115652639D01*
X160480997Y-115657066D01*
X160480999Y-115657068D01*
X160600296Y-115827442D01*
X160600299Y-115827446D01*
X160603402Y-115831877D01*
X160758123Y-115986598D01*
X160762555Y-115989701D01*
X160762557Y-115989703D01*
X160786653Y-116006575D01*
X160937361Y-116112102D01*
X160942261Y-116114387D01*
X160942263Y-116114388D01*
X160997904Y-116140334D01*
X161135670Y-116204575D01*
X161293522Y-116246871D01*
X161341790Y-116259805D01*
X161341791Y-116259805D01*
X161347023Y-116261207D01*
X161565000Y-116280277D01*
X161782977Y-116261207D01*
X161994330Y-116204575D01*
X162192639Y-116112102D01*
X162371877Y-115986598D01*
X162526598Y-115831877D01*
X162652102Y-115652639D01*
X162722617Y-115501417D01*
X162768375Y-115449241D01*
X162835000Y-115429821D01*
X162901625Y-115449241D01*
X162947382Y-115501417D01*
X163015609Y-115647732D01*
X163015613Y-115647739D01*
X163017898Y-115652639D01*
X163020997Y-115657066D01*
X163020999Y-115657068D01*
X163140296Y-115827442D01*
X163140299Y-115827446D01*
X163143402Y-115831877D01*
X163298123Y-115986598D01*
X163302555Y-115989701D01*
X163302557Y-115989703D01*
X163326653Y-116006575D01*
X163477361Y-116112102D01*
X163482261Y-116114387D01*
X163482263Y-116114388D01*
X163537904Y-116140334D01*
X163675670Y-116204575D01*
X163833522Y-116246871D01*
X163881790Y-116259805D01*
X163881791Y-116259805D01*
X163887023Y-116261207D01*
X164105000Y-116280277D01*
X164322977Y-116261207D01*
X164534330Y-116204575D01*
X164732639Y-116112102D01*
X164911877Y-115986598D01*
X165066598Y-115831877D01*
X165192102Y-115652639D01*
X165262617Y-115501417D01*
X165308375Y-115449241D01*
X165375000Y-115429821D01*
X165441625Y-115449241D01*
X165487382Y-115501417D01*
X165555609Y-115647732D01*
X165555613Y-115647739D01*
X165557898Y-115652639D01*
X165560997Y-115657066D01*
X165560999Y-115657068D01*
X165680296Y-115827442D01*
X165680299Y-115827446D01*
X165683402Y-115831877D01*
X165838123Y-115986598D01*
X165842555Y-115989701D01*
X165842557Y-115989703D01*
X165866653Y-116006575D01*
X166017361Y-116112102D01*
X166022261Y-116114387D01*
X166022263Y-116114388D01*
X166077904Y-116140334D01*
X166215670Y-116204575D01*
X166373522Y-116246871D01*
X166421790Y-116259805D01*
X166421791Y-116259805D01*
X166427023Y-116261207D01*
X166645000Y-116280277D01*
X166862977Y-116261207D01*
X167074330Y-116204575D01*
X167272639Y-116112102D01*
X167451877Y-115986598D01*
X167606598Y-115831877D01*
X167732102Y-115652639D01*
X167802617Y-115501417D01*
X167848375Y-115449241D01*
X167915000Y-115429821D01*
X167981625Y-115449241D01*
X168027382Y-115501417D01*
X168095609Y-115647732D01*
X168095613Y-115647739D01*
X168097898Y-115652639D01*
X168100997Y-115657066D01*
X168100999Y-115657068D01*
X168220296Y-115827442D01*
X168220299Y-115827446D01*
X168223402Y-115831877D01*
X168378123Y-115986598D01*
X168382555Y-115989701D01*
X168382557Y-115989703D01*
X168406653Y-116006575D01*
X168557361Y-116112102D01*
X168562261Y-116114387D01*
X168562263Y-116114388D01*
X168617904Y-116140334D01*
X168755670Y-116204575D01*
X168913522Y-116246871D01*
X168961790Y-116259805D01*
X168961791Y-116259805D01*
X168967023Y-116261207D01*
X169185000Y-116280277D01*
X169402977Y-116261207D01*
X169614330Y-116204575D01*
X169812639Y-116112102D01*
X169991877Y-115986598D01*
X170146598Y-115831877D01*
X170272102Y-115652639D01*
X170342617Y-115501417D01*
X170388375Y-115449241D01*
X170455000Y-115429821D01*
X170521625Y-115449241D01*
X170567382Y-115501417D01*
X170635609Y-115647732D01*
X170635613Y-115647739D01*
X170637898Y-115652639D01*
X170640997Y-115657066D01*
X170640999Y-115657068D01*
X170760296Y-115827442D01*
X170760299Y-115827446D01*
X170763402Y-115831877D01*
X170918123Y-115986598D01*
X170922555Y-115989701D01*
X170922557Y-115989703D01*
X170946653Y-116006575D01*
X171097361Y-116112102D01*
X171102261Y-116114387D01*
X171102263Y-116114388D01*
X171157904Y-116140334D01*
X171295670Y-116204575D01*
X171453522Y-116246871D01*
X171501790Y-116259805D01*
X171501791Y-116259805D01*
X171507023Y-116261207D01*
X171725000Y-116280277D01*
X171942977Y-116261207D01*
X172154330Y-116204575D01*
X172352639Y-116112102D01*
X172531877Y-115986598D01*
X172686598Y-115831877D01*
X172812102Y-115652639D01*
X172904575Y-115454330D01*
X172961207Y-115242977D01*
X172980277Y-115025000D01*
X172961207Y-114807023D01*
X172904575Y-114595670D01*
X172812102Y-114397362D01*
X172686598Y-114218123D01*
X172531877Y-114063402D01*
X172527446Y-114060299D01*
X172527442Y-114060296D01*
X172357068Y-113940999D01*
X172357066Y-113940997D01*
X172352639Y-113937898D01*
X172347742Y-113935614D01*
X172347736Y-113935611D01*
X172159236Y-113847712D01*
X172159229Y-113847709D01*
X172154330Y-113845425D01*
X172149103Y-113844024D01*
X172149102Y-113844024D01*
X171948209Y-113790194D01*
X171948199Y-113790192D01*
X171942977Y-113788793D01*
X171937585Y-113788321D01*
X171937578Y-113788320D01*
X171730395Y-113770195D01*
X171725000Y-113769723D01*
X171719605Y-113770195D01*
X171512421Y-113788320D01*
X171512412Y-113788321D01*
X171507023Y-113788793D01*
X171501802Y-113790191D01*
X171501790Y-113790194D01*
X171300897Y-113844024D01*
X171300892Y-113844025D01*
X171295670Y-113845425D01*
X171290774Y-113847707D01*
X171290763Y-113847712D01*
X171102272Y-113935608D01*
X171102268Y-113935610D01*
X171097362Y-113937898D01*
X171092929Y-113941001D01*
X171092922Y-113941006D01*
X170922558Y-114060296D01*
X170922553Y-114060299D01*
X170918123Y-114063402D01*
X170914299Y-114067225D01*
X170914293Y-114067231D01*
X170767231Y-114214293D01*
X170767225Y-114214299D01*
X170763402Y-114218123D01*
X170760299Y-114222553D01*
X170760296Y-114222558D01*
X170641006Y-114392922D01*
X170641001Y-114392929D01*
X170637898Y-114397362D01*
X170635610Y-114402268D01*
X170635608Y-114402272D01*
X170567382Y-114548583D01*
X170521625Y-114600759D01*
X170455000Y-114620178D01*
X170388375Y-114600759D01*
X170342618Y-114548583D01*
X170275655Y-114404982D01*
X170272102Y-114397362D01*
X170146598Y-114218123D01*
X169991877Y-114063402D01*
X169987446Y-114060299D01*
X169987442Y-114060296D01*
X169817068Y-113940999D01*
X169817066Y-113940997D01*
X169812639Y-113937898D01*
X169807742Y-113935614D01*
X169807736Y-113935611D01*
X169619236Y-113847712D01*
X169619229Y-113847709D01*
X169614330Y-113845425D01*
X169609103Y-113844024D01*
X169609102Y-113844024D01*
X169408209Y-113790194D01*
X169408199Y-113790192D01*
X169402977Y-113788793D01*
X169397585Y-113788321D01*
X169397578Y-113788320D01*
X169190395Y-113770195D01*
X169185000Y-113769723D01*
X169179605Y-113770195D01*
X168972421Y-113788320D01*
X168972412Y-113788321D01*
X168967023Y-113788793D01*
X168961802Y-113790191D01*
X168961790Y-113790194D01*
X168760897Y-113844024D01*
X168760892Y-113844025D01*
X168755670Y-113845425D01*
X168750774Y-113847707D01*
X168750763Y-113847712D01*
X168562272Y-113935608D01*
X168562268Y-113935610D01*
X168557362Y-113937898D01*
X168552929Y-113941001D01*
X168552922Y-113941006D01*
X168382558Y-114060296D01*
X168382553Y-114060299D01*
X168378123Y-114063402D01*
X168374299Y-114067225D01*
X168374293Y-114067231D01*
X168227231Y-114214293D01*
X168227225Y-114214299D01*
X168223402Y-114218123D01*
X168220299Y-114222553D01*
X168220296Y-114222558D01*
X168101006Y-114392922D01*
X168101001Y-114392929D01*
X168097898Y-114397362D01*
X168095610Y-114402268D01*
X168095608Y-114402272D01*
X168027382Y-114548583D01*
X167981625Y-114600759D01*
X167915000Y-114620178D01*
X167848375Y-114600759D01*
X167802618Y-114548583D01*
X167735655Y-114404982D01*
X167732102Y-114397362D01*
X167606598Y-114218123D01*
X167451877Y-114063402D01*
X167447446Y-114060299D01*
X167447442Y-114060296D01*
X167277068Y-113940999D01*
X167277066Y-113940997D01*
X167272639Y-113937898D01*
X167267742Y-113935614D01*
X167267736Y-113935611D01*
X167079236Y-113847712D01*
X167079229Y-113847709D01*
X167074330Y-113845425D01*
X167069103Y-113844024D01*
X167069102Y-113844024D01*
X166868209Y-113790194D01*
X166868199Y-113790192D01*
X166862977Y-113788793D01*
X166857585Y-113788321D01*
X166857578Y-113788320D01*
X166650395Y-113770195D01*
X166645000Y-113769723D01*
X166639605Y-113770195D01*
X166432421Y-113788320D01*
X166432412Y-113788321D01*
X166427023Y-113788793D01*
X166421802Y-113790191D01*
X166421790Y-113790194D01*
X166220897Y-113844024D01*
X166220892Y-113844025D01*
X166215670Y-113845425D01*
X166210774Y-113847707D01*
X166210763Y-113847712D01*
X166022272Y-113935608D01*
X166022268Y-113935610D01*
X166017362Y-113937898D01*
X166012929Y-113941001D01*
X166012922Y-113941006D01*
X165842558Y-114060296D01*
X165842553Y-114060299D01*
X165838123Y-114063402D01*
X165834299Y-114067225D01*
X165834293Y-114067231D01*
X165687231Y-114214293D01*
X165687225Y-114214299D01*
X165683402Y-114218123D01*
X165680299Y-114222553D01*
X165680296Y-114222558D01*
X165561006Y-114392922D01*
X165561001Y-114392929D01*
X165557898Y-114397362D01*
X165555610Y-114402268D01*
X165555608Y-114402272D01*
X165487382Y-114548583D01*
X165441625Y-114600759D01*
X165375000Y-114620178D01*
X165308375Y-114600759D01*
X165262618Y-114548583D01*
X165195655Y-114404982D01*
X165192102Y-114397362D01*
X165066598Y-114218123D01*
X164911877Y-114063402D01*
X164907446Y-114060299D01*
X164907442Y-114060296D01*
X164737068Y-113940999D01*
X164737066Y-113940997D01*
X164732639Y-113937898D01*
X164727742Y-113935614D01*
X164727736Y-113935611D01*
X164539236Y-113847712D01*
X164539229Y-113847709D01*
X164534330Y-113845425D01*
X164529103Y-113844024D01*
X164529102Y-113844024D01*
X164328209Y-113790194D01*
X164328199Y-113790192D01*
X164322977Y-113788793D01*
X164317585Y-113788321D01*
X164317578Y-113788320D01*
X164110395Y-113770195D01*
X164105000Y-113769723D01*
X164099605Y-113770195D01*
X163892421Y-113788320D01*
X163892412Y-113788321D01*
X163887023Y-113788793D01*
X163881802Y-113790191D01*
X163881790Y-113790194D01*
X163680897Y-113844024D01*
X163680892Y-113844025D01*
X163675670Y-113845425D01*
X163670774Y-113847707D01*
X163670763Y-113847712D01*
X163482272Y-113935608D01*
X163482268Y-113935610D01*
X163477362Y-113937898D01*
X163472929Y-113941001D01*
X163472922Y-113941006D01*
X163302558Y-114060296D01*
X163302553Y-114060299D01*
X163298123Y-114063402D01*
X163294299Y-114067225D01*
X163294293Y-114067231D01*
X163147231Y-114214293D01*
X163147225Y-114214299D01*
X163143402Y-114218123D01*
X163140299Y-114222553D01*
X163140296Y-114222558D01*
X163021006Y-114392922D01*
X163021001Y-114392929D01*
X163017898Y-114397362D01*
X163015610Y-114402268D01*
X163015608Y-114402272D01*
X162947382Y-114548583D01*
X162901625Y-114600759D01*
X162835000Y-114620178D01*
X162768375Y-114600759D01*
X162722618Y-114548583D01*
X162655655Y-114404982D01*
X162652102Y-114397362D01*
X162526598Y-114218123D01*
X162371877Y-114063402D01*
X162367446Y-114060299D01*
X162367442Y-114060296D01*
X162197068Y-113940999D01*
X162197066Y-113940997D01*
X162192639Y-113937898D01*
X162187742Y-113935614D01*
X162187736Y-113935611D01*
X161999236Y-113847712D01*
X161999229Y-113847709D01*
X161994330Y-113845425D01*
X161989103Y-113844024D01*
X161989102Y-113844024D01*
X161788209Y-113790194D01*
X161788199Y-113790192D01*
X161782977Y-113788793D01*
X161777585Y-113788321D01*
X161777578Y-113788320D01*
X161570395Y-113770195D01*
X161565000Y-113769723D01*
X161559605Y-113770195D01*
X161352421Y-113788320D01*
X161352412Y-113788321D01*
X161347023Y-113788793D01*
X161341802Y-113790191D01*
X161341790Y-113790194D01*
X161140897Y-113844024D01*
X161140892Y-113844025D01*
X161135670Y-113845425D01*
X161130774Y-113847707D01*
X161130763Y-113847712D01*
X160942272Y-113935608D01*
X160942268Y-113935610D01*
X160937362Y-113937898D01*
X160932929Y-113941001D01*
X160932922Y-113941006D01*
X160762558Y-114060296D01*
X160762553Y-114060299D01*
X160758123Y-114063402D01*
X160754299Y-114067225D01*
X160754293Y-114067231D01*
X160607231Y-114214293D01*
X160607225Y-114214299D01*
X160603402Y-114218123D01*
X160600299Y-114222553D01*
X160600296Y-114222558D01*
X160481006Y-114392922D01*
X160481001Y-114392929D01*
X160477898Y-114397362D01*
X160475610Y-114402268D01*
X160475608Y-114402272D01*
X160407382Y-114548583D01*
X160361625Y-114600759D01*
X160295000Y-114620178D01*
X160228375Y-114600759D01*
X160182618Y-114548583D01*
X160115655Y-114404982D01*
X160112102Y-114397362D01*
X159986598Y-114218123D01*
X159831877Y-114063402D01*
X159827446Y-114060299D01*
X159827442Y-114060296D01*
X159657068Y-113940999D01*
X159657066Y-113940997D01*
X159652639Y-113937898D01*
X159647742Y-113935614D01*
X159647736Y-113935611D01*
X159459236Y-113847712D01*
X159459229Y-113847709D01*
X159454330Y-113845425D01*
X159449103Y-113844024D01*
X159449102Y-113844024D01*
X159248209Y-113790194D01*
X159248199Y-113790192D01*
X159242977Y-113788793D01*
X159237585Y-113788321D01*
X159237578Y-113788320D01*
X159030395Y-113770195D01*
X159025000Y-113769723D01*
X159019605Y-113770195D01*
X158812421Y-113788320D01*
X158812412Y-113788321D01*
X158807023Y-113788793D01*
X158801802Y-113790191D01*
X158801790Y-113790194D01*
X158600897Y-113844024D01*
X158600892Y-113844025D01*
X158595670Y-113845425D01*
X158590774Y-113847707D01*
X158590763Y-113847712D01*
X158402272Y-113935608D01*
X158402268Y-113935610D01*
X158397362Y-113937898D01*
X158392929Y-113941001D01*
X158392922Y-113941006D01*
X158222558Y-114060296D01*
X158222553Y-114060299D01*
X158218123Y-114063402D01*
X158214299Y-114067225D01*
X158214293Y-114067231D01*
X158067231Y-114214293D01*
X158067225Y-114214299D01*
X158063402Y-114218123D01*
X158060299Y-114222553D01*
X158060296Y-114222558D01*
X157941006Y-114392922D01*
X157941001Y-114392929D01*
X157937898Y-114397362D01*
X157935610Y-114402268D01*
X157935608Y-114402272D01*
X157847712Y-114590763D01*
X157847707Y-114590774D01*
X157845425Y-114595670D01*
X157844025Y-114600892D01*
X157844024Y-114600897D01*
X157790194Y-114801790D01*
X157790191Y-114801802D01*
X157788793Y-114807023D01*
X157788321Y-114812412D01*
X157788320Y-114812421D01*
X157782790Y-114875634D01*
X157769723Y-115025000D01*
X134225000Y-115025000D01*
X134225000Y-99400000D01*
X186994540Y-99400000D01*
X186995219Y-99406460D01*
X187013646Y-99581795D01*
X187013647Y-99581803D01*
X187014326Y-99588256D01*
X187016331Y-99594428D01*
X187016333Y-99594435D01*
X187070813Y-99762105D01*
X187072821Y-99768284D01*
X187076068Y-99773908D01*
X187076069Y-99773910D01*
X187092351Y-99802112D01*
X187167467Y-99932216D01*
X187171811Y-99937041D01*
X187171813Y-99937043D01*
X187287785Y-100065842D01*
X187294129Y-100072888D01*
X187299387Y-100076708D01*
X187299388Y-100076709D01*
X187340689Y-100106716D01*
X187447270Y-100184151D01*
X187620197Y-100261144D01*
X187805354Y-100300500D01*
X187897640Y-100300500D01*
X187945093Y-100309939D01*
X187985321Y-100336819D01*
X190692199Y-103043697D01*
X190702893Y-103055891D01*
X190717229Y-103074573D01*
X190722178Y-103081022D01*
X190753750Y-103105248D01*
X190753754Y-103105252D01*
X190847953Y-103177533D01*
X190994420Y-103238202D01*
X191151600Y-103258895D01*
X191159659Y-103257834D01*
X191183001Y-103254761D01*
X191199186Y-103253700D01*
X196600821Y-103253700D01*
X196616982Y-103254758D01*
X196622770Y-103255519D01*
X196677351Y-103276632D01*
X196716174Y-103320430D01*
X196730583Y-103377156D01*
X196717369Y-103434172D01*
X196679475Y-103478777D01*
X196544129Y-103577112D01*
X196539784Y-103581937D01*
X196539779Y-103581942D01*
X196517333Y-103606872D01*
X196475618Y-103637180D01*
X196425183Y-103647900D01*
X195697579Y-103647900D01*
X195681394Y-103646839D01*
X195658059Y-103643767D01*
X195650000Y-103642706D01*
X195641941Y-103643767D01*
X195641939Y-103643767D01*
X195610552Y-103647899D01*
X195610541Y-103647900D01*
X195610540Y-103647900D01*
X195610537Y-103647900D01*
X195610530Y-103647901D01*
X195500879Y-103662336D01*
X195500871Y-103662338D01*
X195492820Y-103663398D01*
X195485315Y-103666506D01*
X195485310Y-103666508D01*
X195391610Y-103705321D01*
X195353862Y-103720956D01*
X195353859Y-103720957D01*
X195346352Y-103724067D01*
X195339910Y-103729009D01*
X195339905Y-103729013D01*
X195252153Y-103796349D01*
X195252152Y-103796348D01*
X195252150Y-103796351D01*
X195227024Y-103815631D01*
X195227021Y-103815633D01*
X195220578Y-103820578D01*
X195215636Y-103827017D01*
X195215629Y-103827025D01*
X195201292Y-103845709D01*
X195190601Y-103857899D01*
X193860321Y-105188181D01*
X193820093Y-105215061D01*
X193772640Y-105224500D01*
X193680354Y-105224500D01*
X193673995Y-105225851D01*
X193673991Y-105225852D01*
X193501559Y-105262503D01*
X193501552Y-105262505D01*
X193495197Y-105263856D01*
X193489262Y-105266498D01*
X193489254Y-105266501D01*
X193328207Y-105338205D01*
X193328202Y-105338207D01*
X193322270Y-105340849D01*
X193317016Y-105344665D01*
X193317011Y-105344669D01*
X193174388Y-105448290D01*
X193174381Y-105448295D01*
X193169129Y-105452112D01*
X193164784Y-105456937D01*
X193164779Y-105456942D01*
X193046813Y-105587956D01*
X193046808Y-105587962D01*
X193042467Y-105592784D01*
X193039222Y-105598404D01*
X193039218Y-105598410D01*
X192951069Y-105751089D01*
X192951066Y-105751094D01*
X192947821Y-105756716D01*
X192945815Y-105762888D01*
X192945813Y-105762894D01*
X192891333Y-105930564D01*
X192891331Y-105930573D01*
X192889326Y-105936744D01*
X192888648Y-105943194D01*
X192888646Y-105943204D01*
X192873402Y-106088256D01*
X192869540Y-106125000D01*
X192870219Y-106131460D01*
X192888646Y-106306795D01*
X192888647Y-106306803D01*
X192889326Y-106313256D01*
X192891331Y-106319428D01*
X192891333Y-106319435D01*
X192945813Y-106487105D01*
X192947821Y-106493284D01*
X192951068Y-106498908D01*
X192951069Y-106498910D01*
X192984358Y-106556569D01*
X193042467Y-106657216D01*
X193046811Y-106662041D01*
X193046813Y-106662043D01*
X193139149Y-106764592D01*
X193169129Y-106797888D01*
X193194122Y-106816047D01*
X193232686Y-106862006D01*
X193245161Y-106920690D01*
X193228624Y-106978362D01*
X193201071Y-107026085D01*
X193201067Y-107026092D01*
X193197821Y-107031716D01*
X193195814Y-107037890D01*
X193195811Y-107037899D01*
X193141333Y-107205564D01*
X193141331Y-107205573D01*
X193139326Y-107211744D01*
X193138648Y-107218194D01*
X193138646Y-107218204D01*
X193128957Y-107310397D01*
X193119540Y-107400000D01*
X193120219Y-107406460D01*
X193138646Y-107581795D01*
X193138647Y-107581803D01*
X193139326Y-107588256D01*
X193141331Y-107594428D01*
X193141333Y-107594435D01*
X193192157Y-107750852D01*
X193197821Y-107768284D01*
X193201068Y-107773908D01*
X193201069Y-107773910D01*
X193268227Y-107890232D01*
X193292467Y-107932216D01*
X193296811Y-107937041D01*
X193296813Y-107937043D01*
X193414779Y-108068057D01*
X193419129Y-108072888D01*
X193424387Y-108076708D01*
X193424388Y-108076709D01*
X193499682Y-108131413D01*
X193538247Y-108177372D01*
X193550721Y-108236058D01*
X193534185Y-108293730D01*
X193501068Y-108351091D01*
X193501066Y-108351095D01*
X193497821Y-108356716D01*
X193495815Y-108362888D01*
X193495813Y-108362894D01*
X193441333Y-108530564D01*
X193441331Y-108530573D01*
X193439326Y-108536744D01*
X193438648Y-108543194D01*
X193438646Y-108543204D01*
X193424294Y-108679769D01*
X193419540Y-108725000D01*
X193420219Y-108731460D01*
X193438646Y-108906795D01*
X193438647Y-108906803D01*
X193439326Y-108913256D01*
X193441331Y-108919428D01*
X193441333Y-108919435D01*
X193495593Y-109086427D01*
X193497821Y-109093284D01*
X193501068Y-109098908D01*
X193501069Y-109098910D01*
X193588839Y-109250933D01*
X193592467Y-109257216D01*
X193596811Y-109262041D01*
X193596813Y-109262043D01*
X193710130Y-109387894D01*
X193719129Y-109397888D01*
X193872270Y-109509151D01*
X193963130Y-109549605D01*
X193974767Y-109554786D01*
X194019875Y-109589024D01*
X194045055Y-109639749D01*
X194045055Y-109696380D01*
X194019875Y-109747105D01*
X193974768Y-109781344D01*
X193903204Y-109813206D01*
X193903196Y-109813210D01*
X193897270Y-109815849D01*
X193892016Y-109819665D01*
X193892011Y-109819669D01*
X193749388Y-109923290D01*
X193749381Y-109923295D01*
X193744129Y-109927112D01*
X193739784Y-109931937D01*
X193739779Y-109931942D01*
X193621813Y-110062956D01*
X193621808Y-110062962D01*
X193617467Y-110067784D01*
X193614222Y-110073404D01*
X193614218Y-110073410D01*
X193526069Y-110226089D01*
X193526066Y-110226094D01*
X193522821Y-110231716D01*
X193520815Y-110237888D01*
X193520813Y-110237894D01*
X193466333Y-110405564D01*
X193466331Y-110405573D01*
X193464326Y-110411744D01*
X193463648Y-110418194D01*
X193463646Y-110418204D01*
X193451862Y-110530330D01*
X193444540Y-110600000D01*
X193445219Y-110606460D01*
X193463646Y-110781795D01*
X193463647Y-110781803D01*
X193464326Y-110788256D01*
X193466331Y-110794428D01*
X193466333Y-110794435D01*
X193510965Y-110931795D01*
X193522821Y-110968284D01*
X193526068Y-110973908D01*
X193526069Y-110973910D01*
X193613839Y-111125933D01*
X193617467Y-111132216D01*
X193621811Y-111137041D01*
X193621813Y-111137043D01*
X193667392Y-111187663D01*
X193744129Y-111272888D01*
X193897270Y-111384151D01*
X194070197Y-111461144D01*
X194255354Y-111500500D01*
X194438143Y-111500500D01*
X194444646Y-111500500D01*
X194629803Y-111461144D01*
X194802730Y-111384151D01*
X194955871Y-111272888D01*
X194982667Y-111243127D01*
X195024382Y-111212820D01*
X195074817Y-111202100D01*
X196277421Y-111202100D01*
X196293604Y-111203160D01*
X196325000Y-111207294D01*
X196364455Y-111202100D01*
X196364460Y-111202100D01*
X196482180Y-111186602D01*
X196628647Y-111125933D01*
X196669611Y-111094500D01*
X196722847Y-111053651D01*
X196722846Y-111053651D01*
X196722854Y-111053644D01*
X196723179Y-111053395D01*
X196754422Y-111029422D01*
X196773704Y-111004292D01*
X196784383Y-110992113D01*
X197089681Y-110686816D01*
X197129907Y-110659939D01*
X197177360Y-110650500D01*
X197263143Y-110650500D01*
X197269646Y-110650500D01*
X197454803Y-110611144D01*
X197627730Y-110534151D01*
X197780871Y-110422888D01*
X197907533Y-110282216D01*
X198002179Y-110118284D01*
X198060674Y-109938256D01*
X198080460Y-109750000D01*
X198063541Y-109589024D01*
X198061353Y-109568204D01*
X198061352Y-109568203D01*
X198060674Y-109561744D01*
X198002179Y-109381716D01*
X197907533Y-109217784D01*
X197872297Y-109178651D01*
X197785220Y-109081942D01*
X197785219Y-109081941D01*
X197780871Y-109077112D01*
X197775613Y-109073292D01*
X197775611Y-109073290D01*
X197632988Y-108969669D01*
X197632987Y-108969668D01*
X197627730Y-108965849D01*
X197621792Y-108963205D01*
X197460745Y-108891501D01*
X197460740Y-108891499D01*
X197454803Y-108888856D01*
X197448444Y-108887504D01*
X197448440Y-108887503D01*
X197276008Y-108850852D01*
X197276005Y-108850851D01*
X197269646Y-108849500D01*
X197080354Y-108849500D01*
X197073995Y-108850851D01*
X197073991Y-108850852D01*
X196901559Y-108887503D01*
X196901552Y-108887505D01*
X196895197Y-108888856D01*
X196889262Y-108891498D01*
X196889254Y-108891501D01*
X196728207Y-108963205D01*
X196728202Y-108963207D01*
X196722270Y-108965849D01*
X196717016Y-108969665D01*
X196717011Y-108969669D01*
X196574388Y-109073290D01*
X196574381Y-109073295D01*
X196569129Y-109077112D01*
X196564784Y-109081937D01*
X196564779Y-109081942D01*
X196446813Y-109212956D01*
X196446808Y-109212962D01*
X196442467Y-109217784D01*
X196439222Y-109223404D01*
X196439218Y-109223410D01*
X196351069Y-109376089D01*
X196351066Y-109376094D01*
X196347821Y-109381716D01*
X196345815Y-109387888D01*
X196345813Y-109387894D01*
X196291333Y-109555564D01*
X196291331Y-109555573D01*
X196289326Y-109561744D01*
X196288648Y-109568194D01*
X196288646Y-109568204D01*
X196271320Y-109733060D01*
X196269540Y-109750000D01*
X196269906Y-109753489D01*
X196260780Y-109799373D01*
X196233902Y-109839598D01*
X196111918Y-109961583D01*
X196071693Y-109988461D01*
X196024240Y-109997900D01*
X195074817Y-109997900D01*
X195024382Y-109987180D01*
X194982667Y-109956872D01*
X194960220Y-109931942D01*
X194960219Y-109931941D01*
X194955871Y-109927112D01*
X194950613Y-109923292D01*
X194950611Y-109923290D01*
X194807988Y-109819669D01*
X194807987Y-109819668D01*
X194802730Y-109815849D01*
X194733481Y-109785017D01*
X194700232Y-109770213D01*
X194655124Y-109735974D01*
X194629944Y-109685249D01*
X194629944Y-109628618D01*
X194655125Y-109577893D01*
X194700228Y-109543657D01*
X194777730Y-109509151D01*
X194930871Y-109397888D01*
X194957667Y-109368127D01*
X194999382Y-109337820D01*
X195049817Y-109327100D01*
X195269634Y-109327100D01*
X195285817Y-109328160D01*
X195317213Y-109332294D01*
X195356668Y-109327100D01*
X195356673Y-109327100D01*
X195474393Y-109311602D01*
X195620860Y-109250933D01*
X195655874Y-109224066D01*
X195715060Y-109178651D01*
X195715059Y-109178651D01*
X195715067Y-109178644D01*
X195717745Y-109176589D01*
X195746635Y-109154422D01*
X195765917Y-109129292D01*
X195776603Y-109117106D01*
X198643691Y-106250019D01*
X198683920Y-106223139D01*
X198731373Y-106213700D01*
X200231905Y-106213700D01*
X200291548Y-106228986D01*
X200336486Y-106271075D01*
X200355640Y-106329590D01*
X200344287Y-106390105D01*
X200278386Y-106531427D01*
X200278383Y-106531432D01*
X200276097Y-106536337D01*
X200274698Y-106541557D01*
X200274694Y-106541569D01*
X200216337Y-106759365D01*
X200216335Y-106759371D01*
X200214937Y-106764592D01*
X200214465Y-106769977D01*
X200214465Y-106769982D01*
X200201280Y-106920690D01*
X200194341Y-107000000D01*
X200194813Y-107005395D01*
X200213431Y-107218204D01*
X200214937Y-107235408D01*
X200216336Y-107240630D01*
X200216337Y-107240634D01*
X200274694Y-107458430D01*
X200274697Y-107458438D01*
X200276097Y-107463663D01*
X200278385Y-107468570D01*
X200278386Y-107468572D01*
X200373678Y-107672927D01*
X200373681Y-107672933D01*
X200375965Y-107677830D01*
X200379064Y-107682257D01*
X200379066Y-107682259D01*
X200508399Y-107866966D01*
X200508402Y-107866970D01*
X200511505Y-107871401D01*
X200678599Y-108038495D01*
X200683032Y-108041599D01*
X200683038Y-108041604D01*
X200864158Y-108168425D01*
X200903024Y-108212743D01*
X200917035Y-108270000D01*
X200903024Y-108327257D01*
X200864159Y-108371575D01*
X200683041Y-108498395D01*
X200678599Y-108501505D01*
X200674775Y-108505328D01*
X200674769Y-108505334D01*
X200515334Y-108664769D01*
X200515328Y-108664775D01*
X200511505Y-108668599D01*
X200508402Y-108673029D01*
X200508399Y-108673034D01*
X200379073Y-108857731D01*
X200379068Y-108857738D01*
X200375965Y-108862171D01*
X200373677Y-108867077D01*
X200373675Y-108867081D01*
X200278386Y-109071427D01*
X200278383Y-109071432D01*
X200276097Y-109076337D01*
X200274698Y-109081557D01*
X200274694Y-109081569D01*
X200216337Y-109299365D01*
X200216335Y-109299371D01*
X200214937Y-109304592D01*
X200214465Y-109309977D01*
X200214465Y-109309982D01*
X200208189Y-109381716D01*
X200194341Y-109540000D01*
X200194813Y-109545395D01*
X200213978Y-109764455D01*
X200214937Y-109775408D01*
X200216336Y-109780630D01*
X200216337Y-109780634D01*
X200274694Y-109998430D01*
X200274697Y-109998438D01*
X200276097Y-110003663D01*
X200278385Y-110008570D01*
X200278386Y-110008572D01*
X200373678Y-110212927D01*
X200373681Y-110212933D01*
X200375965Y-110217830D01*
X200379064Y-110222257D01*
X200379066Y-110222259D01*
X200508399Y-110406966D01*
X200508402Y-110406970D01*
X200511505Y-110411401D01*
X200678599Y-110578495D01*
X200683032Y-110581599D01*
X200683038Y-110581604D01*
X200864158Y-110708425D01*
X200903024Y-110752743D01*
X200917035Y-110810000D01*
X200903024Y-110867257D01*
X200864160Y-110911574D01*
X200678599Y-111041505D01*
X200674775Y-111045328D01*
X200674769Y-111045334D01*
X200515334Y-111204769D01*
X200515328Y-111204775D01*
X200511505Y-111208599D01*
X200508402Y-111213029D01*
X200508399Y-111213034D01*
X200379073Y-111397731D01*
X200379068Y-111397738D01*
X200375965Y-111402171D01*
X200373677Y-111407077D01*
X200373675Y-111407081D01*
X200278386Y-111611427D01*
X200278383Y-111611432D01*
X200276097Y-111616337D01*
X200274698Y-111621557D01*
X200274694Y-111621569D01*
X200216337Y-111839365D01*
X200216335Y-111839371D01*
X200214937Y-111844592D01*
X200214465Y-111849977D01*
X200214465Y-111849982D01*
X200213153Y-111864982D01*
X200194341Y-112080000D01*
X200214937Y-112315408D01*
X200216336Y-112320630D01*
X200216337Y-112320634D01*
X200274694Y-112538430D01*
X200274697Y-112538438D01*
X200276097Y-112543663D01*
X200278385Y-112548570D01*
X200278386Y-112548572D01*
X200373678Y-112752927D01*
X200373681Y-112752933D01*
X200375965Y-112757830D01*
X200379064Y-112762257D01*
X200379066Y-112762259D01*
X200508399Y-112946966D01*
X200508402Y-112946970D01*
X200511505Y-112951401D01*
X200678599Y-113118495D01*
X200683032Y-113121599D01*
X200683038Y-113121604D01*
X200864158Y-113248425D01*
X200903024Y-113292743D01*
X200917035Y-113350000D01*
X200903024Y-113407257D01*
X200864159Y-113451575D01*
X200683041Y-113578395D01*
X200678599Y-113581505D01*
X200674775Y-113585328D01*
X200674769Y-113585334D01*
X200515334Y-113744769D01*
X200515328Y-113744775D01*
X200511505Y-113748599D01*
X200508402Y-113753029D01*
X200508399Y-113753034D01*
X200379073Y-113937731D01*
X200379068Y-113937738D01*
X200375965Y-113942171D01*
X200373677Y-113947077D01*
X200373675Y-113947081D01*
X200278386Y-114151427D01*
X200278383Y-114151432D01*
X200276097Y-114156337D01*
X200274698Y-114161557D01*
X200274694Y-114161569D01*
X200216337Y-114379365D01*
X200216335Y-114379371D01*
X200214937Y-114384592D01*
X200214465Y-114389977D01*
X200214465Y-114389982D01*
X200213390Y-114402272D01*
X200194341Y-114620000D01*
X200194813Y-114625395D01*
X200210703Y-114807023D01*
X200214937Y-114855408D01*
X200216336Y-114860630D01*
X200216337Y-114860634D01*
X200274694Y-115078430D01*
X200274697Y-115078438D01*
X200276097Y-115083663D01*
X200278385Y-115088570D01*
X200278386Y-115088572D01*
X200373678Y-115292927D01*
X200373681Y-115292933D01*
X200375965Y-115297830D01*
X200379064Y-115302257D01*
X200379066Y-115302259D01*
X200508399Y-115486966D01*
X200508402Y-115486970D01*
X200511505Y-115491401D01*
X200678599Y-115658495D01*
X200683032Y-115661599D01*
X200683038Y-115661604D01*
X200864158Y-115788425D01*
X200903024Y-115832743D01*
X200917035Y-115890000D01*
X200903024Y-115947257D01*
X200864159Y-115991575D01*
X200683041Y-116118395D01*
X200678599Y-116121505D01*
X200674775Y-116125328D01*
X200674769Y-116125334D01*
X200515334Y-116284769D01*
X200515328Y-116284775D01*
X200511505Y-116288599D01*
X200508402Y-116293029D01*
X200508399Y-116293034D01*
X200379073Y-116477731D01*
X200379068Y-116477738D01*
X200375965Y-116482171D01*
X200373677Y-116487077D01*
X200373675Y-116487081D01*
X200278386Y-116691427D01*
X200278383Y-116691432D01*
X200276097Y-116696337D01*
X200274698Y-116701557D01*
X200274694Y-116701569D01*
X200216337Y-116919365D01*
X200216335Y-116919371D01*
X200214937Y-116924592D01*
X200214465Y-116929977D01*
X200214465Y-116929982D01*
X200213153Y-116944982D01*
X200194341Y-117160000D01*
X200214937Y-117395408D01*
X200216336Y-117400630D01*
X200216337Y-117400634D01*
X200274694Y-117618430D01*
X200274697Y-117618438D01*
X200276097Y-117623663D01*
X200278385Y-117628570D01*
X200278386Y-117628572D01*
X200373678Y-117832927D01*
X200373681Y-117832933D01*
X200375965Y-117837830D01*
X200379064Y-117842257D01*
X200379066Y-117842259D01*
X200508399Y-118026966D01*
X200508402Y-118026970D01*
X200511505Y-118031401D01*
X200678599Y-118198495D01*
X200683032Y-118201599D01*
X200683038Y-118201604D01*
X200864158Y-118328425D01*
X200903024Y-118372743D01*
X200917035Y-118430000D01*
X200903024Y-118487257D01*
X200864160Y-118531574D01*
X200678599Y-118661505D01*
X200674775Y-118665328D01*
X200674769Y-118665334D01*
X200515334Y-118824769D01*
X200515328Y-118824775D01*
X200511505Y-118828599D01*
X200508402Y-118833029D01*
X200508399Y-118833034D01*
X200379073Y-119017731D01*
X200379068Y-119017738D01*
X200375965Y-119022171D01*
X200373677Y-119027077D01*
X200373675Y-119027081D01*
X200278386Y-119231427D01*
X200278383Y-119231432D01*
X200276097Y-119236337D01*
X200274698Y-119241557D01*
X200274694Y-119241569D01*
X200216337Y-119459365D01*
X200216335Y-119459371D01*
X200214937Y-119464592D01*
X200214465Y-119469977D01*
X200214465Y-119469982D01*
X200213153Y-119484982D01*
X200194341Y-119700000D01*
X200214937Y-119935408D01*
X200216336Y-119940630D01*
X200216337Y-119940634D01*
X200274694Y-120158430D01*
X200274697Y-120158438D01*
X200276097Y-120163663D01*
X200278385Y-120168570D01*
X200278386Y-120168572D01*
X200373678Y-120372927D01*
X200373681Y-120372933D01*
X200375965Y-120377830D01*
X200379064Y-120382257D01*
X200379066Y-120382259D01*
X200508399Y-120566966D01*
X200508402Y-120566970D01*
X200511505Y-120571401D01*
X200678599Y-120738495D01*
X200683032Y-120741599D01*
X200683038Y-120741604D01*
X200864158Y-120868425D01*
X200903024Y-120912743D01*
X200917035Y-120970000D01*
X200903024Y-121027257D01*
X200864159Y-121071575D01*
X200683041Y-121198395D01*
X200678599Y-121201505D01*
X200674775Y-121205328D01*
X200674769Y-121205334D01*
X200515334Y-121364769D01*
X200515328Y-121364775D01*
X200511505Y-121368599D01*
X200508402Y-121373029D01*
X200508399Y-121373034D01*
X200379073Y-121557731D01*
X200379068Y-121557738D01*
X200375965Y-121562171D01*
X200373677Y-121567077D01*
X200373675Y-121567081D01*
X200278386Y-121771427D01*
X200278383Y-121771432D01*
X200276097Y-121776337D01*
X200274698Y-121781557D01*
X200274694Y-121781569D01*
X200216337Y-121999365D01*
X200216335Y-121999371D01*
X200214937Y-122004592D01*
X200214465Y-122009977D01*
X200214465Y-122009982D01*
X200213153Y-122024982D01*
X200194341Y-122240000D01*
X200214937Y-122475408D01*
X200216336Y-122480630D01*
X200216337Y-122480634D01*
X200274694Y-122698430D01*
X200274697Y-122698438D01*
X200276097Y-122703663D01*
X200278385Y-122708570D01*
X200278386Y-122708572D01*
X200373678Y-122912927D01*
X200373681Y-122912933D01*
X200375965Y-122917830D01*
X200379064Y-122922257D01*
X200379066Y-122922259D01*
X200508399Y-123106966D01*
X200508402Y-123106970D01*
X200511505Y-123111401D01*
X200678599Y-123278495D01*
X200683032Y-123281599D01*
X200683038Y-123281604D01*
X200864158Y-123408425D01*
X200903024Y-123452743D01*
X200917035Y-123510000D01*
X200903024Y-123567257D01*
X200864159Y-123611575D01*
X200683041Y-123738395D01*
X200678599Y-123741505D01*
X200674775Y-123745328D01*
X200674769Y-123745334D01*
X200515334Y-123904769D01*
X200515328Y-123904775D01*
X200511505Y-123908599D01*
X200508402Y-123913029D01*
X200508399Y-123913034D01*
X200379073Y-124097731D01*
X200379068Y-124097738D01*
X200375965Y-124102171D01*
X200373677Y-124107077D01*
X200373675Y-124107081D01*
X200278386Y-124311427D01*
X200278383Y-124311432D01*
X200276097Y-124316337D01*
X200274698Y-124321557D01*
X200274694Y-124321569D01*
X200216337Y-124539365D01*
X200216335Y-124539371D01*
X200214937Y-124544592D01*
X200214465Y-124549977D01*
X200214465Y-124549982D01*
X200209482Y-124606942D01*
X200194341Y-124780000D01*
X200214937Y-125015408D01*
X200216336Y-125020630D01*
X200216337Y-125020634D01*
X200274694Y-125238430D01*
X200274697Y-125238438D01*
X200276097Y-125243663D01*
X200278385Y-125248570D01*
X200278386Y-125248572D01*
X200373678Y-125452927D01*
X200373681Y-125452933D01*
X200375965Y-125457830D01*
X200379064Y-125462257D01*
X200379066Y-125462259D01*
X200508399Y-125646966D01*
X200508402Y-125646970D01*
X200511505Y-125651401D01*
X200678599Y-125818495D01*
X200683032Y-125821599D01*
X200683038Y-125821604D01*
X200864158Y-125948425D01*
X200903024Y-125992743D01*
X200917035Y-126050000D01*
X200903024Y-126107257D01*
X200864159Y-126151575D01*
X200683041Y-126278395D01*
X200678599Y-126281505D01*
X200674775Y-126285328D01*
X200674769Y-126285334D01*
X200515334Y-126444769D01*
X200515328Y-126444775D01*
X200511505Y-126448599D01*
X200508402Y-126453029D01*
X200508399Y-126453034D01*
X200379073Y-126637731D01*
X200379068Y-126637738D01*
X200375965Y-126642171D01*
X200373677Y-126647077D01*
X200373675Y-126647081D01*
X200278386Y-126851427D01*
X200278383Y-126851432D01*
X200276097Y-126856337D01*
X200274698Y-126861557D01*
X200274694Y-126861569D01*
X200216337Y-127079365D01*
X200216335Y-127079371D01*
X200214937Y-127084592D01*
X200214465Y-127089977D01*
X200214465Y-127089982D01*
X200213153Y-127104982D01*
X200194341Y-127320000D01*
X200214937Y-127555408D01*
X200216336Y-127560630D01*
X200216337Y-127560634D01*
X200274694Y-127778430D01*
X200274697Y-127778438D01*
X200276097Y-127783663D01*
X200278385Y-127788570D01*
X200278386Y-127788572D01*
X200373678Y-127992927D01*
X200373681Y-127992933D01*
X200375965Y-127997830D01*
X200379064Y-128002257D01*
X200379066Y-128002259D01*
X200508399Y-128186966D01*
X200508402Y-128186970D01*
X200511505Y-128191401D01*
X200678599Y-128358495D01*
X200683032Y-128361599D01*
X200683038Y-128361604D01*
X200864158Y-128488425D01*
X200903024Y-128532743D01*
X200917035Y-128590000D01*
X200903024Y-128647257D01*
X200864159Y-128691575D01*
X200683041Y-128818395D01*
X200678599Y-128821505D01*
X200674775Y-128825328D01*
X200674769Y-128825334D01*
X200515334Y-128984769D01*
X200515328Y-128984775D01*
X200511505Y-128988599D01*
X200508402Y-128993029D01*
X200508399Y-128993034D01*
X200379073Y-129177731D01*
X200379068Y-129177738D01*
X200375965Y-129182171D01*
X200373677Y-129187077D01*
X200373675Y-129187081D01*
X200278386Y-129391427D01*
X200278383Y-129391432D01*
X200276097Y-129396337D01*
X200274698Y-129401557D01*
X200274694Y-129401569D01*
X200216337Y-129619365D01*
X200216335Y-129619371D01*
X200214937Y-129624592D01*
X200214465Y-129629977D01*
X200214465Y-129629982D01*
X200213390Y-129642272D01*
X200194341Y-129860000D01*
X200194813Y-129865395D01*
X200210703Y-130047023D01*
X200214937Y-130095408D01*
X200216336Y-130100630D01*
X200216337Y-130100634D01*
X200274694Y-130318430D01*
X200274697Y-130318438D01*
X200276097Y-130323663D01*
X200278385Y-130328570D01*
X200278386Y-130328572D01*
X200373678Y-130532927D01*
X200373681Y-130532933D01*
X200375965Y-130537830D01*
X200379064Y-130542257D01*
X200379066Y-130542259D01*
X200508399Y-130726966D01*
X200508402Y-130726970D01*
X200511505Y-130731401D01*
X200678599Y-130898495D01*
X200683032Y-130901599D01*
X200683038Y-130901604D01*
X200864158Y-131028425D01*
X200903024Y-131072743D01*
X200917035Y-131130000D01*
X200903024Y-131187257D01*
X200864159Y-131231575D01*
X200683041Y-131358395D01*
X200678599Y-131361505D01*
X200674775Y-131365328D01*
X200674769Y-131365334D01*
X200515334Y-131524769D01*
X200515328Y-131524775D01*
X200511505Y-131528599D01*
X200508402Y-131533029D01*
X200508399Y-131533034D01*
X200379073Y-131717731D01*
X200379068Y-131717738D01*
X200375965Y-131722171D01*
X200373677Y-131727077D01*
X200373675Y-131727081D01*
X200278386Y-131931427D01*
X200278383Y-131931432D01*
X200276097Y-131936337D01*
X200274698Y-131941557D01*
X200274694Y-131941569D01*
X200216337Y-132159365D01*
X200216335Y-132159371D01*
X200214937Y-132164592D01*
X200214465Y-132169977D01*
X200214465Y-132169982D01*
X200213153Y-132184982D01*
X200194341Y-132400000D01*
X200214937Y-132635408D01*
X200216336Y-132640630D01*
X200216337Y-132640634D01*
X200274694Y-132858430D01*
X200274697Y-132858438D01*
X200276097Y-132863663D01*
X200278385Y-132868570D01*
X200278386Y-132868572D01*
X200373678Y-133072927D01*
X200373681Y-133072933D01*
X200375965Y-133077830D01*
X200379064Y-133082257D01*
X200379066Y-133082259D01*
X200508399Y-133266966D01*
X200508402Y-133266970D01*
X200511505Y-133271401D01*
X200678599Y-133438495D01*
X200683031Y-133441598D01*
X200683033Y-133441600D01*
X200864595Y-133568731D01*
X200903460Y-133613049D01*
X200917471Y-133670306D01*
X200903460Y-133727563D01*
X200864595Y-133771881D01*
X200683352Y-133898788D01*
X200675092Y-133905719D01*
X200515719Y-134065092D01*
X200508784Y-134073357D01*
X200379508Y-134257982D01*
X200374110Y-134267332D01*
X200278856Y-134471602D01*
X200275168Y-134481736D01*
X200223056Y-134676219D01*
X200222688Y-134687448D01*
X200233631Y-134690000D01*
X205406369Y-134690000D01*
X205417311Y-134687448D01*
X205416943Y-134676219D01*
X205364831Y-134481736D01*
X205361143Y-134471602D01*
X205265889Y-134267332D01*
X205260491Y-134257982D01*
X205131215Y-134073357D01*
X205124280Y-134065092D01*
X204964909Y-133905721D01*
X204956643Y-133898784D01*
X204775405Y-133771880D01*
X204736540Y-133727562D01*
X204722529Y-133670305D01*
X204736540Y-133613048D01*
X204775406Y-133568730D01*
X204956961Y-133441604D01*
X204956961Y-133441603D01*
X204961401Y-133438495D01*
X205128495Y-133271401D01*
X205264035Y-133077830D01*
X205363903Y-132863663D01*
X205425063Y-132635408D01*
X205444347Y-132415000D01*
X250079341Y-132415000D01*
X250079813Y-132420395D01*
X250098624Y-132635408D01*
X250099937Y-132650408D01*
X250101336Y-132655630D01*
X250101337Y-132655634D01*
X250159694Y-132873430D01*
X250159697Y-132873438D01*
X250161097Y-132878663D01*
X250163385Y-132883570D01*
X250163386Y-132883572D01*
X250258678Y-133087927D01*
X250258681Y-133087933D01*
X250260965Y-133092830D01*
X250264064Y-133097257D01*
X250264066Y-133097259D01*
X250393399Y-133281966D01*
X250393402Y-133281970D01*
X250396505Y-133286401D01*
X250563599Y-133453495D01*
X250568031Y-133456598D01*
X250568033Y-133456600D01*
X250749595Y-133583731D01*
X250788460Y-133628049D01*
X250802471Y-133685306D01*
X250788460Y-133742563D01*
X250749595Y-133786881D01*
X250568352Y-133913788D01*
X250560092Y-133920719D01*
X250400719Y-134080092D01*
X250393784Y-134088357D01*
X250264508Y-134272982D01*
X250259110Y-134282332D01*
X250163856Y-134486602D01*
X250160168Y-134496736D01*
X250108056Y-134691219D01*
X250107688Y-134702448D01*
X250118631Y-134705000D01*
X255291369Y-134705000D01*
X255302311Y-134702448D01*
X255301943Y-134691219D01*
X255249831Y-134496736D01*
X255246143Y-134486602D01*
X255150889Y-134282332D01*
X255145491Y-134272982D01*
X255016215Y-134088357D01*
X255009280Y-134080092D01*
X254849909Y-133920721D01*
X254841643Y-133913784D01*
X254660405Y-133786880D01*
X254621540Y-133742562D01*
X254607529Y-133685305D01*
X254621540Y-133628048D01*
X254660406Y-133583730D01*
X254681829Y-133568730D01*
X254846401Y-133453495D01*
X255013495Y-133286401D01*
X255149035Y-133092830D01*
X255248903Y-132878663D01*
X255310063Y-132650408D01*
X255330659Y-132415000D01*
X255310063Y-132179592D01*
X255248903Y-131951337D01*
X255149035Y-131737171D01*
X255013495Y-131543599D01*
X254846401Y-131376505D01*
X254841968Y-131373401D01*
X254841961Y-131373395D01*
X254660842Y-131246575D01*
X254621976Y-131202257D01*
X254607965Y-131145000D01*
X254621976Y-131087743D01*
X254660842Y-131043425D01*
X254841961Y-130916604D01*
X254841961Y-130916603D01*
X254846401Y-130913495D01*
X255013495Y-130746401D01*
X255149035Y-130552830D01*
X255248903Y-130338663D01*
X255310063Y-130110408D01*
X255330659Y-129875000D01*
X255310063Y-129639592D01*
X255248903Y-129411337D01*
X255149035Y-129197171D01*
X255013495Y-129003599D01*
X254846401Y-128836505D01*
X254841968Y-128833401D01*
X254841961Y-128833395D01*
X254660842Y-128706575D01*
X254621976Y-128662257D01*
X254607965Y-128605000D01*
X254621976Y-128547743D01*
X254660842Y-128503425D01*
X254841961Y-128376604D01*
X254841961Y-128376603D01*
X254846401Y-128373495D01*
X255013495Y-128206401D01*
X255149035Y-128012830D01*
X255248903Y-127798663D01*
X255310063Y-127570408D01*
X255330659Y-127335000D01*
X255310063Y-127099592D01*
X255248903Y-126871337D01*
X255149035Y-126657171D01*
X255013495Y-126463599D01*
X254846401Y-126296505D01*
X254841968Y-126293401D01*
X254841961Y-126293395D01*
X254660842Y-126166575D01*
X254621976Y-126122257D01*
X254607965Y-126065000D01*
X254621976Y-126007743D01*
X254660842Y-125963425D01*
X254841961Y-125836604D01*
X254841961Y-125836603D01*
X254846401Y-125833495D01*
X255013495Y-125666401D01*
X255149035Y-125472830D01*
X255248903Y-125258663D01*
X255310063Y-125030408D01*
X255330659Y-124795000D01*
X255310063Y-124559592D01*
X255248903Y-124331337D01*
X255149035Y-124117171D01*
X255013495Y-123923599D01*
X254846401Y-123756505D01*
X254841968Y-123753401D01*
X254841961Y-123753395D01*
X254660842Y-123626575D01*
X254621976Y-123582257D01*
X254607965Y-123525000D01*
X254621976Y-123467743D01*
X254660842Y-123423425D01*
X254841961Y-123296604D01*
X254841961Y-123296603D01*
X254846401Y-123293495D01*
X255013495Y-123126401D01*
X255149035Y-122932830D01*
X255248903Y-122718663D01*
X255310063Y-122490408D01*
X255330659Y-122255000D01*
X255310063Y-122019592D01*
X255248903Y-121791337D01*
X255149035Y-121577171D01*
X255013495Y-121383599D01*
X254846401Y-121216505D01*
X254841968Y-121213401D01*
X254841961Y-121213395D01*
X254660842Y-121086575D01*
X254621976Y-121042257D01*
X254607965Y-120985000D01*
X254621976Y-120927743D01*
X254660842Y-120883425D01*
X254841961Y-120756604D01*
X254841961Y-120756603D01*
X254846401Y-120753495D01*
X255013495Y-120586401D01*
X255149035Y-120392830D01*
X255248903Y-120178663D01*
X255310063Y-119950408D01*
X255330659Y-119715000D01*
X255310063Y-119479592D01*
X255248903Y-119251337D01*
X255149035Y-119037171D01*
X255013495Y-118843599D01*
X254846401Y-118676505D01*
X254841968Y-118673401D01*
X254841961Y-118673395D01*
X254660842Y-118546575D01*
X254621976Y-118502257D01*
X254607965Y-118445000D01*
X254621976Y-118387743D01*
X254660842Y-118343425D01*
X254841961Y-118216604D01*
X254841961Y-118216603D01*
X254846401Y-118213495D01*
X255013495Y-118046401D01*
X255149035Y-117852830D01*
X255248903Y-117638663D01*
X255310063Y-117410408D01*
X255330659Y-117175000D01*
X255310063Y-116939592D01*
X255248903Y-116711337D01*
X255149035Y-116497171D01*
X255013495Y-116303599D01*
X254846401Y-116136505D01*
X254841970Y-116133402D01*
X254841966Y-116133399D01*
X254660841Y-116006574D01*
X254621976Y-115962256D01*
X254607965Y-115904999D01*
X254621976Y-115847742D01*
X254660839Y-115803426D01*
X254846401Y-115673495D01*
X255013495Y-115506401D01*
X255149035Y-115312830D01*
X255248903Y-115098663D01*
X255310063Y-114870408D01*
X255330659Y-114635000D01*
X255310063Y-114399592D01*
X255248903Y-114171337D01*
X255149035Y-113957171D01*
X255013495Y-113763599D01*
X254846401Y-113596505D01*
X254841968Y-113593401D01*
X254841961Y-113593395D01*
X254660842Y-113466575D01*
X254621976Y-113422257D01*
X254607965Y-113365000D01*
X254621976Y-113307743D01*
X254660842Y-113263425D01*
X254841961Y-113136604D01*
X254841961Y-113136603D01*
X254846401Y-113133495D01*
X255013495Y-112966401D01*
X255149035Y-112772830D01*
X255248903Y-112558663D01*
X255310063Y-112330408D01*
X255330659Y-112095000D01*
X255310063Y-111859592D01*
X255248903Y-111631337D01*
X255149035Y-111417171D01*
X255013495Y-111223599D01*
X254846401Y-111056505D01*
X254841968Y-111053401D01*
X254841961Y-111053395D01*
X254660842Y-110926575D01*
X254621976Y-110882257D01*
X254607965Y-110825000D01*
X254621976Y-110767743D01*
X254660842Y-110723425D01*
X254841961Y-110596604D01*
X254841961Y-110596603D01*
X254846401Y-110593495D01*
X255013495Y-110426401D01*
X255149035Y-110232830D01*
X255248903Y-110018663D01*
X255310063Y-109790408D01*
X255330659Y-109555000D01*
X255310063Y-109319592D01*
X255248903Y-109091337D01*
X255149035Y-108877171D01*
X255013495Y-108683599D01*
X254846401Y-108516505D01*
X254841970Y-108513402D01*
X254841966Y-108513399D01*
X254660841Y-108386574D01*
X254621976Y-108342256D01*
X254607965Y-108284999D01*
X254621976Y-108227742D01*
X254660839Y-108183426D01*
X254830946Y-108064317D01*
X254841961Y-108056604D01*
X254841961Y-108056603D01*
X254846401Y-108053495D01*
X255013495Y-107886401D01*
X255149035Y-107692830D01*
X255248903Y-107478663D01*
X255310063Y-107250408D01*
X255330659Y-107015000D01*
X255310063Y-106779592D01*
X255248903Y-106551337D01*
X255149035Y-106337171D01*
X255013495Y-106143599D01*
X254846401Y-105976505D01*
X254841968Y-105973401D01*
X254841961Y-105973395D01*
X254660842Y-105846575D01*
X254621976Y-105802257D01*
X254607965Y-105745000D01*
X254621976Y-105687743D01*
X254660842Y-105643425D01*
X254841961Y-105516604D01*
X254841961Y-105516603D01*
X254846401Y-105513495D01*
X255013495Y-105346401D01*
X255149035Y-105152830D01*
X255248903Y-104938663D01*
X255310063Y-104710408D01*
X255330659Y-104475000D01*
X255310063Y-104239592D01*
X255248903Y-104011337D01*
X255149035Y-103797171D01*
X255013495Y-103603599D01*
X254846401Y-103436505D01*
X254841968Y-103433401D01*
X254841961Y-103433395D01*
X254660842Y-103306575D01*
X254621976Y-103262257D01*
X254607965Y-103205000D01*
X254621976Y-103147743D01*
X254660842Y-103103425D01*
X254841961Y-102976604D01*
X254841961Y-102976603D01*
X254846401Y-102973495D01*
X255013495Y-102806401D01*
X255149035Y-102612830D01*
X255248903Y-102398663D01*
X255310063Y-102170408D01*
X255330659Y-101935000D01*
X255310063Y-101699592D01*
X255248903Y-101471337D01*
X255149035Y-101257171D01*
X255013495Y-101063599D01*
X254846401Y-100896505D01*
X254841970Y-100893402D01*
X254841966Y-100893399D01*
X254660841Y-100766574D01*
X254621976Y-100722256D01*
X254607965Y-100664999D01*
X254621976Y-100607742D01*
X254660839Y-100563426D01*
X254846401Y-100433495D01*
X255013495Y-100266401D01*
X255149035Y-100072830D01*
X255248903Y-99858663D01*
X255310063Y-99630408D01*
X255330659Y-99395000D01*
X255310063Y-99159592D01*
X255248903Y-98931337D01*
X255149035Y-98717171D01*
X255013495Y-98523599D01*
X254846401Y-98356505D01*
X254841968Y-98353401D01*
X254841961Y-98353395D01*
X254660842Y-98226575D01*
X254621976Y-98182257D01*
X254607965Y-98125000D01*
X254621976Y-98067743D01*
X254660842Y-98023425D01*
X254841961Y-97896604D01*
X254841961Y-97896603D01*
X254846401Y-97893495D01*
X255013495Y-97726401D01*
X255149035Y-97532830D01*
X255248903Y-97318663D01*
X255310063Y-97090408D01*
X255330659Y-96855000D01*
X255310063Y-96619592D01*
X255248903Y-96391337D01*
X255149035Y-96177171D01*
X255013495Y-95983599D01*
X254846401Y-95816505D01*
X254841968Y-95813401D01*
X254841961Y-95813395D01*
X254660842Y-95686575D01*
X254621976Y-95642257D01*
X254607965Y-95585000D01*
X254621976Y-95527743D01*
X254660842Y-95483425D01*
X254841961Y-95356604D01*
X254841961Y-95356603D01*
X254846401Y-95353495D01*
X255013495Y-95186401D01*
X255149035Y-94992830D01*
X255248903Y-94778663D01*
X255310063Y-94550408D01*
X255330659Y-94315000D01*
X255310063Y-94079592D01*
X255248903Y-93851337D01*
X255149035Y-93637171D01*
X255013495Y-93443599D01*
X254846401Y-93276505D01*
X254841968Y-93273401D01*
X254841961Y-93273395D01*
X254660842Y-93146575D01*
X254621976Y-93102257D01*
X254607965Y-93045000D01*
X254621976Y-92987743D01*
X254660842Y-92943425D01*
X254841961Y-92816604D01*
X254841961Y-92816603D01*
X254846401Y-92813495D01*
X255013495Y-92646401D01*
X255149035Y-92452830D01*
X255248903Y-92238663D01*
X255310063Y-92010408D01*
X255330659Y-91775000D01*
X255310063Y-91539592D01*
X255248903Y-91311337D01*
X255149035Y-91097171D01*
X255013495Y-90903599D01*
X254846401Y-90736505D01*
X254841968Y-90733401D01*
X254841961Y-90733395D01*
X254660842Y-90606575D01*
X254621976Y-90562257D01*
X254607965Y-90505000D01*
X254621976Y-90447743D01*
X254660842Y-90403425D01*
X254841961Y-90276604D01*
X254841961Y-90276603D01*
X254846401Y-90273495D01*
X255013495Y-90106401D01*
X255149035Y-89912830D01*
X255248903Y-89698663D01*
X255310063Y-89470408D01*
X255330659Y-89235000D01*
X255310063Y-88999592D01*
X255248903Y-88771337D01*
X255149035Y-88557171D01*
X255013495Y-88363599D01*
X254846401Y-88196505D01*
X254841968Y-88193401D01*
X254841961Y-88193395D01*
X254660842Y-88066575D01*
X254621976Y-88022257D01*
X254607965Y-87965000D01*
X254621976Y-87907743D01*
X254660842Y-87863425D01*
X254841961Y-87736604D01*
X254841961Y-87736603D01*
X254846401Y-87733495D01*
X255013495Y-87566401D01*
X255149035Y-87372830D01*
X255248903Y-87158663D01*
X255310063Y-86930408D01*
X255330659Y-86695000D01*
X255310063Y-86459592D01*
X255248903Y-86231337D01*
X255149035Y-86017171D01*
X255013495Y-85823599D01*
X254846401Y-85656505D01*
X254841968Y-85653401D01*
X254841961Y-85653395D01*
X254660842Y-85526575D01*
X254621976Y-85482257D01*
X254607965Y-85425000D01*
X254621976Y-85367743D01*
X254660842Y-85323425D01*
X254841961Y-85196604D01*
X254841961Y-85196603D01*
X254846401Y-85193495D01*
X255013495Y-85026401D01*
X255149035Y-84832830D01*
X255248903Y-84618663D01*
X255310063Y-84390408D01*
X255330659Y-84155000D01*
X255310063Y-83919592D01*
X255248903Y-83691337D01*
X255149035Y-83477171D01*
X255013495Y-83283599D01*
X254846401Y-83116505D01*
X254841970Y-83113402D01*
X254841966Y-83113399D01*
X254660841Y-82986574D01*
X254621976Y-82942256D01*
X254607965Y-82884999D01*
X254621976Y-82827742D01*
X254660839Y-82783426D01*
X254846401Y-82653495D01*
X255013495Y-82486401D01*
X255149035Y-82292830D01*
X255248903Y-82078663D01*
X255310063Y-81850408D01*
X255330659Y-81615000D01*
X255310063Y-81379592D01*
X255248903Y-81151337D01*
X255149035Y-80937171D01*
X255013495Y-80743599D01*
X254846401Y-80576505D01*
X254841968Y-80573401D01*
X254841961Y-80573395D01*
X254660842Y-80446575D01*
X254621976Y-80402257D01*
X254607965Y-80345000D01*
X254621976Y-80287743D01*
X254660842Y-80243425D01*
X254841961Y-80116604D01*
X254841961Y-80116603D01*
X254846401Y-80113495D01*
X255013495Y-79946401D01*
X255149035Y-79752830D01*
X255248903Y-79538663D01*
X255310063Y-79310408D01*
X255330659Y-79075000D01*
X255310063Y-78839592D01*
X255248903Y-78611337D01*
X255149035Y-78397171D01*
X255013495Y-78203599D01*
X254846401Y-78036505D01*
X254841968Y-78033401D01*
X254841961Y-78033395D01*
X254660842Y-77906575D01*
X254621976Y-77862257D01*
X254607965Y-77805000D01*
X254621976Y-77747743D01*
X254660842Y-77703425D01*
X254841961Y-77576604D01*
X254841961Y-77576603D01*
X254846401Y-77573495D01*
X255013495Y-77406401D01*
X255149035Y-77212830D01*
X255248903Y-76998663D01*
X255310063Y-76770408D01*
X255330659Y-76535000D01*
X255310063Y-76299592D01*
X255248903Y-76071337D01*
X255149035Y-75857171D01*
X255013495Y-75663599D01*
X254891181Y-75541285D01*
X254859885Y-75488539D01*
X254857696Y-75427246D01*
X254885149Y-75372401D01*
X254935529Y-75337422D01*
X255058777Y-75291452D01*
X255074189Y-75283037D01*
X255175092Y-75207501D01*
X255187501Y-75195092D01*
X255263037Y-75094189D01*
X255271452Y-75078777D01*
X255315888Y-74959641D01*
X255319426Y-74944667D01*
X255324646Y-74896114D01*
X255325000Y-74889518D01*
X255325000Y-74261326D01*
X255321549Y-74248450D01*
X255308674Y-74245000D01*
X250118631Y-74245000D01*
X250107688Y-74247551D01*
X250108056Y-74258780D01*
X250160168Y-74453263D01*
X250163856Y-74463397D01*
X250259113Y-74667676D01*
X250264501Y-74677008D01*
X250393784Y-74861643D01*
X250400721Y-74869909D01*
X250560090Y-75029278D01*
X250568356Y-75036215D01*
X250749595Y-75163120D01*
X250788460Y-75207438D01*
X250802471Y-75264695D01*
X250788460Y-75321952D01*
X250749594Y-75366270D01*
X250568034Y-75493399D01*
X250568029Y-75493402D01*
X250563599Y-75496505D01*
X250559775Y-75500328D01*
X250559769Y-75500334D01*
X250400334Y-75659769D01*
X250400328Y-75659775D01*
X250396505Y-75663599D01*
X250393402Y-75668029D01*
X250393399Y-75668034D01*
X250264073Y-75852731D01*
X250264068Y-75852738D01*
X250260965Y-75857171D01*
X250258677Y-75862077D01*
X250258675Y-75862081D01*
X250163386Y-76066427D01*
X250163383Y-76066432D01*
X250161097Y-76071337D01*
X250159698Y-76076557D01*
X250159694Y-76076569D01*
X250101337Y-76294365D01*
X250101335Y-76294371D01*
X250099937Y-76299592D01*
X250079341Y-76535000D01*
X250079813Y-76540395D01*
X250098624Y-76755408D01*
X250099937Y-76770408D01*
X250101336Y-76775630D01*
X250101337Y-76775634D01*
X250159694Y-76993430D01*
X250159697Y-76993438D01*
X250161097Y-76998663D01*
X250163385Y-77003570D01*
X250163386Y-77003572D01*
X250258678Y-77207927D01*
X250258681Y-77207933D01*
X250260965Y-77212830D01*
X250264064Y-77217257D01*
X250264066Y-77217259D01*
X250393399Y-77401966D01*
X250393402Y-77401970D01*
X250396505Y-77406401D01*
X250563599Y-77573495D01*
X250568032Y-77576599D01*
X250568038Y-77576604D01*
X250749158Y-77703425D01*
X250788024Y-77747743D01*
X250802035Y-77805000D01*
X250788024Y-77862257D01*
X250749159Y-77906575D01*
X250568041Y-78033395D01*
X250563599Y-78036505D01*
X250559775Y-78040328D01*
X250559769Y-78040334D01*
X250400334Y-78199769D01*
X250400328Y-78199775D01*
X250396505Y-78203599D01*
X250393402Y-78208029D01*
X250393399Y-78208034D01*
X250264073Y-78392731D01*
X250264068Y-78392738D01*
X250260965Y-78397171D01*
X250258677Y-78402077D01*
X250258675Y-78402081D01*
X250163386Y-78606427D01*
X250163383Y-78606432D01*
X250161097Y-78611337D01*
X250159698Y-78616557D01*
X250159694Y-78616569D01*
X250101337Y-78834365D01*
X250101335Y-78834371D01*
X250099937Y-78839592D01*
X250099465Y-78844977D01*
X250099465Y-78844982D01*
X250087254Y-78984551D01*
X250079341Y-79075000D01*
X250079813Y-79080395D01*
X250098624Y-79295408D01*
X250099937Y-79310408D01*
X250101336Y-79315630D01*
X250101337Y-79315634D01*
X250159694Y-79533430D01*
X250159697Y-79533438D01*
X250161097Y-79538663D01*
X250163385Y-79543570D01*
X250163386Y-79543572D01*
X250258678Y-79747927D01*
X250258681Y-79747933D01*
X250260965Y-79752830D01*
X250264064Y-79757257D01*
X250264066Y-79757259D01*
X250393399Y-79941966D01*
X250393402Y-79941970D01*
X250396505Y-79946401D01*
X250563599Y-80113495D01*
X250568032Y-80116599D01*
X250568038Y-80116604D01*
X250749158Y-80243425D01*
X250788024Y-80287743D01*
X250802035Y-80345000D01*
X250788024Y-80402257D01*
X250749159Y-80446575D01*
X250568041Y-80573395D01*
X250563599Y-80576505D01*
X250559775Y-80580328D01*
X250559769Y-80580334D01*
X250400334Y-80739769D01*
X250400328Y-80739775D01*
X250396505Y-80743599D01*
X250393402Y-80748029D01*
X250393399Y-80748034D01*
X250264073Y-80932731D01*
X250264068Y-80932738D01*
X250260965Y-80937171D01*
X250258677Y-80942077D01*
X250258675Y-80942081D01*
X250163386Y-81146427D01*
X250163383Y-81146432D01*
X250161097Y-81151337D01*
X250159698Y-81156557D01*
X250159694Y-81156569D01*
X250101337Y-81374365D01*
X250101335Y-81374371D01*
X250099937Y-81379592D01*
X250079341Y-81615000D01*
X250079813Y-81620395D01*
X250098624Y-81835408D01*
X250099937Y-81850408D01*
X250101336Y-81855630D01*
X250101337Y-81855634D01*
X250159694Y-82073430D01*
X250159697Y-82073438D01*
X250161097Y-82078663D01*
X250163385Y-82083570D01*
X250163386Y-82083572D01*
X250258678Y-82287927D01*
X250258681Y-82287933D01*
X250260965Y-82292830D01*
X250264064Y-82297257D01*
X250264066Y-82297259D01*
X250393399Y-82481966D01*
X250393402Y-82481970D01*
X250396505Y-82486401D01*
X250563599Y-82653495D01*
X250568032Y-82656599D01*
X250568038Y-82656604D01*
X250749158Y-82783425D01*
X250788024Y-82827743D01*
X250802035Y-82885000D01*
X250788024Y-82942257D01*
X250749160Y-82986574D01*
X250563599Y-83116505D01*
X250559775Y-83120328D01*
X250559769Y-83120334D01*
X250400334Y-83279769D01*
X250400328Y-83279775D01*
X250396505Y-83283599D01*
X250393402Y-83288029D01*
X250393399Y-83288034D01*
X250264073Y-83472731D01*
X250264068Y-83472738D01*
X250260965Y-83477171D01*
X250258677Y-83482077D01*
X250258675Y-83482081D01*
X250163386Y-83686427D01*
X250163383Y-83686432D01*
X250161097Y-83691337D01*
X250159698Y-83696557D01*
X250159694Y-83696569D01*
X250101337Y-83914365D01*
X250101335Y-83914371D01*
X250099937Y-83919592D01*
X250079341Y-84155000D01*
X250079813Y-84160395D01*
X250098624Y-84375408D01*
X250099937Y-84390408D01*
X250101336Y-84395630D01*
X250101337Y-84395634D01*
X250159694Y-84613430D01*
X250159697Y-84613438D01*
X250161097Y-84618663D01*
X250163385Y-84623570D01*
X250163386Y-84623572D01*
X250258678Y-84827927D01*
X250258681Y-84827933D01*
X250260965Y-84832830D01*
X250264064Y-84837257D01*
X250264066Y-84837259D01*
X250393399Y-85021966D01*
X250393402Y-85021970D01*
X250396505Y-85026401D01*
X250563599Y-85193495D01*
X250568032Y-85196599D01*
X250568038Y-85196604D01*
X250749158Y-85323425D01*
X250788024Y-85367743D01*
X250802035Y-85425000D01*
X250788024Y-85482257D01*
X250749159Y-85526575D01*
X250568041Y-85653395D01*
X250563599Y-85656505D01*
X250559775Y-85660328D01*
X250559769Y-85660334D01*
X250400334Y-85819769D01*
X250400328Y-85819775D01*
X250396505Y-85823599D01*
X250393402Y-85828029D01*
X250393399Y-85828034D01*
X250264073Y-86012731D01*
X250264068Y-86012738D01*
X250260965Y-86017171D01*
X250258677Y-86022077D01*
X250258675Y-86022081D01*
X250163386Y-86226427D01*
X250163383Y-86226432D01*
X250161097Y-86231337D01*
X250159698Y-86236557D01*
X250159694Y-86236569D01*
X250101337Y-86454365D01*
X250101335Y-86454371D01*
X250099937Y-86459592D01*
X250079341Y-86695000D01*
X250079813Y-86700395D01*
X250098624Y-86915408D01*
X250099937Y-86930408D01*
X250101336Y-86935630D01*
X250101337Y-86935634D01*
X250159694Y-87153430D01*
X250159697Y-87153438D01*
X250161097Y-87158663D01*
X250163385Y-87163570D01*
X250163386Y-87163572D01*
X250258678Y-87367927D01*
X250258681Y-87367933D01*
X250260965Y-87372830D01*
X250264064Y-87377257D01*
X250264066Y-87377259D01*
X250393399Y-87561966D01*
X250393402Y-87561970D01*
X250396505Y-87566401D01*
X250563599Y-87733495D01*
X250568032Y-87736599D01*
X250568038Y-87736604D01*
X250749158Y-87863425D01*
X250788024Y-87907743D01*
X250802035Y-87965000D01*
X250788024Y-88022257D01*
X250749159Y-88066575D01*
X250568041Y-88193395D01*
X250563599Y-88196505D01*
X250559775Y-88200328D01*
X250559769Y-88200334D01*
X250400334Y-88359769D01*
X250400328Y-88359775D01*
X250396505Y-88363599D01*
X250393402Y-88368029D01*
X250393399Y-88368034D01*
X250264073Y-88552731D01*
X250264068Y-88552738D01*
X250260965Y-88557171D01*
X250258677Y-88562077D01*
X250258675Y-88562081D01*
X250163386Y-88766427D01*
X250163383Y-88766432D01*
X250161097Y-88771337D01*
X250159698Y-88776557D01*
X250159694Y-88776569D01*
X250101337Y-88994365D01*
X250101335Y-88994371D01*
X250099937Y-88999592D01*
X250079341Y-89235000D01*
X250079813Y-89240395D01*
X250098624Y-89455408D01*
X250099937Y-89470408D01*
X250101336Y-89475630D01*
X250101337Y-89475634D01*
X250159694Y-89693430D01*
X250159697Y-89693438D01*
X250161097Y-89698663D01*
X250163385Y-89703570D01*
X250163386Y-89703572D01*
X250258678Y-89907927D01*
X250258681Y-89907933D01*
X250260965Y-89912830D01*
X250264064Y-89917257D01*
X250264066Y-89917259D01*
X250393399Y-90101966D01*
X250393402Y-90101970D01*
X250396505Y-90106401D01*
X250563599Y-90273495D01*
X250568032Y-90276599D01*
X250568038Y-90276604D01*
X250749158Y-90403425D01*
X250788024Y-90447743D01*
X250802035Y-90505000D01*
X250788024Y-90562257D01*
X250749159Y-90606575D01*
X250568041Y-90733395D01*
X250563599Y-90736505D01*
X250559775Y-90740328D01*
X250559769Y-90740334D01*
X250400334Y-90899769D01*
X250400328Y-90899775D01*
X250396505Y-90903599D01*
X250393402Y-90908029D01*
X250393399Y-90908034D01*
X250264073Y-91092731D01*
X250264068Y-91092738D01*
X250260965Y-91097171D01*
X250258677Y-91102077D01*
X250258675Y-91102081D01*
X250163386Y-91306427D01*
X250163383Y-91306432D01*
X250161097Y-91311337D01*
X250159698Y-91316557D01*
X250159694Y-91316569D01*
X250101337Y-91534365D01*
X250101335Y-91534371D01*
X250099937Y-91539592D01*
X250079341Y-91775000D01*
X250079813Y-91780395D01*
X250098624Y-91995408D01*
X250099937Y-92010408D01*
X250101336Y-92015630D01*
X250101337Y-92015634D01*
X250159694Y-92233430D01*
X250159697Y-92233438D01*
X250161097Y-92238663D01*
X250163385Y-92243570D01*
X250163386Y-92243572D01*
X250258678Y-92447927D01*
X250258681Y-92447933D01*
X250260965Y-92452830D01*
X250264064Y-92457257D01*
X250264066Y-92457259D01*
X250393399Y-92641966D01*
X250393402Y-92641970D01*
X250396505Y-92646401D01*
X250563599Y-92813495D01*
X250568032Y-92816599D01*
X250568038Y-92816604D01*
X250749158Y-92943425D01*
X250788024Y-92987743D01*
X250802035Y-93045000D01*
X250788024Y-93102257D01*
X250749159Y-93146575D01*
X250568041Y-93273395D01*
X250563599Y-93276505D01*
X250559775Y-93280328D01*
X250559769Y-93280334D01*
X250400334Y-93439769D01*
X250400328Y-93439775D01*
X250396505Y-93443599D01*
X250393402Y-93448029D01*
X250393399Y-93448034D01*
X250264073Y-93632731D01*
X250264068Y-93632738D01*
X250260965Y-93637171D01*
X250258677Y-93642077D01*
X250258675Y-93642081D01*
X250163386Y-93846427D01*
X250163383Y-93846432D01*
X250161097Y-93851337D01*
X250159698Y-93856557D01*
X250159694Y-93856569D01*
X250101337Y-94074365D01*
X250101335Y-94074371D01*
X250099937Y-94079592D01*
X250099465Y-94084977D01*
X250099465Y-94084982D01*
X250081125Y-94294605D01*
X250079341Y-94315000D01*
X250079813Y-94320395D01*
X250098767Y-94537043D01*
X250099937Y-94550408D01*
X250101336Y-94555630D01*
X250101337Y-94555634D01*
X250159694Y-94773430D01*
X250159697Y-94773438D01*
X250161097Y-94778663D01*
X250163385Y-94783570D01*
X250163386Y-94783572D01*
X250258678Y-94987927D01*
X250258681Y-94987933D01*
X250260965Y-94992830D01*
X250264064Y-94997257D01*
X250264066Y-94997259D01*
X250393399Y-95181966D01*
X250393402Y-95181970D01*
X250396505Y-95186401D01*
X250563599Y-95353495D01*
X250568032Y-95356599D01*
X250568038Y-95356604D01*
X250749158Y-95483425D01*
X250788024Y-95527743D01*
X250802035Y-95585000D01*
X250788024Y-95642257D01*
X250749159Y-95686575D01*
X250568041Y-95813395D01*
X250563599Y-95816505D01*
X250559775Y-95820328D01*
X250559769Y-95820334D01*
X250400334Y-95979769D01*
X250400328Y-95979775D01*
X250396505Y-95983599D01*
X250393402Y-95988029D01*
X250393399Y-95988034D01*
X250264073Y-96172731D01*
X250264068Y-96172738D01*
X250260965Y-96177171D01*
X250258677Y-96182077D01*
X250258675Y-96182081D01*
X250163386Y-96386427D01*
X250163383Y-96386432D01*
X250161097Y-96391337D01*
X250159698Y-96396557D01*
X250159694Y-96396569D01*
X250101337Y-96614365D01*
X250101335Y-96614371D01*
X250099937Y-96619592D01*
X250099465Y-96624977D01*
X250099465Y-96624982D01*
X250085212Y-96787894D01*
X250079341Y-96855000D01*
X250079813Y-96860395D01*
X250099389Y-97084151D01*
X250099937Y-97090408D01*
X250101336Y-97095630D01*
X250101337Y-97095634D01*
X250159694Y-97313430D01*
X250159697Y-97313438D01*
X250161097Y-97318663D01*
X250163385Y-97323570D01*
X250163386Y-97323572D01*
X250258678Y-97527927D01*
X250258681Y-97527933D01*
X250260965Y-97532830D01*
X250264064Y-97537257D01*
X250264066Y-97537259D01*
X250393399Y-97721966D01*
X250393402Y-97721970D01*
X250396505Y-97726401D01*
X250563599Y-97893495D01*
X250568032Y-97896599D01*
X250568038Y-97896604D01*
X250749158Y-98023425D01*
X250788024Y-98067743D01*
X250802035Y-98125000D01*
X250788024Y-98182257D01*
X250749159Y-98226575D01*
X250568041Y-98353395D01*
X250563599Y-98356505D01*
X250559775Y-98360328D01*
X250559769Y-98360334D01*
X250400334Y-98519769D01*
X250400328Y-98519775D01*
X250396505Y-98523599D01*
X250393402Y-98528029D01*
X250393399Y-98528034D01*
X250264073Y-98712731D01*
X250264068Y-98712738D01*
X250260965Y-98717171D01*
X250258677Y-98722077D01*
X250258675Y-98722081D01*
X250163386Y-98926427D01*
X250163383Y-98926432D01*
X250161097Y-98931337D01*
X250159698Y-98936557D01*
X250159694Y-98936569D01*
X250101337Y-99154365D01*
X250101335Y-99154371D01*
X250099937Y-99159592D01*
X250099465Y-99164977D01*
X250099465Y-99164982D01*
X250095915Y-99205564D01*
X250079341Y-99395000D01*
X250079813Y-99400395D01*
X250098624Y-99615408D01*
X250099937Y-99630408D01*
X250101336Y-99635630D01*
X250101337Y-99635634D01*
X250159694Y-99853430D01*
X250159697Y-99853438D01*
X250161097Y-99858663D01*
X250163385Y-99863570D01*
X250163386Y-99863572D01*
X250258678Y-100067927D01*
X250258681Y-100067933D01*
X250260965Y-100072830D01*
X250264064Y-100077257D01*
X250264066Y-100077259D01*
X250393399Y-100261966D01*
X250393402Y-100261970D01*
X250396505Y-100266401D01*
X250563599Y-100433495D01*
X250568032Y-100436599D01*
X250568038Y-100436604D01*
X250749158Y-100563425D01*
X250788024Y-100607743D01*
X250802035Y-100665000D01*
X250788024Y-100722257D01*
X250749159Y-100766575D01*
X250588902Y-100878788D01*
X250563599Y-100896505D01*
X250559775Y-100900328D01*
X250559769Y-100900334D01*
X250400334Y-101059769D01*
X250400328Y-101059775D01*
X250396505Y-101063599D01*
X250393402Y-101068029D01*
X250393399Y-101068034D01*
X250264073Y-101252731D01*
X250264068Y-101252738D01*
X250260965Y-101257171D01*
X250258677Y-101262077D01*
X250258675Y-101262081D01*
X250163386Y-101466427D01*
X250163383Y-101466432D01*
X250161097Y-101471337D01*
X250159698Y-101476557D01*
X250159694Y-101476569D01*
X250101337Y-101694365D01*
X250101335Y-101694371D01*
X250099937Y-101699592D01*
X250099465Y-101704977D01*
X250099465Y-101704982D01*
X250095040Y-101755564D01*
X250079341Y-101935000D01*
X250079813Y-101940395D01*
X250098624Y-102155408D01*
X250099937Y-102170408D01*
X250101336Y-102175630D01*
X250101337Y-102175634D01*
X250159694Y-102393430D01*
X250159697Y-102393438D01*
X250161097Y-102398663D01*
X250163385Y-102403570D01*
X250163386Y-102403572D01*
X250258678Y-102607927D01*
X250258681Y-102607933D01*
X250260965Y-102612830D01*
X250264064Y-102617257D01*
X250264066Y-102617259D01*
X250393399Y-102801966D01*
X250393402Y-102801970D01*
X250396505Y-102806401D01*
X250563599Y-102973495D01*
X250568032Y-102976599D01*
X250568038Y-102976604D01*
X250749158Y-103103425D01*
X250788024Y-103147743D01*
X250802035Y-103205000D01*
X250788024Y-103262257D01*
X250749159Y-103306575D01*
X250568041Y-103433395D01*
X250563599Y-103436505D01*
X250559775Y-103440328D01*
X250559769Y-103440334D01*
X250400334Y-103599769D01*
X250400328Y-103599775D01*
X250396505Y-103603599D01*
X250393402Y-103608029D01*
X250393399Y-103608034D01*
X250264073Y-103792731D01*
X250264068Y-103792738D01*
X250260965Y-103797171D01*
X250258677Y-103802077D01*
X250258675Y-103802081D01*
X250163386Y-104006427D01*
X250163383Y-104006432D01*
X250161097Y-104011337D01*
X250159698Y-104016557D01*
X250159694Y-104016569D01*
X250101337Y-104234365D01*
X250101335Y-104234371D01*
X250099937Y-104239592D01*
X250099465Y-104244977D01*
X250099465Y-104244982D01*
X250097470Y-104267784D01*
X250079341Y-104475000D01*
X250079813Y-104480395D01*
X250098624Y-104695408D01*
X250099937Y-104710408D01*
X250101336Y-104715630D01*
X250101337Y-104715634D01*
X250159694Y-104933430D01*
X250159697Y-104933438D01*
X250161097Y-104938663D01*
X250163385Y-104943570D01*
X250163386Y-104943572D01*
X250258678Y-105147927D01*
X250258681Y-105147933D01*
X250260965Y-105152830D01*
X250264064Y-105157257D01*
X250264066Y-105157259D01*
X250393399Y-105341966D01*
X250393402Y-105341970D01*
X250396505Y-105346401D01*
X250563599Y-105513495D01*
X250568032Y-105516599D01*
X250568038Y-105516604D01*
X250749158Y-105643425D01*
X250788024Y-105687743D01*
X250802035Y-105745000D01*
X250788024Y-105802257D01*
X250749159Y-105846575D01*
X250568041Y-105973395D01*
X250563599Y-105976505D01*
X250559775Y-105980328D01*
X250559769Y-105980334D01*
X250400334Y-106139769D01*
X250400328Y-106139775D01*
X250396505Y-106143599D01*
X250393402Y-106148029D01*
X250393399Y-106148034D01*
X250264073Y-106332731D01*
X250264068Y-106332738D01*
X250260965Y-106337171D01*
X250258677Y-106342077D01*
X250258675Y-106342081D01*
X250163386Y-106546427D01*
X250163383Y-106546432D01*
X250161097Y-106551337D01*
X250159698Y-106556557D01*
X250159694Y-106556569D01*
X250101337Y-106774365D01*
X250101335Y-106774371D01*
X250099937Y-106779592D01*
X250099465Y-106784977D01*
X250099465Y-106784982D01*
X250091006Y-106881672D01*
X250079341Y-107015000D01*
X250079813Y-107020395D01*
X250098624Y-107235408D01*
X250099937Y-107250408D01*
X250101336Y-107255630D01*
X250101337Y-107255634D01*
X250159694Y-107473430D01*
X250159697Y-107473438D01*
X250161097Y-107478663D01*
X250163385Y-107483570D01*
X250163386Y-107483572D01*
X250258678Y-107687927D01*
X250258681Y-107687933D01*
X250260965Y-107692830D01*
X250264064Y-107697257D01*
X250264066Y-107697259D01*
X250393399Y-107881966D01*
X250393402Y-107881970D01*
X250396505Y-107886401D01*
X250563599Y-108053495D01*
X250568032Y-108056599D01*
X250568038Y-108056604D01*
X250749158Y-108183425D01*
X250788024Y-108227743D01*
X250802035Y-108285000D01*
X250788024Y-108342257D01*
X250749160Y-108386574D01*
X250563599Y-108516505D01*
X250559775Y-108520328D01*
X250559769Y-108520334D01*
X250400334Y-108679769D01*
X250400328Y-108679775D01*
X250396505Y-108683599D01*
X250393402Y-108688029D01*
X250393399Y-108688034D01*
X250264073Y-108872731D01*
X250264068Y-108872738D01*
X250260965Y-108877171D01*
X250258677Y-108882077D01*
X250258675Y-108882081D01*
X250163386Y-109086427D01*
X250163383Y-109086432D01*
X250161097Y-109091337D01*
X250159698Y-109096557D01*
X250159694Y-109096569D01*
X250101337Y-109314365D01*
X250101335Y-109314371D01*
X250099937Y-109319592D01*
X250099465Y-109324977D01*
X250099465Y-109324982D01*
X250090781Y-109424241D01*
X250079341Y-109555000D01*
X250079813Y-109560395D01*
X250098624Y-109775408D01*
X250099937Y-109790408D01*
X250101336Y-109795630D01*
X250101337Y-109795634D01*
X250159694Y-110013430D01*
X250159697Y-110013438D01*
X250161097Y-110018663D01*
X250163385Y-110023570D01*
X250163386Y-110023572D01*
X250258678Y-110227927D01*
X250258681Y-110227933D01*
X250260965Y-110232830D01*
X250264064Y-110237257D01*
X250264066Y-110237259D01*
X250393399Y-110421966D01*
X250393402Y-110421970D01*
X250396505Y-110426401D01*
X250563599Y-110593495D01*
X250568032Y-110596599D01*
X250568038Y-110596604D01*
X250749158Y-110723425D01*
X250788024Y-110767743D01*
X250802035Y-110825000D01*
X250788024Y-110882257D01*
X250749159Y-110926575D01*
X250568041Y-111053395D01*
X250563599Y-111056505D01*
X250559775Y-111060328D01*
X250559769Y-111060334D01*
X250400334Y-111219769D01*
X250400328Y-111219775D01*
X250396505Y-111223599D01*
X250393402Y-111228029D01*
X250393399Y-111228034D01*
X250264073Y-111412731D01*
X250264068Y-111412738D01*
X250260965Y-111417171D01*
X250258677Y-111422077D01*
X250258675Y-111422081D01*
X250163386Y-111626427D01*
X250163383Y-111626432D01*
X250161097Y-111631337D01*
X250159698Y-111636557D01*
X250159694Y-111636569D01*
X250101337Y-111854365D01*
X250101335Y-111854371D01*
X250099937Y-111859592D01*
X250079341Y-112095000D01*
X250079813Y-112100395D01*
X250098624Y-112315408D01*
X250099937Y-112330408D01*
X250101336Y-112335630D01*
X250101337Y-112335634D01*
X250159694Y-112553430D01*
X250159697Y-112553438D01*
X250161097Y-112558663D01*
X250163385Y-112563570D01*
X250163386Y-112563572D01*
X250258678Y-112767927D01*
X250258681Y-112767933D01*
X250260965Y-112772830D01*
X250264064Y-112777257D01*
X250264066Y-112777259D01*
X250393399Y-112961966D01*
X250393402Y-112961970D01*
X250396505Y-112966401D01*
X250563599Y-113133495D01*
X250568032Y-113136599D01*
X250568038Y-113136604D01*
X250749158Y-113263425D01*
X250788024Y-113307743D01*
X250802035Y-113365000D01*
X250788024Y-113422257D01*
X250749159Y-113466575D01*
X250568041Y-113593395D01*
X250563599Y-113596505D01*
X250559775Y-113600328D01*
X250559769Y-113600334D01*
X250400334Y-113759769D01*
X250400328Y-113759775D01*
X250396505Y-113763599D01*
X250393402Y-113768029D01*
X250393399Y-113768034D01*
X250264073Y-113952731D01*
X250264068Y-113952738D01*
X250260965Y-113957171D01*
X250258677Y-113962077D01*
X250258675Y-113962081D01*
X250163386Y-114166427D01*
X250163383Y-114166432D01*
X250161097Y-114171337D01*
X250159698Y-114176557D01*
X250159694Y-114176569D01*
X250101337Y-114394365D01*
X250101335Y-114394371D01*
X250099937Y-114399592D01*
X250079341Y-114635000D01*
X250079813Y-114640395D01*
X250098624Y-114855408D01*
X250099937Y-114870408D01*
X250101336Y-114875630D01*
X250101337Y-114875634D01*
X250159694Y-115093430D01*
X250159697Y-115093438D01*
X250161097Y-115098663D01*
X250163385Y-115103570D01*
X250163386Y-115103572D01*
X250258678Y-115307927D01*
X250258681Y-115307933D01*
X250260965Y-115312830D01*
X250264064Y-115317257D01*
X250264066Y-115317259D01*
X250393399Y-115501966D01*
X250393402Y-115501970D01*
X250396505Y-115506401D01*
X250563599Y-115673495D01*
X250568032Y-115676599D01*
X250568038Y-115676604D01*
X250749158Y-115803425D01*
X250788024Y-115847743D01*
X250802035Y-115905000D01*
X250788024Y-115962257D01*
X250749160Y-116006574D01*
X250563599Y-116136505D01*
X250559775Y-116140328D01*
X250559769Y-116140334D01*
X250400334Y-116299769D01*
X250400328Y-116299775D01*
X250396505Y-116303599D01*
X250393402Y-116308029D01*
X250393399Y-116308034D01*
X250264073Y-116492731D01*
X250264068Y-116492738D01*
X250260965Y-116497171D01*
X250258677Y-116502077D01*
X250258675Y-116502081D01*
X250163386Y-116706427D01*
X250163383Y-116706432D01*
X250161097Y-116711337D01*
X250159698Y-116716557D01*
X250159694Y-116716569D01*
X250101337Y-116934365D01*
X250101335Y-116934371D01*
X250099937Y-116939592D01*
X250079341Y-117175000D01*
X250079813Y-117180395D01*
X250098624Y-117395408D01*
X250099937Y-117410408D01*
X250101336Y-117415630D01*
X250101337Y-117415634D01*
X250159694Y-117633430D01*
X250159697Y-117633438D01*
X250161097Y-117638663D01*
X250163385Y-117643570D01*
X250163386Y-117643572D01*
X250258678Y-117847927D01*
X250258681Y-117847933D01*
X250260965Y-117852830D01*
X250264064Y-117857257D01*
X250264066Y-117857259D01*
X250393399Y-118041966D01*
X250393402Y-118041970D01*
X250396505Y-118046401D01*
X250563599Y-118213495D01*
X250568032Y-118216599D01*
X250568038Y-118216604D01*
X250749158Y-118343425D01*
X250788024Y-118387743D01*
X250802035Y-118445000D01*
X250788024Y-118502257D01*
X250749159Y-118546575D01*
X250568041Y-118673395D01*
X250563599Y-118676505D01*
X250559775Y-118680328D01*
X250559769Y-118680334D01*
X250400334Y-118839769D01*
X250400328Y-118839775D01*
X250396505Y-118843599D01*
X250393402Y-118848029D01*
X250393399Y-118848034D01*
X250264073Y-119032731D01*
X250264068Y-119032738D01*
X250260965Y-119037171D01*
X250258677Y-119042077D01*
X250258675Y-119042081D01*
X250163386Y-119246427D01*
X250163383Y-119246432D01*
X250161097Y-119251337D01*
X250159698Y-119256557D01*
X250159694Y-119256569D01*
X250101337Y-119474365D01*
X250101335Y-119474371D01*
X250099937Y-119479592D01*
X250079341Y-119715000D01*
X250079813Y-119720395D01*
X250098624Y-119935408D01*
X250099937Y-119950408D01*
X250101336Y-119955630D01*
X250101337Y-119955634D01*
X250159694Y-120173430D01*
X250159697Y-120173438D01*
X250161097Y-120178663D01*
X250163385Y-120183570D01*
X250163386Y-120183572D01*
X250258678Y-120387927D01*
X250258681Y-120387933D01*
X250260965Y-120392830D01*
X250264064Y-120397257D01*
X250264066Y-120397259D01*
X250393399Y-120581966D01*
X250393402Y-120581970D01*
X250396505Y-120586401D01*
X250563599Y-120753495D01*
X250568032Y-120756599D01*
X250568038Y-120756604D01*
X250749158Y-120883425D01*
X250788024Y-120927743D01*
X250802035Y-120985000D01*
X250788024Y-121042257D01*
X250749159Y-121086575D01*
X250568041Y-121213395D01*
X250563599Y-121216505D01*
X250559775Y-121220328D01*
X250559769Y-121220334D01*
X250400334Y-121379769D01*
X250400328Y-121379775D01*
X250396505Y-121383599D01*
X250393402Y-121388029D01*
X250393399Y-121388034D01*
X250264073Y-121572731D01*
X250264068Y-121572738D01*
X250260965Y-121577171D01*
X250258677Y-121582077D01*
X250258675Y-121582081D01*
X250163386Y-121786427D01*
X250163383Y-121786432D01*
X250161097Y-121791337D01*
X250159698Y-121796557D01*
X250159694Y-121796569D01*
X250101337Y-122014365D01*
X250101335Y-122014371D01*
X250099937Y-122019592D01*
X250079341Y-122255000D01*
X250079813Y-122260395D01*
X250098624Y-122475408D01*
X250099937Y-122490408D01*
X250101336Y-122495630D01*
X250101337Y-122495634D01*
X250159694Y-122713430D01*
X250159697Y-122713438D01*
X250161097Y-122718663D01*
X250163385Y-122723570D01*
X250163386Y-122723572D01*
X250258678Y-122927927D01*
X250258681Y-122927933D01*
X250260965Y-122932830D01*
X250264064Y-122937257D01*
X250264066Y-122937259D01*
X250393399Y-123121966D01*
X250393402Y-123121970D01*
X250396505Y-123126401D01*
X250563599Y-123293495D01*
X250568032Y-123296599D01*
X250568038Y-123296604D01*
X250749158Y-123423425D01*
X250788024Y-123467743D01*
X250802035Y-123525000D01*
X250788024Y-123582257D01*
X250749159Y-123626575D01*
X250568041Y-123753395D01*
X250563599Y-123756505D01*
X250559775Y-123760328D01*
X250559769Y-123760334D01*
X250400334Y-123919769D01*
X250400328Y-123919775D01*
X250396505Y-123923599D01*
X250393402Y-123928029D01*
X250393399Y-123928034D01*
X250264073Y-124112731D01*
X250264068Y-124112738D01*
X250260965Y-124117171D01*
X250258677Y-124122077D01*
X250258675Y-124122081D01*
X250163386Y-124326427D01*
X250163383Y-124326432D01*
X250161097Y-124331337D01*
X250159698Y-124336557D01*
X250159694Y-124336569D01*
X250101337Y-124554365D01*
X250101335Y-124554371D01*
X250099937Y-124559592D01*
X250099465Y-124564977D01*
X250099465Y-124564982D01*
X250090867Y-124663256D01*
X250079341Y-124795000D01*
X250079813Y-124800395D01*
X250098624Y-125015408D01*
X250099937Y-125030408D01*
X250101336Y-125035630D01*
X250101337Y-125035634D01*
X250159694Y-125253430D01*
X250159697Y-125253438D01*
X250161097Y-125258663D01*
X250163385Y-125263570D01*
X250163386Y-125263572D01*
X250258678Y-125467927D01*
X250258681Y-125467933D01*
X250260965Y-125472830D01*
X250264064Y-125477257D01*
X250264066Y-125477259D01*
X250393399Y-125661966D01*
X250393402Y-125661970D01*
X250396505Y-125666401D01*
X250563599Y-125833495D01*
X250568032Y-125836599D01*
X250568038Y-125836604D01*
X250749158Y-125963425D01*
X250788024Y-126007743D01*
X250802035Y-126065000D01*
X250788024Y-126122257D01*
X250749159Y-126166575D01*
X250568041Y-126293395D01*
X250563599Y-126296505D01*
X250559775Y-126300328D01*
X250559769Y-126300334D01*
X250400334Y-126459769D01*
X250400328Y-126459775D01*
X250396505Y-126463599D01*
X250393402Y-126468029D01*
X250393399Y-126468034D01*
X250264073Y-126652731D01*
X250264068Y-126652738D01*
X250260965Y-126657171D01*
X250258677Y-126662077D01*
X250258675Y-126662081D01*
X250163386Y-126866427D01*
X250163383Y-126866432D01*
X250161097Y-126871337D01*
X250159698Y-126876557D01*
X250159694Y-126876569D01*
X250101337Y-127094365D01*
X250101335Y-127094371D01*
X250099937Y-127099592D01*
X250079341Y-127335000D01*
X250079813Y-127340395D01*
X250098624Y-127555408D01*
X250099937Y-127570408D01*
X250101336Y-127575630D01*
X250101337Y-127575634D01*
X250159694Y-127793430D01*
X250159697Y-127793438D01*
X250161097Y-127798663D01*
X250163385Y-127803570D01*
X250163386Y-127803572D01*
X250258678Y-128007927D01*
X250258681Y-128007933D01*
X250260965Y-128012830D01*
X250264064Y-128017257D01*
X250264066Y-128017259D01*
X250393399Y-128201966D01*
X250393402Y-128201970D01*
X250396505Y-128206401D01*
X250563599Y-128373495D01*
X250568032Y-128376599D01*
X250568038Y-128376604D01*
X250749158Y-128503425D01*
X250788024Y-128547743D01*
X250802035Y-128605000D01*
X250788024Y-128662257D01*
X250749159Y-128706575D01*
X250568041Y-128833395D01*
X250563599Y-128836505D01*
X250559775Y-128840328D01*
X250559769Y-128840334D01*
X250400334Y-128999769D01*
X250400328Y-128999775D01*
X250396505Y-129003599D01*
X250393402Y-129008029D01*
X250393399Y-129008034D01*
X250264073Y-129192731D01*
X250264068Y-129192738D01*
X250260965Y-129197171D01*
X250258677Y-129202077D01*
X250258675Y-129202081D01*
X250163386Y-129406427D01*
X250163383Y-129406432D01*
X250161097Y-129411337D01*
X250159698Y-129416557D01*
X250159694Y-129416569D01*
X250101337Y-129634365D01*
X250101335Y-129634371D01*
X250099937Y-129639592D01*
X250099465Y-129644977D01*
X250099465Y-129644982D01*
X250086902Y-129788583D01*
X250079341Y-129875000D01*
X250079813Y-129880395D01*
X250098624Y-130095408D01*
X250099937Y-130110408D01*
X250101336Y-130115630D01*
X250101337Y-130115634D01*
X250159694Y-130333430D01*
X250159697Y-130333438D01*
X250161097Y-130338663D01*
X250163385Y-130343570D01*
X250163386Y-130343572D01*
X250258678Y-130547927D01*
X250258681Y-130547933D01*
X250260965Y-130552830D01*
X250264064Y-130557257D01*
X250264066Y-130557259D01*
X250393399Y-130741966D01*
X250393402Y-130741970D01*
X250396505Y-130746401D01*
X250563599Y-130913495D01*
X250568032Y-130916599D01*
X250568038Y-130916604D01*
X250749158Y-131043425D01*
X250788024Y-131087743D01*
X250802035Y-131145000D01*
X250788024Y-131202257D01*
X250749159Y-131246575D01*
X250568041Y-131373395D01*
X250563599Y-131376505D01*
X250559775Y-131380328D01*
X250559769Y-131380334D01*
X250400334Y-131539769D01*
X250400328Y-131539775D01*
X250396505Y-131543599D01*
X250393402Y-131548029D01*
X250393399Y-131548034D01*
X250264073Y-131732731D01*
X250264068Y-131732738D01*
X250260965Y-131737171D01*
X250258677Y-131742077D01*
X250258675Y-131742081D01*
X250163386Y-131946427D01*
X250163383Y-131946432D01*
X250161097Y-131951337D01*
X250159698Y-131956557D01*
X250159694Y-131956569D01*
X250101337Y-132174365D01*
X250101335Y-132174371D01*
X250099937Y-132179592D01*
X250079341Y-132415000D01*
X205444347Y-132415000D01*
X205445659Y-132400000D01*
X205425063Y-132164592D01*
X205366607Y-131946427D01*
X205365305Y-131941569D01*
X205365304Y-131941567D01*
X205363903Y-131936337D01*
X205264035Y-131722171D01*
X205128495Y-131528599D01*
X204961401Y-131361505D01*
X204956968Y-131358401D01*
X204956961Y-131358395D01*
X204775842Y-131231575D01*
X204736976Y-131187257D01*
X204722965Y-131130000D01*
X204736976Y-131072743D01*
X204775842Y-131028425D01*
X204956961Y-130901604D01*
X204956961Y-130901603D01*
X204961401Y-130898495D01*
X205128495Y-130731401D01*
X205264035Y-130537830D01*
X205363903Y-130323663D01*
X205425063Y-130095408D01*
X205445659Y-129860000D01*
X205425063Y-129624592D01*
X205366607Y-129406427D01*
X205365305Y-129401569D01*
X205365304Y-129401567D01*
X205363903Y-129396337D01*
X205264035Y-129182171D01*
X205128495Y-128988599D01*
X204961401Y-128821505D01*
X204956968Y-128818401D01*
X204956961Y-128818395D01*
X204775842Y-128691575D01*
X204736976Y-128647257D01*
X204722965Y-128590000D01*
X204736976Y-128532743D01*
X204775842Y-128488425D01*
X204956961Y-128361604D01*
X204956961Y-128361603D01*
X204961401Y-128358495D01*
X205128495Y-128191401D01*
X205264035Y-127997830D01*
X205363903Y-127783663D01*
X205425063Y-127555408D01*
X205445659Y-127320000D01*
X205425063Y-127084592D01*
X205366607Y-126866427D01*
X205365305Y-126861569D01*
X205365304Y-126861567D01*
X205363903Y-126856337D01*
X205264035Y-126642171D01*
X205128495Y-126448599D01*
X204961401Y-126281505D01*
X204956968Y-126278401D01*
X204956961Y-126278395D01*
X204775842Y-126151575D01*
X204736976Y-126107257D01*
X204722965Y-126050000D01*
X204736976Y-125992743D01*
X204775842Y-125948425D01*
X204956961Y-125821604D01*
X204956961Y-125821603D01*
X204961401Y-125818495D01*
X205128495Y-125651401D01*
X205264035Y-125457830D01*
X205363903Y-125243663D01*
X205425063Y-125015408D01*
X205445659Y-124780000D01*
X205425063Y-124544592D01*
X205366607Y-124326427D01*
X205365305Y-124321569D01*
X205365304Y-124321567D01*
X205363903Y-124316337D01*
X205264035Y-124102171D01*
X205128495Y-123908599D01*
X204961401Y-123741505D01*
X204956968Y-123738401D01*
X204956961Y-123738395D01*
X204775842Y-123611575D01*
X204736976Y-123567257D01*
X204722965Y-123510000D01*
X204736976Y-123452743D01*
X204775842Y-123408425D01*
X204956961Y-123281604D01*
X204956961Y-123281603D01*
X204961401Y-123278495D01*
X205128495Y-123111401D01*
X205264035Y-122917830D01*
X205363903Y-122703663D01*
X205425063Y-122475408D01*
X205445659Y-122240000D01*
X205425063Y-122004592D01*
X205366607Y-121786427D01*
X205365305Y-121781569D01*
X205365304Y-121781567D01*
X205363903Y-121776337D01*
X205264035Y-121562171D01*
X205128495Y-121368599D01*
X204961401Y-121201505D01*
X204956968Y-121198401D01*
X204956961Y-121198395D01*
X204775842Y-121071575D01*
X204736976Y-121027257D01*
X204722965Y-120970000D01*
X204736976Y-120912743D01*
X204775842Y-120868425D01*
X204956961Y-120741604D01*
X204956961Y-120741603D01*
X204961401Y-120738495D01*
X205128495Y-120571401D01*
X205264035Y-120377830D01*
X205363903Y-120163663D01*
X205425063Y-119935408D01*
X205445659Y-119700000D01*
X205425063Y-119464592D01*
X205366607Y-119246427D01*
X205365305Y-119241569D01*
X205365304Y-119241567D01*
X205363903Y-119236337D01*
X205264035Y-119022171D01*
X205128495Y-118828599D01*
X204961401Y-118661505D01*
X204956970Y-118658402D01*
X204956966Y-118658399D01*
X204775841Y-118531574D01*
X204736976Y-118487256D01*
X204722965Y-118429999D01*
X204736976Y-118372742D01*
X204775839Y-118328426D01*
X204961401Y-118198495D01*
X205128495Y-118031401D01*
X205264035Y-117837830D01*
X205363903Y-117623663D01*
X205425063Y-117395408D01*
X205445659Y-117160000D01*
X205425063Y-116924592D01*
X205366607Y-116706427D01*
X205365305Y-116701569D01*
X205365304Y-116701567D01*
X205363903Y-116696337D01*
X205264035Y-116482171D01*
X205128495Y-116288599D01*
X204961401Y-116121505D01*
X204956968Y-116118401D01*
X204956961Y-116118395D01*
X204775842Y-115991575D01*
X204736976Y-115947257D01*
X204722965Y-115890000D01*
X204736976Y-115832743D01*
X204775842Y-115788425D01*
X204956961Y-115661604D01*
X204956961Y-115661603D01*
X204961401Y-115658495D01*
X205128495Y-115491401D01*
X205264035Y-115297830D01*
X205363903Y-115083663D01*
X205425063Y-114855408D01*
X205445659Y-114620000D01*
X205425063Y-114384592D01*
X205366607Y-114166427D01*
X205365305Y-114161569D01*
X205365304Y-114161567D01*
X205363903Y-114156337D01*
X205264035Y-113942171D01*
X205128495Y-113748599D01*
X204961401Y-113581505D01*
X204956968Y-113578401D01*
X204956961Y-113578395D01*
X204775842Y-113451575D01*
X204736976Y-113407257D01*
X204722965Y-113350000D01*
X204736976Y-113292743D01*
X204775842Y-113248425D01*
X204956961Y-113121604D01*
X204956961Y-113121603D01*
X204961401Y-113118495D01*
X205128495Y-112951401D01*
X205264035Y-112757830D01*
X205363903Y-112543663D01*
X205425063Y-112315408D01*
X205445659Y-112080000D01*
X205425063Y-111844592D01*
X205366607Y-111626427D01*
X205365305Y-111621569D01*
X205365304Y-111621567D01*
X205363903Y-111616337D01*
X205264035Y-111402171D01*
X205128495Y-111208599D01*
X204961401Y-111041505D01*
X204956970Y-111038402D01*
X204956966Y-111038399D01*
X204775841Y-110911574D01*
X204736976Y-110867256D01*
X204722965Y-110809999D01*
X204736976Y-110752742D01*
X204739381Y-110750000D01*
X216519540Y-110750000D01*
X216520219Y-110756460D01*
X216538646Y-110931795D01*
X216538647Y-110931803D01*
X216539326Y-110938256D01*
X216541331Y-110944428D01*
X216541333Y-110944435D01*
X216578992Y-111060336D01*
X216597821Y-111118284D01*
X216601068Y-111123908D01*
X216601069Y-111123910D01*
X216669899Y-111243128D01*
X216692467Y-111282216D01*
X216696811Y-111287041D01*
X216696813Y-111287043D01*
X216813981Y-111417171D01*
X216819129Y-111422888D01*
X216972270Y-111534151D01*
X217145197Y-111611144D01*
X217330354Y-111650500D01*
X217513143Y-111650500D01*
X217519646Y-111650500D01*
X217704803Y-111611144D01*
X217877730Y-111534151D01*
X218030871Y-111422888D01*
X218157533Y-111282216D01*
X218252179Y-111118284D01*
X218310674Y-110938256D01*
X218330460Y-110750000D01*
X218330092Y-110746508D01*
X218339220Y-110700624D01*
X218366100Y-110660396D01*
X218603608Y-110422888D01*
X218842103Y-110184392D01*
X218854287Y-110173707D01*
X218879422Y-110154422D01*
X218975933Y-110028647D01*
X219036602Y-109882180D01*
X219052100Y-109764460D01*
X219052100Y-109764455D01*
X219052099Y-109764455D01*
X219056233Y-109733060D01*
X219057294Y-109725000D01*
X219053161Y-109693604D01*
X219052100Y-109677420D01*
X219052100Y-109374675D01*
X219060336Y-109330237D01*
X219083950Y-109291703D01*
X219110656Y-109262043D01*
X219182533Y-109182216D01*
X219277179Y-109018284D01*
X219335674Y-108838256D01*
X219355460Y-108650000D01*
X219335674Y-108461744D01*
X219277179Y-108281716D01*
X219182533Y-108117784D01*
X219137758Y-108068057D01*
X219060220Y-107981942D01*
X219060219Y-107981941D01*
X219055871Y-107977112D01*
X219050613Y-107973292D01*
X219050611Y-107973290D01*
X218907988Y-107869669D01*
X218907987Y-107869668D01*
X218902730Y-107865849D01*
X218896792Y-107863205D01*
X218735745Y-107791501D01*
X218735740Y-107791499D01*
X218729803Y-107788856D01*
X218723444Y-107787504D01*
X218723440Y-107787503D01*
X218551008Y-107750852D01*
X218551005Y-107750851D01*
X218544646Y-107749500D01*
X218355354Y-107749500D01*
X218348995Y-107750851D01*
X218348991Y-107750852D01*
X218176559Y-107787503D01*
X218176552Y-107787505D01*
X218170197Y-107788856D01*
X218164262Y-107791498D01*
X218164254Y-107791501D01*
X218003207Y-107863205D01*
X218003202Y-107863207D01*
X217997270Y-107865849D01*
X217992016Y-107869665D01*
X217992011Y-107869669D01*
X217849388Y-107973290D01*
X217849381Y-107973295D01*
X217844129Y-107977112D01*
X217839784Y-107981937D01*
X217839779Y-107981942D01*
X217721813Y-108112956D01*
X217721808Y-108112962D01*
X217717467Y-108117784D01*
X217714222Y-108123404D01*
X217714218Y-108123410D01*
X217626069Y-108276089D01*
X217626066Y-108276094D01*
X217622821Y-108281716D01*
X217620815Y-108287888D01*
X217620813Y-108287894D01*
X217566333Y-108455564D01*
X217566331Y-108455573D01*
X217564326Y-108461744D01*
X217563648Y-108468194D01*
X217563646Y-108468204D01*
X217556443Y-108536744D01*
X217544540Y-108650000D01*
X217545219Y-108656460D01*
X217563646Y-108831795D01*
X217563647Y-108831803D01*
X217564326Y-108838256D01*
X217566331Y-108844428D01*
X217566333Y-108844435D01*
X217607025Y-108969669D01*
X217622821Y-109018284D01*
X217626068Y-109023908D01*
X217626069Y-109023910D01*
X217686913Y-109129296D01*
X217717467Y-109182216D01*
X217784997Y-109257216D01*
X217816050Y-109291703D01*
X217839664Y-109330237D01*
X217847900Y-109374675D01*
X217847900Y-109424241D01*
X217838461Y-109471694D01*
X217811581Y-109511922D01*
X217510321Y-109813181D01*
X217470093Y-109840061D01*
X217422640Y-109849500D01*
X217330354Y-109849500D01*
X217323995Y-109850851D01*
X217323991Y-109850852D01*
X217151559Y-109887503D01*
X217151552Y-109887505D01*
X217145197Y-109888856D01*
X217139262Y-109891498D01*
X217139254Y-109891501D01*
X216978207Y-109963205D01*
X216978202Y-109963207D01*
X216972270Y-109965849D01*
X216967016Y-109969665D01*
X216967011Y-109969669D01*
X216824388Y-110073290D01*
X216824381Y-110073295D01*
X216819129Y-110077112D01*
X216814784Y-110081937D01*
X216814779Y-110081942D01*
X216696813Y-110212956D01*
X216696808Y-110212962D01*
X216692467Y-110217784D01*
X216689222Y-110223404D01*
X216689218Y-110223410D01*
X216601069Y-110376089D01*
X216601066Y-110376094D01*
X216597821Y-110381716D01*
X216595815Y-110387888D01*
X216595813Y-110387894D01*
X216541333Y-110555564D01*
X216541331Y-110555573D01*
X216539326Y-110561744D01*
X216538648Y-110568194D01*
X216538646Y-110568204D01*
X216523320Y-110714035D01*
X216519540Y-110750000D01*
X204739381Y-110750000D01*
X204775839Y-110708426D01*
X204961401Y-110578495D01*
X205128495Y-110411401D01*
X205264035Y-110217830D01*
X205363903Y-110003663D01*
X205425063Y-109775408D01*
X205445659Y-109540000D01*
X205425063Y-109304592D01*
X205366607Y-109086427D01*
X205365305Y-109081569D01*
X205365304Y-109081567D01*
X205363903Y-109076337D01*
X205264035Y-108862171D01*
X205128495Y-108668599D01*
X204961401Y-108501505D01*
X204956968Y-108498401D01*
X204956961Y-108498395D01*
X204775842Y-108371575D01*
X204736976Y-108327257D01*
X204722965Y-108270000D01*
X204736976Y-108212743D01*
X204775842Y-108168425D01*
X204956961Y-108041604D01*
X204956961Y-108041603D01*
X204961401Y-108038495D01*
X205128495Y-107871401D01*
X205264035Y-107677830D01*
X205363903Y-107463663D01*
X205425063Y-107235408D01*
X205445659Y-107000000D01*
X205425063Y-106764592D01*
X205366607Y-106546427D01*
X205365305Y-106541569D01*
X205365304Y-106541567D01*
X205363903Y-106536337D01*
X205295712Y-106390103D01*
X205284360Y-106329590D01*
X205303514Y-106271075D01*
X205348452Y-106228986D01*
X205408095Y-106213700D01*
X206165821Y-106213700D01*
X206182004Y-106214760D01*
X206213400Y-106218894D01*
X206252855Y-106213700D01*
X206252860Y-106213700D01*
X206370580Y-106198202D01*
X206517047Y-106137533D01*
X206581266Y-106088256D01*
X206611247Y-106065251D01*
X206611246Y-106065251D01*
X206611254Y-106065244D01*
X206642822Y-106041022D01*
X206662104Y-106015892D01*
X206672790Y-106003706D01*
X207877178Y-104799319D01*
X207917407Y-104772439D01*
X207964860Y-104763000D01*
X208050643Y-104763000D01*
X208057146Y-104763000D01*
X208224203Y-104727491D01*
X208292393Y-104732259D01*
X208347696Y-104772439D01*
X208373304Y-104835819D01*
X208376142Y-104862820D01*
X208389326Y-104988256D01*
X208391331Y-104994428D01*
X208391333Y-104994435D01*
X208445403Y-105160842D01*
X208447821Y-105168284D01*
X208451068Y-105173908D01*
X208451069Y-105173910D01*
X208522654Y-105297900D01*
X208542467Y-105332216D01*
X208546811Y-105337041D01*
X208546813Y-105337043D01*
X208646981Y-105448290D01*
X208669129Y-105472888D01*
X208822270Y-105584151D01*
X208995197Y-105661144D01*
X209180354Y-105700500D01*
X209363143Y-105700500D01*
X209369646Y-105700500D01*
X209554803Y-105661144D01*
X209727730Y-105584151D01*
X209880871Y-105472888D01*
X210007533Y-105332216D01*
X210102179Y-105168284D01*
X210160674Y-104988256D01*
X210180460Y-104800000D01*
X210160674Y-104611744D01*
X210102179Y-104431716D01*
X210007533Y-104267784D01*
X209908949Y-104158296D01*
X209885336Y-104119763D01*
X209877100Y-104075325D01*
X209877100Y-103172579D01*
X209878161Y-103156395D01*
X209881233Y-103133060D01*
X209882294Y-103125000D01*
X209877100Y-103085545D01*
X209877100Y-103085540D01*
X209861602Y-102967820D01*
X209800933Y-102821353D01*
X209742659Y-102745409D01*
X209728651Y-102727153D01*
X209728648Y-102727150D01*
X209704422Y-102695578D01*
X209679295Y-102676297D01*
X209667101Y-102665603D01*
X207641099Y-100639601D01*
X207614217Y-100599369D01*
X207605093Y-100553487D01*
X207605460Y-100550000D01*
X207585674Y-100361744D01*
X207527179Y-100181716D01*
X207432533Y-100017784D01*
X207305871Y-99877112D01*
X207300613Y-99873292D01*
X207300611Y-99873290D01*
X207157988Y-99769669D01*
X207157987Y-99769668D01*
X207152730Y-99765849D01*
X207144321Y-99762105D01*
X206985745Y-99691501D01*
X206985740Y-99691499D01*
X206979803Y-99688856D01*
X206973444Y-99687504D01*
X206973440Y-99687503D01*
X206801008Y-99650852D01*
X206801005Y-99650851D01*
X206794646Y-99649500D01*
X206605354Y-99649500D01*
X206598995Y-99650851D01*
X206598991Y-99650852D01*
X206426559Y-99687503D01*
X206426552Y-99687505D01*
X206420197Y-99688856D01*
X206414262Y-99691498D01*
X206414254Y-99691501D01*
X206253207Y-99763205D01*
X206253202Y-99763207D01*
X206247270Y-99765849D01*
X206242016Y-99769665D01*
X206242011Y-99769669D01*
X206099388Y-99873290D01*
X206099381Y-99873295D01*
X206094129Y-99877112D01*
X206089784Y-99881937D01*
X206089779Y-99881942D01*
X205971813Y-100012956D01*
X205971808Y-100012962D01*
X205967467Y-100017784D01*
X205964222Y-100023404D01*
X205964218Y-100023410D01*
X205876069Y-100176089D01*
X205876066Y-100176094D01*
X205872821Y-100181716D01*
X205870815Y-100187888D01*
X205870813Y-100187894D01*
X205816333Y-100355564D01*
X205816331Y-100355573D01*
X205814326Y-100361744D01*
X205813648Y-100368194D01*
X205813646Y-100368204D01*
X205800304Y-100495160D01*
X205794540Y-100550000D01*
X205795219Y-100556460D01*
X205813646Y-100731795D01*
X205813647Y-100731803D01*
X205814326Y-100738256D01*
X205816331Y-100744428D01*
X205816333Y-100744435D01*
X205870813Y-100912105D01*
X205872821Y-100918284D01*
X205876068Y-100923908D01*
X205876069Y-100923910D01*
X205941913Y-101037956D01*
X205967467Y-101082216D01*
X205971811Y-101087041D01*
X205971813Y-101087043D01*
X206085130Y-101212894D01*
X206094129Y-101222888D01*
X206099387Y-101226708D01*
X206099388Y-101226709D01*
X206141316Y-101257171D01*
X206247270Y-101334151D01*
X206420197Y-101411144D01*
X206605354Y-101450500D01*
X206697640Y-101450500D01*
X206745093Y-101459939D01*
X206785321Y-101486819D01*
X208048821Y-102750319D01*
X208079071Y-102799682D01*
X208083613Y-102857398D01*
X208061458Y-102910885D01*
X208017435Y-102948485D01*
X207961140Y-102962000D01*
X207867854Y-102962000D01*
X207861495Y-102963351D01*
X207861491Y-102963352D01*
X207689059Y-103000003D01*
X207689052Y-103000005D01*
X207682697Y-103001356D01*
X207676762Y-103003998D01*
X207676754Y-103004001D01*
X207515707Y-103075705D01*
X207515702Y-103075707D01*
X207509770Y-103078349D01*
X207504516Y-103082165D01*
X207504511Y-103082169D01*
X207361888Y-103185790D01*
X207361881Y-103185795D01*
X207356629Y-103189612D01*
X207352284Y-103194437D01*
X207352279Y-103194442D01*
X207234313Y-103325456D01*
X207234308Y-103325462D01*
X207229967Y-103330284D01*
X207226722Y-103335904D01*
X207226718Y-103335910D01*
X207138569Y-103488589D01*
X207138566Y-103488594D01*
X207135321Y-103494216D01*
X207133315Y-103500388D01*
X207133313Y-103500394D01*
X207078833Y-103668064D01*
X207078831Y-103668073D01*
X207076826Y-103674244D01*
X207076148Y-103680694D01*
X207076146Y-103680704D01*
X207063992Y-103796351D01*
X207057040Y-103862500D01*
X207057406Y-103865989D01*
X207048280Y-103911873D01*
X207021400Y-103952101D01*
X206000321Y-104973181D01*
X205960093Y-105000061D01*
X205912640Y-105009500D01*
X205502503Y-105009500D01*
X205447659Y-104996712D01*
X205404127Y-104960987D01*
X205380886Y-104909692D01*
X205382728Y-104853407D01*
X205406952Y-104763000D01*
X205425063Y-104695408D01*
X205445659Y-104460000D01*
X205425063Y-104224592D01*
X205366607Y-104006427D01*
X205365305Y-104001569D01*
X205365304Y-104001567D01*
X205363903Y-103996337D01*
X205264035Y-103782171D01*
X205128495Y-103588599D01*
X204961401Y-103421505D01*
X204956970Y-103418402D01*
X204956966Y-103418399D01*
X204775405Y-103291269D01*
X204736540Y-103246951D01*
X204722529Y-103189694D01*
X204736540Y-103132437D01*
X204775406Y-103088119D01*
X204956638Y-102961219D01*
X204964909Y-102954278D01*
X205124278Y-102794909D01*
X205131215Y-102786643D01*
X205260498Y-102602008D01*
X205265886Y-102592676D01*
X205361143Y-102388397D01*
X205364831Y-102378263D01*
X205416943Y-102183780D01*
X205417311Y-102172551D01*
X205406369Y-102170000D01*
X203964000Y-102170000D01*
X203902000Y-102153387D01*
X203856613Y-102108000D01*
X203840000Y-102046000D01*
X203840000Y-101794000D01*
X203856613Y-101732000D01*
X203902000Y-101686613D01*
X203964000Y-101670000D01*
X205406369Y-101670000D01*
X205417311Y-101667448D01*
X205416943Y-101656219D01*
X205364831Y-101461736D01*
X205361143Y-101451602D01*
X205265889Y-101247332D01*
X205260491Y-101237982D01*
X205131215Y-101053357D01*
X205124280Y-101045092D01*
X204964909Y-100885721D01*
X204956643Y-100878784D01*
X204775405Y-100751880D01*
X204736540Y-100707562D01*
X204722529Y-100650305D01*
X204736540Y-100593048D01*
X204775406Y-100548730D01*
X204782826Y-100543535D01*
X204939979Y-100433495D01*
X204956961Y-100421604D01*
X204956961Y-100421603D01*
X204961401Y-100418495D01*
X205128495Y-100251401D01*
X205264035Y-100057830D01*
X205363903Y-99843663D01*
X205425063Y-99615408D01*
X205445659Y-99380000D01*
X205425063Y-99144592D01*
X205382728Y-98986593D01*
X205380886Y-98930308D01*
X205404127Y-98879013D01*
X205447659Y-98843288D01*
X205502503Y-98830500D01*
X206674021Y-98830500D01*
X206690204Y-98831560D01*
X206721600Y-98835694D01*
X206761055Y-98830500D01*
X206761060Y-98830500D01*
X206878780Y-98815002D01*
X207025247Y-98754333D01*
X207025247Y-98754332D01*
X207119447Y-98682051D01*
X207119447Y-98682050D01*
X207119454Y-98682044D01*
X207151022Y-98657822D01*
X207170304Y-98632692D01*
X207180990Y-98620506D01*
X208564678Y-97236819D01*
X208604907Y-97209939D01*
X208652360Y-97200500D01*
X208738143Y-97200500D01*
X208744646Y-97200500D01*
X208929803Y-97161144D01*
X209102730Y-97084151D01*
X209255871Y-96972888D01*
X209305361Y-96917923D01*
X209363333Y-96881699D01*
X209431694Y-96881701D01*
X209484216Y-96914524D01*
X209484950Y-96913709D01*
X209489574Y-96917872D01*
X209489663Y-96917928D01*
X209494129Y-96922888D01*
X209647270Y-97034151D01*
X209820197Y-97111144D01*
X210005354Y-97150500D01*
X210188143Y-97150500D01*
X210194646Y-97150500D01*
X210379803Y-97111144D01*
X210552730Y-97034151D01*
X210705871Y-96922888D01*
X210832533Y-96782216D01*
X210927179Y-96618284D01*
X210985674Y-96438256D01*
X211005460Y-96250000D01*
X210985674Y-96061744D01*
X210927179Y-95881716D01*
X210832533Y-95717784D01*
X210804584Y-95686744D01*
X210710220Y-95581942D01*
X210710219Y-95581941D01*
X210705871Y-95577112D01*
X210700613Y-95573292D01*
X210700611Y-95573290D01*
X210557988Y-95469669D01*
X210557987Y-95469668D01*
X210552730Y-95465849D01*
X210546792Y-95463205D01*
X210385745Y-95391501D01*
X210385740Y-95391499D01*
X210379803Y-95388856D01*
X210373444Y-95387504D01*
X210373440Y-95387503D01*
X210201008Y-95350852D01*
X210201005Y-95350851D01*
X210194646Y-95349500D01*
X210188143Y-95349500D01*
X210102360Y-95349500D01*
X210054907Y-95340061D01*
X210014679Y-95313181D01*
X209760996Y-95059498D01*
X209750301Y-95047303D01*
X209735967Y-95028623D01*
X209731022Y-95022178D01*
X209724579Y-95017234D01*
X209724576Y-95017231D01*
X209705266Y-95002414D01*
X209699449Y-94997951D01*
X209699447Y-94997949D01*
X209605247Y-94925667D01*
X209597739Y-94922557D01*
X209466289Y-94868108D01*
X209466286Y-94868107D01*
X209458780Y-94864998D01*
X209450726Y-94863937D01*
X209450720Y-94863936D01*
X209341067Y-94849500D01*
X209341049Y-94849499D01*
X209309660Y-94845367D01*
X209301600Y-94844306D01*
X209293541Y-94845367D01*
X209293539Y-94845367D01*
X209270204Y-94848439D01*
X209254020Y-94849500D01*
X205502503Y-94849500D01*
X205447659Y-94836712D01*
X205404127Y-94800987D01*
X205380886Y-94749692D01*
X205382728Y-94693407D01*
X205395079Y-94647310D01*
X205425063Y-94535408D01*
X205445659Y-94300000D01*
X205425063Y-94064592D01*
X205382728Y-93906593D01*
X205380886Y-93850308D01*
X205404127Y-93799013D01*
X205447659Y-93763288D01*
X205502503Y-93750500D01*
X208998697Y-93750500D01*
X209060697Y-93767113D01*
X209106083Y-93812499D01*
X209117467Y-93832216D01*
X209121811Y-93837041D01*
X209121813Y-93837043D01*
X209228530Y-93955564D01*
X209244129Y-93972888D01*
X209397270Y-94084151D01*
X209570197Y-94161144D01*
X209755354Y-94200500D01*
X209938143Y-94200500D01*
X209944646Y-94200500D01*
X210129803Y-94161144D01*
X210302730Y-94084151D01*
X210418554Y-94000000D01*
X236269540Y-94000000D01*
X236270219Y-94006460D01*
X236288646Y-94181795D01*
X236288647Y-94181803D01*
X236289326Y-94188256D01*
X236291331Y-94194428D01*
X236291333Y-94194435D01*
X236345813Y-94362105D01*
X236347821Y-94368284D01*
X236351068Y-94373908D01*
X236351069Y-94373910D01*
X236435809Y-94520685D01*
X236442467Y-94532216D01*
X236446811Y-94537041D01*
X236446813Y-94537043D01*
X236541050Y-94641703D01*
X236564664Y-94680237D01*
X236572900Y-94724675D01*
X236572900Y-95027421D01*
X236571839Y-95043604D01*
X236567706Y-95075000D01*
X236572900Y-95114455D01*
X236572900Y-95114460D01*
X236584440Y-95202112D01*
X236588398Y-95232180D01*
X236649067Y-95378647D01*
X236654014Y-95385094D01*
X236721349Y-95472847D01*
X236719666Y-95474138D01*
X236719667Y-95474140D01*
X236721351Y-95472849D01*
X236745578Y-95504422D01*
X236752020Y-95509365D01*
X236770708Y-95523705D01*
X236782902Y-95534400D01*
X238258900Y-97010398D01*
X238285780Y-97050626D01*
X238294906Y-97096509D01*
X238294540Y-97100000D01*
X238295219Y-97106460D01*
X238313646Y-97281795D01*
X238313647Y-97281803D01*
X238314326Y-97288256D01*
X238316331Y-97294428D01*
X238316333Y-97294435D01*
X238356412Y-97417784D01*
X238372821Y-97468284D01*
X238376068Y-97473908D01*
X238376069Y-97473910D01*
X238461664Y-97622166D01*
X238467467Y-97632216D01*
X238471811Y-97637041D01*
X238471813Y-97637043D01*
X238575411Y-97752100D01*
X238594129Y-97772888D01*
X238747270Y-97884151D01*
X238920197Y-97961144D01*
X239105354Y-98000500D01*
X239288143Y-98000500D01*
X239294646Y-98000500D01*
X239479803Y-97961144D01*
X239652730Y-97884151D01*
X239805871Y-97772888D01*
X239932533Y-97632216D01*
X240027179Y-97468284D01*
X240085674Y-97288256D01*
X240105460Y-97100000D01*
X240085674Y-96911744D01*
X240027179Y-96731716D01*
X239932533Y-96567784D01*
X239887822Y-96518128D01*
X239810220Y-96431942D01*
X239810219Y-96431941D01*
X239805871Y-96427112D01*
X239800613Y-96423292D01*
X239800611Y-96423290D01*
X239657988Y-96319669D01*
X239657987Y-96319668D01*
X239652730Y-96315849D01*
X239646792Y-96313205D01*
X239485745Y-96241501D01*
X239485740Y-96241499D01*
X239479803Y-96238856D01*
X239473444Y-96237504D01*
X239473440Y-96237503D01*
X239301008Y-96200852D01*
X239301005Y-96200851D01*
X239294646Y-96199500D01*
X239288143Y-96199500D01*
X239202360Y-96199500D01*
X239154907Y-96190061D01*
X239114679Y-96163181D01*
X237813419Y-94861921D01*
X237786539Y-94821693D01*
X237777100Y-94774240D01*
X237777100Y-94724675D01*
X237785336Y-94680237D01*
X237808950Y-94641703D01*
X237813314Y-94636856D01*
X237907533Y-94532216D01*
X238002179Y-94368284D01*
X238060674Y-94188256D01*
X238080460Y-94000000D01*
X238060674Y-93811744D01*
X238002179Y-93631716D01*
X237907533Y-93467784D01*
X237780871Y-93327112D01*
X237775613Y-93323292D01*
X237775611Y-93323290D01*
X237632988Y-93219669D01*
X237632987Y-93219668D01*
X237627730Y-93215849D01*
X237621738Y-93213181D01*
X237460745Y-93141501D01*
X237460740Y-93141499D01*
X237454803Y-93138856D01*
X237448444Y-93137504D01*
X237448440Y-93137503D01*
X237276008Y-93100852D01*
X237276005Y-93100851D01*
X237269646Y-93099500D01*
X237080354Y-93099500D01*
X237073995Y-93100851D01*
X237073991Y-93100852D01*
X236901559Y-93137503D01*
X236901552Y-93137505D01*
X236895197Y-93138856D01*
X236889262Y-93141498D01*
X236889254Y-93141501D01*
X236728207Y-93213205D01*
X236728202Y-93213207D01*
X236722270Y-93215849D01*
X236717016Y-93219665D01*
X236717011Y-93219669D01*
X236574388Y-93323290D01*
X236574381Y-93323295D01*
X236569129Y-93327112D01*
X236564784Y-93331937D01*
X236564779Y-93331942D01*
X236446813Y-93462956D01*
X236446808Y-93462962D01*
X236442467Y-93467784D01*
X236439222Y-93473404D01*
X236439218Y-93473410D01*
X236351069Y-93626089D01*
X236351066Y-93626094D01*
X236347821Y-93631716D01*
X236345815Y-93637888D01*
X236345813Y-93637894D01*
X236291333Y-93805564D01*
X236291331Y-93805573D01*
X236289326Y-93811744D01*
X236288648Y-93818194D01*
X236288646Y-93818204D01*
X236271988Y-93976709D01*
X236269540Y-94000000D01*
X210418554Y-94000000D01*
X210455871Y-93972888D01*
X210582533Y-93832216D01*
X210677179Y-93668284D01*
X210735674Y-93488256D01*
X210755460Y-93300000D01*
X210735674Y-93111744D01*
X210677179Y-92931716D01*
X210582533Y-92767784D01*
X210534133Y-92714031D01*
X210460220Y-92631942D01*
X210460219Y-92631941D01*
X210455871Y-92627112D01*
X210450613Y-92623292D01*
X210450611Y-92623290D01*
X210307988Y-92519669D01*
X210307987Y-92519668D01*
X210302730Y-92515849D01*
X210296792Y-92513205D01*
X210135745Y-92441501D01*
X210135740Y-92441499D01*
X210129803Y-92438856D01*
X210123444Y-92437504D01*
X210123440Y-92437503D01*
X209951008Y-92400852D01*
X209951005Y-92400851D01*
X209944646Y-92399500D01*
X209755354Y-92399500D01*
X209748995Y-92400851D01*
X209748991Y-92400852D01*
X209576559Y-92437503D01*
X209576552Y-92437505D01*
X209570197Y-92438856D01*
X209564262Y-92441498D01*
X209564254Y-92441501D01*
X209403205Y-92513206D01*
X209403200Y-92513208D01*
X209397270Y-92515849D01*
X209392023Y-92519660D01*
X209392011Y-92519668D01*
X209387951Y-92522619D01*
X209353384Y-92540231D01*
X209315067Y-92546300D01*
X205408096Y-92546300D01*
X205348453Y-92531014D01*
X205303515Y-92488925D01*
X205284361Y-92430410D01*
X205295714Y-92369895D01*
X205312254Y-92334422D01*
X205363903Y-92223663D01*
X205425063Y-91995408D01*
X205445659Y-91760000D01*
X205425063Y-91524592D01*
X205366607Y-91306427D01*
X205365305Y-91301569D01*
X205365304Y-91301567D01*
X205363903Y-91296337D01*
X205264035Y-91082171D01*
X205128495Y-90888599D01*
X204961401Y-90721505D01*
X204956968Y-90718401D01*
X204956961Y-90718395D01*
X204775842Y-90591575D01*
X204739382Y-90550000D01*
X243644540Y-90550000D01*
X243645219Y-90556460D01*
X243663646Y-90731795D01*
X243663647Y-90731803D01*
X243664326Y-90738256D01*
X243666331Y-90744428D01*
X243666333Y-90744435D01*
X243720813Y-90912105D01*
X243722821Y-90918284D01*
X243817467Y-91082216D01*
X243821811Y-91087041D01*
X243821813Y-91087043D01*
X243857823Y-91127036D01*
X243944129Y-91222888D01*
X244097270Y-91334151D01*
X244270197Y-91411144D01*
X244455354Y-91450500D01*
X244638143Y-91450500D01*
X244644646Y-91450500D01*
X244829803Y-91411144D01*
X245002730Y-91334151D01*
X245155871Y-91222888D01*
X245182667Y-91193127D01*
X245224382Y-91162820D01*
X245274817Y-91152100D01*
X247475183Y-91152100D01*
X247525618Y-91162820D01*
X247567332Y-91193127D01*
X247594129Y-91222888D01*
X247747270Y-91334151D01*
X247920197Y-91411144D01*
X248105354Y-91450500D01*
X248288143Y-91450500D01*
X248294646Y-91450500D01*
X248479803Y-91411144D01*
X248652730Y-91334151D01*
X248805871Y-91222888D01*
X248932533Y-91082216D01*
X249027179Y-90918284D01*
X249085674Y-90738256D01*
X249105460Y-90550000D01*
X249085674Y-90361744D01*
X249027179Y-90181716D01*
X248932533Y-90017784D01*
X248805871Y-89877112D01*
X248800613Y-89873292D01*
X248800611Y-89873290D01*
X248657988Y-89769669D01*
X248657987Y-89769668D01*
X248652730Y-89765849D01*
X248646792Y-89763205D01*
X248485745Y-89691501D01*
X248485740Y-89691499D01*
X248479803Y-89688856D01*
X248473444Y-89687504D01*
X248473440Y-89687503D01*
X248301008Y-89650852D01*
X248301005Y-89650851D01*
X248294646Y-89649500D01*
X248105354Y-89649500D01*
X248098995Y-89650851D01*
X248098991Y-89650852D01*
X247926559Y-89687503D01*
X247926552Y-89687505D01*
X247920197Y-89688856D01*
X247914262Y-89691498D01*
X247914254Y-89691501D01*
X247753207Y-89763205D01*
X247753202Y-89763207D01*
X247747270Y-89765849D01*
X247742016Y-89769665D01*
X247742011Y-89769669D01*
X247599388Y-89873290D01*
X247599381Y-89873295D01*
X247594129Y-89877112D01*
X247589784Y-89881937D01*
X247589779Y-89881942D01*
X247567333Y-89906872D01*
X247525618Y-89937180D01*
X247475183Y-89947900D01*
X245274817Y-89947900D01*
X245224382Y-89937180D01*
X245182667Y-89906872D01*
X245178513Y-89902259D01*
X245155871Y-89877112D01*
X245150613Y-89873292D01*
X245150611Y-89873290D01*
X245007988Y-89769669D01*
X245007987Y-89769668D01*
X245002730Y-89765849D01*
X244996792Y-89763205D01*
X244835745Y-89691501D01*
X244835740Y-89691499D01*
X244829803Y-89688856D01*
X244823444Y-89687504D01*
X244823440Y-89687503D01*
X244651008Y-89650852D01*
X244651005Y-89650851D01*
X244644646Y-89649500D01*
X244455354Y-89649500D01*
X244448995Y-89650851D01*
X244448991Y-89650852D01*
X244276559Y-89687503D01*
X244276552Y-89687505D01*
X244270197Y-89688856D01*
X244264262Y-89691498D01*
X244264254Y-89691501D01*
X244103207Y-89763205D01*
X244103202Y-89763207D01*
X244097270Y-89765849D01*
X244092016Y-89769665D01*
X244092011Y-89769669D01*
X243949388Y-89873290D01*
X243949381Y-89873295D01*
X243944129Y-89877112D01*
X243939784Y-89881937D01*
X243939779Y-89881942D01*
X243821813Y-90012956D01*
X243821808Y-90012962D01*
X243817467Y-90017784D01*
X243814222Y-90023404D01*
X243814218Y-90023410D01*
X243726069Y-90176089D01*
X243726066Y-90176094D01*
X243722821Y-90181716D01*
X243720815Y-90187888D01*
X243720813Y-90187894D01*
X243666333Y-90355564D01*
X243666331Y-90355573D01*
X243664326Y-90361744D01*
X243663648Y-90368194D01*
X243663646Y-90368204D01*
X243645962Y-90536464D01*
X243644540Y-90550000D01*
X204739382Y-90550000D01*
X204736976Y-90547257D01*
X204722965Y-90490000D01*
X204736976Y-90432743D01*
X204775842Y-90388425D01*
X204956961Y-90261604D01*
X204956961Y-90261603D01*
X204961401Y-90258495D01*
X205128495Y-90091401D01*
X205264035Y-89897830D01*
X205363903Y-89683663D01*
X205425063Y-89455408D01*
X205445659Y-89220000D01*
X205425063Y-88984592D01*
X205366607Y-88766427D01*
X205365305Y-88761569D01*
X205365304Y-88761567D01*
X205363903Y-88756337D01*
X205264035Y-88542171D01*
X205128495Y-88348599D01*
X204961401Y-88181505D01*
X204956968Y-88178401D01*
X204956961Y-88178395D01*
X204775842Y-88051575D01*
X204736976Y-88007257D01*
X204722965Y-87950000D01*
X204736976Y-87892743D01*
X204775842Y-87848425D01*
X204956961Y-87721604D01*
X204956961Y-87721603D01*
X204961401Y-87718495D01*
X205128495Y-87551401D01*
X205264035Y-87357830D01*
X205363903Y-87143663D01*
X205425063Y-86915408D01*
X205445659Y-86680000D01*
X205425063Y-86444592D01*
X205366607Y-86226427D01*
X205365305Y-86221569D01*
X205365304Y-86221567D01*
X205363903Y-86216337D01*
X205264035Y-86002171D01*
X205128495Y-85808599D01*
X204961401Y-85641505D01*
X204956970Y-85638402D01*
X204956966Y-85638399D01*
X204775841Y-85511574D01*
X204736976Y-85467256D01*
X204722965Y-85409999D01*
X204736976Y-85352742D01*
X204775839Y-85308426D01*
X204961401Y-85178495D01*
X205128495Y-85011401D01*
X205264035Y-84817830D01*
X205363903Y-84603663D01*
X205425063Y-84375408D01*
X205445659Y-84140000D01*
X205425063Y-83904592D01*
X205366607Y-83686427D01*
X205365305Y-83681569D01*
X205365304Y-83681567D01*
X205363903Y-83676337D01*
X205264035Y-83462171D01*
X205128495Y-83268599D01*
X204961401Y-83101505D01*
X204956968Y-83098401D01*
X204956961Y-83098395D01*
X204775842Y-82971575D01*
X204736976Y-82927257D01*
X204722965Y-82870000D01*
X204736976Y-82812743D01*
X204775842Y-82768425D01*
X204956961Y-82641604D01*
X204956961Y-82641603D01*
X204961401Y-82638495D01*
X205128495Y-82471401D01*
X205264035Y-82277830D01*
X205363903Y-82063663D01*
X205425063Y-81835408D01*
X205445659Y-81600000D01*
X205425063Y-81364592D01*
X205366607Y-81146427D01*
X205365305Y-81141569D01*
X205365304Y-81141567D01*
X205363903Y-81136337D01*
X205264035Y-80922171D01*
X205128495Y-80728599D01*
X205099896Y-80700000D01*
X240293440Y-80700000D01*
X240294119Y-80706460D01*
X240312546Y-80881795D01*
X240312547Y-80881803D01*
X240313226Y-80888256D01*
X240315231Y-80894428D01*
X240315233Y-80894435D01*
X240343697Y-80982036D01*
X240371721Y-81068284D01*
X240374968Y-81073908D01*
X240374969Y-81073910D01*
X240419671Y-81151337D01*
X240466367Y-81232216D01*
X240593029Y-81372888D01*
X240746170Y-81484151D01*
X240919097Y-81561144D01*
X241104254Y-81600500D01*
X241287043Y-81600500D01*
X241293546Y-81600500D01*
X241478703Y-81561144D01*
X241651630Y-81484151D01*
X241804771Y-81372888D01*
X241931433Y-81232216D01*
X242026079Y-81068284D01*
X242078699Y-80906334D01*
X242108947Y-80856975D01*
X242450104Y-80515819D01*
X242490333Y-80488939D01*
X242537786Y-80479500D01*
X244191169Y-80479500D01*
X244229486Y-80485569D01*
X244264050Y-80503179D01*
X244272270Y-80509151D01*
X244445197Y-80586144D01*
X244630354Y-80625500D01*
X244813143Y-80625500D01*
X244819646Y-80625500D01*
X245004803Y-80586144D01*
X245177730Y-80509151D01*
X245330871Y-80397888D01*
X245457533Y-80257216D01*
X245552179Y-80093284D01*
X245610674Y-79913256D01*
X245630460Y-79725000D01*
X245610674Y-79536744D01*
X245552179Y-79356716D01*
X245457533Y-79192784D01*
X245330871Y-79052112D01*
X245325613Y-79048292D01*
X245325611Y-79048290D01*
X245182988Y-78944669D01*
X245182987Y-78944668D01*
X245177730Y-78940849D01*
X245171792Y-78938205D01*
X245010745Y-78866501D01*
X245010740Y-78866499D01*
X245004803Y-78863856D01*
X244998444Y-78862504D01*
X244998440Y-78862503D01*
X244826008Y-78825852D01*
X244826005Y-78825851D01*
X244819646Y-78824500D01*
X244630354Y-78824500D01*
X244623995Y-78825851D01*
X244623991Y-78825852D01*
X244451559Y-78862503D01*
X244451552Y-78862505D01*
X244445197Y-78863856D01*
X244439262Y-78866498D01*
X244439254Y-78866501D01*
X244278207Y-78938205D01*
X244278202Y-78938207D01*
X244272270Y-78940849D01*
X244264052Y-78946820D01*
X244229486Y-78964431D01*
X244191169Y-78970500D01*
X242237893Y-78970500D01*
X242219922Y-78969191D01*
X242203141Y-78966733D01*
X242195993Y-78965686D01*
X242188800Y-78966315D01*
X242188794Y-78966315D01*
X242146359Y-78970028D01*
X242135553Y-78970500D01*
X242129959Y-78970500D01*
X242126397Y-78970916D01*
X242126384Y-78970917D01*
X242098991Y-78974119D01*
X242095405Y-78974485D01*
X242027481Y-78980427D01*
X242027475Y-78980428D01*
X242020288Y-78981057D01*
X242013437Y-78983326D01*
X242009892Y-78984059D01*
X242009638Y-78984100D01*
X242009380Y-78984173D01*
X242005878Y-78985002D01*
X241998716Y-78985840D01*
X241991944Y-78988304D01*
X241991934Y-78988307D01*
X241927826Y-79011640D01*
X241924424Y-79012822D01*
X241859715Y-79034265D01*
X241859709Y-79034267D01*
X241852864Y-79036536D01*
X241846725Y-79040322D01*
X241843453Y-79041848D01*
X241843209Y-79041949D01*
X241842987Y-79042073D01*
X241839751Y-79043697D01*
X241832976Y-79046164D01*
X241826954Y-79050124D01*
X241826947Y-79050128D01*
X241769967Y-79087604D01*
X241766929Y-79089539D01*
X241708894Y-79125336D01*
X241708883Y-79125343D01*
X241702746Y-79129130D01*
X241697644Y-79134230D01*
X241694805Y-79136476D01*
X241694598Y-79136625D01*
X241694413Y-79136795D01*
X241691640Y-79139121D01*
X241685615Y-79143085D01*
X241680665Y-79148331D01*
X241680662Y-79148334D01*
X241633845Y-79197956D01*
X241631333Y-79200541D01*
X241038946Y-79792928D01*
X241010434Y-79814220D01*
X240977049Y-79826537D01*
X240925786Y-79837434D01*
X240919097Y-79838856D01*
X240913168Y-79841495D01*
X240913161Y-79841498D01*
X240752107Y-79913205D01*
X240752102Y-79913207D01*
X240746170Y-79915849D01*
X240740916Y-79919665D01*
X240740911Y-79919669D01*
X240598288Y-80023290D01*
X240598281Y-80023295D01*
X240593029Y-80027112D01*
X240588684Y-80031937D01*
X240588679Y-80031942D01*
X240470713Y-80162956D01*
X240470708Y-80162962D01*
X240466367Y-80167784D01*
X240463122Y-80173404D01*
X240463118Y-80173410D01*
X240374969Y-80326089D01*
X240374966Y-80326094D01*
X240371721Y-80331716D01*
X240369715Y-80337888D01*
X240369713Y-80337894D01*
X240315233Y-80505564D01*
X240315231Y-80505573D01*
X240313226Y-80511744D01*
X240312548Y-80518194D01*
X240312546Y-80518204D01*
X240305406Y-80586144D01*
X240293440Y-80700000D01*
X205099896Y-80700000D01*
X204961401Y-80561505D01*
X204956970Y-80558402D01*
X204956966Y-80558399D01*
X204775405Y-80431269D01*
X204736540Y-80386951D01*
X204722529Y-80329694D01*
X204736540Y-80272437D01*
X204775406Y-80228119D01*
X204956638Y-80101219D01*
X204964909Y-80094278D01*
X205124278Y-79934909D01*
X205131215Y-79926643D01*
X205260498Y-79742008D01*
X205265886Y-79732676D01*
X205361143Y-79528397D01*
X205364831Y-79518263D01*
X205416943Y-79323780D01*
X205417311Y-79312551D01*
X205406369Y-79310000D01*
X203964000Y-79310000D01*
X203902000Y-79293387D01*
X203856613Y-79248000D01*
X203840000Y-79186000D01*
X203840000Y-78934000D01*
X203856613Y-78872000D01*
X203902000Y-78826613D01*
X203964000Y-78810000D01*
X205406369Y-78810000D01*
X205417311Y-78807448D01*
X205416943Y-78796219D01*
X205364831Y-78601736D01*
X205361143Y-78591602D01*
X205265889Y-78387332D01*
X205260491Y-78377982D01*
X205131215Y-78193357D01*
X205124280Y-78185092D01*
X204964909Y-78025721D01*
X204956643Y-78018784D01*
X204775405Y-77891880D01*
X204736540Y-77847562D01*
X204722529Y-77790305D01*
X204736540Y-77733048D01*
X204775406Y-77688730D01*
X204956961Y-77561604D01*
X204956961Y-77561603D01*
X204961401Y-77558495D01*
X205128495Y-77391401D01*
X205264035Y-77197830D01*
X205363903Y-76983663D01*
X205425063Y-76755408D01*
X205445659Y-76520000D01*
X205425063Y-76284592D01*
X205366607Y-76066427D01*
X205365305Y-76061569D01*
X205365304Y-76061567D01*
X205363903Y-76056337D01*
X205264035Y-75842171D01*
X205128495Y-75648599D01*
X205006180Y-75526284D01*
X204974885Y-75473539D01*
X204972696Y-75412246D01*
X205000149Y-75357401D01*
X205050529Y-75322422D01*
X205173777Y-75276452D01*
X205189189Y-75268037D01*
X205290092Y-75192501D01*
X205302501Y-75180092D01*
X205378037Y-75079189D01*
X205386452Y-75063777D01*
X205430888Y-74944641D01*
X205434426Y-74929667D01*
X205439646Y-74881114D01*
X205440000Y-74874518D01*
X205440000Y-74246326D01*
X205436549Y-74233450D01*
X205423674Y-74230000D01*
X200233631Y-74230000D01*
X200222688Y-74232551D01*
X200223056Y-74243780D01*
X200275168Y-74438263D01*
X200278856Y-74448397D01*
X200374113Y-74652676D01*
X200379501Y-74662008D01*
X200508784Y-74846643D01*
X200515721Y-74854909D01*
X200675090Y-75014278D01*
X200683356Y-75021215D01*
X200864595Y-75148120D01*
X200903460Y-75192438D01*
X200917471Y-75249695D01*
X200903460Y-75306952D01*
X200864594Y-75351270D01*
X200683034Y-75478399D01*
X200683029Y-75478402D01*
X200678599Y-75481505D01*
X200674775Y-75485328D01*
X200674769Y-75485334D01*
X200515334Y-75644769D01*
X200515328Y-75644775D01*
X200511505Y-75648599D01*
X200508402Y-75653029D01*
X200508399Y-75653034D01*
X200379073Y-75837731D01*
X200379068Y-75837738D01*
X200375965Y-75842171D01*
X200373677Y-75847077D01*
X200373675Y-75847081D01*
X200278386Y-76051427D01*
X200278383Y-76051432D01*
X200276097Y-76056337D01*
X200274698Y-76061557D01*
X200274694Y-76061569D01*
X200216337Y-76279365D01*
X200216335Y-76279371D01*
X200214937Y-76284592D01*
X200214465Y-76289977D01*
X200214465Y-76289982D01*
X200213153Y-76304982D01*
X200194341Y-76520000D01*
X200214937Y-76755408D01*
X200216336Y-76760630D01*
X200216337Y-76760634D01*
X200274694Y-76978430D01*
X200274697Y-76978438D01*
X200276097Y-76983663D01*
X200278385Y-76988570D01*
X200278386Y-76988572D01*
X200373678Y-77192927D01*
X200373681Y-77192933D01*
X200375965Y-77197830D01*
X200379064Y-77202257D01*
X200379066Y-77202259D01*
X200508399Y-77386966D01*
X200508402Y-77386970D01*
X200511505Y-77391401D01*
X200678599Y-77558495D01*
X200683032Y-77561599D01*
X200683038Y-77561604D01*
X200864158Y-77688425D01*
X200903024Y-77732743D01*
X200917035Y-77790000D01*
X200903024Y-77847257D01*
X200864160Y-77891574D01*
X200678599Y-78021505D01*
X200674775Y-78025328D01*
X200674769Y-78025334D01*
X200515334Y-78184769D01*
X200515328Y-78184775D01*
X200511505Y-78188599D01*
X200508402Y-78193029D01*
X200508399Y-78193034D01*
X200379073Y-78377731D01*
X200379068Y-78377738D01*
X200375965Y-78382171D01*
X200373677Y-78387077D01*
X200373675Y-78387081D01*
X200278386Y-78591427D01*
X200278383Y-78591432D01*
X200276097Y-78596337D01*
X200274698Y-78601557D01*
X200274694Y-78601569D01*
X200216337Y-78819365D01*
X200216335Y-78819371D01*
X200214937Y-78824592D01*
X200214465Y-78829977D01*
X200214465Y-78829982D01*
X200195205Y-79050128D01*
X200194341Y-79060000D01*
X200194813Y-79065395D01*
X200206450Y-79198410D01*
X200214937Y-79295408D01*
X200216336Y-79300630D01*
X200216337Y-79300634D01*
X200274694Y-79518430D01*
X200274697Y-79518438D01*
X200276097Y-79523663D01*
X200278385Y-79528570D01*
X200278386Y-79528572D01*
X200373678Y-79732927D01*
X200373681Y-79732933D01*
X200375965Y-79737830D01*
X200379064Y-79742257D01*
X200379066Y-79742259D01*
X200508399Y-79926966D01*
X200508402Y-79926970D01*
X200511505Y-79931401D01*
X200678599Y-80098495D01*
X200683032Y-80101599D01*
X200683038Y-80101604D01*
X200864158Y-80228425D01*
X200903024Y-80272743D01*
X200917035Y-80330000D01*
X200903024Y-80387257D01*
X200864159Y-80431575D01*
X200683041Y-80558395D01*
X200678599Y-80561505D01*
X200674775Y-80565328D01*
X200674769Y-80565334D01*
X200515334Y-80724769D01*
X200515328Y-80724775D01*
X200511505Y-80728599D01*
X200508402Y-80733029D01*
X200508399Y-80733034D01*
X200379073Y-80917731D01*
X200379068Y-80917738D01*
X200375965Y-80922171D01*
X200373677Y-80927077D01*
X200373675Y-80927081D01*
X200278386Y-81131427D01*
X200278383Y-81131432D01*
X200276097Y-81136337D01*
X200274698Y-81141557D01*
X200274694Y-81141569D01*
X200216337Y-81359365D01*
X200216335Y-81359371D01*
X200214937Y-81364592D01*
X200214465Y-81369977D01*
X200214465Y-81369982D01*
X200197622Y-81562496D01*
X200194341Y-81600000D01*
X200214937Y-81835408D01*
X200216336Y-81840630D01*
X200216337Y-81840634D01*
X200274694Y-82058430D01*
X200274697Y-82058438D01*
X200276097Y-82063663D01*
X200278385Y-82068570D01*
X200278386Y-82068572D01*
X200373678Y-82272927D01*
X200373681Y-82272933D01*
X200375965Y-82277830D01*
X200379064Y-82282257D01*
X200379066Y-82282259D01*
X200508399Y-82466966D01*
X200508402Y-82466970D01*
X200511505Y-82471401D01*
X200678599Y-82638495D01*
X200683032Y-82641599D01*
X200683038Y-82641604D01*
X200864158Y-82768425D01*
X200903024Y-82812743D01*
X200917035Y-82870000D01*
X200903024Y-82927257D01*
X200864159Y-82971575D01*
X200683041Y-83098395D01*
X200678599Y-83101505D01*
X200674775Y-83105328D01*
X200674769Y-83105334D01*
X200515334Y-83264769D01*
X200515328Y-83264775D01*
X200511505Y-83268599D01*
X200508402Y-83273029D01*
X200508399Y-83273034D01*
X200379073Y-83457731D01*
X200379068Y-83457738D01*
X200375965Y-83462171D01*
X200373677Y-83467077D01*
X200373675Y-83467081D01*
X200278386Y-83671427D01*
X200278383Y-83671432D01*
X200276097Y-83676337D01*
X200274698Y-83681557D01*
X200274694Y-83681569D01*
X200216337Y-83899365D01*
X200216335Y-83899371D01*
X200214937Y-83904592D01*
X200214465Y-83909977D01*
X200214465Y-83909982D01*
X200213153Y-83924982D01*
X200194341Y-84140000D01*
X200194813Y-84145395D01*
X200202871Y-84237503D01*
X200214937Y-84375408D01*
X200216336Y-84380630D01*
X200216337Y-84380634D01*
X200274694Y-84598430D01*
X200274697Y-84598438D01*
X200276097Y-84603663D01*
X200278385Y-84608570D01*
X200278386Y-84608572D01*
X200373678Y-84812927D01*
X200373681Y-84812933D01*
X200375965Y-84817830D01*
X200379064Y-84822257D01*
X200379066Y-84822259D01*
X200508399Y-85006966D01*
X200508402Y-85006970D01*
X200511505Y-85011401D01*
X200678599Y-85178495D01*
X200683032Y-85181599D01*
X200683038Y-85181604D01*
X200864158Y-85308425D01*
X200903024Y-85352743D01*
X200917035Y-85410000D01*
X200903024Y-85467257D01*
X200864160Y-85511574D01*
X200678599Y-85641505D01*
X200674775Y-85645328D01*
X200674769Y-85645334D01*
X200515334Y-85804769D01*
X200515328Y-85804775D01*
X200511505Y-85808599D01*
X200508402Y-85813029D01*
X200508399Y-85813034D01*
X200379073Y-85997731D01*
X200379068Y-85997738D01*
X200375965Y-86002171D01*
X200373677Y-86007077D01*
X200373675Y-86007081D01*
X200278386Y-86211427D01*
X200278383Y-86211432D01*
X200276097Y-86216337D01*
X200274698Y-86221557D01*
X200274694Y-86221569D01*
X200216337Y-86439365D01*
X200216335Y-86439371D01*
X200214937Y-86444592D01*
X200214465Y-86449977D01*
X200214465Y-86449982D01*
X200213153Y-86464982D01*
X200194341Y-86680000D01*
X200214937Y-86915408D01*
X200216336Y-86920630D01*
X200216337Y-86920634D01*
X200274694Y-87138430D01*
X200274697Y-87138438D01*
X200276097Y-87143663D01*
X200278385Y-87148570D01*
X200278386Y-87148572D01*
X200373678Y-87352927D01*
X200373681Y-87352933D01*
X200375965Y-87357830D01*
X200379064Y-87362257D01*
X200379066Y-87362259D01*
X200508399Y-87546966D01*
X200508402Y-87546970D01*
X200511505Y-87551401D01*
X200678599Y-87718495D01*
X200683032Y-87721599D01*
X200683038Y-87721604D01*
X200864158Y-87848425D01*
X200903024Y-87892743D01*
X200917035Y-87950000D01*
X200903024Y-88007257D01*
X200864159Y-88051575D01*
X200683041Y-88178395D01*
X200678599Y-88181505D01*
X200674775Y-88185328D01*
X200674769Y-88185334D01*
X200515334Y-88344769D01*
X200515328Y-88344775D01*
X200511505Y-88348599D01*
X200508402Y-88353029D01*
X200508399Y-88353034D01*
X200379073Y-88537731D01*
X200379068Y-88537738D01*
X200375965Y-88542171D01*
X200373677Y-88547077D01*
X200373675Y-88547081D01*
X200278386Y-88751427D01*
X200278383Y-88751432D01*
X200276097Y-88756337D01*
X200274698Y-88761557D01*
X200274694Y-88761569D01*
X200216337Y-88979365D01*
X200216335Y-88979371D01*
X200214937Y-88984592D01*
X200214465Y-88989977D01*
X200214465Y-88989982D01*
X200213153Y-89004982D01*
X200194341Y-89220000D01*
X200214937Y-89455408D01*
X200216336Y-89460630D01*
X200216337Y-89460634D01*
X200274694Y-89678430D01*
X200274697Y-89678438D01*
X200276097Y-89683663D01*
X200278385Y-89688570D01*
X200278386Y-89688572D01*
X200373678Y-89892927D01*
X200373681Y-89892933D01*
X200375965Y-89897830D01*
X200379064Y-89902257D01*
X200379066Y-89902259D01*
X200508399Y-90086966D01*
X200508402Y-90086970D01*
X200511505Y-90091401D01*
X200678599Y-90258495D01*
X200683032Y-90261599D01*
X200683038Y-90261604D01*
X200864158Y-90388425D01*
X200903024Y-90432743D01*
X200917035Y-90490000D01*
X200903024Y-90547257D01*
X200864159Y-90591575D01*
X200683041Y-90718395D01*
X200678599Y-90721505D01*
X200674775Y-90725328D01*
X200674769Y-90725334D01*
X200515334Y-90884769D01*
X200515328Y-90884775D01*
X200511505Y-90888599D01*
X200508402Y-90893029D01*
X200508399Y-90893034D01*
X200379073Y-91077731D01*
X200379068Y-91077738D01*
X200375965Y-91082171D01*
X200373677Y-91087077D01*
X200373675Y-91087081D01*
X200278386Y-91291427D01*
X200278383Y-91291432D01*
X200276097Y-91296337D01*
X200274698Y-91301557D01*
X200274694Y-91301569D01*
X200216337Y-91519365D01*
X200216335Y-91519371D01*
X200214937Y-91524592D01*
X200214465Y-91529977D01*
X200214465Y-91529982D01*
X200213153Y-91544982D01*
X200194341Y-91760000D01*
X200214937Y-91995408D01*
X200216336Y-92000630D01*
X200216337Y-92000634D01*
X200274694Y-92218430D01*
X200274697Y-92218438D01*
X200276097Y-92223663D01*
X200278385Y-92228570D01*
X200278386Y-92228572D01*
X200344286Y-92369895D01*
X200355639Y-92430410D01*
X200336485Y-92488925D01*
X200291547Y-92531014D01*
X200231904Y-92546300D01*
X195599179Y-92546300D01*
X195582994Y-92545239D01*
X195559659Y-92542167D01*
X195551600Y-92541106D01*
X195543541Y-92542167D01*
X195543539Y-92542167D01*
X195512152Y-92546299D01*
X195512141Y-92546300D01*
X195512140Y-92546300D01*
X195512137Y-92546300D01*
X195512130Y-92546301D01*
X195402479Y-92560736D01*
X195402471Y-92560738D01*
X195394420Y-92561798D01*
X195386915Y-92564906D01*
X195386910Y-92564908D01*
X195263794Y-92615904D01*
X195263791Y-92615906D01*
X195247952Y-92622467D01*
X195247953Y-92622467D01*
X195234899Y-92632483D01*
X195234898Y-92632484D01*
X195153753Y-92694749D01*
X195153750Y-92694751D01*
X195128624Y-92714031D01*
X195128621Y-92714033D01*
X195122178Y-92718978D01*
X195117236Y-92725417D01*
X195117229Y-92725425D01*
X195102892Y-92744109D01*
X195092201Y-92756299D01*
X194635321Y-93213181D01*
X194595093Y-93240061D01*
X194547640Y-93249500D01*
X194455354Y-93249500D01*
X194448995Y-93250851D01*
X194448991Y-93250852D01*
X194276559Y-93287503D01*
X194276552Y-93287505D01*
X194270197Y-93288856D01*
X194264262Y-93291498D01*
X194264254Y-93291501D01*
X194103207Y-93363205D01*
X194103202Y-93363207D01*
X194097270Y-93365849D01*
X194092016Y-93369665D01*
X194092011Y-93369669D01*
X193949388Y-93473290D01*
X193949381Y-93473295D01*
X193944129Y-93477112D01*
X193939784Y-93481937D01*
X193939779Y-93481942D01*
X193821813Y-93612956D01*
X193821808Y-93612962D01*
X193817467Y-93617784D01*
X193814222Y-93623404D01*
X193814218Y-93623410D01*
X193726069Y-93776089D01*
X193726066Y-93776094D01*
X193722821Y-93781716D01*
X193720815Y-93787888D01*
X193720813Y-93787894D01*
X193666333Y-93955564D01*
X193666331Y-93955573D01*
X193664326Y-93961744D01*
X193663648Y-93968194D01*
X193663646Y-93968204D01*
X193652950Y-94069982D01*
X193644540Y-94150000D01*
X193645219Y-94156460D01*
X193663646Y-94331795D01*
X193663647Y-94331803D01*
X193664326Y-94338256D01*
X193666332Y-94344432D01*
X193667685Y-94350792D01*
X193666706Y-94350999D01*
X193671251Y-94394272D01*
X193655317Y-94443305D01*
X193620819Y-94481619D01*
X193599387Y-94497191D01*
X193599382Y-94497195D01*
X193594129Y-94501012D01*
X193589785Y-94505835D01*
X193589782Y-94505839D01*
X193471813Y-94636856D01*
X193471808Y-94636862D01*
X193467467Y-94641684D01*
X193464222Y-94647304D01*
X193464218Y-94647310D01*
X193376069Y-94799989D01*
X193376066Y-94799994D01*
X193372821Y-94805616D01*
X193370815Y-94811788D01*
X193370813Y-94811794D01*
X193316333Y-94979464D01*
X193316331Y-94979473D01*
X193314326Y-94985644D01*
X193313648Y-94992094D01*
X193313646Y-94992104D01*
X193295805Y-95161861D01*
X193275285Y-95218240D01*
X193230699Y-95258385D01*
X193172484Y-95272900D01*
X192299817Y-95272900D01*
X192249382Y-95262180D01*
X192207667Y-95231872D01*
X192200683Y-95224116D01*
X192180871Y-95202112D01*
X192175613Y-95198292D01*
X192175611Y-95198290D01*
X192032988Y-95094669D01*
X192032987Y-95094668D01*
X192027730Y-95090849D01*
X192010236Y-95083060D01*
X191860745Y-95016501D01*
X191860740Y-95016499D01*
X191854803Y-95013856D01*
X191848444Y-95012504D01*
X191848440Y-95012503D01*
X191676008Y-94975852D01*
X191676005Y-94975851D01*
X191669646Y-94974500D01*
X191480354Y-94974500D01*
X191473995Y-94975851D01*
X191473991Y-94975852D01*
X191301559Y-95012503D01*
X191301552Y-95012505D01*
X191295197Y-95013856D01*
X191289262Y-95016498D01*
X191289254Y-95016501D01*
X191128207Y-95088205D01*
X191128202Y-95088207D01*
X191122270Y-95090849D01*
X191117016Y-95094665D01*
X191117011Y-95094669D01*
X190974388Y-95198290D01*
X190974381Y-95198295D01*
X190969129Y-95202112D01*
X190964784Y-95206937D01*
X190964779Y-95206942D01*
X190846813Y-95337956D01*
X190846808Y-95337962D01*
X190842467Y-95342784D01*
X190839222Y-95348404D01*
X190839218Y-95348410D01*
X190751069Y-95501089D01*
X190751066Y-95501094D01*
X190747821Y-95506716D01*
X190745815Y-95512888D01*
X190745813Y-95512894D01*
X190691333Y-95680564D01*
X190691331Y-95680573D01*
X190689326Y-95686744D01*
X190688648Y-95693194D01*
X190688646Y-95693204D01*
X190676014Y-95813403D01*
X190669540Y-95875000D01*
X190670219Y-95881460D01*
X190688646Y-96056795D01*
X190688647Y-96056803D01*
X190689326Y-96063256D01*
X190691331Y-96069428D01*
X190691333Y-96069435D01*
X190740917Y-96222036D01*
X190747821Y-96243284D01*
X190751068Y-96248908D01*
X190751069Y-96248910D01*
X190827659Y-96381569D01*
X190842467Y-96407216D01*
X190846811Y-96412041D01*
X190846813Y-96412043D01*
X190913890Y-96486539D01*
X190969129Y-96547888D01*
X190974387Y-96551708D01*
X190974388Y-96551709D01*
X191004257Y-96573410D01*
X191122270Y-96659151D01*
X191295197Y-96736144D01*
X191480354Y-96775500D01*
X191663143Y-96775500D01*
X191669646Y-96775500D01*
X191854803Y-96736144D01*
X192027730Y-96659151D01*
X192180871Y-96547888D01*
X192207667Y-96518127D01*
X192249382Y-96487820D01*
X192299817Y-96477100D01*
X196391453Y-96477100D01*
X196438906Y-96486539D01*
X196479134Y-96513419D01*
X196803534Y-96837819D01*
X196833784Y-96887182D01*
X196838326Y-96944898D01*
X196816171Y-96998385D01*
X196772148Y-97035985D01*
X196715853Y-97049500D01*
X196633854Y-97049500D01*
X196627495Y-97050851D01*
X196627491Y-97050852D01*
X196455059Y-97087503D01*
X196455052Y-97087505D01*
X196448697Y-97088856D01*
X196442762Y-97091498D01*
X196442754Y-97091501D01*
X196281707Y-97163205D01*
X196281702Y-97163207D01*
X196275770Y-97165849D01*
X196270516Y-97169665D01*
X196270511Y-97169669D01*
X196127888Y-97273290D01*
X196127881Y-97273295D01*
X196122629Y-97277112D01*
X196118284Y-97281937D01*
X196118279Y-97281942D01*
X196000313Y-97412956D01*
X196000308Y-97412962D01*
X195995967Y-97417784D01*
X195992722Y-97423404D01*
X195992718Y-97423410D01*
X195904569Y-97576089D01*
X195904566Y-97576094D01*
X195901321Y-97581716D01*
X195899315Y-97587888D01*
X195899313Y-97587894D01*
X195844833Y-97755564D01*
X195844831Y-97755573D01*
X195842826Y-97761744D01*
X195842147Y-97768201D01*
X195842147Y-97768203D01*
X195824639Y-97934782D01*
X195813239Y-97975203D01*
X195788999Y-98009501D01*
X194260321Y-99538181D01*
X194220093Y-99565061D01*
X194172640Y-99574500D01*
X194080354Y-99574500D01*
X194073995Y-99575851D01*
X194073991Y-99575852D01*
X193901559Y-99612503D01*
X193901552Y-99612505D01*
X193895197Y-99613856D01*
X193889262Y-99616498D01*
X193889254Y-99616501D01*
X193728207Y-99688205D01*
X193728202Y-99688207D01*
X193722270Y-99690849D01*
X193717016Y-99694665D01*
X193717011Y-99694669D01*
X193574388Y-99798290D01*
X193574381Y-99798295D01*
X193569129Y-99802112D01*
X193564784Y-99806937D01*
X193564779Y-99806942D01*
X193446813Y-99937956D01*
X193446808Y-99937962D01*
X193442467Y-99942784D01*
X193439222Y-99948404D01*
X193439218Y-99948410D01*
X193351069Y-100101089D01*
X193351066Y-100101094D01*
X193347821Y-100106716D01*
X193345815Y-100112888D01*
X193345813Y-100112894D01*
X193291333Y-100280564D01*
X193291331Y-100280573D01*
X193289326Y-100286744D01*
X193288648Y-100293194D01*
X193288646Y-100293204D01*
X193275152Y-100421600D01*
X193269540Y-100475000D01*
X193270219Y-100481460D01*
X193288646Y-100656795D01*
X193288647Y-100656803D01*
X193289326Y-100663256D01*
X193291331Y-100669428D01*
X193291333Y-100669435D01*
X193330242Y-100789182D01*
X193347821Y-100843284D01*
X193351068Y-100848908D01*
X193351069Y-100848910D01*
X193415111Y-100959835D01*
X193442467Y-101007216D01*
X193446811Y-101012041D01*
X193446813Y-101012043D01*
X193497228Y-101068034D01*
X193569129Y-101147888D01*
X193574387Y-101151708D01*
X193574388Y-101151709D01*
X193711154Y-101251075D01*
X193751545Y-101300951D01*
X193761591Y-101364339D01*
X193741336Y-101417131D01*
X193742467Y-101417784D01*
X193651069Y-101576089D01*
X193651066Y-101576094D01*
X193647821Y-101581716D01*
X193645815Y-101587888D01*
X193645813Y-101587894D01*
X193591333Y-101755564D01*
X193591331Y-101755573D01*
X193589326Y-101761744D01*
X193588648Y-101768194D01*
X193588646Y-101768204D01*
X193581330Y-101837819D01*
X193570896Y-101937105D01*
X193570753Y-101938461D01*
X193550233Y-101994840D01*
X193505647Y-102034985D01*
X193447432Y-102049500D01*
X191452360Y-102049500D01*
X191404907Y-102040061D01*
X191364679Y-102013181D01*
X188841099Y-99489601D01*
X188814217Y-99449369D01*
X188805093Y-99403487D01*
X188805460Y-99400000D01*
X188785674Y-99211744D01*
X188727179Y-99031716D01*
X188632533Y-98867784D01*
X188616970Y-98850500D01*
X188510220Y-98731942D01*
X188510219Y-98731941D01*
X188505871Y-98727112D01*
X188500613Y-98723292D01*
X188500611Y-98723290D01*
X188357988Y-98619669D01*
X188357987Y-98619668D01*
X188352730Y-98615849D01*
X188346792Y-98613205D01*
X188185745Y-98541501D01*
X188185740Y-98541499D01*
X188179803Y-98538856D01*
X188173444Y-98537504D01*
X188173440Y-98537503D01*
X188001008Y-98500852D01*
X188001005Y-98500851D01*
X187994646Y-98499500D01*
X187805354Y-98499500D01*
X187798995Y-98500851D01*
X187798991Y-98500852D01*
X187626559Y-98537503D01*
X187626552Y-98537505D01*
X187620197Y-98538856D01*
X187614262Y-98541498D01*
X187614254Y-98541501D01*
X187453207Y-98613205D01*
X187453202Y-98613207D01*
X187447270Y-98615849D01*
X187442016Y-98619665D01*
X187442011Y-98619669D01*
X187299388Y-98723290D01*
X187299381Y-98723295D01*
X187294129Y-98727112D01*
X187289784Y-98731937D01*
X187289779Y-98731942D01*
X187171813Y-98862956D01*
X187171808Y-98862962D01*
X187167467Y-98867784D01*
X187164222Y-98873404D01*
X187164218Y-98873410D01*
X187076069Y-99026089D01*
X187076066Y-99026094D01*
X187072821Y-99031716D01*
X187070815Y-99037888D01*
X187070813Y-99037894D01*
X187016333Y-99205564D01*
X187016331Y-99205573D01*
X187014326Y-99211744D01*
X187013648Y-99218194D01*
X187013646Y-99218204D01*
X186997209Y-99374604D01*
X186994540Y-99400000D01*
X134225000Y-99400000D01*
X134225000Y-85100000D01*
X188444540Y-85100000D01*
X188445219Y-85106460D01*
X188463646Y-85281795D01*
X188463647Y-85281803D01*
X188464326Y-85288256D01*
X188466331Y-85294428D01*
X188466333Y-85294435D01*
X188485279Y-85352743D01*
X188522821Y-85468284D01*
X188617467Y-85632216D01*
X188621811Y-85637041D01*
X188621813Y-85637043D01*
X188642786Y-85660336D01*
X188744129Y-85772888D01*
X188897270Y-85884151D01*
X189070197Y-85961144D01*
X189255354Y-86000500D01*
X189438143Y-86000500D01*
X189444646Y-86000500D01*
X189629803Y-85961144D01*
X189802730Y-85884151D01*
X189955871Y-85772888D01*
X189982667Y-85743127D01*
X190024382Y-85712820D01*
X190074817Y-85702100D01*
X194200183Y-85702100D01*
X194250618Y-85712820D01*
X194292332Y-85743127D01*
X194319129Y-85772888D01*
X194472270Y-85884151D01*
X194645197Y-85961144D01*
X194830354Y-86000500D01*
X195013143Y-86000500D01*
X195019646Y-86000500D01*
X195204803Y-85961144D01*
X195377730Y-85884151D01*
X195530871Y-85772888D01*
X195657533Y-85632216D01*
X195752179Y-85468284D01*
X195810674Y-85288256D01*
X195830460Y-85100000D01*
X195810674Y-84911744D01*
X195752179Y-84731716D01*
X195657533Y-84567784D01*
X195530871Y-84427112D01*
X195525613Y-84423292D01*
X195525611Y-84423290D01*
X195382988Y-84319669D01*
X195382987Y-84319668D01*
X195377730Y-84315849D01*
X195371792Y-84313205D01*
X195210745Y-84241501D01*
X195210740Y-84241499D01*
X195204803Y-84238856D01*
X195198444Y-84237504D01*
X195198440Y-84237503D01*
X195026008Y-84200852D01*
X195026005Y-84200851D01*
X195019646Y-84199500D01*
X194830354Y-84199500D01*
X194823995Y-84200851D01*
X194823991Y-84200852D01*
X194651559Y-84237503D01*
X194651552Y-84237505D01*
X194645197Y-84238856D01*
X194639262Y-84241498D01*
X194639254Y-84241501D01*
X194478207Y-84313205D01*
X194478202Y-84313207D01*
X194472270Y-84315849D01*
X194467016Y-84319665D01*
X194467011Y-84319669D01*
X194324388Y-84423290D01*
X194324381Y-84423295D01*
X194319129Y-84427112D01*
X194314784Y-84431937D01*
X194314779Y-84431942D01*
X194292333Y-84456872D01*
X194250618Y-84487180D01*
X194200183Y-84497900D01*
X190074817Y-84497900D01*
X190024382Y-84487180D01*
X189982667Y-84456872D01*
X189960220Y-84431942D01*
X189960219Y-84431941D01*
X189955871Y-84427112D01*
X189950613Y-84423292D01*
X189950611Y-84423290D01*
X189807988Y-84319669D01*
X189807987Y-84319668D01*
X189802730Y-84315849D01*
X189796792Y-84313205D01*
X189635745Y-84241501D01*
X189635740Y-84241499D01*
X189629803Y-84238856D01*
X189623444Y-84237504D01*
X189623440Y-84237503D01*
X189451008Y-84200852D01*
X189451005Y-84200851D01*
X189444646Y-84199500D01*
X189255354Y-84199500D01*
X189248995Y-84200851D01*
X189248991Y-84200852D01*
X189076559Y-84237503D01*
X189076552Y-84237505D01*
X189070197Y-84238856D01*
X189064262Y-84241498D01*
X189064254Y-84241501D01*
X188903207Y-84313205D01*
X188903202Y-84313207D01*
X188897270Y-84315849D01*
X188892016Y-84319665D01*
X188892011Y-84319669D01*
X188749388Y-84423290D01*
X188749381Y-84423295D01*
X188744129Y-84427112D01*
X188739784Y-84431937D01*
X188739779Y-84431942D01*
X188621813Y-84562956D01*
X188621808Y-84562962D01*
X188617467Y-84567784D01*
X188614222Y-84573404D01*
X188614218Y-84573410D01*
X188526069Y-84726089D01*
X188526066Y-84726094D01*
X188522821Y-84731716D01*
X188520815Y-84737888D01*
X188520813Y-84737894D01*
X188466333Y-84905564D01*
X188466331Y-84905573D01*
X188464326Y-84911744D01*
X188463648Y-84918194D01*
X188463646Y-84918204D01*
X188445962Y-85086464D01*
X188444540Y-85100000D01*
X134225000Y-85100000D01*
X134225000Y-73742448D01*
X250107688Y-73742448D01*
X250118631Y-73745000D01*
X251168674Y-73745000D01*
X251181549Y-73741549D01*
X251185000Y-73728674D01*
X251685000Y-73728674D01*
X251688450Y-73741549D01*
X251701326Y-73745000D01*
X253708674Y-73745000D01*
X253721549Y-73741549D01*
X253725000Y-73728674D01*
X254225000Y-73728674D01*
X254228450Y-73741549D01*
X254241326Y-73745000D01*
X255308674Y-73745000D01*
X255321549Y-73741549D01*
X255325000Y-73728674D01*
X255325000Y-73100482D01*
X255324646Y-73093885D01*
X255319426Y-73045332D01*
X255315888Y-73030358D01*
X255271452Y-72911222D01*
X255263037Y-72895810D01*
X255187501Y-72794907D01*
X255175092Y-72782498D01*
X255074189Y-72706962D01*
X255058777Y-72698547D01*
X254939641Y-72654111D01*
X254924667Y-72650573D01*
X254876114Y-72645353D01*
X254869518Y-72645000D01*
X254241326Y-72645000D01*
X254228450Y-72648450D01*
X254225000Y-72661326D01*
X254225000Y-73728674D01*
X253725000Y-73728674D01*
X253725000Y-72661326D01*
X253721549Y-72648450D01*
X253708674Y-72645000D01*
X253080482Y-72645000D01*
X253073885Y-72645353D01*
X253025332Y-72650573D01*
X253010358Y-72654111D01*
X252891222Y-72698547D01*
X252875810Y-72706962D01*
X252774907Y-72782498D01*
X252762498Y-72794907D01*
X252686962Y-72895810D01*
X252678548Y-72911220D01*
X252632385Y-73034987D01*
X252597405Y-73085366D01*
X252542561Y-73112819D01*
X252481268Y-73110630D01*
X252428522Y-73079334D01*
X252309909Y-72960721D01*
X252301643Y-72953784D01*
X252117008Y-72824501D01*
X252107676Y-72819113D01*
X251903397Y-72723856D01*
X251893263Y-72720168D01*
X251698780Y-72668056D01*
X251687551Y-72667688D01*
X251685000Y-72678631D01*
X251685000Y-73728674D01*
X251185000Y-73728674D01*
X251185000Y-72678631D01*
X251182448Y-72667688D01*
X251171219Y-72668056D01*
X250976736Y-72720168D01*
X250966602Y-72723856D01*
X250762332Y-72819110D01*
X250752982Y-72824508D01*
X250568357Y-72953784D01*
X250560092Y-72960719D01*
X250400719Y-73120092D01*
X250393784Y-73128357D01*
X250264508Y-73312982D01*
X250259110Y-73322332D01*
X250163856Y-73526602D01*
X250160168Y-73536736D01*
X250108056Y-73731219D01*
X250107688Y-73742448D01*
X134225000Y-73742448D01*
X134225000Y-73727448D01*
X200222688Y-73727448D01*
X200233631Y-73730000D01*
X201283674Y-73730000D01*
X201296549Y-73726549D01*
X201300000Y-73713674D01*
X201800000Y-73713674D01*
X201803450Y-73726549D01*
X201816326Y-73730000D01*
X203823674Y-73730000D01*
X203836549Y-73726549D01*
X203840000Y-73713674D01*
X204340000Y-73713674D01*
X204343450Y-73726549D01*
X204356326Y-73730000D01*
X205423674Y-73730000D01*
X205436549Y-73726549D01*
X205440000Y-73713674D01*
X205440000Y-73085482D01*
X205439646Y-73078885D01*
X205434426Y-73030332D01*
X205430888Y-73015358D01*
X205386452Y-72896222D01*
X205378037Y-72880810D01*
X205302501Y-72779907D01*
X205290092Y-72767498D01*
X205189189Y-72691962D01*
X205173777Y-72683547D01*
X205054641Y-72639111D01*
X205039667Y-72635573D01*
X204991114Y-72630353D01*
X204984518Y-72630000D01*
X204356326Y-72630000D01*
X204343450Y-72633450D01*
X204340000Y-72646326D01*
X204340000Y-73713674D01*
X203840000Y-73713674D01*
X203840000Y-72646326D01*
X203836549Y-72633450D01*
X203823674Y-72630000D01*
X203195482Y-72630000D01*
X203188885Y-72630353D01*
X203140332Y-72635573D01*
X203125358Y-72639111D01*
X203006222Y-72683547D01*
X202990810Y-72691962D01*
X202889907Y-72767498D01*
X202877498Y-72779907D01*
X202801962Y-72880810D01*
X202793548Y-72896220D01*
X202747385Y-73019987D01*
X202712405Y-73070366D01*
X202657561Y-73097819D01*
X202596268Y-73095630D01*
X202543522Y-73064334D01*
X202424909Y-72945721D01*
X202416643Y-72938784D01*
X202232008Y-72809501D01*
X202222676Y-72804113D01*
X202018397Y-72708856D01*
X202008263Y-72705168D01*
X201813780Y-72653056D01*
X201802551Y-72652688D01*
X201800000Y-72663631D01*
X201800000Y-73713674D01*
X201300000Y-73713674D01*
X201300000Y-72663631D01*
X201297448Y-72652688D01*
X201286219Y-72653056D01*
X201091736Y-72705168D01*
X201081602Y-72708856D01*
X200877332Y-72804110D01*
X200867982Y-72809508D01*
X200683357Y-72938784D01*
X200675092Y-72945719D01*
X200515719Y-73105092D01*
X200508784Y-73113357D01*
X200379508Y-73297982D01*
X200374110Y-73307332D01*
X200278856Y-73511602D01*
X200275168Y-73521736D01*
X200223056Y-73716219D01*
X200222688Y-73727448D01*
X134225000Y-73727448D01*
X134225000Y-69965000D01*
X149907200Y-69965000D01*
X149907624Y-69970117D01*
X149925941Y-70191186D01*
X149925942Y-70191195D01*
X149926366Y-70196305D01*
X149927623Y-70201272D01*
X149927625Y-70201279D01*
X149962502Y-70339003D01*
X149983343Y-70421300D01*
X149985403Y-70425996D01*
X150074516Y-70629154D01*
X150074519Y-70629159D01*
X150076576Y-70633849D01*
X150140048Y-70731001D01*
X150200719Y-70823865D01*
X150200722Y-70823869D01*
X150203521Y-70828153D01*
X150360716Y-70998913D01*
X150543874Y-71141470D01*
X150747997Y-71251936D01*
X150967519Y-71327298D01*
X151196451Y-71365500D01*
X151423416Y-71365500D01*
X151428549Y-71365500D01*
X151657481Y-71327298D01*
X151877003Y-71251936D01*
X152081126Y-71141470D01*
X152264284Y-70998913D01*
X152421479Y-70828153D01*
X152439872Y-70800000D01*
X182604700Y-70800000D01*
X182605124Y-70805117D01*
X182623441Y-71026186D01*
X182623442Y-71026195D01*
X182623866Y-71031305D01*
X182625123Y-71036272D01*
X182625125Y-71036279D01*
X182652381Y-71143909D01*
X182680843Y-71256300D01*
X182682903Y-71260996D01*
X182772016Y-71464154D01*
X182772019Y-71464159D01*
X182774076Y-71468849D01*
X182837548Y-71566001D01*
X182898219Y-71658865D01*
X182898222Y-71658869D01*
X182901021Y-71663153D01*
X183058216Y-71833913D01*
X183241374Y-71976470D01*
X183445497Y-72086936D01*
X183665019Y-72162298D01*
X183893951Y-72200500D01*
X184120916Y-72200500D01*
X184126049Y-72200500D01*
X184354981Y-72162298D01*
X184574503Y-72086936D01*
X184778626Y-71976470D01*
X184961784Y-71833913D01*
X184970130Y-71824846D01*
X185022754Y-71790990D01*
X185085210Y-71787141D01*
X185141592Y-71814278D01*
X185177545Y-71865493D01*
X185206204Y-71942331D01*
X185292454Y-72057546D01*
X185407669Y-72143796D01*
X185542517Y-72194091D01*
X185602127Y-72200500D01*
X187497872Y-72200499D01*
X187557483Y-72194091D01*
X187692331Y-72143796D01*
X187807546Y-72057546D01*
X187893796Y-71942331D01*
X187944091Y-71807483D01*
X187950500Y-71747873D01*
X187950499Y-69852128D01*
X187944091Y-69792517D01*
X187893796Y-69657669D01*
X187807546Y-69542454D01*
X187771541Y-69515501D01*
X187699431Y-69461519D01*
X187699430Y-69461518D01*
X187692331Y-69456204D01*
X187557483Y-69405909D01*
X187549770Y-69405079D01*
X187549767Y-69405079D01*
X187501180Y-69399855D01*
X187501169Y-69399854D01*
X187497873Y-69399500D01*
X187494550Y-69399500D01*
X185605439Y-69399500D01*
X185605420Y-69399500D01*
X185602128Y-69399501D01*
X185598850Y-69399853D01*
X185598838Y-69399854D01*
X185550231Y-69405079D01*
X185550225Y-69405080D01*
X185542517Y-69405909D01*
X185535252Y-69408618D01*
X185535246Y-69408620D01*
X185415980Y-69453104D01*
X185415978Y-69453104D01*
X185407669Y-69456204D01*
X185400572Y-69461516D01*
X185400568Y-69461519D01*
X185299550Y-69537141D01*
X185299546Y-69537144D01*
X185292454Y-69542454D01*
X185287144Y-69549546D01*
X185287141Y-69549550D01*
X185211519Y-69650568D01*
X185211516Y-69650572D01*
X185206204Y-69657669D01*
X185203104Y-69665978D01*
X185203105Y-69665978D01*
X185177545Y-69734507D01*
X185141593Y-69785720D01*
X185085213Y-69812858D01*
X185022759Y-69809011D01*
X184970135Y-69775158D01*
X184965259Y-69769862D01*
X184965257Y-69769860D01*
X184961784Y-69766087D01*
X184926742Y-69738813D01*
X184782672Y-69626679D01*
X184782671Y-69626678D01*
X184778626Y-69623530D01*
X184724497Y-69594237D01*
X184579007Y-69515501D01*
X184579002Y-69515499D01*
X184574503Y-69513064D01*
X184569657Y-69511400D01*
X184569654Y-69511399D01*
X184359834Y-69439368D01*
X184359833Y-69439367D01*
X184354981Y-69437702D01*
X184349931Y-69436859D01*
X184349922Y-69436857D01*
X184131111Y-69400344D01*
X184131102Y-69400343D01*
X184126049Y-69399500D01*
X183893951Y-69399500D01*
X183888898Y-69400343D01*
X183888888Y-69400344D01*
X183670077Y-69436857D01*
X183670065Y-69436859D01*
X183665019Y-69437702D01*
X183660169Y-69439366D01*
X183660165Y-69439368D01*
X183450345Y-69511399D01*
X183450337Y-69511402D01*
X183445497Y-69513064D01*
X183441001Y-69515496D01*
X183440992Y-69515501D01*
X183245882Y-69621090D01*
X183245878Y-69621092D01*
X183241374Y-69623530D01*
X183237334Y-69626674D01*
X183237327Y-69626679D01*
X183062263Y-69762936D01*
X183062255Y-69762943D01*
X183058216Y-69766087D01*
X183054746Y-69769855D01*
X183054742Y-69769860D01*
X182904491Y-69933077D01*
X182904488Y-69933080D01*
X182901021Y-69936847D01*
X182898226Y-69941124D01*
X182898219Y-69941134D01*
X182776878Y-70126862D01*
X182774076Y-70131151D01*
X182772021Y-70135835D01*
X182772016Y-70135845D01*
X182682903Y-70339003D01*
X182680843Y-70343700D01*
X182679585Y-70348665D01*
X182679584Y-70348670D01*
X182625125Y-70563720D01*
X182625123Y-70563729D01*
X182623866Y-70568695D01*
X182623442Y-70573802D01*
X182623441Y-70573813D01*
X182605200Y-70793955D01*
X182604700Y-70800000D01*
X152439872Y-70800000D01*
X152548424Y-70633849D01*
X152641657Y-70421300D01*
X152698634Y-70196305D01*
X152717800Y-69965000D01*
X152698634Y-69733695D01*
X152641657Y-69508700D01*
X152548424Y-69296151D01*
X152421479Y-69101847D01*
X152418011Y-69098080D01*
X152418009Y-69098077D01*
X152374672Y-69051001D01*
X152326331Y-68998488D01*
X152297559Y-68945737D01*
X152296967Y-68885650D01*
X152324694Y-68832340D01*
X152374229Y-68798325D01*
X152446278Y-68771452D01*
X152461689Y-68763037D01*
X152562592Y-68687501D01*
X152575001Y-68675092D01*
X152650537Y-68574189D01*
X152658952Y-68558777D01*
X152703388Y-68439641D01*
X152706926Y-68424667D01*
X152712146Y-68376114D01*
X152712500Y-68369518D01*
X152712500Y-67691326D01*
X152709049Y-67678450D01*
X152696174Y-67675000D01*
X149928826Y-67675000D01*
X149915950Y-67678450D01*
X149912500Y-67691326D01*
X149912500Y-68369518D01*
X149912853Y-68376114D01*
X149918073Y-68424667D01*
X149921611Y-68439641D01*
X149966047Y-68558777D01*
X149974462Y-68574189D01*
X150049998Y-68675092D01*
X150062407Y-68687501D01*
X150163310Y-68763037D01*
X150178722Y-68771452D01*
X150250770Y-68798325D01*
X150300305Y-68832340D01*
X150328032Y-68885650D01*
X150327440Y-68945737D01*
X150298667Y-68998490D01*
X150206991Y-69098077D01*
X150206988Y-69098080D01*
X150203521Y-69101847D01*
X150200726Y-69106124D01*
X150200719Y-69106134D01*
X150079378Y-69291862D01*
X150076576Y-69296151D01*
X150074521Y-69300835D01*
X150074516Y-69300845D01*
X149985403Y-69504003D01*
X149983343Y-69508700D01*
X149982085Y-69513665D01*
X149982084Y-69513670D01*
X149927625Y-69728720D01*
X149927623Y-69728729D01*
X149926366Y-69733695D01*
X149925942Y-69738802D01*
X149925941Y-69738813D01*
X149907700Y-69958955D01*
X149907200Y-69965000D01*
X134225000Y-69965000D01*
X134225000Y-67158674D01*
X149912500Y-67158674D01*
X149915950Y-67171549D01*
X149928826Y-67175000D01*
X151046174Y-67175000D01*
X151059049Y-67171549D01*
X151062500Y-67158674D01*
X151562500Y-67158674D01*
X151565950Y-67171549D01*
X151578826Y-67175000D01*
X152696174Y-67175000D01*
X152709049Y-67171549D01*
X152712500Y-67158674D01*
X152712500Y-66480482D01*
X152712146Y-66473885D01*
X152706926Y-66425332D01*
X152703388Y-66410358D01*
X152658952Y-66291222D01*
X152650537Y-66275810D01*
X152575001Y-66174907D01*
X152562592Y-66162498D01*
X152461689Y-66086962D01*
X152446277Y-66078547D01*
X152327141Y-66034111D01*
X152312167Y-66030573D01*
X152263614Y-66025353D01*
X152257018Y-66025000D01*
X151578826Y-66025000D01*
X151565950Y-66028450D01*
X151562500Y-66041326D01*
X151562500Y-67158674D01*
X151062500Y-67158674D01*
X151062500Y-66041326D01*
X151059049Y-66028450D01*
X151046174Y-66025000D01*
X150367982Y-66025000D01*
X150361385Y-66025353D01*
X150312832Y-66030573D01*
X150297858Y-66034111D01*
X150178722Y-66078547D01*
X150163310Y-66086962D01*
X150062407Y-66162498D01*
X150049998Y-66174907D01*
X149974462Y-66275810D01*
X149966047Y-66291222D01*
X149921611Y-66410358D01*
X149918073Y-66425332D01*
X149912853Y-66473885D01*
X149912500Y-66480482D01*
X149912500Y-67158674D01*
X134225000Y-67158674D01*
X134225000Y-65725000D01*
X182604700Y-65725000D01*
X182605124Y-65730117D01*
X182623441Y-65951186D01*
X182623442Y-65951195D01*
X182623866Y-65956305D01*
X182625123Y-65961272D01*
X182625125Y-65961279D01*
X182679224Y-66174907D01*
X182680843Y-66181300D01*
X182682903Y-66185996D01*
X182772016Y-66389154D01*
X182772019Y-66389159D01*
X182774076Y-66393849D01*
X182784862Y-66410358D01*
X182898219Y-66583865D01*
X182898222Y-66583869D01*
X182901021Y-66588153D01*
X183058216Y-66758913D01*
X183241374Y-66901470D01*
X183445497Y-67011936D01*
X183665019Y-67087298D01*
X183893951Y-67125500D01*
X184120916Y-67125500D01*
X184126049Y-67125500D01*
X184354981Y-67087298D01*
X184574503Y-67011936D01*
X184778626Y-66901470D01*
X184961784Y-66758913D01*
X184970130Y-66749846D01*
X185022754Y-66715990D01*
X185085210Y-66712141D01*
X185141592Y-66739278D01*
X185177545Y-66790493D01*
X185206204Y-66867331D01*
X185292454Y-66982546D01*
X185407669Y-67068796D01*
X185542517Y-67119091D01*
X185602127Y-67125500D01*
X187497872Y-67125499D01*
X187557483Y-67119091D01*
X187692331Y-67068796D01*
X187807546Y-66982546D01*
X187893796Y-66867331D01*
X187944091Y-66732483D01*
X187950500Y-66672873D01*
X187950499Y-64777128D01*
X187944091Y-64717517D01*
X187893796Y-64582669D01*
X187807546Y-64467454D01*
X187771541Y-64440501D01*
X187699431Y-64386519D01*
X187699430Y-64386518D01*
X187692331Y-64381204D01*
X187557483Y-64330909D01*
X187549770Y-64330079D01*
X187549767Y-64330079D01*
X187501180Y-64324855D01*
X187501169Y-64324854D01*
X187497873Y-64324500D01*
X187494550Y-64324500D01*
X185605439Y-64324500D01*
X185605420Y-64324500D01*
X185602128Y-64324501D01*
X185598850Y-64324853D01*
X185598838Y-64324854D01*
X185550231Y-64330079D01*
X185550225Y-64330080D01*
X185542517Y-64330909D01*
X185535252Y-64333618D01*
X185535246Y-64333620D01*
X185415980Y-64378104D01*
X185415978Y-64378104D01*
X185407669Y-64381204D01*
X185400572Y-64386516D01*
X185400568Y-64386519D01*
X185299550Y-64462141D01*
X185299546Y-64462144D01*
X185292454Y-64467454D01*
X185287144Y-64474546D01*
X185287141Y-64474550D01*
X185211519Y-64575568D01*
X185211516Y-64575572D01*
X185206204Y-64582669D01*
X185203104Y-64590978D01*
X185203105Y-64590978D01*
X185177545Y-64659507D01*
X185141593Y-64710720D01*
X185085213Y-64737858D01*
X185022759Y-64734011D01*
X184970135Y-64700158D01*
X184965259Y-64694862D01*
X184965257Y-64694860D01*
X184961784Y-64691087D01*
X184833163Y-64590978D01*
X184782672Y-64551679D01*
X184782671Y-64551678D01*
X184778626Y-64548530D01*
X184724497Y-64519237D01*
X184579007Y-64440501D01*
X184579002Y-64440499D01*
X184574503Y-64438064D01*
X184569657Y-64436400D01*
X184569654Y-64436399D01*
X184359834Y-64364368D01*
X184359833Y-64364367D01*
X184354981Y-64362702D01*
X184349931Y-64361859D01*
X184349922Y-64361857D01*
X184131111Y-64325344D01*
X184131102Y-64325343D01*
X184126049Y-64324500D01*
X183893951Y-64324500D01*
X183888898Y-64325343D01*
X183888888Y-64325344D01*
X183670077Y-64361857D01*
X183670065Y-64361859D01*
X183665019Y-64362702D01*
X183660169Y-64364366D01*
X183660165Y-64364368D01*
X183450345Y-64436399D01*
X183450337Y-64436402D01*
X183445497Y-64438064D01*
X183441001Y-64440496D01*
X183440992Y-64440501D01*
X183245882Y-64546090D01*
X183245878Y-64546092D01*
X183241374Y-64548530D01*
X183237334Y-64551674D01*
X183237327Y-64551679D01*
X183062263Y-64687936D01*
X183062255Y-64687943D01*
X183058216Y-64691087D01*
X183054746Y-64694855D01*
X183054742Y-64694860D01*
X182904491Y-64858077D01*
X182904488Y-64858080D01*
X182901021Y-64861847D01*
X182898226Y-64866124D01*
X182898219Y-64866134D01*
X182776878Y-65051862D01*
X182774076Y-65056151D01*
X182772021Y-65060835D01*
X182772016Y-65060845D01*
X182682903Y-65264003D01*
X182680843Y-65268700D01*
X182679585Y-65273665D01*
X182679584Y-65273670D01*
X182625125Y-65488720D01*
X182625123Y-65488729D01*
X182623866Y-65493695D01*
X182623442Y-65498802D01*
X182623441Y-65498813D01*
X182605200Y-65718955D01*
X182604700Y-65725000D01*
X134225000Y-65725000D01*
X134225000Y-41349000D01*
X134241613Y-41287000D01*
X134287000Y-41241613D01*
X134349000Y-41225000D01*
X260226000Y-41225000D01*
X260288000Y-41241613D01*
G37*
%TD.AperFunction*%
%TD*%
M02*
